
      <svg xmlns="http://www.w3.org/2000/svg" width="1200" height="800" viewBox="0 0 1200 800" style="background: #ffffff;">
        
        <path d="M 221.04,70.42 L 236.88,64.38" fill="none" stroke="#000000" stroke-width="0.5" stroke-linecap="round" stroke-linejoin="round"  />
<path d="M 236.88,64.38 L 246.96,55.78 L 250.69,46.63 L 249.14,37.87 L 242.58,29.62 L 230.52,22.56 L 213.28,18.22 L 199.27,17.72 L 185.62,19.60" fill="none" stroke="#000000" stroke-width="0.5" stroke-linecap="round" stroke-linejoin="round"  />
<path d="M 227.65,68.53 L 230.44,61.60 L 228.01,55.13 L 220.48,49.49 L 207.80,46.17 L 193.21,47.09" fill="none" stroke="#000000" stroke-width="0.5" stroke-linecap="round" stroke-linejoin="round"  />
<path d="M 1030.22,757.42 L 1015.24,763.26 L 996.15,765.44 L 976.67,762.89 L 963.12,757.42" fill="none" stroke="#000000" stroke-width="0.5" stroke-linecap="round" stroke-linejoin="round"  />
<path d="M 963.12,757.42 L 953.04,748.82 L 949.31,739.68 L 950.86,730.91 L 957.42,722.67 L 963.12,718.68" fill="none" stroke="#000000" stroke-width="0.5" stroke-linecap="round" stroke-linejoin="round"  />
<path d="M 972.35,761.57 L 969.56,754.65 L 971.99,748.18 L 974.39,745.74 L 977.50,743.59" fill="none" stroke="#000000" stroke-width="0.5" stroke-linecap="round" stroke-linejoin="round"  />
<path d="M 954.26,770.84 L 160.92,77.79" fill="none" stroke="#000000" stroke-width="0.5" stroke-linecap="round" stroke-linejoin="round"  />
<path d="M 954.26,754.24 L 160.92,61.19" fill="none" stroke="#000000" stroke-width="0.5" stroke-linecap="round" stroke-linejoin="round"  />
<path d="M 1047.50,754.66 L 1045.06,763.65 L 1032.61,775.41" fill="none" stroke="#000000" stroke-width="0.5" stroke-linecap="round" stroke-linejoin="round"  />
<path d="M 1039.08,721.87 L 1046.11,731.23 L 1047.50,738.05" fill="none" stroke="#000000" stroke-width="0.5" stroke-linecap="round" stroke-linejoin="round"  />
<path d="M 1047.50,738.05 L 1045.06,747.05 L 1032.61,758.81" fill="none" stroke="#000000" stroke-width="0.5" stroke-linecap="round" stroke-linejoin="round"  />
<path d="M 1032.61,758.81 L 1017.17,764.91 L 997.53,767.40 L 977.20,765.17 L 964.32,760.69 L 954.26,754.24" fill="none" stroke="#000000" stroke-width="0.5" stroke-linecap="round" stroke-linejoin="round"  />
<path d="M 1032.61,775.41 L 1017.17,781.51 L 997.53,784.00 L 977.20,781.77 L 964.32,777.29 L 954.26,770.84" fill="none" stroke="#000000" stroke-width="0.5" stroke-linecap="round" stroke-linejoin="round"  />
<path d="M 1039.08,721.87 L 245.74,28.83" fill="none" stroke="#000000" stroke-width="0.5" stroke-linecap="round" stroke-linejoin="round"  />
<path d="M 963.12,718.68 L 978.10,712.85 L 997.18,710.66 L 1016.66,713.21 L 1032.19,719.90 L 1041.24,728.67 L 1044.11,737.78 L 1041.82,746.48 L 1030.22,757.42" fill="none" stroke="#000000" stroke-width="0.5" stroke-linecap="round" stroke-linejoin="round"  />
<path d="M 245.74,28.83 L 233.53,21.40 L 216.05,16.59 L 195.60,16.00 L 184.35,17.78" fill="none" stroke="#000000" stroke-width="0.5" stroke-linecap="round" stroke-linejoin="round"  />
<path d="M 184.35,17.78 L 167.49,24.20 L 156.89,33.07 L 153.61,38.91 L 152.50,45.01" fill="none" stroke="#000000" stroke-width="0.5" stroke-linecap="round" stroke-linejoin="round"  />
<path d="M 152.50,45.01 L 154.94,54.00 L 160.92,61.19" fill="none" stroke="#000000" stroke-width="0.5" stroke-linecap="round" stroke-linejoin="round"  />
<path d="M 185.62,19.60 L 169.41,25.86 L 159.52,34.49 L 155.95,43.63 L 157.64,52.38 L 164.33,60.61 L 166.91,62.56 L 169.78,64.38" fill="none" stroke="#000000" stroke-width="0.5" stroke-linecap="round" stroke-linejoin="round"  />
<path d="M 169.78,64.38 L 184.76,70.22 L 203.85,72.40 L 212.60,71.87 L 221.04,70.42" fill="none" stroke="#000000" stroke-width="0.5" stroke-linecap="round" stroke-linejoin="round"  />
<path d="M 152.50,61.61 L 154.94,70.60 L 160.92,77.79" fill="none" stroke="#000000" stroke-width="0.5" stroke-linecap="round" stroke-linejoin="round"  />
<path d="M 977.50,743.59 L 989.22,739.61 L 1004.05,739.59 L 1016.67,744.09 L 1022.93,750.77 L 1023.30,757.58 L 1022.38,759.62 L 1020.99,761.57" fill="none" stroke="#000000" stroke-width="0.5" stroke-linecap="round" stroke-linejoin="round"  />
<path d="M 193.21,47.09 L 181.59,52.26 L 176.58,59.06 L 176.51,63.91 L 179.01,68.53" fill="none" stroke="#000000" stroke-width="0.5" stroke-linecap="round" stroke-linejoin="round"  />
        <path d="M 1047.50,738.05 L 1047.50,754.66" fill="none" stroke="#000000" stroke-width="0.5" stroke-linecap="round" stroke-linejoin="round"  />
<path d="M 152.50,45.01 L 152.50,61.61" fill="none" stroke="#000000" stroke-width="0.5" stroke-linecap="round" stroke-linejoin="round"  />
      </svg>
    