
      <svg xmlns="http://www.w3.org/2000/svg" width="1200" height="800" viewBox="0 0 1200 800" style="background: transparent;">
        
        <path d="M 457.68,667.21 L 552.35,612.55" fill="none" stroke="#ffffff" stroke-width="2.0" stroke-linecap="round" stroke-linejoin="round"  />
<path d="M 567.50,656.28 L 552.35,612.55" fill="none" stroke="#ffffff" stroke-width="2.0" stroke-linecap="round" stroke-linejoin="round"  />
<path d="M 567.50,656.28 L 453.89,721.87" fill="none" stroke="#ffffff" stroke-width="2.0" stroke-linecap="round" stroke-linejoin="round"  />
<path d="M 453.89,721.87 L 510.69,710.94" fill="none" stroke="#ffffff" stroke-width="2.0" stroke-linecap="round" stroke-linejoin="round"  />
<path d="M 510.69,710.94 L 497.33,705.53" fill="none" stroke="#ffffff" stroke-width="2.0" stroke-linecap="round" stroke-linejoin="round"  />
<path d="M 497.33,705.53 L 605.37,643.16" fill="none" stroke="#ffffff" stroke-width="2.0" stroke-linecap="round" stroke-linejoin="round"  />
<path d="M 605.37,643.16 L 609.15,645.35" fill="none" stroke="#ffffff" stroke-width="2.0" stroke-linecap="round" stroke-linejoin="round"  />
<path d="M 514.48,700.00 L 609.15,645.35" fill="none" stroke="#ffffff" stroke-width="2.0" stroke-linecap="round" stroke-linejoin="round"  />
<path d="M 514.48,700.00 L 552.35,721.87" fill="none" stroke="#ffffff" stroke-width="2.0" stroke-linecap="round" stroke-linejoin="round"  />
<path d="M 1173.40,363.31 L 552.35,721.87" fill="none" stroke="#ffffff" stroke-width="2.0" stroke-linecap="round" stroke-linejoin="round"  />
<path d="M 647.65,59.77 L 1173.40,363.31" fill="none" stroke="#ffffff" stroke-width="2.0" stroke-linecap="round" stroke-linejoin="round"  />
<path d="M 647.65,59.77 L 26.60,418.33" fill="none" stroke="#ffffff" stroke-width="2.0" stroke-linecap="round" stroke-linejoin="round"  />
<path d="M 26.60,418.33 L 64.47,440.19" fill="none" stroke="#ffffff" stroke-width="2.0" stroke-linecap="round" stroke-linejoin="round"  />
<path d="M 64.47,440.19 L 159.14,385.53" fill="none" stroke="#ffffff" stroke-width="2.0" stroke-linecap="round" stroke-linejoin="round"  />
<path d="M 162.93,387.72 L 159.14,385.53" fill="none" stroke="#ffffff" stroke-width="2.0" stroke-linecap="round" stroke-linejoin="round"  />
<path d="M 54.89,450.09 L 162.93,387.72" fill="none" stroke="#ffffff" stroke-width="2.0" stroke-linecap="round" stroke-linejoin="round"  />
<path d="M 45.54,442.38 L 54.89,450.09" fill="none" stroke="#ffffff" stroke-width="2.0" stroke-linecap="round" stroke-linejoin="round"  />
<path d="M 26.60,475.17 L 45.54,442.38" fill="none" stroke="#ffffff" stroke-width="2.0" stroke-linecap="round" stroke-linejoin="round"  />
<path d="M 140.21,409.58 L 26.60,475.17" fill="none" stroke="#ffffff" stroke-width="2.0" stroke-linecap="round" stroke-linejoin="round"  />
<path d="M 140.21,409.58 L 215.95,418.33" fill="none" stroke="#ffffff" stroke-width="2.0" stroke-linecap="round" stroke-linejoin="round"  />
<path d="M 121.27,472.99 L 215.95,418.33" fill="none" stroke="#ffffff" stroke-width="2.0" stroke-linecap="round" stroke-linejoin="round"  />
<path d="M 121.27,472.99 L 457.68,667.21" fill="none" stroke="#ffffff" stroke-width="2.0" stroke-linecap="round" stroke-linejoin="round"  />
<path d="M 16.00,424.45 L 26.60,418.33" fill="none" stroke="#ffffff" stroke-width="2.0" stroke-linecap="round" stroke-linejoin="round"  />
<path d="M 457.68,678.14 L 493.65,698.91" fill="none" stroke="#ffffff" stroke-width="2.0" stroke-linecap="round" stroke-linejoin="round"  />
<path d="M 508.80,707.66 L 514.48,710.94" fill="none" stroke="#ffffff" stroke-width="2.0" stroke-linecap="round" stroke-linejoin="round"  />
<path d="M 457.68,678.14 L 457.68,667.21" fill="none" stroke="#ffffff" stroke-width="2.0" stroke-linecap="round" stroke-linejoin="round"  />
<path d="M 121.27,483.92 L 121.27,472.99" fill="none" stroke="#ffffff" stroke-width="2.0" stroke-linecap="round" stroke-linejoin="round"  />
<path d="M 73.94,456.59 L 121.27,483.92" fill="none" stroke="#ffffff" stroke-width="2.0" stroke-linecap="round" stroke-linejoin="round"  />
<path d="M 64.47,444.56 L 64.47,440.19" fill="none" stroke="#ffffff" stroke-width="2.0" stroke-linecap="round" stroke-linejoin="round"  />
<path d="M 562.95,740.23 L 507.67,708.31" fill="none" stroke="#ffffff" stroke-width="2.0" stroke-linecap="round" stroke-linejoin="round"  />
<path d="M 492.52,699.57 L 72.80,457.24" fill="none" stroke="#ffffff" stroke-width="2.0" stroke-linecap="round" stroke-linejoin="round"  />
<path d="M 57.66,448.50 L 16.00,424.45" fill="none" stroke="#ffffff" stroke-width="2.0" stroke-linecap="round" stroke-linejoin="round"  />
<path d="M 562.95,740.23 L 552.35,721.87" fill="none" stroke="#ffffff" stroke-width="2.0" stroke-linecap="round" stroke-linejoin="round"  />
<path d="M 514.48,710.94 L 514.48,700.00" fill="none" stroke="#ffffff" stroke-width="2.0" stroke-linecap="round" stroke-linejoin="round"  />
<path d="M 1184.00,381.67 L 562.95,740.23" fill="none" stroke="#ffffff" stroke-width="2.0" stroke-linecap="round" stroke-linejoin="round"  />
<path d="M 1184.00,381.67 L 1173.40,363.31" fill="none" stroke="#ffffff" stroke-width="2.0" stroke-linecap="round" stroke-linejoin="round"  />
<path d="M 159.14,389.91 L 159.14,385.53" fill="none" stroke="#ffffff" stroke-width="2.0" stroke-linecap="round" stroke-linejoin="round"  />
<path d="M 457.68,678.14 L 552.35,623.48" fill="none" stroke="#ffffff" stroke-width="2.0" stroke-linecap="round" stroke-linejoin="round"  />
<path d="M 552.35,623.48 L 552.35,621.30" fill="none" stroke="#ffffff" stroke-width="2.0" stroke-linecap="round" stroke-linejoin="round"  />
<path d="M 552.35,621.30 L 552.35,612.55" fill="none" stroke="#ffffff" stroke-width="2.0" stroke-linecap="round" stroke-linejoin="round"  />
<path d="M 605.37,647.53 L 605.37,643.16" fill="none" stroke="#ffffff" stroke-width="2.0" stroke-linecap="round" stroke-linejoin="round"  />
<path d="M 552.35,623.48 L 553.30,624.03" fill="none" stroke="#ffffff" stroke-width="2.0" stroke-linecap="round" stroke-linejoin="round"  />
<path d="M 514.48,704.38 L 506.24,709.14" fill="none" stroke="#ffffff" stroke-width="2.0" stroke-linecap="round" stroke-linejoin="round"  />
<path d="M 510.69,719.68 L 453.89,730.61" fill="none" stroke="#ffffff" stroke-width="2.0" stroke-linecap="round" stroke-linejoin="round"  />
<path d="M 552.35,621.30 L 564.97,657.74" fill="none" stroke="#ffffff" stroke-width="2.0" stroke-linecap="round" stroke-linejoin="round"  />
<path d="M 510.69,719.68 L 510.69,710.94" fill="none" stroke="#ffffff" stroke-width="2.0" stroke-linecap="round" stroke-linejoin="round"  />
<path d="M 453.89,730.61 L 453.89,721.87" fill="none" stroke="#ffffff" stroke-width="2.0" stroke-linecap="round" stroke-linejoin="round"  />
<path d="M 203.32,425.62 L 140.21,418.33" fill="none" stroke="#ffffff" stroke-width="2.0" stroke-linecap="round" stroke-linejoin="round"  />
<path d="M 26.60,483.92 L 140.21,418.33" fill="none" stroke="#ffffff" stroke-width="2.0" stroke-linecap="round" stroke-linejoin="round"  />
<path d="M 140.21,418.33 L 140.21,409.58" fill="none" stroke="#ffffff" stroke-width="2.0" stroke-linecap="round" stroke-linejoin="round"  />
<path d="M 26.60,483.92 L 26.60,475.17" fill="none" stroke="#ffffff" stroke-width="2.0" stroke-linecap="round" stroke-linejoin="round"  />
        
      </svg>
    