
      <svg xmlns="http://www.w3.org/2000/svg" width="1200" height="800" viewBox="0 0 1200 800" style="background: transparent;">
        
        <path d="M 608.39,245.42 L 600.66,242.42" fill="none" stroke="#ffffff" stroke-width="0.5" stroke-linecap="round" stroke-linejoin="round"  />
<path d="M 600.66,242.42 L 595.50,247.60 L 593.28,262.07 L 597.46,285.29 L 608.39,304.53" fill="none" stroke="#ffffff" stroke-width="0.5" stroke-linecap="round" stroke-linejoin="round"  />
<path d="M 608.39,560.04 L 600.66,557.04" fill="none" stroke="#ffffff" stroke-width="0.5" stroke-linecap="round" stroke-linejoin="round"  />
<path d="M 600.66,557.04 L 595.50,562.22 L 593.28,576.68 L 597.46,599.91 L 608.39,619.15" fill="none" stroke="#ffffff" stroke-width="0.5" stroke-linecap="round" stroke-linejoin="round"  />
<path d="M 596.25,70.05 L 578.32,78.02 L 572.58,88.11" fill="none" stroke="#ffffff" stroke-width="0.5" stroke-linecap="round" stroke-linejoin="round"  />
<path d="M 572.58,88.11 L 576.44,96.49 L 589.13,104.06 L 611.70,108.27 L 635.26,106.18" fill="none" stroke="#ffffff" stroke-width="0.5" stroke-linecap="round" stroke-linejoin="round"  />
<path d="M 392.70,108.74 L 392.70,737.98" fill="none" stroke="#ffffff" stroke-width="0.5" stroke-linecap="round" stroke-linejoin="round"  />
<path d="M 392.70,108.74 L 783.22,16.00" fill="none" stroke="#ffffff" stroke-width="0.5" stroke-linecap="round" stroke-linejoin="round"  />
<path d="M 783.22,16.00 L 783.22,56.07" fill="none" stroke="#ffffff" stroke-width="0.5" stroke-linecap="round" stroke-linejoin="round"  />
<path d="M 766.22,40.33 L 783.22,16.00" fill="none" stroke="#ffffff" stroke-width="0.5" stroke-linecap="round" stroke-linejoin="round"  />
<path d="M 444.57,116.71 L 444.57,745.95" fill="none" stroke="#ffffff" stroke-width="0.5" stroke-linecap="round" stroke-linejoin="round"  />
<path d="M 444.57,116.71 L 392.70,108.74" fill="none" stroke="#ffffff" stroke-width="0.5" stroke-linecap="round" stroke-linejoin="round"  />
<path d="M 444.57,745.95 L 392.70,737.98" fill="none" stroke="#ffffff" stroke-width="0.5" stroke-linecap="round" stroke-linejoin="round"  />
<path d="M 766.22,40.33 L 807.30,78.37" fill="none" stroke="#ffffff" stroke-width="0.5" stroke-linecap="round" stroke-linejoin="round"  />
<path d="M 807.30,78.37 L 807.30,707.61" fill="none" stroke="#ffffff" stroke-width="0.5" stroke-linecap="round" stroke-linejoin="round"  />
<path d="M 718.70,728.65 L 807.30,707.61" fill="none" stroke="#ffffff" stroke-width="0.5" stroke-linecap="round" stroke-linejoin="round"  />
<path d="M 574.25,762.96 L 718.70,728.65" fill="none" stroke="#ffffff" stroke-width="0.5" stroke-linecap="round" stroke-linejoin="round"  />
<path d="M 485.65,784.00 L 574.25,762.96" fill="none" stroke="#ffffff" stroke-width="0.5" stroke-linecap="round" stroke-linejoin="round"  />
<path d="M 444.57,745.95 L 485.65,784.00" fill="none" stroke="#ffffff" stroke-width="0.5" stroke-linecap="round" stroke-linejoin="round"  />
<path d="M 635.26,106.18 L 653.19,98.21 L 658.93,88.11" fill="none" stroke="#ffffff" stroke-width="0.5" stroke-linecap="round" stroke-linejoin="round"  />
<path d="M 658.93,88.11 L 655.07,79.74 L 642.38,72.17 L 619.81,67.95 L 596.25,70.05" fill="none" stroke="#ffffff" stroke-width="0.5" stroke-linecap="round" stroke-linejoin="round"  />
<path d="M 444.57,116.71 L 485.65,154.76" fill="none" stroke="#ffffff" stroke-width="0.5" stroke-linecap="round" stroke-linejoin="round"  />
<path d="M 485.65,154.76 L 485.65,784.00" fill="none" stroke="#ffffff" stroke-width="0.5" stroke-linecap="round" stroke-linejoin="round"  />
<path d="M 574.25,171.86 L 718.70,137.55" fill="none" stroke="#ffffff" stroke-width="0.5" stroke-linecap="round" stroke-linejoin="round"  />
<path d="M 574.25,448.34 L 718.70,414.03" fill="none" stroke="#ffffff" stroke-width="0.5" stroke-linecap="round" stroke-linejoin="round"  />
<path d="M 574.25,171.86 L 574.25,448.34" fill="none" stroke="#ffffff" stroke-width="0.5" stroke-linecap="round" stroke-linejoin="round"  />
<path d="M 574.25,486.48 L 718.70,452.17" fill="none" stroke="#ffffff" stroke-width="0.5" stroke-linecap="round" stroke-linejoin="round"  />
<path d="M 485.65,154.76 L 807.30,78.37" fill="none" stroke="#ffffff" stroke-width="0.5" stroke-linecap="round" stroke-linejoin="round"  />
<path d="M 574.25,486.48 L 574.25,762.96" fill="none" stroke="#ffffff" stroke-width="0.5" stroke-linecap="round" stroke-linejoin="round"  />
<path d="M 786.98,515.40 L 718.70,452.17" fill="none" stroke="#ffffff" stroke-width="0.5" stroke-linecap="round" stroke-linejoin="round"  />
<path d="M 642.52,549.70 L 574.25,486.48" fill="none" stroke="#ffffff" stroke-width="0.5" stroke-linecap="round" stroke-linejoin="round"  />
<path d="M 642.52,549.70 L 786.98,515.40" fill="none" stroke="#ffffff" stroke-width="0.5" stroke-linecap="round" stroke-linejoin="round"  />
<path d="M 718.70,728.65 L 786.98,658.41" fill="none" stroke="#ffffff" stroke-width="0.5" stroke-linecap="round" stroke-linejoin="round"  />
<path d="M 642.52,692.71 L 786.98,658.41" fill="none" stroke="#ffffff" stroke-width="0.5" stroke-linecap="round" stroke-linejoin="round"  />
<path d="M 574.25,762.96 L 642.52,692.71" fill="none" stroke="#ffffff" stroke-width="0.5" stroke-linecap="round" stroke-linejoin="round"  />
<path d="M 608.39,619.15 L 616.12,622.15" fill="none" stroke="#ffffff" stroke-width="0.5" stroke-linecap="round" stroke-linejoin="round"  />
<path d="M 616.12,622.15 L 621.28,616.97 L 623.49,602.50 L 619.31,579.28 L 608.39,560.04" fill="none" stroke="#ffffff" stroke-width="0.5" stroke-linecap="round" stroke-linejoin="round"  />
<path d="M 786.98,658.41 L 786.98,515.40" fill="none" stroke="#ffffff" stroke-width="0.5" stroke-linecap="round" stroke-linejoin="round"  />
<path d="M 642.52,692.71 L 642.52,549.70" fill="none" stroke="#ffffff" stroke-width="0.5" stroke-linecap="round" stroke-linejoin="round"  />
<path d="M 718.70,414.03 L 786.98,343.79" fill="none" stroke="#ffffff" stroke-width="0.5" stroke-linecap="round" stroke-linejoin="round"  />
<path d="M 642.52,378.09 L 786.98,343.79" fill="none" stroke="#ffffff" stroke-width="0.5" stroke-linecap="round" stroke-linejoin="round"  />
<path d="M 574.25,448.34 L 642.52,378.09" fill="none" stroke="#ffffff" stroke-width="0.5" stroke-linecap="round" stroke-linejoin="round"  />
<path d="M 786.98,200.78 L 786.98,343.79" fill="none" stroke="#ffffff" stroke-width="0.5" stroke-linecap="round" stroke-linejoin="round"  />
<path d="M 642.52,235.08 L 786.98,200.78" fill="none" stroke="#ffffff" stroke-width="0.5" stroke-linecap="round" stroke-linejoin="round"  />
<path d="M 642.52,235.08 L 642.52,378.09" fill="none" stroke="#ffffff" stroke-width="0.5" stroke-linecap="round" stroke-linejoin="round"  />
<path d="M 718.70,137.55 L 786.98,200.78" fill="none" stroke="#ffffff" stroke-width="0.5" stroke-linecap="round" stroke-linejoin="round"  />
<path d="M 574.25,171.86 L 642.52,235.08" fill="none" stroke="#ffffff" stroke-width="0.5" stroke-linecap="round" stroke-linejoin="round"  />
<path d="M 608.39,304.53 L 616.12,307.53" fill="none" stroke="#ffffff" stroke-width="0.5" stroke-linecap="round" stroke-linejoin="round"  />
<path d="M 616.12,307.53 L 621.28,302.35 L 623.49,287.88 L 619.31,264.66 L 608.39,245.42" fill="none" stroke="#ffffff" stroke-width="0.5" stroke-linecap="round" stroke-linejoin="round"  />
        
      </svg>
    