
      <svg xmlns="http://www.w3.org/2000/svg" width="1200" height="800" viewBox="0 0 1200 800" style="background: transparent;">
        
        <path d="M 734.44,175.60 L 733.22,169.00 L 729.77,162.74 L 727.63,161.00 L 725.70,160.78" fill="none" stroke="#ffffff" stroke-width="2.0" stroke-linecap="round" stroke-linejoin="round"  />
<path d="M 725.70,160.78 L 724.07,162.63 L 723.60,165.75" fill="none" stroke="#ffffff" stroke-width="2.0" stroke-linecap="round" stroke-linejoin="round"  />
<path d="M 729.55,163.76 L 729.60,162.56" fill="none" stroke="#ffffff" stroke-width="2.0" stroke-linecap="round" stroke-linejoin="round"  />
<path d="M 845.07,364.64 L 843.85,358.04 L 840.40,351.78 L 838.26,350.04 L 836.33,349.82" fill="none" stroke="#ffffff" stroke-width="2.0" stroke-linecap="round" stroke-linejoin="round"  />
<path d="M 836.33,349.82 L 834.70,351.67 L 834.23,354.79" fill="none" stroke="#ffffff" stroke-width="2.0" stroke-linecap="round" stroke-linejoin="round"  />
<path d="M 840.18,352.80 L 840.24,351.59" fill="none" stroke="#ffffff" stroke-width="2.0" stroke-linecap="round" stroke-linejoin="round"  />
<path d="M 955.70,376.65 L 954.49,370.04 L 951.04,363.79 L 948.89,362.05 L 946.97,361.83" fill="none" stroke="#ffffff" stroke-width="2.0" stroke-linecap="round" stroke-linejoin="round"  />
<path d="M 946.97,361.83 L 945.34,363.68 L 944.87,366.80" fill="none" stroke="#ffffff" stroke-width="2.0" stroke-linecap="round" stroke-linejoin="round"  />
<path d="M 950.82,364.81 L 950.87,363.60" fill="none" stroke="#ffffff" stroke-width="2.0" stroke-linecap="round" stroke-linejoin="round"  />
<path d="M 734.44,264.12 L 733.22,257.51 L 729.77,251.25 L 727.63,249.51 L 725.70,249.29" fill="none" stroke="#ffffff" stroke-width="2.0" stroke-linecap="round" stroke-linejoin="round"  />
<path d="M 725.70,249.29 L 724.07,251.15 L 723.60,254.27" fill="none" stroke="#ffffff" stroke-width="2.0" stroke-linecap="round" stroke-linejoin="round"  />
<path d="M 729.55,252.28 L 729.60,251.07" fill="none" stroke="#ffffff" stroke-width="2.0" stroke-linecap="round" stroke-linejoin="round"  />
<path d="M 844.94,274.08 L 842.84,267.05 L 839.16,262.08 L 837.67,261.30 L 836.33,261.30" fill="none" stroke="#ffffff" stroke-width="2.0" stroke-linecap="round" stroke-linejoin="round"  />
<path d="M 836.33,261.30 L 834.70,263.16 L 834.23,266.28" fill="none" stroke="#ffffff" stroke-width="2.0" stroke-linecap="round" stroke-linejoin="round"  />
<path d="M 840.18,264.28 L 840.24,263.08" fill="none" stroke="#ffffff" stroke-width="2.0" stroke-linecap="round" stroke-linejoin="round"  />
<path d="M 521.97,728.86 L 512.63,726.97 L 502.21,727.38 L 499.02,728.04 L 496.04,728.93" fill="none" stroke="#ffffff" stroke-width="2.0" stroke-linecap="round" stroke-linejoin="round"  />
<path d="M 484.75,740.33 L 487.89,741.11 L 491.27,743.35" fill="none" stroke="#ffffff" stroke-width="2.0" stroke-linecap="round" stroke-linejoin="round"  />
<path d="M 521.01,727.58 L 519.55,726.48" fill="none" stroke="#ffffff" stroke-width="2.0" stroke-linecap="round" stroke-linejoin="round"  />
<path d="M 519.55,726.48 L 513.76,724.33 L 506.05,724.07 L 502.02,724.96 L 498.67,726.48" fill="none" stroke="#ffffff" stroke-width="2.0" stroke-linecap="round" stroke-linejoin="round"  />
<path d="M 498.67,726.48 L 495.44,730.11" fill="none" stroke="#ffffff" stroke-width="2.0" stroke-linecap="round" stroke-linejoin="round"  />
<path d="M 189.62,426.88 L 180.28,424.99 L 169.86,425.40 L 166.67,426.06 L 163.68,426.95" fill="none" stroke="#ffffff" stroke-width="2.0" stroke-linecap="round" stroke-linejoin="round"  />
<path d="M 152.40,438.35 L 155.54,439.13 L 158.91,441.37" fill="none" stroke="#ffffff" stroke-width="2.0" stroke-linecap="round" stroke-linejoin="round"  />
<path d="M 188.66,425.60 L 187.20,424.50" fill="none" stroke="#ffffff" stroke-width="2.0" stroke-linecap="round" stroke-linejoin="round"  />
<path d="M 187.20,424.50 L 181.41,422.35 L 173.70,422.09 L 169.66,422.98 L 166.32,424.50" fill="none" stroke="#ffffff" stroke-width="2.0" stroke-linecap="round" stroke-linejoin="round"  />
<path d="M 166.32,424.50 L 163.09,428.13" fill="none" stroke="#ffffff" stroke-width="2.0" stroke-linecap="round" stroke-linejoin="round"  />
<path d="M 860.42,261.78 L 861.42,268.56" fill="none" stroke="#ffffff" stroke-width="2.0" stroke-linecap="round" stroke-linejoin="round"  />
<path d="M 867.65,256.74 L 865.31,255.24 L 863.23,255.15" fill="none" stroke="#ffffff" stroke-width="2.0" stroke-linecap="round" stroke-linejoin="round"  />
<path d="M 863.23,255.15 L 861.26,257.12 L 860.42,261.78" fill="none" stroke="#ffffff" stroke-width="2.0" stroke-linecap="round" stroke-linejoin="round"  />
<path d="M 379.86,443.41 L 376.12,438.35 L 373.19,430.24 L 372.77,427.66 L 372.63,425.23" fill="none" stroke="#ffffff" stroke-width="2.0" stroke-linecap="round" stroke-linejoin="round"  />
<path d="M 372.63,425.23 L 373.73,420.08 L 375.43,418.60" fill="none" stroke="#ffffff" stroke-width="2.0" stroke-linecap="round" stroke-linejoin="round"  />
<path d="M 375.43,418.60 L 378.19,418.99 L 379.86,420.19" fill="none" stroke="#ffffff" stroke-width="2.0" stroke-linecap="round" stroke-linejoin="round"  />
<path d="M 606.50,410.85 L 607.61,413.61" fill="none" stroke="#ffffff" stroke-width="2.0" stroke-linecap="round" stroke-linejoin="round"  />
<path d="M 607.61,413.61 L 610.36,414.46 L 613.89,412.98 L 616.54,409.36 L 616.91,407.36" fill="none" stroke="#ffffff" stroke-width="2.0" stroke-linecap="round" stroke-linejoin="round"  />
<path d="M 606.50,499.36 L 607.61,502.13" fill="none" stroke="#ffffff" stroke-width="2.0" stroke-linecap="round" stroke-linejoin="round"  />
<path d="M 607.61,502.13 L 610.36,502.98 L 613.89,501.49 L 616.54,497.87 L 616.91,495.88" fill="none" stroke="#ffffff" stroke-width="2.0" stroke-linecap="round" stroke-linejoin="round"  />
<path d="M 697.21,468.97 L 698.32,471.73" fill="none" stroke="#ffffff" stroke-width="2.0" stroke-linecap="round" stroke-linejoin="round"  />
<path d="M 698.32,471.73 L 701.08,472.58 L 704.61,471.10 L 707.26,467.48 L 707.62,465.48" fill="none" stroke="#ffffff" stroke-width="2.0" stroke-linecap="round" stroke-linejoin="round"  />
<path d="M 697.21,380.45 L 698.32,383.21" fill="none" stroke="#ffffff" stroke-width="2.0" stroke-linecap="round" stroke-linejoin="round"  />
<path d="M 698.32,383.21 L 701.08,384.06 L 704.61,382.58 L 707.26,378.96 L 707.62,376.96" fill="none" stroke="#ffffff" stroke-width="2.0" stroke-linecap="round" stroke-linejoin="round"  />
<path d="M 914.64,448.97 L 920.02,448.83 L 923.52,446.75 L 923.87,446.07 L 923.99,445.36" fill="none" stroke="#ffffff" stroke-width="2.0" stroke-linecap="round" stroke-linejoin="round"  />
<path d="M 923.99,445.36 L 922.98,443.37" fill="none" stroke="#ffffff" stroke-width="2.0" stroke-linecap="round" stroke-linejoin="round"  />
<path d="M 188.66,422.70 L 183.97,420.11 L 176.75,419.00 L 169.19,420.24 L 164.31,423.25 L 162.84,426.68" fill="none" stroke="#ffffff" stroke-width="2.0" stroke-linecap="round" stroke-linejoin="round"  />
<path d="M 162.84,426.68 L 164.86,430.67" fill="none" stroke="#ffffff" stroke-width="2.0" stroke-linecap="round" stroke-linejoin="round"  />
<path d="M 521.01,724.68 L 516.32,722.09 L 509.10,720.98 L 501.54,722.22 L 496.66,725.23 L 495.19,728.66" fill="none" stroke="#ffffff" stroke-width="2.0" stroke-linecap="round" stroke-linejoin="round"  />
<path d="M 495.19,728.66 L 497.21,732.65" fill="none" stroke="#ffffff" stroke-width="2.0" stroke-linecap="round" stroke-linejoin="round"  />
<path d="M 357.81,428.31 L 356.15,427.71" fill="none" stroke="#ffffff" stroke-width="2.0" stroke-linecap="round" stroke-linejoin="round"  />
<path d="M 356.15,427.71 L 355.16,429.32 L 355.71,433.50 L 356.64,435.54 L 357.81,437.01" fill="none" stroke="#ffffff" stroke-width="2.0" stroke-linecap="round" stroke-linejoin="round"  />
<path d="M 247.17,425.01 L 245.07,421.50 L 244.65,416.77 L 245.00,416.07 L 245.51,415.70" fill="none" stroke="#ffffff" stroke-width="2.0" stroke-linecap="round" stroke-linejoin="round"  />
<path d="M 245.51,415.70 L 247.17,416.30" fill="none" stroke="#ffffff" stroke-width="2.0" stroke-linecap="round" stroke-linejoin="round"  />
<path d="M 357.81,525.53 L 355.71,522.02 L 355.28,517.30 L 355.64,516.60 L 356.15,516.23" fill="none" stroke="#ffffff" stroke-width="2.0" stroke-linecap="round" stroke-linejoin="round"  />
<path d="M 356.15,516.23 L 357.81,516.82" fill="none" stroke="#ffffff" stroke-width="2.0" stroke-linecap="round" stroke-linejoin="round"  />
<path d="M 247.17,327.78 L 245.51,327.19" fill="none" stroke="#ffffff" stroke-width="2.0" stroke-linecap="round" stroke-linejoin="round"  />
<path d="M 245.51,327.19 L 244.53,328.80 L 245.07,332.98 L 246.01,335.01 L 247.17,336.49" fill="none" stroke="#ffffff" stroke-width="2.0" stroke-linecap="round" stroke-linejoin="round"  />
<path d="M 247.17,336.49 L 248.83,337.09" fill="none" stroke="#ffffff" stroke-width="2.0" stroke-linecap="round" stroke-linejoin="round"  />
<path d="M 248.83,337.09 L 249.82,335.47 L 249.27,331.30 L 248.34,329.26 L 247.17,327.78" fill="none" stroke="#ffffff" stroke-width="2.0" stroke-linecap="round" stroke-linejoin="round"  />
<path d="M 357.81,516.82 L 359.91,520.33 L 360.33,525.06 L 359.98,525.76 L 359.47,526.13" fill="none" stroke="#ffffff" stroke-width="2.0" stroke-linecap="round" stroke-linejoin="round"  />
<path d="M 359.47,526.13 L 357.81,525.53" fill="none" stroke="#ffffff" stroke-width="2.0" stroke-linecap="round" stroke-linejoin="round"  />
<path d="M 247.17,416.30 L 249.27,419.81 L 249.70,424.53 L 249.34,425.23 L 248.83,425.60" fill="none" stroke="#ffffff" stroke-width="2.0" stroke-linecap="round" stroke-linejoin="round"  />
<path d="M 248.83,425.60 L 247.17,425.01" fill="none" stroke="#ffffff" stroke-width="2.0" stroke-linecap="round" stroke-linejoin="round"  />
<path d="M 357.81,437.01 L 359.47,437.61" fill="none" stroke="#ffffff" stroke-width="2.0" stroke-linecap="round" stroke-linejoin="round"  />
<path d="M 359.47,437.61 L 360.45,436.00 L 359.91,431.82 L 358.97,429.79 L 357.81,428.31" fill="none" stroke="#ffffff" stroke-width="2.0" stroke-linecap="round" stroke-linejoin="round"  />
<path d="M 414.86,418.19 L 161.98,188.42" fill="none" stroke="#ffffff" stroke-width="2.0" stroke-linecap="round" stroke-linejoin="round"  />
<path d="M 250.49,348.94 L 250.49,395.09" fill="none" stroke="#ffffff" stroke-width="2.0" stroke-linecap="round" stroke-linejoin="round"  />
<path d="M 250.49,395.09 L 402.96,533.62" fill="none" stroke="#ffffff" stroke-width="2.0" stroke-linecap="round" stroke-linejoin="round"  />
<path d="M 566.59,556.05 L 422.09,424.76" fill="none" stroke="#ffffff" stroke-width="2.0" stroke-linecap="round" stroke-linejoin="round"  />
<path d="M 238.59,338.13 L 402.96,487.48" fill="none" stroke="#ffffff" stroke-width="2.0" stroke-linecap="round" stroke-linejoin="round"  />
<path d="M 402.96,487.48 L 402.96,548.42" fill="none" stroke="#ffffff" stroke-width="2.0" stroke-linecap="round" stroke-linejoin="round"  />
<path d="M 238.59,399.07 L 402.96,548.42" fill="none" stroke="#ffffff" stroke-width="2.0" stroke-linecap="round" stroke-linejoin="round"  />
<path d="M 238.59,426.64 L 238.59,399.07" fill="none" stroke="#ffffff" stroke-width="2.0" stroke-linecap="round" stroke-linejoin="round"  />
<path d="M 460.56,628.32 L 238.59,426.64" fill="none" stroke="#ffffff" stroke-width="2.0" stroke-linecap="round" stroke-linejoin="round"  />
<path d="M 238.59,338.13 L 238.59,317.96" fill="none" stroke="#ffffff" stroke-width="2.0" stroke-linecap="round" stroke-linejoin="round"  />
<path d="M 232.64,428.64 L 460.56,635.72" fill="none" stroke="#ffffff" stroke-width="2.0" stroke-linecap="round" stroke-linejoin="round"  />
<path d="M 232.64,428.64 L 232.64,477.97" fill="none" stroke="#ffffff" stroke-width="2.0" stroke-linecap="round" stroke-linejoin="round"  />
<path d="M 232.64,477.97 L 460.56,685.06" fill="none" stroke="#ffffff" stroke-width="2.0" stroke-linecap="round" stroke-linejoin="round"  />
<path d="M 611.68,361.23 L 422.09,424.76" fill="none" stroke="#ffffff" stroke-width="2.0" stroke-linecap="round" stroke-linejoin="round"  />
<path d="M 611.68,361.23 L 604.45,354.66" fill="none" stroke="#ffffff" stroke-width="2.0" stroke-linecap="round" stroke-linejoin="round"  />
<path d="M 604.45,354.66 L 414.86,418.19" fill="none" stroke="#ffffff" stroke-width="2.0" stroke-linecap="round" stroke-linejoin="round"  />
<path d="M 144.14,194.40 L 161.98,188.42" fill="none" stroke="#ffffff" stroke-width="2.0" stroke-linecap="round" stroke-linejoin="round"  />
<path d="M 117.37,203.37 L 144.14,194.40" fill="none" stroke="#ffffff" stroke-width="2.0" stroke-linecap="round" stroke-linejoin="round"  />
<path d="M 117.37,203.37 L 128.21,213.22" fill="none" stroke="#ffffff" stroke-width="2.0" stroke-linecap="round" stroke-linejoin="round"  />
<path d="M 152.00,205.25 L 128.21,213.22" fill="none" stroke="#ffffff" stroke-width="2.0" stroke-linecap="round" stroke-linejoin="round"  />
<path d="M 152.00,205.25 L 156.67,194.70" fill="none" stroke="#ffffff" stroke-width="2.0" stroke-linecap="round" stroke-linejoin="round"  />
<path d="M 232.54,263.63 L 156.67,194.70" fill="none" stroke="#ffffff" stroke-width="2.0" stroke-linecap="round" stroke-linejoin="round"  />
<path d="M 213.41,261.05 L 232.54,263.63" fill="none" stroke="#ffffff" stroke-width="2.0" stroke-linecap="round" stroke-linejoin="round"  />
<path d="M 213.41,261.05 L 189.62,269.02" fill="none" stroke="#ffffff" stroke-width="2.0" stroke-linecap="round" stroke-linejoin="round"  />
<path d="M 189.62,269.02 L 232.64,274.82" fill="none" stroke="#ffffff" stroke-width="2.0" stroke-linecap="round" stroke-linejoin="round"  />
<path d="M 232.64,274.82 L 471.07,491.46" fill="none" stroke="#ffffff" stroke-width="2.0" stroke-linecap="round" stroke-linejoin="round"  />
<path d="M 460.56,515.20 L 471.07,491.46" fill="none" stroke="#ffffff" stroke-width="2.0" stroke-linecap="round" stroke-linejoin="round"  />
<path d="M 484.35,507.23 L 460.56,515.20" fill="none" stroke="#ffffff" stroke-width="2.0" stroke-linecap="round" stroke-linejoin="round"  />
<path d="M 484.35,507.23 L 489.03,496.68" fill="none" stroke="#ffffff" stroke-width="2.0" stroke-linecap="round" stroke-linejoin="round"  />
<path d="M 489.03,496.68 L 564.89,565.61" fill="none" stroke="#ffffff" stroke-width="2.0" stroke-linecap="round" stroke-linejoin="round"  />
<path d="M 545.77,563.03 L 564.89,565.61" fill="none" stroke="#ffffff" stroke-width="2.0" stroke-linecap="round" stroke-linejoin="round"  />
<path d="M 545.77,563.03 L 521.97,571.00" fill="none" stroke="#ffffff" stroke-width="2.0" stroke-linecap="round" stroke-linejoin="round"  />
<path d="M 532.81,580.85 L 521.97,571.00" fill="none" stroke="#ffffff" stroke-width="2.0" stroke-linecap="round" stroke-linejoin="round"  />
<path d="M 532.81,580.85 L 723.17,517.06" fill="none" stroke="#ffffff" stroke-width="2.0" stroke-linecap="round" stroke-linejoin="round"  />
<path d="M 720.01,514.19 L 723.17,517.06" fill="none" stroke="#ffffff" stroke-width="2.0" stroke-linecap="round" stroke-linejoin="round"  />
<path d="M 703.83,519.61 L 720.01,514.19" fill="none" stroke="#ffffff" stroke-width="2.0" stroke-linecap="round" stroke-linejoin="round"  />
<path d="M 690.98,521.11 L 694.57,522.73 L 699.96,522.57 L 702.57,521.36 L 703.83,519.61" fill="none" stroke="#ffffff" stroke-width="2.0" stroke-linecap="round" stroke-linejoin="round"  />
<path d="M 699.31,515.51 L 693.93,515.65 L 690.44,517.73 L 690.09,518.41 L 689.97,519.12" fill="none" stroke="#ffffff" stroke-width="2.0" stroke-linecap="round" stroke-linejoin="round"  />
<path d="M 689.97,519.12 L 690.98,521.11" fill="none" stroke="#ffffff" stroke-width="2.0" stroke-linecap="round" stroke-linejoin="round"  />
<path d="M 699.31,515.51 L 715.49,510.09" fill="none" stroke="#ffffff" stroke-width="2.0" stroke-linecap="round" stroke-linejoin="round"  />
<path d="M 715.49,510.09 L 712.33,507.22" fill="none" stroke="#ffffff" stroke-width="2.0" stroke-linecap="round" stroke-linejoin="round"  />
<path d="M 712.33,507.22 L 566.59,556.05" fill="none" stroke="#ffffff" stroke-width="2.0" stroke-linecap="round" stroke-linejoin="round"  />
<path d="M 855.06,439.01 L 802.80,456.52" fill="none" stroke="#ffffff" stroke-width="2.0" stroke-linecap="round" stroke-linejoin="round"  />
<path d="M 855.06,353.88 L 855.06,439.01" fill="none" stroke="#ffffff" stroke-width="2.0" stroke-linecap="round" stroke-linejoin="round"  />
<path d="M 695.22,324.25 L 693.96,335.03 L 690.06,346.48 L 688.62,349.46 L 687.01,352.39" fill="none" stroke="#ffffff" stroke-width="2.0" stroke-linecap="round" stroke-linejoin="round"  />
<path d="M 884.81,260.72 L 695.22,324.25" fill="none" stroke="#ffffff" stroke-width="2.0" stroke-linecap="round" stroke-linejoin="round"  />
<path d="M 687.01,352.39 L 679.22,363.36 L 669.40,372.86 L 658.34,380.10 L 646.98,384.61 L 636.16,386.26 L 626.51,385.26 L 618.04,381.71" fill="none" stroke="#ffffff" stroke-width="2.0" stroke-linecap="round" stroke-linejoin="round"  />
<path d="M 504.09,427.54 L 504.09,499.27" fill="none" stroke="#ffffff" stroke-width="2.0" stroke-linecap="round" stroke-linejoin="round"  />
<path d="M 862.29,445.57 L 802.80,465.51" fill="none" stroke="#ffffff" stroke-width="2.0" stroke-linecap="round" stroke-linejoin="round"  />
<path d="M 802.80,320.40 L 802.80,465.51" fill="none" stroke="#ffffff" stroke-width="2.0" stroke-linecap="round" stroke-linejoin="round"  />
<path d="M 802.80,320.40 L 862.29,358.51" fill="none" stroke="#ffffff" stroke-width="2.0" stroke-linecap="round" stroke-linejoin="round"  />
<path d="M 862.29,358.51 L 862.29,445.57" fill="none" stroke="#ffffff" stroke-width="2.0" stroke-linecap="round" stroke-linejoin="round"  />
<path d="M 616.91,407.36 L 615.80,404.60" fill="none" stroke="#ffffff" stroke-width="2.0" stroke-linecap="round" stroke-linejoin="round"  />
<path d="M 615.80,404.60 L 613.04,403.75 L 609.51,405.23 L 606.86,408.85 L 606.50,410.85" fill="none" stroke="#ffffff" stroke-width="2.0" stroke-linecap="round" stroke-linejoin="round"  />
<path d="M 616.91,495.88 L 615.80,493.11" fill="none" stroke="#ffffff" stroke-width="2.0" stroke-linecap="round" stroke-linejoin="round"  />
<path d="M 615.80,493.11 L 613.04,492.26 L 609.51,493.75 L 606.86,497.36 L 606.50,499.36" fill="none" stroke="#ffffff" stroke-width="2.0" stroke-linecap="round" stroke-linejoin="round"  />
<path d="M 707.62,376.96 L 706.51,374.20" fill="none" stroke="#ffffff" stroke-width="2.0" stroke-linecap="round" stroke-linejoin="round"  />
<path d="M 706.51,374.20 L 703.76,373.35 L 700.23,374.83 L 697.58,378.45 L 697.21,380.45" fill="none" stroke="#ffffff" stroke-width="2.0" stroke-linecap="round" stroke-linejoin="round"  />
<path d="M 707.62,465.48 L 706.51,462.71" fill="none" stroke="#ffffff" stroke-width="2.0" stroke-linecap="round" stroke-linejoin="round"  />
<path d="M 706.51,462.71 L 703.76,461.86 L 700.23,463.35 L 697.58,466.97 L 697.21,468.97" fill="none" stroke="#ffffff" stroke-width="2.0" stroke-linecap="round" stroke-linejoin="round"  />
<path d="M 511.32,418.07 L 511.32,505.83" fill="none" stroke="#ffffff" stroke-width="2.0" stroke-linecap="round" stroke-linejoin="round"  />
<path d="M 511.32,418.07 L 471.78,469.90" fill="none" stroke="#ffffff" stroke-width="2.0" stroke-linecap="round" stroke-linejoin="round"  />
<path d="M 892.03,267.28 L 702.44,330.81" fill="none" stroke="#ffffff" stroke-width="2.0" stroke-linecap="round" stroke-linejoin="round"  />
<path d="M 611.68,361.23 L 612.94,371.16 L 616.46,379.41 L 618.71,382.55 L 621.35,385.32" fill="none" stroke="#ffffff" stroke-width="2.0" stroke-linecap="round" stroke-linejoin="round"  />
<path d="M 621.35,385.32 L 628.27,389.90 L 636.65,392.41 L 646.31,392.64 L 656.92,390.35 L 667.95,385.36 L 678.64,377.75 L 688.10,367.92 L 695.53,356.63 L 700.36,344.79 L 702.44,330.81" fill="none" stroke="#ffffff" stroke-width="2.0" stroke-linecap="round" stroke-linejoin="round"  />
<path d="M 633.26,533.71 L 633.26,516.51" fill="none" stroke="#ffffff" stroke-width="2.0" stroke-linecap="round" stroke-linejoin="round"  />
<path d="M 657.06,496.93 L 633.26,516.51" fill="none" stroke="#ffffff" stroke-width="2.0" stroke-linecap="round" stroke-linejoin="round"  />
<path d="M 680.85,500.57 L 657.06,496.93" fill="none" stroke="#ffffff" stroke-width="2.0" stroke-linecap="round" stroke-linejoin="round"  />
<path d="M 680.85,517.76 L 680.85,500.57" fill="none" stroke="#ffffff" stroke-width="2.0" stroke-linecap="round" stroke-linejoin="round"  />
<path d="M 890.79,459.24 L 721.84,515.85" fill="none" stroke="#ffffff" stroke-width="2.0" stroke-linecap="round" stroke-linejoin="round"  />
<path d="M 892.03,267.28 L 892.03,447.00" fill="none" stroke="#ffffff" stroke-width="2.0" stroke-linecap="round" stroke-linejoin="round"  />
<path d="M 649.78,24.97 L 676.55,16.00" fill="none" stroke="#ffffff" stroke-width="2.0" stroke-linecap="round" stroke-linejoin="round"  />
<path d="M 250.49,350.31 L 251.59,349.94" fill="none" stroke="#ffffff" stroke-width="2.0" stroke-linecap="round" stroke-linejoin="round"  />
<path d="M 315.99,328.36 L 623.01,225.48" fill="none" stroke="#ffffff" stroke-width="2.0" stroke-linecap="round" stroke-linejoin="round"  />
<path d="M 623.01,225.48 L 623.01,208.07" fill="none" stroke="#ffffff" stroke-width="2.0" stroke-linecap="round" stroke-linejoin="round"  />
<path d="M 108.01,306.69 L 108.01,219.62" fill="none" stroke="#ffffff" stroke-width="2.0" stroke-linecap="round" stroke-linejoin="round"  />
<path d="M 117.37,406.52 L 152.40,438.35" fill="none" stroke="#ffffff" stroke-width="2.0" stroke-linecap="round" stroke-linejoin="round"  />
<path d="M 158.91,441.37 L 165.43,450.19" fill="none" stroke="#ffffff" stroke-width="2.0" stroke-linecap="round" stroke-linejoin="round"  />
<path d="M 165.43,450.19 L 189.62,472.17" fill="none" stroke="#ffffff" stroke-width="2.0" stroke-linecap="round" stroke-linejoin="round"  />
<path d="M 189.62,460.56 L 189.62,472.17" fill="none" stroke="#ffffff" stroke-width="2.0" stroke-linecap="round" stroke-linejoin="round"  />
<path d="M 128.21,404.76 L 189.62,460.56" fill="none" stroke="#ffffff" stroke-width="2.0" stroke-linecap="round" stroke-linejoin="round"  />
<path d="M 128.21,213.22 L 128.21,404.76" fill="none" stroke="#ffffff" stroke-width="2.0" stroke-linecap="round" stroke-linejoin="round"  />
<path d="M 117.37,406.52 L 117.37,203.37" fill="none" stroke="#ffffff" stroke-width="2.0" stroke-linecap="round" stroke-linejoin="round"  />
<path d="M 834.23,266.28 L 835.45,272.88 L 837.17,276.68" fill="none" stroke="#ffffff" stroke-width="2.0" stroke-linecap="round" stroke-linejoin="round"  />
<path d="M 723.60,254.27 L 724.82,260.87 L 728.27,267.13 L 730.41,268.87 L 732.33,269.09" fill="none" stroke="#ffffff" stroke-width="2.0" stroke-linecap="round" stroke-linejoin="round"  />
<path d="M 732.33,269.09 L 733.97,267.24 L 734.44,264.12" fill="none" stroke="#ffffff" stroke-width="2.0" stroke-linecap="round" stroke-linejoin="round"  />
<path d="M 834.23,354.79 L 835.45,361.40 L 838.90,367.66 L 840.67,369.19 L 842.33,369.72" fill="none" stroke="#ffffff" stroke-width="2.0" stroke-linecap="round" stroke-linejoin="round"  />
<path d="M 844.96,366.27 L 845.07,364.64" fill="none" stroke="#ffffff" stroke-width="2.0" stroke-linecap="round" stroke-linejoin="round"  />
<path d="M 723.60,165.75 L 724.82,172.36 L 728.27,178.62 L 730.41,180.36 L 732.33,180.58" fill="none" stroke="#ffffff" stroke-width="2.0" stroke-linecap="round" stroke-linejoin="round"  />
<path d="M 732.33,180.58 L 733.97,178.72 L 734.44,175.60" fill="none" stroke="#ffffff" stroke-width="2.0" stroke-linecap="round" stroke-linejoin="round"  />
<path d="M 872.75,264.76 L 867.65,256.74" fill="none" stroke="#ffffff" stroke-width="2.0" stroke-linecap="round" stroke-linejoin="round"  />
<path d="M 720.44,176.67 L 720.44,237.61" fill="none" stroke="#ffffff" stroke-width="2.0" stroke-linecap="round" stroke-linejoin="round"  />
<path d="M 720.44,176.67 L 832.31,278.31" fill="none" stroke="#ffffff" stroke-width="2.0" stroke-linecap="round" stroke-linejoin="round"  />
<path d="M 884.81,260.72 L 631.93,30.95" fill="none" stroke="#ffffff" stroke-width="2.0" stroke-linecap="round" stroke-linejoin="round"  />
<path d="M 595.81,56.17 L 631.93,30.95" fill="none" stroke="#ffffff" stroke-width="2.0" stroke-linecap="round" stroke-linejoin="round"  />
<path d="M 595.81,56.17 L 613.87,72.58" fill="none" stroke="#ffffff" stroke-width="2.0" stroke-linecap="round" stroke-linejoin="round"  />
<path d="M 613.87,72.58 L 613.87,159.65" fill="none" stroke="#ffffff" stroke-width="2.0" stroke-linecap="round" stroke-linejoin="round"  />
<path d="M 595.81,143.23 L 613.87,159.65" fill="none" stroke="#ffffff" stroke-width="2.0" stroke-linecap="round" stroke-linejoin="round"  />
<path d="M 595.81,143.23 L 623.01,211.66" fill="none" stroke="#ffffff" stroke-width="2.0" stroke-linecap="round" stroke-linejoin="round"  />
<path d="M 855.06,367.19 L 848.68,361.39" fill="none" stroke="#ffffff" stroke-width="2.0" stroke-linecap="round" stroke-linejoin="round"  />
<path d="M 720.44,237.61 L 783.30,294.73" fill="none" stroke="#ffffff" stroke-width="2.0" stroke-linecap="round" stroke-linejoin="round"  />
<path d="M 832.47,339.41 L 855.06,359.94" fill="none" stroke="#ffffff" stroke-width="2.0" stroke-linecap="round" stroke-linejoin="round"  />
<path d="M 855.06,428.53 L 802.80,446.04" fill="none" stroke="#ffffff" stroke-width="2.0" stroke-linecap="round" stroke-linejoin="round"  />
<path d="M 623.01,225.48 L 721.88,315.31" fill="none" stroke="#ffffff" stroke-width="2.0" stroke-linecap="round" stroke-linejoin="round"  />
<path d="M 802.80,388.85 L 817.53,402.23" fill="none" stroke="#ffffff" stroke-width="2.0" stroke-linecap="round" stroke-linejoin="round"  />
<path d="M 723.17,708.60 L 901.63,648.80" fill="none" stroke="#ffffff" stroke-width="2.0" stroke-linecap="round" stroke-linejoin="round"  />
<path d="M 898.47,645.93 L 901.63,648.80" fill="none" stroke="#ffffff" stroke-width="2.0" stroke-linecap="round" stroke-linejoin="round"  />
<path d="M 898.47,640.32 L 893.95,641.83" fill="none" stroke="#ffffff" stroke-width="2.0" stroke-linecap="round" stroke-linejoin="round"  />
<path d="M 893.95,641.83 L 890.79,638.96" fill="none" stroke="#ffffff" stroke-width="2.0" stroke-linecap="round" stroke-linejoin="round"  />
<path d="M 671.35,520.95 L 650.69,502.18" fill="none" stroke="#ffffff" stroke-width="2.0" stroke-linecap="round" stroke-linejoin="round"  />
<path d="M 489.03,688.22 L 521.97,718.15" fill="none" stroke="#ffffff" stroke-width="2.0" stroke-linecap="round" stroke-linejoin="round"  />
<path d="M 484.35,698.77 L 489.03,688.22" fill="none" stroke="#ffffff" stroke-width="2.0" stroke-linecap="round" stroke-linejoin="round"  />
<path d="M 484.35,698.77 L 460.56,706.74" fill="none" stroke="#ffffff" stroke-width="2.0" stroke-linecap="round" stroke-linejoin="round"  />
<path d="M 521.97,762.54 L 460.56,706.74" fill="none" stroke="#ffffff" stroke-width="2.0" stroke-linecap="round" stroke-linejoin="round"  />
<path d="M 497.21,732.65 L 501.90,735.23 L 509.12,736.34 L 516.68,735.11 L 521.97,731.60" fill="none" stroke="#ffffff" stroke-width="2.0" stroke-linecap="round" stroke-linejoin="round"  />
<path d="M 521.97,725.73 L 521.01,724.68" fill="none" stroke="#ffffff" stroke-width="2.0" stroke-linecap="round" stroke-linejoin="round"  />
<path d="M 189.62,416.17 L 156.67,386.24" fill="none" stroke="#ffffff" stroke-width="2.0" stroke-linecap="round" stroke-linejoin="round"  />
<path d="M 152.00,396.79 L 156.67,386.24" fill="none" stroke="#ffffff" stroke-width="2.0" stroke-linecap="round" stroke-linejoin="round"  />
<path d="M 152.00,396.79 L 128.21,404.76" fill="none" stroke="#ffffff" stroke-width="2.0" stroke-linecap="round" stroke-linejoin="round"  />
<path d="M 164.86,430.67 L 169.55,433.25 L 176.77,434.36 L 184.33,433.13 L 189.62,429.62" fill="none" stroke="#ffffff" stroke-width="2.0" stroke-linecap="round" stroke-linejoin="round"  />
<path d="M 189.62,423.74 L 188.66,422.70" fill="none" stroke="#ffffff" stroke-width="2.0" stroke-linecap="round" stroke-linejoin="round"  />
<path d="M 976.71,322.03 L 738.28,105.39" fill="none" stroke="#ffffff" stroke-width="2.0" stroke-linecap="round" stroke-linejoin="round"  />
<path d="M 748.80,81.65 L 748.80,114.94" fill="none" stroke="#ffffff" stroke-width="2.0" stroke-linecap="round" stroke-linejoin="round"  />
<path d="M 748.80,202.43 L 748.80,248.58" fill="none" stroke="#ffffff" stroke-width="2.0" stroke-linecap="round" stroke-linejoin="round"  />
<path d="M 748.80,81.65 L 738.28,105.39" fill="none" stroke="#ffffff" stroke-width="2.0" stroke-linecap="round" stroke-linejoin="round"  />
<path d="M 738.28,192.88 L 738.28,239.03" fill="none" stroke="#ffffff" stroke-width="2.0" stroke-linecap="round" stroke-linejoin="round"  />
<path d="M 676.55,16.00 L 687.38,25.85" fill="none" stroke="#ffffff" stroke-width="2.0" stroke-linecap="round" stroke-linejoin="round"  />
<path d="M 687.38,25.85 L 687.38,70.24" fill="none" stroke="#ffffff" stroke-width="2.0" stroke-linecap="round" stroke-linejoin="round"  />
<path d="M 232.64,274.82 L 232.64,312.55" fill="none" stroke="#ffffff" stroke-width="2.0" stroke-linecap="round" stroke-linejoin="round"  />
<path d="M 189.62,269.02 L 189.62,460.56" fill="none" stroke="#ffffff" stroke-width="2.0" stroke-linecap="round" stroke-linejoin="round"  />
<path d="M 189.62,472.17 L 232.64,477.97" fill="none" stroke="#ffffff" stroke-width="2.0" stroke-linecap="round" stroke-linejoin="round"  />
<path d="M 232.64,312.55 L 232.64,428.64" fill="none" stroke="#ffffff" stroke-width="2.0" stroke-linecap="round" stroke-linejoin="round"  />
<path d="M 379.86,420.19 L 383.59,425.25 L 386.52,433.35 L 386.94,435.94 L 387.08,438.36" fill="none" stroke="#ffffff" stroke-width="2.0" stroke-linecap="round" stroke-linejoin="round"  />
<path d="M 387.08,438.36 L 385.98,443.51 L 384.28,445.00" fill="none" stroke="#ffffff" stroke-width="2.0" stroke-linecap="round" stroke-linejoin="round"  />
<path d="M 384.28,445.00 L 381.52,444.61 L 379.86,443.41" fill="none" stroke="#ffffff" stroke-width="2.0" stroke-linecap="round" stroke-linejoin="round"  />
<path d="M 232.64,312.55 L 460.56,519.64" fill="none" stroke="#ffffff" stroke-width="2.0" stroke-linecap="round" stroke-linejoin="round"  />
<path d="M 460.56,706.74 L 460.56,718.35" fill="none" stroke="#ffffff" stroke-width="2.0" stroke-linecap="round" stroke-linejoin="round"  />
<path d="M 460.56,515.20 L 460.56,706.74" fill="none" stroke="#ffffff" stroke-width="2.0" stroke-linecap="round" stroke-linejoin="round"  />
<path d="M 484.75,740.33 L 460.56,718.35" fill="none" stroke="#ffffff" stroke-width="2.0" stroke-linecap="round" stroke-linejoin="round"  />
<path d="M 491.27,743.35 L 497.78,752.17" fill="none" stroke="#ffffff" stroke-width="2.0" stroke-linecap="round" stroke-linejoin="round"  />
<path d="M 532.81,784.00 L 497.78,752.17" fill="none" stroke="#ffffff" stroke-width="2.0" stroke-linecap="round" stroke-linejoin="round"  />
<path d="M 532.81,580.85 L 532.81,784.00" fill="none" stroke="#ffffff" stroke-width="2.0" stroke-linecap="round" stroke-linejoin="round"  />
<path d="M 521.97,571.00 L 521.97,762.54" fill="none" stroke="#ffffff" stroke-width="2.0" stroke-linecap="round" stroke-linejoin="round"  />
<path d="M 1019.74,327.83 L 976.71,322.03" fill="none" stroke="#ffffff" stroke-width="2.0" stroke-linecap="round" stroke-linejoin="round"  />
<path d="M 1019.74,327.83 L 1019.74,372.22" fill="none" stroke="#ffffff" stroke-width="2.0" stroke-linecap="round" stroke-linejoin="round"  />
<path d="M 532.81,784.00 L 1091.99,596.63" fill="none" stroke="#ffffff" stroke-width="2.0" stroke-linecap="round" stroke-linejoin="round"  />
<path d="M 521.97,728.63 L 521.01,727.58" fill="none" stroke="#ffffff" stroke-width="2.0" stroke-linecap="round" stroke-linejoin="round"  />
<path d="M 723.17,517.06 L 723.17,708.60" fill="none" stroke="#ffffff" stroke-width="2.0" stroke-linecap="round" stroke-linejoin="round"  />
<path d="M 1091.99,393.48 L 1091.99,596.63" fill="none" stroke="#ffffff" stroke-width="2.0" stroke-linecap="round" stroke-linejoin="round"  />
<path d="M 901.63,457.26 L 1091.99,393.48" fill="none" stroke="#ffffff" stroke-width="2.0" stroke-linecap="round" stroke-linejoin="round"  />
<path d="M 901.63,457.26 L 901.63,648.80" fill="none" stroke="#ffffff" stroke-width="2.0" stroke-linecap="round" stroke-linejoin="round"  />
<path d="M 1091.99,393.48 L 1081.15,383.63" fill="none" stroke="#ffffff" stroke-width="2.0" stroke-linecap="round" stroke-linejoin="round"  />
<path d="M 189.62,426.65 L 188.66,425.60" fill="none" stroke="#ffffff" stroke-width="2.0" stroke-linecap="round" stroke-linejoin="round"  />
<path d="M 995.94,335.80 L 1019.74,327.83" fill="none" stroke="#ffffff" stroke-width="2.0" stroke-linecap="round" stroke-linejoin="round"  />
<path d="M 995.94,335.80 L 995.94,350.60" fill="none" stroke="#ffffff" stroke-width="2.0" stroke-linecap="round" stroke-linejoin="round"  />
<path d="M 725.00,89.62 L 748.80,81.65" fill="none" stroke="#ffffff" stroke-width="2.0" stroke-linecap="round" stroke-linejoin="round"  />
<path d="M 725.00,89.62 L 720.33,100.17" fill="none" stroke="#ffffff" stroke-width="2.0" stroke-linecap="round" stroke-linejoin="round"  />
<path d="M 720.33,100.17 L 644.47,31.24" fill="none" stroke="#ffffff" stroke-width="2.0" stroke-linecap="round" stroke-linejoin="round"  />
<path d="M 663.59,33.82 L 663.59,48.62" fill="none" stroke="#ffffff" stroke-width="2.0" stroke-linecap="round" stroke-linejoin="round"  />
<path d="M 663.59,33.82 L 644.47,31.24" fill="none" stroke="#ffffff" stroke-width="2.0" stroke-linecap="round" stroke-linejoin="round"  />
<path d="M 663.59,33.82 L 687.38,25.85" fill="none" stroke="#ffffff" stroke-width="2.0" stroke-linecap="round" stroke-linejoin="round"  />
<path d="M 152.00,205.25 L 152.00,396.79" fill="none" stroke="#ffffff" stroke-width="2.0" stroke-linecap="round" stroke-linejoin="round"  />
<path d="M 156.67,194.70 L 156.67,386.24" fill="none" stroke="#ffffff" stroke-width="2.0" stroke-linecap="round" stroke-linejoin="round"  />
<path d="M 484.35,507.23 L 484.35,698.77" fill="none" stroke="#ffffff" stroke-width="2.0" stroke-linecap="round" stroke-linejoin="round"  />
<path d="M 489.03,496.68 L 489.03,688.22" fill="none" stroke="#ffffff" stroke-width="2.0" stroke-linecap="round" stroke-linejoin="round"  />
<path d="M 699.31,515.51 L 699.31,522.72" fill="none" stroke="#ffffff" stroke-width="2.0" stroke-linecap="round" stroke-linejoin="round"  />
<path d="M 715.49,510.09 L 715.49,515.70" fill="none" stroke="#ffffff" stroke-width="2.0" stroke-linecap="round" stroke-linejoin="round"  />
<path d="M 944.87,366.80 L 946.08,373.40 L 949.53,379.66 L 951.68,381.40 L 953.60,381.62" fill="none" stroke="#ffffff" stroke-width="2.0" stroke-linecap="round" stroke-linejoin="round"  />
<path d="M 953.60,381.62 L 955.23,379.77 L 955.70,376.65" fill="none" stroke="#ffffff" stroke-width="2.0" stroke-linecap="round" stroke-linejoin="round"  />
<path d="M 1036.53,398.58 L 892.03,267.28" fill="none" stroke="#ffffff" stroke-width="2.0" stroke-linecap="round" stroke-linejoin="round"  />
<path d="M 1036.53,398.58 L 890.79,447.42" fill="none" stroke="#ffffff" stroke-width="2.0" stroke-linecap="round" stroke-linejoin="round"  />
<path d="M 890.79,447.42 L 890.79,638.96" fill="none" stroke="#ffffff" stroke-width="2.0" stroke-linecap="round" stroke-linejoin="round"  />
<path d="M 893.95,450.29 L 893.95,641.83" fill="none" stroke="#ffffff" stroke-width="2.0" stroke-linecap="round" stroke-linejoin="round"  />
<path d="M 893.95,450.29 L 890.79,447.42" fill="none" stroke="#ffffff" stroke-width="2.0" stroke-linecap="round" stroke-linejoin="round"  />
<path d="M 910.13,444.87 L 910.13,450.48" fill="none" stroke="#ffffff" stroke-width="2.0" stroke-linecap="round" stroke-linejoin="round"  />
<path d="M 910.13,444.87 L 893.95,450.29" fill="none" stroke="#ffffff" stroke-width="2.0" stroke-linecap="round" stroke-linejoin="round"  />
<path d="M 922.98,443.37 L 919.39,441.75 L 914.00,441.90 L 911.39,443.12 L 910.13,444.87" fill="none" stroke="#ffffff" stroke-width="2.0" stroke-linecap="round" stroke-linejoin="round"  />
<path d="M 914.64,448.97 L 898.47,454.39" fill="none" stroke="#ffffff" stroke-width="2.0" stroke-linecap="round" stroke-linejoin="round"  />
<path d="M 898.47,454.39 L 898.47,645.93" fill="none" stroke="#ffffff" stroke-width="2.0" stroke-linecap="round" stroke-linejoin="round"  />
<path d="M 898.47,454.39 L 901.63,457.26" fill="none" stroke="#ffffff" stroke-width="2.0" stroke-linecap="round" stroke-linejoin="round"  />
<path d="M 1057.35,391.60 L 1081.15,383.63" fill="none" stroke="#ffffff" stroke-width="2.0" stroke-linecap="round" stroke-linejoin="round"  />
<path d="M 1057.35,391.60 L 1052.68,402.15" fill="none" stroke="#ffffff" stroke-width="2.0" stroke-linecap="round" stroke-linejoin="round"  />
<path d="M 995.94,335.80 L 976.82,333.22" fill="none" stroke="#ffffff" stroke-width="2.0" stroke-linecap="round" stroke-linejoin="round"  />
<path d="M 976.82,333.22 L 1052.68,402.15" fill="none" stroke="#ffffff" stroke-width="2.0" stroke-linecap="round" stroke-linejoin="round"  />
<path d="M 702.44,330.81 L 695.22,324.25" fill="none" stroke="#ffffff" stroke-width="2.0" stroke-linecap="round" stroke-linejoin="round"  />
<path d="M 631.93,30.95 L 649.78,24.97" fill="none" stroke="#ffffff" stroke-width="2.0" stroke-linecap="round" stroke-linejoin="round"  />
<path d="M 862.29,445.57 L 855.06,439.01" fill="none" stroke="#ffffff" stroke-width="2.0" stroke-linecap="round" stroke-linejoin="round"  />
<path d="M 623.01,208.07 L 735.88,310.62" fill="none" stroke="#ffffff" stroke-width="2.0" stroke-linecap="round" stroke-linejoin="round"  />
<path d="M 802.80,371.43 L 825.38,391.94" fill="none" stroke="#ffffff" stroke-width="2.0" stroke-linecap="round" stroke-linejoin="round"  />
<path d="M 802.80,421.53 L 848.68,361.39" fill="none" stroke="#ffffff" stroke-width="2.0" stroke-linecap="round" stroke-linejoin="round"  />
<path d="M 802.80,441.58 L 855.06,373.07" fill="none" stroke="#ffffff" stroke-width="2.0" stroke-linecap="round" stroke-linejoin="round"  />
<path d="M 238.59,399.07 L 250.49,395.09" fill="none" stroke="#ffffff" stroke-width="2.0" stroke-linecap="round" stroke-linejoin="round"  />
<path d="M 238.59,426.64 L 232.64,428.64" fill="none" stroke="#ffffff" stroke-width="2.0" stroke-linecap="round" stroke-linejoin="round"  />
<path d="M 732.34,233.63 L 720.44,237.61" fill="none" stroke="#ffffff" stroke-width="2.0" stroke-linecap="round" stroke-linejoin="round"  />
<path d="M 732.34,233.63 L 795.20,290.74" fill="none" stroke="#ffffff" stroke-width="2.0" stroke-linecap="round" stroke-linejoin="round"  />
<path d="M 117.37,330.22 L 108.01,306.69" fill="none" stroke="#ffffff" stroke-width="2.0" stroke-linecap="round" stroke-linejoin="round"  />
<path d="M 117.37,213.09 L 108.01,219.62" fill="none" stroke="#ffffff" stroke-width="2.0" stroke-linecap="round" stroke-linejoin="round"  />
<path d="M 604.73,64.28 L 604.73,140.24" fill="none" stroke="#ffffff" stroke-width="2.0" stroke-linecap="round" stroke-linejoin="round"  />
<path d="M 595.81,143.23 L 604.73,140.24" fill="none" stroke="#ffffff" stroke-width="2.0" stroke-linecap="round" stroke-linejoin="round"  />
<path d="M 604.73,140.24 L 613.87,148.55" fill="none" stroke="#ffffff" stroke-width="2.0" stroke-linecap="round" stroke-linejoin="round"  />
<path d="M 683.40,349.11 L 683.40,358.01" fill="none" stroke="#ffffff" stroke-width="2.0" stroke-linecap="round" stroke-linejoin="round"  />
<path d="M 683.40,349.11 L 687.01,352.39" fill="none" stroke="#ffffff" stroke-width="2.0" stroke-linecap="round" stroke-linejoin="round"  />
<path d="M 683.40,349.11 L 689.84,346.95" fill="none" stroke="#ffffff" stroke-width="2.0" stroke-linecap="round" stroke-linejoin="round"  />
<path d="M 734.03,171.92 L 732.27,166.67" fill="none" stroke="#ffffff" stroke-width="2.0" stroke-linecap="round" stroke-linejoin="round"  />
<path d="M 844.66,360.96 L 842.90,355.71" fill="none" stroke="#ffffff" stroke-width="2.0" stroke-linecap="round" stroke-linejoin="round"  />
<path d="M 955.30,372.96 L 953.54,367.72" fill="none" stroke="#ffffff" stroke-width="2.0" stroke-linecap="round" stroke-linejoin="round"  />
<path d="M 734.03,260.43 L 732.27,255.19" fill="none" stroke="#ffffff" stroke-width="2.0" stroke-linecap="round" stroke-linejoin="round"  />
<path d="M 844.66,272.44 L 842.90,267.19" fill="none" stroke="#ffffff" stroke-width="2.0" stroke-linecap="round" stroke-linejoin="round"  />
<path d="M 843.12,274.69 L 840.56,267.81 L 840.18,264.28" fill="none" stroke="#ffffff" stroke-width="2.0" stroke-linecap="round" stroke-linejoin="round"  />
<path d="M 734.38,265.32 L 731.23,260.11 L 729.55,252.28" fill="none" stroke="#ffffff" stroke-width="2.0" stroke-linecap="round" stroke-linejoin="round"  />
<path d="M 955.65,377.85 L 952.50,372.64 L 950.82,364.81" fill="none" stroke="#ffffff" stroke-width="2.0" stroke-linecap="round" stroke-linejoin="round"  />
<path d="M 845.01,365.85 L 841.86,360.63 L 840.18,352.80" fill="none" stroke="#ffffff" stroke-width="2.0" stroke-linecap="round" stroke-linejoin="round"  />
<path d="M 734.38,176.81 L 731.23,171.59 L 729.55,163.76" fill="none" stroke="#ffffff" stroke-width="2.0" stroke-linecap="round" stroke-linejoin="round"  />
        
      </svg>
    