
      <svg xmlns="http://www.w3.org/2000/svg" width="1200" height="800" viewBox="0 0 1200 800" style="background: transparent;">
        
        <path d="M 1124.72,365.28 L 1127.90,372.78 L 1136.76,377.89 L 1146.52,376.91 L 1150.62,372.53" fill="none" stroke="#ffffff" stroke-width="2.0" stroke-linecap="round" stroke-linejoin="round"  />
<path d="M 1150.62,372.53 L 1151.24,369.38" fill="none" stroke="#ffffff" stroke-width="2.0" stroke-linecap="round" stroke-linejoin="round"  />
<path d="M 1148.19,362.02 L 1140.69,360.75 L 1134.46,356.37" fill="none" stroke="#ffffff" stroke-width="2.0" stroke-linecap="round" stroke-linejoin="round"  />
<path d="M 1124.72,584.86 L 1127.90,592.37 L 1136.76,597.48 L 1146.52,596.50 L 1150.62,592.11" fill="none" stroke="#ffffff" stroke-width="2.0" stroke-linecap="round" stroke-linejoin="round"  />
<path d="M 1150.62,592.11 L 1151.24,588.96" fill="none" stroke="#ffffff" stroke-width="2.0" stroke-linecap="round" stroke-linejoin="round"  />
<path d="M 1148.19,581.61 L 1140.69,580.34 L 1134.46,575.96" fill="none" stroke="#ffffff" stroke-width="2.0" stroke-linecap="round" stroke-linejoin="round"  />
<path d="M 583.40,281.50 L 586.58,289.01 L 595.43,294.12 L 601.65,294.33 L 606.74,292.13" fill="none" stroke="#ffffff" stroke-width="2.0" stroke-linecap="round" stroke-linejoin="round"  />
<path d="M 606.87,278.25 L 599.36,276.98 L 593.13,272.60" fill="none" stroke="#ffffff" stroke-width="2.0" stroke-linecap="round" stroke-linejoin="round"  />
<path d="M 42.07,197.73 L 45.25,205.24 L 54.11,210.35 L 60.32,210.56 L 65.41,208.35" fill="none" stroke="#ffffff" stroke-width="2.0" stroke-linecap="round" stroke-linejoin="round"  />
<path d="M 65.54,194.48 L 58.04,193.21 L 51.81,188.83" fill="none" stroke="#ffffff" stroke-width="2.0" stroke-linecap="round" stroke-linejoin="round"  />
<path d="M 186.79,300.29 L 185.53,306.54" fill="none" stroke="#ffffff" stroke-width="2.0" stroke-linecap="round" stroke-linejoin="round"  />
<path d="M 185.53,306.54 L 182.67,300.66" fill="none" stroke="#ffffff" stroke-width="2.0" stroke-linecap="round" stroke-linejoin="round"  />
<path d="M 186.79,447.88 L 185.53,454.13" fill="none" stroke="#ffffff" stroke-width="2.0" stroke-linecap="round" stroke-linejoin="round"  />
<path d="M 185.53,454.13 L 182.67,448.25" fill="none" stroke="#ffffff" stroke-width="2.0" stroke-linecap="round" stroke-linejoin="round"  />
<path d="M 40.18,299.41 L 42.97,319.92 L 45.56,324.80" fill="none" stroke="#ffffff" stroke-width="2.0" stroke-linecap="round" stroke-linejoin="round"  />
<path d="M 45.56,324.80 L 46.81,318.55" fill="none" stroke="#ffffff" stroke-width="2.0" stroke-linecap="round" stroke-linejoin="round"  />
<path d="M 46.81,466.14 L 45.56,472.39" fill="none" stroke="#ffffff" stroke-width="2.0" stroke-linecap="round" stroke-linejoin="round"  />
<path d="M 45.56,472.39 L 43.58,469.42 L 40.18,447.00" fill="none" stroke="#ffffff" stroke-width="2.0" stroke-linecap="round" stroke-linejoin="round"  />
<path d="M 721.74,423.00 L 724.88,411.68 L 733.43,402.07 L 736.68,400.93 L 739.43,401.39" fill="none" stroke="#ffffff" stroke-width="2.0" stroke-linecap="round" stroke-linejoin="round"  />
<path d="M 739.43,401.39 L 742.39,408.08" fill="none" stroke="#ffffff" stroke-width="2.0" stroke-linecap="round" stroke-linejoin="round"  />
<path d="M 742.39,555.67 L 739.43,548.98" fill="none" stroke="#ffffff" stroke-width="2.0" stroke-linecap="round" stroke-linejoin="round"  />
<path d="M 739.43,548.98 L 733.61,549.56 L 726.08,557.19 L 722.89,563.98 L 721.74,570.59" fill="none" stroke="#ffffff" stroke-width="2.0" stroke-linecap="round" stroke-linejoin="round"  />
<path d="M 1184.00,325.11 L 22.69,145.40" fill="none" stroke="#ffffff" stroke-width="2.0" stroke-linecap="round" stroke-linejoin="round"  />
<path d="M 1184.00,325.11 L 1184.00,608.78" fill="none" stroke="#ffffff" stroke-width="2.0" stroke-linecap="round" stroke-linejoin="round"  />
<path d="M 16.00,445.32 L 16.00,392.76" fill="none" stroke="#ffffff" stroke-width="2.0" stroke-linecap="round" stroke-linejoin="round"  />
<path d="M 16.00,214.22 L 16.00,392.76" fill="none" stroke="#ffffff" stroke-width="2.0" stroke-linecap="round" stroke-linejoin="round"  />
<path d="M 16.00,161.66 L 16.00,214.22" fill="none" stroke="#ffffff" stroke-width="2.0" stroke-linecap="round" stroke-linejoin="round"  />
<path d="M 22.69,145.40 L 16.00,161.66" fill="none" stroke="#ffffff" stroke-width="2.0" stroke-linecap="round" stroke-linejoin="round"  />
<path d="M 52.03,464.98 L 52.03,349.78" fill="none" stroke="#ffffff" stroke-width="2.0" stroke-linecap="round" stroke-linejoin="round"  />
<path d="M 34.96,415.76 L 34.96,300.57" fill="none" stroke="#ffffff" stroke-width="2.0" stroke-linecap="round" stroke-linejoin="round"  />
<path d="M 34.96,415.76 L 52.03,413.54" fill="none" stroke="#ffffff" stroke-width="2.0" stroke-linecap="round" stroke-linejoin="round"  />
<path d="M 758.61,527.75 L 705.52,500.11" fill="none" stroke="#ffffff" stroke-width="2.0" stroke-linecap="round" stroke-linejoin="round"  />
<path d="M 758.61,527.75 L 758.61,412.56" fill="none" stroke="#ffffff" stroke-width="2.0" stroke-linecap="round" stroke-linejoin="round"  />
<path d="M 705.52,566.11 L 705.52,450.91" fill="none" stroke="#ffffff" stroke-width="2.0" stroke-linecap="round" stroke-linejoin="round"  />
<path d="M 21.50,361.82 L 31.17,360.56" fill="none" stroke="#ffffff" stroke-width="2.0" stroke-linecap="round" stroke-linejoin="round"  />
<path d="M 31.17,389.71 L 21.50,361.82" fill="none" stroke="#ffffff" stroke-width="2.0" stroke-linecap="round" stroke-linejoin="round"  />
<path d="M 31.17,304.76 L 21.50,276.87" fill="none" stroke="#ffffff" stroke-width="2.0" stroke-linecap="round" stroke-linejoin="round"  />
<path d="M 800.50,482.38 L 770.41,504.11" fill="none" stroke="#ffffff" stroke-width="2.0" stroke-linecap="round" stroke-linejoin="round"  />
<path d="M 800.50,482.38 L 770.41,466.71" fill="none" stroke="#ffffff" stroke-width="2.0" stroke-linecap="round" stroke-linejoin="round"  />
<path d="M 800.50,397.42 L 770.41,419.16" fill="none" stroke="#ffffff" stroke-width="2.0" stroke-linecap="round" stroke-linejoin="round"  />
<path d="M 596.42,554.43 L 600.71,544.01" fill="none" stroke="#ffffff" stroke-width="2.0" stroke-linecap="round" stroke-linejoin="round"  />
<path d="M 612.76,562.94 L 596.42,554.43" fill="none" stroke="#ffffff" stroke-width="2.0" stroke-linecap="round" stroke-linejoin="round"  />
<path d="M 612.76,535.30 L 600.71,544.01" fill="none" stroke="#ffffff" stroke-width="2.0" stroke-linecap="round" stroke-linejoin="round"  />
<path d="M 52.03,464.98 L 34.96,415.76" fill="none" stroke="#ffffff" stroke-width="2.0" stroke-linecap="round" stroke-linejoin="round"  />
<path d="M 52.03,349.78 L 34.96,300.57" fill="none" stroke="#ffffff" stroke-width="2.0" stroke-linecap="round" stroke-linejoin="round"  />
<path d="M 31.17,389.71 L 31.17,304.76" fill="none" stroke="#ffffff" stroke-width="2.0" stroke-linecap="round" stroke-linejoin="round"  />
<path d="M 21.50,361.82 L 21.50,276.87" fill="none" stroke="#ffffff" stroke-width="2.0" stroke-linecap="round" stroke-linejoin="round"  />
<path d="M 40.18,447.00 L 41.43,440.75" fill="none" stroke="#ffffff" stroke-width="2.0" stroke-linecap="round" stroke-linejoin="round"  />
<path d="M 41.43,440.75 L 43.41,443.72 L 46.81,466.14" fill="none" stroke="#ffffff" stroke-width="2.0" stroke-linecap="round" stroke-linejoin="round"  />
<path d="M 46.81,318.55 L 44.01,298.04 L 41.43,293.16" fill="none" stroke="#ffffff" stroke-width="2.0" stroke-linecap="round" stroke-linejoin="round"  />
<path d="M 41.43,293.16 L 40.18,299.41" fill="none" stroke="#ffffff" stroke-width="2.0" stroke-linecap="round" stroke-linejoin="round"  />
<path d="M 47.39,535.83 L 47.39,483.27" fill="none" stroke="#ffffff" stroke-width="2.0" stroke-linecap="round" stroke-linejoin="round"  />
<path d="M 53.92,554.68 L 47.39,535.83" fill="none" stroke="#ffffff" stroke-width="2.0" stroke-linecap="round" stroke-linejoin="round"  />
<path d="M 53.92,271.02 L 53.92,554.68" fill="none" stroke="#ffffff" stroke-width="2.0" stroke-linecap="round" stroke-linejoin="round"  />
<path d="M 53.92,271.02 L 47.39,252.17" fill="none" stroke="#ffffff" stroke-width="2.0" stroke-linecap="round" stroke-linejoin="round"  />
<path d="M 47.39,252.17 L 47.39,304.72" fill="none" stroke="#ffffff" stroke-width="2.0" stroke-linecap="round" stroke-linejoin="round"  />
<path d="M 16.00,214.22 L 47.39,304.72" fill="none" stroke="#ffffff" stroke-width="2.0" stroke-linecap="round" stroke-linejoin="round"  />
<path d="M 16.00,392.76 L 47.39,483.27" fill="none" stroke="#ffffff" stroke-width="2.0" stroke-linecap="round" stroke-linejoin="round"  />
<path d="M 16.00,445.32 L 35.26,448.30" fill="none" stroke="#ffffff" stroke-width="2.0" stroke-linecap="round" stroke-linejoin="round"  />
<path d="M 1184.00,608.78 L 1177.31,625.04" fill="none" stroke="#ffffff" stroke-width="2.0" stroke-linecap="round" stroke-linejoin="round"  />
<path d="M 1177.31,625.04 L 817.60,569.37" fill="none" stroke="#ffffff" stroke-width="2.0" stroke-linecap="round" stroke-linejoin="round"  />
<path d="M 817.60,569.37 L 699.62,654.60" fill="none" stroke="#ffffff" stroke-width="2.0" stroke-linecap="round" stroke-linejoin="round"  />
<path d="M 699.62,654.60 L 596.42,600.87" fill="none" stroke="#ffffff" stroke-width="2.0" stroke-linecap="round" stroke-linejoin="round"  />
<path d="M 552.29,577.89 L 570.10,534.61" fill="none" stroke="#ffffff" stroke-width="2.0" stroke-linecap="round" stroke-linejoin="round"  />
<path d="M 552.29,577.89 L 416.80,507.35" fill="none" stroke="#ffffff" stroke-width="2.0" stroke-linecap="round" stroke-linejoin="round"  />
<path d="M 416.80,507.35 L 53.92,554.68" fill="none" stroke="#ffffff" stroke-width="2.0" stroke-linecap="round" stroke-linejoin="round"  />
<path d="M 721.74,570.59 L 724.70,577.28" fill="none" stroke="#ffffff" stroke-width="2.0" stroke-linecap="round" stroke-linejoin="round"  />
<path d="M 724.70,577.28 L 730.52,576.70 L 738.05,569.07 L 741.24,562.27 L 742.39,555.67" fill="none" stroke="#ffffff" stroke-width="2.0" stroke-linecap="round" stroke-linejoin="round"  />
<path d="M 742.39,408.08 L 739.25,419.40 L 730.71,429.01 L 727.45,430.14 L 724.70,429.69" fill="none" stroke="#ffffff" stroke-width="2.0" stroke-linecap="round" stroke-linejoin="round"  />
<path d="M 724.70,429.69 L 721.74,423.00" fill="none" stroke="#ffffff" stroke-width="2.0" stroke-linecap="round" stroke-linejoin="round"  />
<path d="M 590.53,545.24 L 590.53,508.17" fill="none" stroke="#ffffff" stroke-width="2.0" stroke-linecap="round" stroke-linejoin="round"  />
<path d="M 590.53,545.24 L 600.71,537.89" fill="none" stroke="#ffffff" stroke-width="2.0" stroke-linecap="round" stroke-linejoin="round"  />
<path d="M 600.71,544.01 L 600.71,537.89" fill="none" stroke="#ffffff" stroke-width="2.0" stroke-linecap="round" stroke-linejoin="round"  />
<path d="M 612.76,519.74 L 590.53,508.17" fill="none" stroke="#ffffff" stroke-width="2.0" stroke-linecap="round" stroke-linejoin="round"  />
<path d="M 612.76,562.94 L 612.76,519.74" fill="none" stroke="#ffffff" stroke-width="2.0" stroke-linecap="round" stroke-linejoin="round"  />
<path d="M 612.76,415.35 L 612.76,372.15" fill="none" stroke="#ffffff" stroke-width="2.0" stroke-linecap="round" stroke-linejoin="round"  />
<path d="M 612.76,387.71 L 590.53,403.77" fill="none" stroke="#ffffff" stroke-width="2.0" stroke-linecap="round" stroke-linejoin="round"  />
<path d="M 612.76,415.35 L 590.53,403.77" fill="none" stroke="#ffffff" stroke-width="2.0" stroke-linecap="round" stroke-linejoin="round"  />
<path d="M 590.53,366.70 L 596.42,362.44" fill="none" stroke="#ffffff" stroke-width="2.0" stroke-linecap="round" stroke-linejoin="round"  />
<path d="M 590.53,403.77 L 590.53,366.70" fill="none" stroke="#ffffff" stroke-width="2.0" stroke-linecap="round" stroke-linejoin="round"  />
<path d="M 612.76,372.15 L 596.42,363.64" fill="none" stroke="#ffffff" stroke-width="2.0" stroke-linecap="round" stroke-linejoin="round"  />
<path d="M 416.80,223.68 L 416.80,507.35" fill="none" stroke="#ffffff" stroke-width="2.0" stroke-linecap="round" stroke-linejoin="round"  />
<path d="M 416.80,223.68 L 53.92,271.02" fill="none" stroke="#ffffff" stroke-width="2.0" stroke-linecap="round" stroke-linejoin="round"  />
<path d="M 193.90,489.98 L 193.90,446.79" fill="none" stroke="#ffffff" stroke-width="2.0" stroke-linecap="round" stroke-linejoin="round"  />
<path d="M 165.37,493.70 L 193.90,489.98" fill="none" stroke="#ffffff" stroke-width="2.0" stroke-linecap="round" stroke-linejoin="round"  />
<path d="M 165.37,493.70 L 165.37,450.51" fill="none" stroke="#ffffff" stroke-width="2.0" stroke-linecap="round" stroke-linejoin="round"  />
<path d="M 165.37,450.51 L 193.90,446.79" fill="none" stroke="#ffffff" stroke-width="2.0" stroke-linecap="round" stroke-linejoin="round"  />
<path d="M 165.37,346.11 L 165.37,302.92" fill="none" stroke="#ffffff" stroke-width="2.0" stroke-linecap="round" stroke-linejoin="round"  />
<path d="M 165.37,302.92 L 193.90,299.20" fill="none" stroke="#ffffff" stroke-width="2.0" stroke-linecap="round" stroke-linejoin="round"  />
<path d="M 193.90,342.39 L 193.90,299.20" fill="none" stroke="#ffffff" stroke-width="2.0" stroke-linecap="round" stroke-linejoin="round"  />
<path d="M 165.37,346.11 L 193.90,342.39" fill="none" stroke="#ffffff" stroke-width="2.0" stroke-linecap="round" stroke-linejoin="round"  />
<path d="M 16.00,161.66 L 80.52,171.64" fill="none" stroke="#ffffff" stroke-width="2.0" stroke-linecap="round" stroke-linejoin="round"  />
<path d="M 47.39,252.17 L 80.52,171.64" fill="none" stroke="#ffffff" stroke-width="2.0" stroke-linecap="round" stroke-linejoin="round"  />
<path d="M 552.29,294.23 L 416.80,223.68" fill="none" stroke="#ffffff" stroke-width="2.0" stroke-linecap="round" stroke-linejoin="round"  />
<path d="M 552.29,294.23 L 571.47,247.62" fill="none" stroke="#ffffff" stroke-width="2.0" stroke-linecap="round" stroke-linejoin="round"  />
<path d="M 621.84,255.42 L 571.47,247.62" fill="none" stroke="#ffffff" stroke-width="2.0" stroke-linecap="round" stroke-linejoin="round"  />
<path d="M 596.42,317.21 L 621.84,255.42" fill="none" stroke="#ffffff" stroke-width="2.0" stroke-linecap="round" stroke-linejoin="round"  />
<path d="M 699.62,370.94 L 596.42,317.21" fill="none" stroke="#ffffff" stroke-width="2.0" stroke-linecap="round" stroke-linejoin="round"  />
<path d="M 817.60,285.71 L 699.62,370.94" fill="none" stroke="#ffffff" stroke-width="2.0" stroke-linecap="round" stroke-linejoin="round"  />
<path d="M 1177.31,341.38 L 817.60,285.71" fill="none" stroke="#ffffff" stroke-width="2.0" stroke-linecap="round" stroke-linejoin="round"  />
<path d="M 1184.00,325.11 L 1177.31,341.38" fill="none" stroke="#ffffff" stroke-width="2.0" stroke-linecap="round" stroke-linejoin="round"  />
<path d="M 596.42,317.21 L 596.42,363.64" fill="none" stroke="#ffffff" stroke-width="2.0" stroke-linecap="round" stroke-linejoin="round"  />
<path d="M 552.29,346.79 L 590.53,366.70" fill="none" stroke="#ffffff" stroke-width="2.0" stroke-linecap="round" stroke-linejoin="round"  />
<path d="M 552.29,294.23 L 552.29,346.79" fill="none" stroke="#ffffff" stroke-width="2.0" stroke-linecap="round" stroke-linejoin="round"  />
<path d="M 552.29,577.89 L 552.29,525.33" fill="none" stroke="#ffffff" stroke-width="2.0" stroke-linecap="round" stroke-linejoin="round"  />
<path d="M 552.29,525.33 L 590.53,545.24" fill="none" stroke="#ffffff" stroke-width="2.0" stroke-linecap="round" stroke-linejoin="round"  />
<path d="M 596.42,600.87 L 596.42,554.43" fill="none" stroke="#ffffff" stroke-width="2.0" stroke-linecap="round" stroke-linejoin="round"  />
<path d="M 699.62,370.94 L 699.62,654.60" fill="none" stroke="#ffffff" stroke-width="2.0" stroke-linecap="round" stroke-linejoin="round"  />
<path d="M 1177.31,341.38 L 1177.31,625.04" fill="none" stroke="#ffffff" stroke-width="2.0" stroke-linecap="round" stroke-linejoin="round"  />
<path d="M 800.50,482.38 L 800.50,397.42" fill="none" stroke="#ffffff" stroke-width="2.0" stroke-linecap="round" stroke-linejoin="round"  />
<path d="M 770.41,504.11 L 770.41,419.16" fill="none" stroke="#ffffff" stroke-width="2.0" stroke-linecap="round" stroke-linejoin="round"  />
<path d="M 758.61,527.75 L 705.52,566.11" fill="none" stroke="#ffffff" stroke-width="2.0" stroke-linecap="round" stroke-linejoin="round"  />
<path d="M 758.61,412.56 L 705.52,450.91" fill="none" stroke="#ffffff" stroke-width="2.0" stroke-linecap="round" stroke-linejoin="round"  />
<path d="M 817.60,285.71 L 817.60,569.37" fill="none" stroke="#ffffff" stroke-width="2.0" stroke-linecap="round" stroke-linejoin="round"  />
<path d="M 1151.24,369.38 L 1148.06,361.87 L 1139.20,356.76 L 1129.44,357.74 L 1125.34,362.13" fill="none" stroke="#ffffff" stroke-width="2.0" stroke-linecap="round" stroke-linejoin="round"  />
<path d="M 1125.34,362.13 L 1124.72,365.28" fill="none" stroke="#ffffff" stroke-width="2.0" stroke-linecap="round" stroke-linejoin="round"  />
<path d="M 1151.24,588.96 L 1148.06,581.46 L 1139.20,576.35 L 1129.44,577.33 L 1125.34,581.71" fill="none" stroke="#ffffff" stroke-width="2.0" stroke-linecap="round" stroke-linejoin="round"  />
<path d="M 1125.34,581.71 L 1124.72,584.86" fill="none" stroke="#ffffff" stroke-width="2.0" stroke-linecap="round" stroke-linejoin="round"  />
<path d="M 179.57,301.07 L 193.90,342.39" fill="none" stroke="#ffffff" stroke-width="2.0" stroke-linecap="round" stroke-linejoin="round"  />
<path d="M 186.79,300.12 L 186.79,300.29" fill="none" stroke="#ffffff" stroke-width="2.0" stroke-linecap="round" stroke-linejoin="round"  />
<path d="M 179.57,448.66 L 193.90,489.98" fill="none" stroke="#ffffff" stroke-width="2.0" stroke-linecap="round" stroke-linejoin="round"  />
<path d="M 186.79,447.71 L 186.79,447.88" fill="none" stroke="#ffffff" stroke-width="2.0" stroke-linecap="round" stroke-linejoin="round"  />
<path d="M 552.29,346.79 L 571.47,300.18" fill="none" stroke="#ffffff" stroke-width="2.0" stroke-linecap="round" stroke-linejoin="round"  />
<path d="M 571.47,247.62 L 571.47,300.18" fill="none" stroke="#ffffff" stroke-width="2.0" stroke-linecap="round" stroke-linejoin="round"  />
<path d="M 571.47,300.18 L 601.51,304.83" fill="none" stroke="#ffffff" stroke-width="2.0" stroke-linecap="round" stroke-linejoin="round"  />
<path d="M 609.85,284.56 L 605.79,277.15 L 596.41,272.72 L 587.09,274.60 L 584.01,278.35" fill="none" stroke="#ffffff" stroke-width="2.0" stroke-linecap="round" stroke-linejoin="round"  />
<path d="M 584.01,278.35 L 583.40,281.50" fill="none" stroke="#ffffff" stroke-width="2.0" stroke-linecap="round" stroke-linejoin="round"  />
<path d="M 16.00,214.22 L 60.19,221.05" fill="none" stroke="#ffffff" stroke-width="2.0" stroke-linecap="round" stroke-linejoin="round"  />
<path d="M 68.52,200.79 L 64.47,193.37 L 55.08,188.95 L 45.76,190.83 L 42.68,194.58" fill="none" stroke="#ffffff" stroke-width="2.0" stroke-linecap="round" stroke-linejoin="round"  />
<path d="M 42.68,194.58 L 42.07,197.73" fill="none" stroke="#ffffff" stroke-width="2.0" stroke-linecap="round" stroke-linejoin="round"  />
        
      </svg>
    