
      <svg xmlns="http://www.w3.org/2000/svg" width="1200" height="800" viewBox="0 0 1200 800" style="background: transparent;">
        
        <path d="M 943.01,253.95 L 955.54,242.53" fill="none" stroke="#ffffff" stroke-width="1.2" stroke-linecap="round" stroke-linejoin="round"  />
<path d="M 955.54,242.53 L 953.67,237.93" fill="none" stroke="#ffffff" stroke-width="1.2" stroke-linecap="round" stroke-linejoin="round"  />
<path d="M 823.27,252.07 L 848.08,246.19" fill="none" stroke="#ffffff" stroke-width="1.2" stroke-linecap="round" stroke-linejoin="round"  />
<path d="M 185.36,348.77 L 198.92,341.47" fill="none" stroke="#ffffff" stroke-width="1.2" stroke-linecap="round" stroke-linejoin="round"  />
<path d="M 198.92,341.47 L 191.83,335.84 L 151.52,334.17" fill="none" stroke="#ffffff" stroke-width="1.2" stroke-linecap="round" stroke-linejoin="round"  />
<path d="M 112.04,317.14 L 74.18,330.54 L 66.81,341.47" fill="none" stroke="#ffffff" stroke-width="1.2" stroke-linecap="round" stroke-linejoin="round"  />
<path d="M 66.81,341.47 L 74.11,352.36 L 102.33,363.69 L 160.37,370.63 L 224.84,365.80" fill="none" stroke="#ffffff" stroke-width="1.2" stroke-linecap="round" stroke-linejoin="round"  />
<path d="M 66.81,380.40 L 74.11,391.29 L 102.33,402.62 L 160.37,409.56 L 224.84,404.73" fill="none" stroke="#ffffff" stroke-width="1.2" stroke-linecap="round" stroke-linejoin="round"  />
<path d="M 759.63,442.06 L 740.55,430.44 L 734.00,417.71" fill="none" stroke="#ffffff" stroke-width="1.2" stroke-linecap="round" stroke-linejoin="round"  />
<path d="M 971.04,395.82 L 894.68,403.13 L 809.91,397.26 L 782.06,391.30 L 759.63,383.67" fill="none" stroke="#ffffff" stroke-width="1.2" stroke-linecap="round" stroke-linejoin="round"  />
<path d="M 923.10,258.35 L 943.01,253.95" fill="none" stroke="#ffffff" stroke-width="1.2" stroke-linecap="round" stroke-linejoin="round"  />
<path d="M 805.59,247.34 L 826.46,257.02 L 876.31,263.10 L 901.16,261.98 L 923.10,258.35" fill="none" stroke="#ffffff" stroke-width="1.2" stroke-linecap="round" stroke-linejoin="round"  />
<path d="M 804.69,237.61 L 805.59,247.34" fill="none" stroke="#ffffff" stroke-width="1.2" stroke-linecap="round" stroke-linejoin="round"  />
<path d="M 801.71,237.43 L 803.20,237.52 L 804.69,237.61" fill="none" stroke="#ffffff" stroke-width="1.2" stroke-linecap="round" stroke-linejoin="round"  />
<path d="M 850.08,220.66 L 818.65,227.30 L 801.71,237.43" fill="none" stroke="#ffffff" stroke-width="1.2" stroke-linecap="round" stroke-linejoin="round"  />
<path d="M 953.67,237.93 L 943.84,229.63" fill="none" stroke="#ffffff" stroke-width="1.2" stroke-linecap="round" stroke-linejoin="round"  />
<path d="M 943.84,229.63 L 910.02,221.20 L 850.08,220.66" fill="none" stroke="#ffffff" stroke-width="1.2" stroke-linecap="round" stroke-linejoin="round"  />
<path d="M 224.84,404.73 L 262.69,391.33 L 270.06,380.40" fill="none" stroke="#ffffff" stroke-width="1.2" stroke-linecap="round" stroke-linejoin="round"  />
<path d="M 224.02,316.99 L 801.84,206.03" fill="none" stroke="#ffffff" stroke-width="1.2" stroke-linecap="round" stroke-linejoin="round"  />
<path d="M 253.04,416.90 L 176.68,424.21 L 91.91,418.34 L 36.66,402.45 L 21.25,391.82 L 16.00,380.40" fill="none" stroke="#ffffff" stroke-width="1.2" stroke-linecap="round" stroke-linejoin="round"  />
<path d="M 16.00,380.40 L 23.33,366.96 L 66.81,347.70" fill="none" stroke="#ffffff" stroke-width="1.2" stroke-linecap="round" stroke-linejoin="round"  />
<path d="M 253.04,416.90 L 971.04,279.03" fill="none" stroke="#ffffff" stroke-width="1.2" stroke-linecap="round" stroke-linejoin="round"  />
<path d="M 801.84,206.03 L 878.19,198.72 L 962.96,204.59 L 1018.22,220.48 L 1033.62,231.11 L 1038.87,242.53" fill="none" stroke="#ffffff" stroke-width="1.2" stroke-linecap="round" stroke-linejoin="round"  />
<path d="M 1038.87,242.53 L 1031.54,255.97 L 1004.63,270.24 L 988.97,274.99 L 971.04,279.03" fill="none" stroke="#ffffff" stroke-width="1.2" stroke-linecap="round" stroke-linejoin="round"  />
<path d="M 253.04,475.29 L 176.68,482.60 L 91.91,476.74 L 36.66,460.85 L 21.25,450.21 L 16.00,438.80" fill="none" stroke="#ffffff" stroke-width="1.2" stroke-linecap="round" stroke-linejoin="round"  />
<path d="M 253.04,475.29 L 971.04,337.42" fill="none" stroke="#ffffff" stroke-width="1.2" stroke-linecap="round" stroke-linejoin="round"  />
<path d="M 1038.87,359.32 L 1031.54,372.76 L 1004.63,387.03 L 988.97,391.78 L 971.04,395.82" fill="none" stroke="#ffffff" stroke-width="1.2" stroke-linecap="round" stroke-linejoin="round"  />
<path d="M 224.84,365.80 L 262.69,352.40 L 270.06,341.47" fill="none" stroke="#ffffff" stroke-width="1.2" stroke-linecap="round" stroke-linejoin="round"  />
<path d="M 270.06,341.47 L 262.76,330.58 L 234.54,319.26 L 176.50,312.31 L 112.04,317.14" fill="none" stroke="#ffffff" stroke-width="1.2" stroke-linecap="round" stroke-linejoin="round"  />
<path d="M 151.52,334.17 L 137.95,341.47" fill="none" stroke="#ffffff" stroke-width="1.2" stroke-linecap="round" stroke-linejoin="round"  />
<path d="M 137.95,341.47 L 145.05,347.10 L 185.36,348.77" fill="none" stroke="#ffffff" stroke-width="1.2" stroke-linecap="round" stroke-linejoin="round"  />
<path d="M 759.63,442.06 L 827.47,479.03 L 864.08,513.72 L 874.98,533.51 L 879.09,553.51" fill="none" stroke="#ffffff" stroke-width="1.2" stroke-linecap="round" stroke-linejoin="round"  />
<path d="M 759.63,383.67 L 827.47,420.63 L 864.08,455.33 L 875.36,476.15 L 879.13,497.19" fill="none" stroke="#ffffff" stroke-width="1.2" stroke-linecap="round" stroke-linejoin="round"  />
<path d="M 879.13,497.19 L 879.10,499.07" fill="none" stroke="#ffffff" stroke-width="1.2" stroke-linecap="round" stroke-linejoin="round"  />
<path d="M 1038.87,346.61 L 1114.14,390.66 L 1158.65,432.28 L 1179.90,470.95 L 1184.00,497.19" fill="none" stroke="#ffffff" stroke-width="1.2" stroke-linecap="round" stroke-linejoin="round"  />
<path d="M 1184.00,497.19 L 1183.96,499.88" fill="none" stroke="#ffffff" stroke-width="1.2" stroke-linecap="round" stroke-linejoin="round"  />
<path d="M 1184.00,555.58 L 1183.96,558.27" fill="none" stroke="#ffffff" stroke-width="1.2" stroke-linecap="round" stroke-linejoin="round"  />
<path d="M 879.10,499.07 L 879.09,499.47" fill="none" stroke="#ffffff" stroke-width="1.2" stroke-linecap="round" stroke-linejoin="round"  />
<path d="M 879.09,499.47 L 886.42,512.92 L 913.34,527.18 L 970.45,539.67 L 1053.64,542.88 L 1116.13,535.97" fill="none" stroke="#ffffff" stroke-width="1.2" stroke-linecap="round" stroke-linejoin="round"  />
<path d="M 879.10,557.47 L 879.09,557.87" fill="none" stroke="#ffffff" stroke-width="1.2" stroke-linecap="round" stroke-linejoin="round"  />
<path d="M 879.09,557.87 L 886.42,571.31 L 913.34,585.58 L 970.45,598.07 L 1053.64,601.28 L 1116.13,594.36" fill="none" stroke="#ffffff" stroke-width="1.2" stroke-linecap="round" stroke-linejoin="round"  />
<path d="M 1116.13,594.36 L 1166.88,578.05 L 1183.96,558.27" fill="none" stroke="#ffffff" stroke-width="1.2" stroke-linecap="round" stroke-linejoin="round"  />
<path d="M 1116.13,535.97 L 1166.88,519.65 L 1183.96,499.88" fill="none" stroke="#ffffff" stroke-width="1.2" stroke-linecap="round" stroke-linejoin="round"  />
        <path d="M 66.81,341.47 L 66.81,380.40" fill="none" stroke="#ffffff" stroke-width="1.2" stroke-linecap="round" stroke-linejoin="round"  />
<path d="M 734.00,382.94 L 734.00,417.71" fill="none" stroke="#ffffff" stroke-width="1.2" stroke-linecap="round" stroke-linejoin="round"  />
<path d="M 16.00,380.40 L 16.00,438.80" fill="none" stroke="#ffffff" stroke-width="1.2" stroke-linecap="round" stroke-linejoin="round"  />
<path d="M 1038.87,242.53 L 1038.87,359.32" fill="none" stroke="#ffffff" stroke-width="1.2" stroke-linecap="round" stroke-linejoin="round"  />
<path d="M 270.06,341.47 L 270.06,380.40" fill="none" stroke="#ffffff" stroke-width="1.2" stroke-linecap="round" stroke-linejoin="round"  />
<path d="M 1184.00,555.58 L 1184.00,497.19" fill="none" stroke="#ffffff" stroke-width="1.2" stroke-linecap="round" stroke-linejoin="round"  />
<path d="M 879.09,557.87 L 879.09,499.47" fill="none" stroke="#ffffff" stroke-width="1.2" stroke-linecap="round" stroke-linejoin="round"  />
<path d="M 944.41,229.91 L 943.84,229.64" fill="none" stroke="#ffffff" stroke-width="1.2" stroke-linecap="round" stroke-linejoin="round"  />
      </svg>
    