
      <svg xmlns="http://www.w3.org/2000/svg" width="1200" height="800" viewBox="0 0 1200 800" style="background: #ffffff;">
        
        <path d="M 797.54,308.41 L 795.62,311.08" fill="none" stroke="#2a2a2a" stroke-width="1.2" stroke-linecap="round" stroke-linejoin="round"  />
<path d="M 795.62,311.08 L 797.05,313.45 L 801.40,314.84 L 804.32,314.66 L 806.81,313.76" fill="none" stroke="#2a2a2a" stroke-width="1.2" stroke-linecap="round" stroke-linejoin="round"  />
<path d="M 879.84,355.93 L 877.92,358.60" fill="none" stroke="#2a2a2a" stroke-width="1.2" stroke-linecap="round" stroke-linejoin="round"  />
<path d="M 877.92,358.60 L 879.36,360.97 L 883.71,362.36 L 886.63,362.18 L 889.12,361.28" fill="none" stroke="#2a2a2a" stroke-width="1.2" stroke-linecap="round" stroke-linejoin="round"  />
<path d="M 151.55,359.10 L 151.55,444.10" fill="none" stroke="#2a2a2a" stroke-width="1.2" stroke-linecap="round" stroke-linejoin="round"  />
<path d="M 151.55,444.10 L 607.71,707.47" fill="none" stroke="#2a2a2a" stroke-width="1.2" stroke-linecap="round" stroke-linejoin="round"  />
<path d="M 607.71,622.47 L 607.71,707.47" fill="none" stroke="#2a2a2a" stroke-width="1.2" stroke-linecap="round" stroke-linejoin="round"  />
<path d="M 151.55,295.43 L 151.55,300.54" fill="none" stroke="#2a2a2a" stroke-width="1.2" stroke-linecap="round" stroke-linejoin="round"  />
<path d="M 151.55,300.54 L 153.77,301.82" fill="none" stroke="#2a2a2a" stroke-width="1.2" stroke-linecap="round" stroke-linejoin="round"  />
<path d="M 153.77,301.82 L 151.55,295.43" fill="none" stroke="#2a2a2a" stroke-width="1.2" stroke-linecap="round" stroke-linejoin="round"  />
<path d="M 160.25,297.20 L 160.25,305.56" fill="none" stroke="#2a2a2a" stroke-width="1.2" stroke-linecap="round" stroke-linejoin="round"  />
<path d="M 160.25,305.56 L 213.23,336.15" fill="none" stroke="#2a2a2a" stroke-width="1.2" stroke-linecap="round" stroke-linejoin="round"  />
<path d="M 213.23,336.15 L 213.23,327.79" fill="none" stroke="#2a2a2a" stroke-width="1.2" stroke-linecap="round" stroke-linejoin="round"  />
<path d="M 160.25,297.20 L 213.23,327.79" fill="none" stroke="#2a2a2a" stroke-width="1.2" stroke-linecap="round" stroke-linejoin="round"  />
<path d="M 250.91,357.90 L 250.91,349.54" fill="none" stroke="#2a2a2a" stroke-width="1.2" stroke-linecap="round" stroke-linejoin="round"  />
<path d="M 250.91,357.90 L 508.36,506.54" fill="none" stroke="#2a2a2a" stroke-width="1.2" stroke-linecap="round" stroke-linejoin="round"  />
<path d="M 508.36,506.54 L 508.36,498.18" fill="none" stroke="#2a2a2a" stroke-width="1.2" stroke-linecap="round" stroke-linejoin="round"  />
<path d="M 250.91,349.54 L 508.36,498.18" fill="none" stroke="#2a2a2a" stroke-width="1.2" stroke-linecap="round" stroke-linejoin="round"  />
<path d="M 546.03,528.29 L 546.03,519.93" fill="none" stroke="#2a2a2a" stroke-width="1.2" stroke-linecap="round" stroke-linejoin="round"  />
<path d="M 546.03,528.29 L 599.02,558.89" fill="none" stroke="#2a2a2a" stroke-width="1.2" stroke-linecap="round" stroke-linejoin="round"  />
<path d="M 599.02,550.52 L 599.02,558.89" fill="none" stroke="#2a2a2a" stroke-width="1.2" stroke-linecap="round" stroke-linejoin="round"  />
<path d="M 546.03,519.93 L 599.02,550.52" fill="none" stroke="#2a2a2a" stroke-width="1.2" stroke-linecap="round" stroke-linejoin="round"  />
<path d="M 605.50,562.63 L 607.71,558.79" fill="none" stroke="#2a2a2a" stroke-width="1.2" stroke-linecap="round" stroke-linejoin="round"  />
<path d="M 605.50,562.63 L 607.71,563.90" fill="none" stroke="#2a2a2a" stroke-width="1.2" stroke-linecap="round" stroke-linejoin="round"  />
<path d="M 607.71,558.79 L 607.71,563.90" fill="none" stroke="#2a2a2a" stroke-width="1.2" stroke-linecap="round" stroke-linejoin="round"  />
<path d="M 868.54,356.09 L 833.18,335.68" fill="none" stroke="#2a2a2a" stroke-width="1.2" stroke-linecap="round" stroke-linejoin="round"  />
<path d="M 833.18,335.68 L 824.49,340.70" fill="none" stroke="#2a2a2a" stroke-width="1.2" stroke-linecap="round" stroke-linejoin="round"  />
<path d="M 824.49,340.70 L 823.91,340.36" fill="none" stroke="#2a2a2a" stroke-width="1.2" stroke-linecap="round" stroke-linejoin="round"  />
<path d="M 823.91,340.36 L 800.72,353.75" fill="none" stroke="#2a2a2a" stroke-width="1.2" stroke-linecap="round" stroke-linejoin="round"  />
<path d="M 800.72,353.75 L 780.44,342.04" fill="none" stroke="#2a2a2a" stroke-width="1.2" stroke-linecap="round" stroke-linejoin="round"  />
<path d="M 780.44,315.27 L 667.41,250.01" fill="none" stroke="#2a2a2a" stroke-width="1.2" stroke-linecap="round" stroke-linejoin="round"  />
<path d="M 1048.22,271.09 L 652.92,42.87" fill="none" stroke="#2a2a2a" stroke-width="1.2" stroke-linecap="round" stroke-linejoin="round"  />
<path d="M 652.92,42.87 L 644.23,54.58" fill="none" stroke="#2a2a2a" stroke-width="1.2" stroke-linecap="round" stroke-linejoin="round"  />
<path d="M 644.23,54.58 L 644.23,209.85" fill="none" stroke="#2a2a2a" stroke-width="1.2" stroke-linecap="round" stroke-linejoin="round"  />
<path d="M 644.23,209.85 L 645.70,220.10 L 650.35,231.51 L 657.73,241.98 L 667.41,250.01" fill="none" stroke="#2a2a2a" stroke-width="1.2" stroke-linecap="round" stroke-linejoin="round"  />
<path d="M 823.91,310.25 L 803.62,298.53" fill="none" stroke="#2a2a2a" stroke-width="1.2" stroke-linecap="round" stroke-linejoin="round"  />
<path d="M 823.91,310.25 L 823.91,340.36" fill="none" stroke="#2a2a2a" stroke-width="1.2" stroke-linecap="round" stroke-linejoin="round"  />
<path d="M 824.49,340.70 L 824.49,306.57" fill="none" stroke="#2a2a2a" stroke-width="1.2" stroke-linecap="round" stroke-linejoin="round"  />
<path d="M 885.35,341.70 L 824.49,306.57" fill="none" stroke="#2a2a2a" stroke-width="1.2" stroke-linecap="round" stroke-linejoin="round"  />
<path d="M 885.35,346.39 L 885.35,341.70" fill="none" stroke="#2a2a2a" stroke-width="1.2" stroke-linecap="round" stroke-linejoin="round"  />
<path d="M 902.16,355.42 L 885.93,346.05" fill="none" stroke="#2a2a2a" stroke-width="1.2" stroke-linecap="round" stroke-linejoin="round"  />
<path d="M 654.95,126.70 L 654.95,227.09" fill="none" stroke="#2a2a2a" stroke-width="1.2" stroke-linecap="round" stroke-linejoin="round"  />
<path d="M 712.91,93.23 L 654.95,126.70" fill="none" stroke="#2a2a2a" stroke-width="1.2" stroke-linecap="round" stroke-linejoin="round"  />
<path d="M 712.91,260.55 L 712.91,93.23" fill="none" stroke="#2a2a2a" stroke-width="1.2" stroke-linecap="round" stroke-linejoin="round"  />
<path d="M 654.95,227.09 L 712.91,260.55" fill="none" stroke="#2a2a2a" stroke-width="1.2" stroke-linecap="round" stroke-linejoin="round"  />
<path d="M 1015.76,289.83 L 996.92,257.21" fill="none" stroke="#2a2a2a" stroke-width="1.2" stroke-linecap="round" stroke-linejoin="round"  />
<path d="M 996.92,257.21 L 996.92,300.71" fill="none" stroke="#2a2a2a" stroke-width="1.2" stroke-linecap="round" stroke-linejoin="round"  />
<path d="M 644.23,17.77 L 661.62,27.81" fill="none" stroke="#2a2a2a" stroke-width="1.2" stroke-linecap="round" stroke-linejoin="round"  />
<path d="M 1056.91,266.07 L 652.92,32.83" fill="none" stroke="#2a2a2a" stroke-width="1.2" stroke-linecap="round" stroke-linejoin="round"  />
<path d="M 1065.61,261.05 L 1083.00,271.09" fill="none" stroke="#2a2a2a" stroke-width="1.2" stroke-linecap="round" stroke-linejoin="round"  />
<path d="M 1083.00,271.09 L 1083.00,284.38" fill="none" stroke="#2a2a2a" stroke-width="1.2" stroke-linecap="round" stroke-linejoin="round"  />
<path d="M 1091.69,279.36 L 1091.69,491.72" fill="none" stroke="#2a2a2a" stroke-width="1.2" stroke-linecap="round" stroke-linejoin="round"  />
<path d="M 637.49,21.66 L 635.53,16.00" fill="none" stroke="#2a2a2a" stroke-width="1.2" stroke-linecap="round" stroke-linejoin="round"  />
<path d="M 1005.62,272.27 L 1005.62,295.69" fill="none" stroke="#2a2a2a" stroke-width="1.2" stroke-linecap="round" stroke-linejoin="round"  />
<path d="M 663.64,121.68 L 663.64,222.07" fill="none" stroke="#2a2a2a" stroke-width="1.2" stroke-linecap="round" stroke-linejoin="round"  />
<path d="M 663.64,222.07 L 712.91,250.51" fill="none" stroke="#2a2a2a" stroke-width="1.2" stroke-linecap="round" stroke-linejoin="round"  />
<path d="M 833.18,335.68 L 833.18,311.59" fill="none" stroke="#2a2a2a" stroke-width="1.2" stroke-linecap="round" stroke-linejoin="round"  />
<path d="M 259.60,344.52 L 517.05,493.16" fill="none" stroke="#2a2a2a" stroke-width="1.2" stroke-linecap="round" stroke-linejoin="round"  />
<path d="M 259.60,344.52 L 250.91,349.54" fill="none" stroke="#2a2a2a" stroke-width="1.2" stroke-linecap="round" stroke-linejoin="round"  />
<path d="M 517.05,493.16 L 508.36,498.18" fill="none" stroke="#2a2a2a" stroke-width="1.2" stroke-linecap="round" stroke-linejoin="round"  />
<path d="M 559.07,517.42 L 590.32,535.46" fill="none" stroke="#2a2a2a" stroke-width="1.2" stroke-linecap="round" stroke-linejoin="round"  />
<path d="M 559.07,517.42 L 550.38,517.42" fill="none" stroke="#2a2a2a" stroke-width="1.2" stroke-linecap="round" stroke-linejoin="round"  />
<path d="M 550.38,517.42 L 546.03,519.93" fill="none" stroke="#2a2a2a" stroke-width="1.2" stroke-linecap="round" stroke-linejoin="round"  />
<path d="M 599.02,550.52 L 1083.00,271.09" fill="none" stroke="#2a2a2a" stroke-width="1.2" stroke-linecap="round" stroke-linejoin="round"  />
<path d="M 1065.61,261.05 L 590.32,535.46" fill="none" stroke="#2a2a2a" stroke-width="1.2" stroke-linecap="round" stroke-linejoin="round"  />
<path d="M 186.33,302.22 L 217.58,320.26" fill="none" stroke="#2a2a2a" stroke-width="1.2" stroke-linecap="round" stroke-linejoin="round"  />
<path d="M 252.36,348.70 L 217.58,328.62" fill="none" stroke="#2a2a2a" stroke-width="1.2" stroke-linecap="round" stroke-linejoin="round"  />
<path d="M 517.05,501.52 L 517.05,493.16" fill="none" stroke="#2a2a2a" stroke-width="1.2" stroke-linecap="round" stroke-linejoin="round"  />
<path d="M 547.48,519.09 L 517.05,501.52" fill="none" stroke="#2a2a2a" stroke-width="1.2" stroke-linecap="round" stroke-linejoin="round"  />
<path d="M 644.23,54.58 L 200.82,310.58" fill="none" stroke="#2a2a2a" stroke-width="1.2" stroke-linecap="round" stroke-linejoin="round"  />
<path d="M 217.58,325.28 L 213.23,327.79" fill="none" stroke="#2a2a2a" stroke-width="1.2" stroke-linecap="round" stroke-linejoin="round"  />
<path d="M 217.58,320.26 L 217.58,325.28" fill="none" stroke="#2a2a2a" stroke-width="1.2" stroke-linecap="round" stroke-linejoin="round"  />
<path d="M 661.62,27.81 L 186.33,302.22" fill="none" stroke="#2a2a2a" stroke-width="1.2" stroke-linecap="round" stroke-linejoin="round"  />
<path d="M 160.25,297.20 L 644.23,17.77" fill="none" stroke="#2a2a2a" stroke-width="1.2" stroke-linecap="round" stroke-linejoin="round"  />
<path d="M 654.95,227.09 L 663.64,222.07" fill="none" stroke="#2a2a2a" stroke-width="1.2" stroke-linecap="round" stroke-linejoin="round"  />
<path d="M 607.71,558.79 L 1091.69,279.36" fill="none" stroke="#2a2a2a" stroke-width="1.2" stroke-linecap="round" stroke-linejoin="round"  />
<path d="M 607.71,707.47 L 564.89,781.63" fill="none" stroke="#2a2a2a" stroke-width="1.2" stroke-linecap="round" stroke-linejoin="round"  />
<path d="M 564.89,781.63 L 564.47,783.06" fill="none" stroke="#2a2a2a" stroke-width="1.2" stroke-linecap="round" stroke-linejoin="round"  />
<path d="M 564.47,783.06 L 564.89,784.00" fill="none" stroke="#2a2a2a" stroke-width="1.2" stroke-linecap="round" stroke-linejoin="round"  />
<path d="M 564.89,784.00 L 566.70,783.18" fill="none" stroke="#2a2a2a" stroke-width="1.2" stroke-linecap="round" stroke-linejoin="round"  />
<path d="M 566.70,783.18 L 580.84,766.70 L 590.26,759.38 L 596.57,757.52 L 600.33,758.51" fill="none" stroke="#2a2a2a" stroke-width="1.2" stroke-linecap="round" stroke-linejoin="round"  />
<path d="M 600.33,758.51 L 603.97,762.33 L 607.71,774.39" fill="none" stroke="#2a2a2a" stroke-width="1.2" stroke-linecap="round" stroke-linejoin="round"  />
<path d="M 607.71,771.15 L 607.71,774.39" fill="none" stroke="#2a2a2a" stroke-width="1.2" stroke-linecap="round" stroke-linejoin="round"  />
<path d="M 607.71,771.15 L 1091.69,491.72" fill="none" stroke="#2a2a2a" stroke-width="1.2" stroke-linecap="round" stroke-linejoin="round"  />
<path d="M 607.71,563.90 L 606.02,564.88" fill="none" stroke="#2a2a2a" stroke-width="1.2" stroke-linecap="round" stroke-linejoin="round"  />
<path d="M 566.70,594.11 L 578.51,594.60 L 587.65,592.11 L 594.88,587.07 L 600.68,579.32 L 606.02,564.88" fill="none" stroke="#2a2a2a" stroke-width="1.2" stroke-linecap="round" stroke-linejoin="round"  />
<path d="M 566.70,594.11 L 565.03,595.16 L 564.47,596.81" fill="none" stroke="#2a2a2a" stroke-width="1.2" stroke-linecap="round" stroke-linejoin="round"  />
<path d="M 564.47,596.81 L 564.89,597.74" fill="none" stroke="#2a2a2a" stroke-width="1.2" stroke-linecap="round" stroke-linejoin="round"  />
<path d="M 607.71,622.47 L 564.89,597.74" fill="none" stroke="#2a2a2a" stroke-width="1.2" stroke-linecap="round" stroke-linejoin="round"  />
<path d="M 599.02,769.37 L 586.24,762.00" fill="none" stroke="#2a2a2a" stroke-width="1.2" stroke-linecap="round" stroke-linejoin="round"  />
<path d="M 151.55,295.43 L 635.53,16.00" fill="none" stroke="#2a2a2a" stroke-width="1.2" stroke-linecap="round" stroke-linejoin="round"  />
<path d="M 108.31,519.70 L 108.73,520.64" fill="none" stroke="#2a2a2a" stroke-width="1.2" stroke-linecap="round" stroke-linejoin="round"  />
<path d="M 108.73,518.27 L 108.31,519.70" fill="none" stroke="#2a2a2a" stroke-width="1.2" stroke-linecap="round" stroke-linejoin="round"  />
<path d="M 108.73,518.27 L 151.55,444.10" fill="none" stroke="#2a2a2a" stroke-width="1.2" stroke-linecap="round" stroke-linejoin="round"  />
<path d="M 108.31,333.44 L 108.73,334.38" fill="none" stroke="#2a2a2a" stroke-width="1.2" stroke-linecap="round" stroke-linejoin="round"  />
<path d="M 110.55,330.75 L 108.87,331.79 L 108.31,333.44" fill="none" stroke="#2a2a2a" stroke-width="1.2" stroke-linecap="round" stroke-linejoin="round"  />
<path d="M 110.55,330.75 L 122.36,331.24 L 131.49,328.75 L 138.72,323.71 L 144.53,315.96 L 149.86,301.52" fill="none" stroke="#2a2a2a" stroke-width="1.2" stroke-linecap="round" stroke-linejoin="round"  />
<path d="M 149.86,301.52 L 151.55,300.54" fill="none" stroke="#2a2a2a" stroke-width="1.2" stroke-linecap="round" stroke-linejoin="round"  />
<path d="M 186.33,302.22 L 652.92,32.83" fill="none" stroke="#2a2a2a" stroke-width="1.2" stroke-linecap="round" stroke-linejoin="round"  />
<path d="M 652.92,42.87 L 195.03,307.24" fill="none" stroke="#2a2a2a" stroke-width="1.2" stroke-linecap="round" stroke-linejoin="round"  />
<path d="M 508.36,506.54 L 517.05,501.52" fill="none" stroke="#2a2a2a" stroke-width="1.2" stroke-linecap="round" stroke-linejoin="round"  />
<path d="M 213.23,336.15 L 217.58,333.64" fill="none" stroke="#2a2a2a" stroke-width="1.2" stroke-linecap="round" stroke-linejoin="round"  />
<path d="M 153.77,301.82 L 160.25,305.56" fill="none" stroke="#2a2a2a" stroke-width="1.2" stroke-linecap="round" stroke-linejoin="round"  />
<path d="M 149.86,301.52 L 606.02,564.88" fill="none" stroke="#2a2a2a" stroke-width="1.2" stroke-linecap="round" stroke-linejoin="round"  />
<path d="M 599.02,558.89 L 605.50,562.63" fill="none" stroke="#2a2a2a" stroke-width="1.2" stroke-linecap="round" stroke-linejoin="round"  />
<path d="M 217.58,333.64 L 217.58,325.28" fill="none" stroke="#2a2a2a" stroke-width="1.2" stroke-linecap="round" stroke-linejoin="round"  />
<path d="M 823.91,310.25 L 800.72,323.63" fill="none" stroke="#2a2a2a" stroke-width="1.2" stroke-linecap="round" stroke-linejoin="round"  />
<path d="M 800.72,323.63 L 800.72,353.75" fill="none" stroke="#2a2a2a" stroke-width="1.2" stroke-linecap="round" stroke-linejoin="round"  />
<path d="M 780.44,311.92 L 780.44,342.04" fill="none" stroke="#2a2a2a" stroke-width="1.2" stroke-linecap="round" stroke-linejoin="round"  />
<path d="M 780.44,311.92 L 803.62,298.53" fill="none" stroke="#2a2a2a" stroke-width="1.2" stroke-linecap="round" stroke-linejoin="round"  />
<path d="M 800.72,323.63 L 780.44,311.92" fill="none" stroke="#2a2a2a" stroke-width="1.2" stroke-linecap="round" stroke-linejoin="round"  />
<path d="M 806.81,313.76 L 808.73,311.08" fill="none" stroke="#2a2a2a" stroke-width="1.2" stroke-linecap="round" stroke-linejoin="round"  />
<path d="M 808.73,311.08 L 807.30,308.72 L 802.94,307.32 L 800.02,307.51 L 797.54,308.41" fill="none" stroke="#2a2a2a" stroke-width="1.2" stroke-linecap="round" stroke-linejoin="round"  />
<path d="M 862.74,359.44 L 878.97,368.81" fill="none" stroke="#2a2a2a" stroke-width="1.2" stroke-linecap="round" stroke-linejoin="round"  />
<path d="M 862.74,359.44 L 862.74,378.18" fill="none" stroke="#2a2a2a" stroke-width="1.2" stroke-linecap="round" stroke-linejoin="round"  />
<path d="M 885.93,346.05 L 862.74,359.44" fill="none" stroke="#2a2a2a" stroke-width="1.2" stroke-linecap="round" stroke-linejoin="round"  />
<path d="M 889.12,361.28 L 891.04,358.60" fill="none" stroke="#2a2a2a" stroke-width="1.2" stroke-linecap="round" stroke-linejoin="round"  />
<path d="M 891.04,358.60 L 889.60,356.24 L 885.25,354.84 L 882.33,355.03 L 879.84,355.93" fill="none" stroke="#2a2a2a" stroke-width="1.2" stroke-linecap="round" stroke-linejoin="round"  />
<path d="M 108.73,334.38 L 564.89,597.74" fill="none" stroke="#2a2a2a" stroke-width="1.2" stroke-linecap="round" stroke-linejoin="round"  />
<path d="M 599.02,769.37 L 607.71,774.39" fill="none" stroke="#2a2a2a" stroke-width="1.2" stroke-linecap="round" stroke-linejoin="round"  />
        <path d="M 108.73,520.64 L 564.89,784.00" fill="none" stroke="#2a2a2a" stroke-width="1.2" stroke-linecap="round" stroke-linejoin="round"  />
      </svg>
    