
      <svg xmlns="http://www.w3.org/2000/svg" width="1200" height="800" viewBox="0 0 1200 800" style="background: transparent;">
        
        <path d="M 649.84,608.45 L 644.12,688.54" fill="none" stroke="#ffffff" stroke-width="2.0" stroke-linecap="round" stroke-linejoin="round"  />
<path d="M 654.79,605.55 L 649.84,608.45" fill="none" stroke="#ffffff" stroke-width="2.0" stroke-linecap="round" stroke-linejoin="round"  />
<path d="M 501.59,495.32 L 499.70,487.63 L 494.53,483.44" fill="none" stroke="#ffffff" stroke-width="2.0" stroke-linecap="round" stroke-linejoin="round"  />
<path d="M 494.53,483.44 L 492.40,486.13 L 492.10,488.69" fill="none" stroke="#ffffff" stroke-width="2.0" stroke-linecap="round" stroke-linejoin="round"  />
<path d="M 531.81,577.79 L 529.94,570.09 L 524.77,565.91" fill="none" stroke="#ffffff" stroke-width="2.0" stroke-linecap="round" stroke-linejoin="round"  />
<path d="M 524.77,565.91 L 522.64,568.59 L 522.33,571.15" fill="none" stroke="#ffffff" stroke-width="2.0" stroke-linecap="round" stroke-linejoin="round"  />
<path d="M 824.55,665.39 L 828.83,662.82 L 837.17,662.64 L 843.73,665.93 L 844.65,668.39" fill="none" stroke="#ffffff" stroke-width="2.0" stroke-linecap="round" stroke-linejoin="round"  />
<path d="M 844.65,668.39 L 844.09,669.91" fill="none" stroke="#ffffff" stroke-width="2.0" stroke-linecap="round" stroke-linejoin="round"  />
<path d="M 752.86,679.26 L 757.14,676.69 L 765.48,676.52 L 772.04,679.80 L 772.96,682.27" fill="none" stroke="#ffffff" stroke-width="2.0" stroke-linecap="round" stroke-linejoin="round"  />
<path d="M 772.96,682.27 L 772.40,683.79" fill="none" stroke="#ffffff" stroke-width="2.0" stroke-linecap="round" stroke-linejoin="round"  />
<path d="M 718.84,640.27 L 723.12,637.70 L 731.46,637.52 L 738.02,640.81 L 738.94,643.27" fill="none" stroke="#ffffff" stroke-width="2.0" stroke-linecap="round" stroke-linejoin="round"  />
<path d="M 738.94,643.27 L 738.38,644.79" fill="none" stroke="#ffffff" stroke-width="2.0" stroke-linecap="round" stroke-linejoin="round"  />
<path d="M 790.53,626.39 L 794.81,623.82 L 803.15,623.65 L 809.71,626.93 L 810.63,629.40" fill="none" stroke="#ffffff" stroke-width="2.0" stroke-linecap="round" stroke-linejoin="round"  />
<path d="M 810.63,629.40 L 810.07,630.92" fill="none" stroke="#ffffff" stroke-width="2.0" stroke-linecap="round" stroke-linejoin="round"  />
<path d="M 430.55,37.18 L 442.14,40.96 L 446.63,47.08" fill="none" stroke="#ffffff" stroke-width="2.0" stroke-linecap="round" stroke-linejoin="round"  />
<path d="M 446.63,47.08 L 445.38,50.43" fill="none" stroke="#ffffff" stroke-width="2.0" stroke-linecap="round" stroke-linejoin="round"  />
<path d="M 445.38,50.43 L 439.58,54.52 L 427.96,57.29 L 421.62,57.51 L 415.37,56.98" fill="none" stroke="#ffffff" stroke-width="2.0" stroke-linecap="round" stroke-linejoin="round"  />
<path d="M 797.32,579.72 L 819.32,601.97" fill="none" stroke="#ffffff" stroke-width="2.0" stroke-linecap="round" stroke-linejoin="round"  />
<path d="M 649.84,608.45 L 675.24,629.85" fill="none" stroke="#ffffff" stroke-width="2.0" stroke-linecap="round" stroke-linejoin="round"  />
<path d="M 675.24,629.85 L 669.78,705.64" fill="none" stroke="#ffffff" stroke-width="2.0" stroke-linecap="round" stroke-linejoin="round"  />
<path d="M 644.12,688.54 L 669.78,705.64" fill="none" stroke="#ffffff" stroke-width="2.0" stroke-linecap="round" stroke-linejoin="round"  />
<path d="M 312.31,467.57 L 631.40,680.07" fill="none" stroke="#ffffff" stroke-width="2.0" stroke-linecap="round" stroke-linejoin="round"  />
<path d="M 312.31,324.20 L 312.31,467.57" fill="none" stroke="#ffffff" stroke-width="2.0" stroke-linecap="round" stroke-linejoin="round"  />
<path d="M 312.31,324.20 L 637.24,597.84" fill="none" stroke="#ffffff" stroke-width="2.0" stroke-linecap="round" stroke-linejoin="round"  />
<path d="M 631.40,680.07 L 637.24,597.84" fill="none" stroke="#ffffff" stroke-width="2.0" stroke-linecap="round" stroke-linejoin="round"  />
<path d="M 522.33,571.15 L 524.22,578.86 L 529.38,583.03" fill="none" stroke="#ffffff" stroke-width="2.0" stroke-linecap="round" stroke-linejoin="round"  />
<path d="M 529.38,583.03 L 531.51,580.35 L 531.81,577.79" fill="none" stroke="#ffffff" stroke-width="2.0" stroke-linecap="round" stroke-linejoin="round"  />
<path d="M 330.95,447.69 L 437.72,522.41" fill="none" stroke="#ffffff" stroke-width="2.0" stroke-linecap="round" stroke-linejoin="round"  />
<path d="M 437.72,522.41 L 437.76,501.18" fill="none" stroke="#ffffff" stroke-width="2.0" stroke-linecap="round" stroke-linejoin="round"  />
<path d="M 437.76,501.18 L 435.77,482.74 L 429.45,462.15 L 419.33,442.73 L 407.01,427.50 L 399.67,421.39" fill="none" stroke="#ffffff" stroke-width="2.0" stroke-linecap="round" stroke-linejoin="round"  />
<path d="M 330.97,373.35 L 399.67,421.39" fill="none" stroke="#ffffff" stroke-width="2.0" stroke-linecap="round" stroke-linejoin="round"  />
<path d="M 330.95,447.69 L 330.97,373.35" fill="none" stroke="#ffffff" stroke-width="2.0" stroke-linecap="round" stroke-linejoin="round"  />
<path d="M 492.10,488.69 L 493.99,496.39 L 499.15,500.57" fill="none" stroke="#ffffff" stroke-width="2.0" stroke-linecap="round" stroke-linejoin="round"  />
<path d="M 499.15,500.57 L 501.28,497.88 L 501.59,495.32" fill="none" stroke="#ffffff" stroke-width="2.0" stroke-linecap="round" stroke-linejoin="round"  />
<path d="M 547.42,49.96 L 547.42,327.03" fill="none" stroke="#ffffff" stroke-width="2.0" stroke-linecap="round" stroke-linejoin="round"  />
<path d="M 320.12,16.00 L 320.12,45.13" fill="none" stroke="#ffffff" stroke-width="2.0" stroke-linecap="round" stroke-linejoin="round"  />
<path d="M 547.42,49.96 L 320.12,16.00" fill="none" stroke="#ffffff" stroke-width="2.0" stroke-linecap="round" stroke-linejoin="round"  />
<path d="M 415.37,56.98 L 403.77,53.20 L 399.29,47.08" fill="none" stroke="#ffffff" stroke-width="2.0" stroke-linecap="round" stroke-linejoin="round"  />
<path d="M 399.29,47.08 L 400.54,43.73" fill="none" stroke="#ffffff" stroke-width="2.0" stroke-linecap="round" stroke-linejoin="round"  />
<path d="M 400.54,43.73 L 406.34,39.64 L 417.95,36.87 L 424.30,36.65 L 430.55,37.18" fill="none" stroke="#ffffff" stroke-width="2.0" stroke-linecap="round" stroke-linejoin="round"  />
<path d="M 658.29,575.61 L 372.39,311.56" fill="none" stroke="#ffffff" stroke-width="2.0" stroke-linecap="round" stroke-linejoin="round"  />
<path d="M 406.22,426.74 L 406.11,434.79" fill="none" stroke="#ffffff" stroke-width="2.0" stroke-linecap="round" stroke-linejoin="round"  />
<path d="M 431.90,468.68 L 405.93,448.78" fill="none" stroke="#ffffff" stroke-width="2.0" stroke-linecap="round" stroke-linejoin="round"  />
<path d="M 819.32,601.97 L 675.24,629.85" fill="none" stroke="#ffffff" stroke-width="2.0" stroke-linecap="round" stroke-linejoin="round"  />
<path d="M 637.24,597.84 L 646.12,597.43 L 653.85,600.61 L 655.08,602.20 L 655.41,603.86" fill="none" stroke="#ffffff" stroke-width="2.0" stroke-linecap="round" stroke-linejoin="round"  />
<path d="M 655.41,603.86 L 654.79,605.55" fill="none" stroke="#ffffff" stroke-width="2.0" stroke-linecap="round" stroke-linejoin="round"  />
<path d="M 372.39,311.56 L 312.31,324.20" fill="none" stroke="#ffffff" stroke-width="2.0" stroke-linecap="round" stroke-linejoin="round"  />
<path d="M 658.29,575.61 L 730.32,558.15" fill="none" stroke="#ffffff" stroke-width="2.0" stroke-linecap="round" stroke-linejoin="round"  />
<path d="M 730.32,558.15 L 447.41,295.78" fill="none" stroke="#ffffff" stroke-width="2.0" stroke-linecap="round" stroke-linejoin="round"  />
<path d="M 504.62,283.74 L 447.41,295.78" fill="none" stroke="#ffffff" stroke-width="2.0" stroke-linecap="round" stroke-linejoin="round"  />
<path d="M 504.62,283.74 L 786.33,568.61" fill="none" stroke="#ffffff" stroke-width="2.0" stroke-linecap="round" stroke-linejoin="round"  />
<path d="M 797.32,579.72 L 788.26,579.64 L 781.26,576.14 L 780.42,574.77 L 780.20,573.37" fill="none" stroke="#ffffff" stroke-width="2.0" stroke-linecap="round" stroke-linejoin="round"  />
<path d="M 780.20,573.37 L 782.56,570.10 L 786.33,568.61" fill="none" stroke="#ffffff" stroke-width="2.0" stroke-linecap="round" stroke-linejoin="round"  />
<path d="M 644.71,680.33 L 638.13,679.34 L 631.40,680.07" fill="none" stroke="#ffffff" stroke-width="2.0" stroke-linecap="round" stroke-linejoin="round"  />
<path d="M 738.15,784.00 L 738.61,781.21" fill="none" stroke="#ffffff" stroke-width="2.0" stroke-linecap="round" stroke-linejoin="round"  />
<path d="M 738.61,781.21 L 881.94,751.06" fill="none" stroke="#ffffff" stroke-width="2.0" stroke-linecap="round" stroke-linejoin="round"  />
<path d="M 882.23,756.12 L 881.94,751.06" fill="none" stroke="#ffffff" stroke-width="2.0" stroke-linecap="round" stroke-linejoin="round"  />
<path d="M 887.69,680.33 L 882.23,756.12" fill="none" stroke="#ffffff" stroke-width="2.0" stroke-linecap="round" stroke-linejoin="round"  />
<path d="M 887.69,680.33 L 743.61,708.21" fill="none" stroke="#ffffff" stroke-width="2.0" stroke-linecap="round" stroke-linejoin="round"  />
<path d="M 743.61,708.21 L 738.15,784.00" fill="none" stroke="#ffffff" stroke-width="2.0" stroke-linecap="round" stroke-linejoin="round"  />
<path d="M 738.23,781.16 L 738.15,784.00" fill="none" stroke="#ffffff" stroke-width="2.0" stroke-linecap="round" stroke-linejoin="round"  />
<path d="M 743.61,708.21 L 675.24,629.85" fill="none" stroke="#ffffff" stroke-width="2.0" stroke-linecap="round" stroke-linejoin="round"  />
<path d="M 725.18,769.13 L 669.78,705.64" fill="none" stroke="#ffffff" stroke-width="2.0" stroke-linecap="round" stroke-linejoin="round"  />
<path d="M 725.18,769.13 L 738.23,781.16" fill="none" stroke="#ffffff" stroke-width="2.0" stroke-linecap="round" stroke-linejoin="round"  />
<path d="M 887.69,680.33 L 819.32,601.97" fill="none" stroke="#ffffff" stroke-width="2.0" stroke-linecap="round" stroke-linejoin="round"  />
<path d="M 810.07,630.92 L 805.79,633.49 L 797.45,633.66 L 790.89,630.38 L 789.97,627.91" fill="none" stroke="#ffffff" stroke-width="2.0" stroke-linecap="round" stroke-linejoin="round"  />
<path d="M 789.97,627.91 L 790.53,626.39" fill="none" stroke="#ffffff" stroke-width="2.0" stroke-linecap="round" stroke-linejoin="round"  />
<path d="M 738.38,644.79 L 734.10,647.36 L 725.76,647.53 L 719.20,644.25 L 718.28,641.79" fill="none" stroke="#ffffff" stroke-width="2.0" stroke-linecap="round" stroke-linejoin="round"  />
<path d="M 718.28,641.79 L 718.84,640.27" fill="none" stroke="#ffffff" stroke-width="2.0" stroke-linecap="round" stroke-linejoin="round"  />
<path d="M 772.40,683.79 L 768.12,686.36 L 759.78,686.53 L 753.22,683.24 L 752.30,680.78" fill="none" stroke="#ffffff" stroke-width="2.0" stroke-linecap="round" stroke-linejoin="round"  />
<path d="M 752.30,680.78 L 752.86,679.26" fill="none" stroke="#ffffff" stroke-width="2.0" stroke-linecap="round" stroke-linejoin="round"  />
<path d="M 844.09,669.91 L 839.81,672.48 L 831.47,672.65 L 824.91,669.37 L 823.99,666.91" fill="none" stroke="#ffffff" stroke-width="2.0" stroke-linecap="round" stroke-linejoin="round"  />
<path d="M 823.99,666.91 L 824.55,665.39" fill="none" stroke="#ffffff" stroke-width="2.0" stroke-linecap="round" stroke-linejoin="round"  />
<path d="M 333.38,27.84 L 317.40,48.68" fill="none" stroke="#ffffff" stroke-width="2.0" stroke-linecap="round" stroke-linejoin="round"  />
<path d="M 504.62,76.65 L 317.40,48.68" fill="none" stroke="#ffffff" stroke-width="2.0" stroke-linecap="round" stroke-linejoin="round"  />
<path d="M 520.60,55.81 L 504.62,76.65" fill="none" stroke="#ffffff" stroke-width="2.0" stroke-linecap="round" stroke-linejoin="round"  />
<path d="M 520.60,55.81 L 547.42,49.96" fill="none" stroke="#ffffff" stroke-width="2.0" stroke-linecap="round" stroke-linejoin="round"  />
<path d="M 333.38,27.84 L 320.12,16.00" fill="none" stroke="#ffffff" stroke-width="2.0" stroke-linecap="round" stroke-linejoin="round"  />
<path d="M 520.60,55.81 L 520.60,299.90" fill="none" stroke="#ffffff" stroke-width="2.0" stroke-linecap="round" stroke-linejoin="round"  />
<path d="M 504.62,76.65 L 504.62,283.74" fill="none" stroke="#ffffff" stroke-width="2.0" stroke-linecap="round" stroke-linejoin="round"  />
<path d="M 312.31,324.20 L 317.40,48.68" fill="none" stroke="#ffffff" stroke-width="2.0" stroke-linecap="round" stroke-linejoin="round"  />
<path d="M 405.26,311.54 L 504.62,76.65" fill="none" stroke="#ffffff" stroke-width="2.0" stroke-linecap="round" stroke-linejoin="round"  />
<path d="M 447.33,303.91 L 405.26,311.54" fill="none" stroke="#ffffff" stroke-width="2.0" stroke-linecap="round" stroke-linejoin="round"  />
<path d="M 447.33,303.91 L 447.41,295.78" fill="none" stroke="#ffffff" stroke-width="2.0" stroke-linecap="round" stroke-linejoin="round"  />
<path d="M 405.26,311.54 L 383.14,316.56" fill="none" stroke="#ffffff" stroke-width="2.0" stroke-linecap="round" stroke-linejoin="round"  />
<path d="M 646.54,557.31 L 635.12,550.42" fill="none" stroke="#ffffff" stroke-width="2.0" stroke-linecap="round" stroke-linejoin="round"  />
<path d="M 635.12,550.42 L 613.15,533.93" fill="none" stroke="#ffffff" stroke-width="2.0" stroke-linecap="round" stroke-linejoin="round"  />
<path d="M 426.12,464.25 L 429.91,463.28" fill="none" stroke="#ffffff" stroke-width="2.0" stroke-linecap="round" stroke-linejoin="round"  />
<path d="M 477.83,408.97 L 473.90,377.59 L 465.58,345.33 L 457.24,323.51 L 447.33,303.91" fill="none" stroke="#ffffff" stroke-width="2.0" stroke-linecap="round" stroke-linejoin="round"  />
<path d="M 730.32,558.15 L 716.68,548.37 L 704.51,544.62 L 700.17,544.54 L 695.98,545.19" fill="none" stroke="#ffffff" stroke-width="2.0" stroke-linecap="round" stroke-linejoin="round"  />
<path d="M 406.11,434.79 L 405.93,448.78" fill="none" stroke="#ffffff" stroke-width="2.0" stroke-linecap="round" stroke-linejoin="round"  />
<path d="M 406.11,434.79 L 405.93,448.78" fill="none" stroke="#ffffff" stroke-width="2.0" stroke-linecap="round" stroke-linejoin="round"  />
<path d="M 405.93,448.78 L 330.95,447.69" fill="none" stroke="#ffffff" stroke-width="2.0" stroke-linecap="round" stroke-linejoin="round"  />
        <path d="M 695.98,545.20 L 660.29,553.94 L 640.16,558.87" fill="none" stroke="#ffffff" stroke-width="2.0" stroke-linecap="round" stroke-linejoin="round"  />
      </svg>
    