
      <svg xmlns="http://www.w3.org/2000/svg" width="1200" height="800" viewBox="0 0 1200 800" style="background: #ffffff;">
        
        <path d="M 432.48,337.26 L 428.31,339.25 L 424.48,343.46 L 422.63,348.51 L 422.87,351.42 L 424.25,353.49" fill="none" stroke="#2a2a2a" stroke-width="2.0" stroke-linecap="round" stroke-linejoin="round"  />
<path d="M 424.25,353.49 L 426.19,354.37 L 428.60,354.30" fill="none" stroke="#2a2a2a" stroke-width="2.0" stroke-linecap="round" stroke-linejoin="round"  />
<path d="M 332.97,222.97 L 465.97,331.65" fill="none" stroke="#2a2a2a" stroke-width="2.0" stroke-linecap="round" stroke-linejoin="round"  />
<path d="M 334.08,215.54 L 334.09,215.46" fill="none" stroke="#2a2a2a" stroke-width="2.0" stroke-linecap="round" stroke-linejoin="round"  />
<path d="M 338.44,186.14 L 338.78,183.83" fill="none" stroke="#2a2a2a" stroke-width="2.0" stroke-linecap="round" stroke-linejoin="round"  />
<path d="M 338.78,183.83 L 341.71,185.45" fill="none" stroke="#2a2a2a" stroke-width="2.0" stroke-linecap="round" stroke-linejoin="round"  />
<path d="M 330.25,171.63 L 294.59,179.14" fill="none" stroke="#2a2a2a" stroke-width="2.0" stroke-linecap="round" stroke-linejoin="round"  />
<path d="M 351.46,183.40 L 330.25,171.63" fill="none" stroke="#2a2a2a" stroke-width="2.0" stroke-linecap="round" stroke-linejoin="round"  />
<path d="M 294.59,179.14 L 286.45,234.03" fill="none" stroke="#2a2a2a" stroke-width="2.0" stroke-linecap="round" stroke-linejoin="round"  />
<path d="M 322.10,226.52 L 286.45,234.03" fill="none" stroke="#2a2a2a" stroke-width="2.0" stroke-linecap="round" stroke-linejoin="round"  />
<path d="M 330.25,171.63 L 322.10,226.52" fill="none" stroke="#2a2a2a" stroke-width="2.0" stroke-linecap="round" stroke-linejoin="round"  />
<path d="M 286.45,234.03 L 415.08,339.14" fill="none" stroke="#2a2a2a" stroke-width="2.0" stroke-linecap="round" stroke-linejoin="round"  />
<path d="M 450.74,331.64 L 415.08,339.14" fill="none" stroke="#2a2a2a" stroke-width="2.0" stroke-linecap="round" stroke-linejoin="round"  />
<path d="M 322.10,226.52 L 450.74,331.64" fill="none" stroke="#2a2a2a" stroke-width="2.0" stroke-linecap="round" stroke-linejoin="round"  />
<path d="M 428.60,354.30 L 432.77,352.31 L 436.61,348.10 L 438.46,343.05 L 438.21,340.14 L 436.84,338.07" fill="none" stroke="#2a2a2a" stroke-width="2.0" stroke-linecap="round" stroke-linejoin="round"  />
<path d="M 436.84,338.07 L 434.90,337.19 L 432.48,337.26" fill="none" stroke="#2a2a2a" stroke-width="2.0" stroke-linecap="round" stroke-linejoin="round"  />
<path d="M 415.08,339.14 L 410.35,359.92" fill="none" stroke="#2a2a2a" stroke-width="2.0" stroke-linecap="round" stroke-linejoin="round"  />
<path d="M 446.01,352.42 L 410.35,359.92" fill="none" stroke="#2a2a2a" stroke-width="2.0" stroke-linecap="round" stroke-linejoin="round"  />
<path d="M 450.74,331.64 L 446.01,352.42" fill="none" stroke="#2a2a2a" stroke-width="2.0" stroke-linecap="round" stroke-linejoin="round"  />
<path d="M 410.35,359.92 L 423.20,370.42" fill="none" stroke="#2a2a2a" stroke-width="2.0" stroke-linecap="round" stroke-linejoin="round"  />
<path d="M 458.86,362.92 L 423.20,370.42" fill="none" stroke="#2a2a2a" stroke-width="2.0" stroke-linecap="round" stroke-linejoin="round"  />
<path d="M 446.01,352.42 L 458.86,362.92" fill="none" stroke="#2a2a2a" stroke-width="2.0" stroke-linecap="round" stroke-linejoin="round"  />
<path d="M 465.97,331.65 L 458.86,362.92" fill="none" stroke="#2a2a2a" stroke-width="2.0" stroke-linecap="round" stroke-linejoin="round"  />
<path d="M 640.23,162.68 L 1177.04,460.55" fill="none" stroke="#2a2a2a" stroke-width="2.0" stroke-linecap="round" stroke-linejoin="round"  />
<path d="M 602.32,157.74 L 612.35,156.75 L 624.71,157.74 L 633.29,159.78 L 640.23,162.68" fill="none" stroke="#2a2a2a" stroke-width="2.0" stroke-linecap="round" stroke-linejoin="round"  />
<path d="M 26.31,279.01 L 287.95,223.93" fill="none" stroke="#2a2a2a" stroke-width="2.0" stroke-linecap="round" stroke-linejoin="round"  />
<path d="M 323.60,216.42 L 602.32,157.74" fill="none" stroke="#2a2a2a" stroke-width="2.0" stroke-linecap="round" stroke-linejoin="round"  />
<path d="M 16.23,286.18 L 16.28,285.34" fill="none" stroke="#2a2a2a" stroke-width="2.0" stroke-linecap="round" stroke-linejoin="round"  />
<path d="M 16.28,285.34 L 17.86,282.66 L 22.09,280.22 L 24.08,279.56 L 26.31,279.01" fill="none" stroke="#2a2a2a" stroke-width="2.0" stroke-linecap="round" stroke-linejoin="round"  />
<path d="M 1177.04,460.55 L 1181.79,464.32 L 1182.97,467.53" fill="none" stroke="#2a2a2a" stroke-width="2.0" stroke-linecap="round" stroke-linejoin="round"  />
<path d="M 1182.97,467.53 L 1182.85,468.37" fill="none" stroke="#2a2a2a" stroke-width="2.0" stroke-linecap="round" stroke-linejoin="round"  />
<path d="M 16.22,286.24 L 16.20,286.31 L 16.18,286.38 L 16.16,286.45 L 16.14,286.53 L 16.13,286.60 L 16.11,286.68 L 16.10,286.75 L 16.09,286.82 L 16.08,286.90 L 16.07,286.97 L 16.07,287.05 L 16.06,287.12 L 16.06,287.20 L 16.06,287.27" fill="none" stroke="#2a2a2a" stroke-width="2.0" stroke-linecap="round" stroke-linejoin="round"  />
<path d="M 26.13,280.37 L 24.98,280.64 L 23.88,280.93 L 22.85,281.25 L 21.88,281.59 L 20.97,281.96 L 20.14,282.36 L 19.37,282.78 L 18.69,283.22 L 18.07,283.68 L 17.54,284.16 L 17.09,284.66 L 16.71,285.17 L 16.42,285.70 L 16.22,286.24" fill="none" stroke="#2a2a2a" stroke-width="2.0" stroke-linecap="round" stroke-linejoin="round"  />
<path d="M 602.22,159.09 L 323.40,217.79" fill="none" stroke="#2a2a2a" stroke-width="2.0" stroke-linecap="round" stroke-linejoin="round"  />
<path d="M 287.74,225.30 L 26.13,280.37" fill="none" stroke="#2a2a2a" stroke-width="2.0" stroke-linecap="round" stroke-linejoin="round"  />
<path d="M 621.99,158.70 L 620.87,158.56 L 620.49,158.52 L 618.98,158.37 L 617.47,158.25 L 615.97,158.17 L 614.48,158.12 L 613.00,158.10 L 611.54,158.11 L 610.10,158.15 L 608.69,158.23 L 607.32,158.34 L 605.98,158.48 L 604.68,158.65 L 603.43,158.86 L 602.22,159.09" fill="none" stroke="#2a2a2a" stroke-width="2.0" stroke-linecap="round" stroke-linejoin="round"  />
<path d="M 640.05,164.02 L 639.07,163.50 L 638.03,163.00 L 636.93,162.51 L 635.77,162.05 L 634.57,161.60 L 633.31,161.18 L 632.01,160.77 L 630.66,160.40 L 629.28,160.04 L 627.87,159.72 L 626.43,159.42 L 624.97,159.15 L 623.49,158.91 L 621.99,158.70" fill="none" stroke="#2a2a2a" stroke-width="2.0" stroke-linecap="round" stroke-linejoin="round"  />
<path d="M 1176.93,461.93 L 640.05,164.02" fill="none" stroke="#2a2a2a" stroke-width="2.0" stroke-linecap="round" stroke-linejoin="round"  />
<path d="M 1182.71,469.84 L 1182.71,469.81 L 1182.72,469.79 L 1182.73,469.76 L 1182.73,469.74 L 1182.74,469.71 L 1182.75,469.68 L 1182.75,469.66 L 1182.76,469.63 L 1182.77,469.61 L 1182.77,469.58 L 1182.78,469.56 L 1182.78,469.53 L 1182.79,469.51 L 1182.79,469.48" fill="none" stroke="#2a2a2a" stroke-width="2.0" stroke-linecap="round" stroke-linejoin="round"  />
<path d="M 1182.79,469.48 L 1182.86,468.95 L 1182.85,468.41 L 1182.76,467.87 L 1182.60,467.32 L 1182.36,466.77 L 1182.04,466.21 L 1181.65,465.66 L 1181.18,465.11 L 1180.64,464.56 L 1180.04,464.02 L 1179.36,463.48 L 1178.61,462.96 L 1177.80,462.44 L 1176.93,461.93" fill="none" stroke="#2a2a2a" stroke-width="2.0" stroke-linecap="round" stroke-linejoin="round"  />
<path d="M 22.41,300.04 L 17.18,295.35" fill="none" stroke="#2a2a2a" stroke-width="2.0" stroke-linecap="round" stroke-linejoin="round"  />
<path d="M 601.64,164.36 L 611.17,163.40 L 619.53,163.79" fill="none" stroke="#2a2a2a" stroke-width="2.0" stroke-linecap="round" stroke-linejoin="round"  />
<path d="M 602.05,165.45 L 611.86,164.49 L 619.42,164.86" fill="none" stroke="#2a2a2a" stroke-width="2.0" stroke-linecap="round" stroke-linejoin="round"  />
<path d="M 16.53,294.56 L 16.00,292.48" fill="none" stroke="#2a2a2a" stroke-width="2.0" stroke-linecap="round" stroke-linejoin="round"  />
<path d="M 16.00,292.47 L 16.43,290.76" fill="none" stroke="#2a2a2a" stroke-width="2.0" stroke-linecap="round" stroke-linejoin="round"  />
<path d="M 17.18,295.35 L 17.11,291.66" fill="none" stroke="#2a2a2a" stroke-width="2.0" stroke-linecap="round" stroke-linejoin="round"  />
<path d="M 32.06,285.42 L 26.49,286.62" fill="none" stroke="#2a2a2a" stroke-width="2.0" stroke-linecap="round" stroke-linejoin="round"  />
<path d="M 26.49,286.62 L 20.58,288.61 L 17.11,291.66" fill="none" stroke="#2a2a2a" stroke-width="2.0" stroke-linecap="round" stroke-linejoin="round"  />
<path d="M 17.11,291.66 L 60.05,308.29" fill="none" stroke="#2a2a2a" stroke-width="2.0" stroke-linecap="round" stroke-linejoin="round"  />
<path d="M 60.05,308.29 L 32.06,285.42" fill="none" stroke="#2a2a2a" stroke-width="2.0" stroke-linecap="round" stroke-linejoin="round"  />
<path d="M 22.41,300.04 L 37.78,308.59" fill="none" stroke="#2a2a2a" stroke-width="2.0" stroke-linecap="round" stroke-linejoin="round"  />
<path d="M 37.78,308.59 L 57.01,310.67" fill="none" stroke="#2a2a2a" stroke-width="2.0" stroke-linecap="round" stroke-linejoin="round"  />
<path d="M 57.01,310.67 L 17.18,295.35" fill="none" stroke="#2a2a2a" stroke-width="2.0" stroke-linecap="round" stroke-linejoin="round"  />
<path d="M 60.05,308.29 L 57.01,310.67" fill="none" stroke="#2a2a2a" stroke-width="2.0" stroke-linecap="round" stroke-linejoin="round"  />
<path d="M 602.05,165.45 L 599.27,166.02 L 596.48,166.59" fill="none" stroke="#2a2a2a" stroke-width="2.0" stroke-linecap="round" stroke-linejoin="round"  />
<path d="M 596.48,166.59 L 624.47,189.46" fill="none" stroke="#2a2a2a" stroke-width="2.0" stroke-linecap="round" stroke-linejoin="round"  />
<path d="M 624.47,189.46 L 619.42,164.86" fill="none" stroke="#2a2a2a" stroke-width="2.0" stroke-linecap="round" stroke-linejoin="round"  />
<path d="M 654.22,178.81 L 638.85,170.28" fill="none" stroke="#2a2a2a" stroke-width="2.0" stroke-linecap="round" stroke-linejoin="round"  />
<path d="M 638.81,170.26 L 628.99,166.55" fill="none" stroke="#2a2a2a" stroke-width="2.0" stroke-linecap="round" stroke-linejoin="round"  />
<path d="M 628.99,166.55 L 633.69,189.26" fill="none" stroke="#2a2a2a" stroke-width="2.0" stroke-linecap="round" stroke-linejoin="round"  />
<path d="M 633.69,189.26 L 654.22,178.81" fill="none" stroke="#2a2a2a" stroke-width="2.0" stroke-linecap="round" stroke-linejoin="round"  />
<path d="M 628.99,166.55 L 619.42,164.86" fill="none" stroke="#2a2a2a" stroke-width="2.0" stroke-linecap="round" stroke-linejoin="round"  />
<path d="M 633.69,189.26 L 629.05,189.69 L 624.47,189.46" fill="none" stroke="#2a2a2a" stroke-width="2.0" stroke-linecap="round" stroke-linejoin="round"  />
<path d="M 843.03,435.09 L 1169.74,464.87" fill="none" stroke="#2a2a2a" stroke-width="2.0" stroke-linecap="round" stroke-linejoin="round"  />
<path d="M 863.41,446.40 L 1162.59,475.28" fill="none" stroke="#2a2a2a" stroke-width="2.0" stroke-linecap="round" stroke-linejoin="round"  />
<path d="M 1162.59,475.28 L 1179.59,477.51" fill="none" stroke="#2a2a2a" stroke-width="2.0" stroke-linecap="round" stroke-linejoin="round"  />
<path d="M 1179.59,477.51 L 1180.98,474.44 L 1180.04,471.54 L 1178.20,469.62 L 1175.30,467.82" fill="none" stroke="#2a2a2a" stroke-width="2.0" stroke-linecap="round" stroke-linejoin="round"  />
<path d="M 1175.30,467.82 L 1169.74,464.87" fill="none" stroke="#2a2a2a" stroke-width="2.0" stroke-linecap="round" stroke-linejoin="round"  />
<path d="M 1180.44,476.89 L 1180.25,477.27" fill="none" stroke="#2a2a2a" stroke-width="2.0" stroke-linecap="round" stroke-linejoin="round"  />
<path d="M 1180.24,477.28 L 1179.59,477.51" fill="none" stroke="#2a2a2a" stroke-width="2.0" stroke-linecap="round" stroke-linejoin="round"  />
<path d="M 1179.35,477.55 L 1179.59,477.51" fill="none" stroke="#2a2a2a" stroke-width="2.0" stroke-linecap="round" stroke-linejoin="round"  />
<path d="M 1180.03,477.44 L 1179.40,477.57" fill="none" stroke="#2a2a2a" stroke-width="2.0" stroke-linecap="round" stroke-linejoin="round"  />
<path d="M 1179.40,477.56 L 1179.35,477.55" fill="none" stroke="#2a2a2a" stroke-width="2.0" stroke-linecap="round" stroke-linejoin="round"  />
<path d="M 1179.15,477.65 L 1176.09,476.96" fill="none" stroke="#2a2a2a" stroke-width="2.0" stroke-linecap="round" stroke-linejoin="round"  />
<path d="M 1179.15,477.65 L 1179.34,477.56" fill="none" stroke="#2a2a2a" stroke-width="2.0" stroke-linecap="round" stroke-linejoin="round"  />
<path d="M 1179.34,477.56 L 1179.23,477.53" fill="none" stroke="#2a2a2a" stroke-width="2.0" stroke-linecap="round" stroke-linejoin="round"  />
<path d="M 1179.23,477.53 L 1179.22,477.53" fill="none" stroke="#2a2a2a" stroke-width="2.0" stroke-linecap="round" stroke-linejoin="round"  />
<path d="M 1179.22,477.53 L 1174.48,476.62" fill="none" stroke="#2a2a2a" stroke-width="2.0" stroke-linecap="round" stroke-linejoin="round"  />
<path d="M 629.37,165.53 L 639.46,169.35" fill="none" stroke="#2a2a2a" stroke-width="2.0" stroke-linecap="round" stroke-linejoin="round"  />
<path d="M 596.07,165.50 L 598.85,164.93 L 601.64,164.36" fill="none" stroke="#2a2a2a" stroke-width="2.0" stroke-linecap="round" stroke-linejoin="round"  />
<path d="M 16.43,290.76 L 19.01,288.15 L 26.07,285.54" fill="none" stroke="#2a2a2a" stroke-width="2.0" stroke-linecap="round" stroke-linejoin="round"  />
<path d="M 639.46,169.35 L 646.11,173.06 L 650.48,175.48 L 654.85,177.90" fill="none" stroke="#2a2a2a" stroke-width="2.0" stroke-linecap="round" stroke-linejoin="round"  />
<path d="M 1170.37,463.96 L 1175.95,466.87" fill="none" stroke="#2a2a2a" stroke-width="2.0" stroke-linecap="round" stroke-linejoin="round"  />
<path d="M 619.53,163.79 L 629.37,165.53" fill="none" stroke="#2a2a2a" stroke-width="2.0" stroke-linecap="round" stroke-linejoin="round"  />
<path d="M 1175.95,466.87 L 1180.58,470.30 L 1181.82,474.37" fill="none" stroke="#2a2a2a" stroke-width="2.0" stroke-linecap="round" stroke-linejoin="round"  />
<path d="M 1181.82,474.37 L 1181.80,474.45" fill="none" stroke="#2a2a2a" stroke-width="2.0" stroke-linecap="round" stroke-linejoin="round"  />
<path d="M 1181.80,474.45 L 1181.67,474.90" fill="none" stroke="#2a2a2a" stroke-width="2.0" stroke-linecap="round" stroke-linejoin="round"  />
<path d="M 265.08,445.39 L 265.36,445.55" fill="none" stroke="#2a2a2a" stroke-width="2.0" stroke-linecap="round" stroke-linejoin="round"  />
<path d="M 708.06,346.81 L 704.08,343.48 L 701.47,340.17" fill="none" stroke="#2a2a2a" stroke-width="2.0" stroke-linecap="round" stroke-linejoin="round"  />
<path d="M 683.43,357.32 L 683.70,357.48" fill="none" stroke="#2a2a2a" stroke-width="2.0" stroke-linecap="round" stroke-linejoin="round"  />
<path d="M 1059.15,541.64 L 1055.17,538.31 L 1052.57,534.99" fill="none" stroke="#2a2a2a" stroke-width="2.0" stroke-linecap="round" stroke-linejoin="round"  />
<path d="M 1034.52,552.14 L 1034.80,552.30" fill="none" stroke="#2a2a2a" stroke-width="2.0" stroke-linecap="round" stroke-linejoin="round"  />
<path d="M 616.18,640.22 L 616.45,640.38" fill="none" stroke="#2a2a2a" stroke-width="2.0" stroke-linecap="round" stroke-linejoin="round"  />
<path d="M 265.36,445.55 L 271.23,447.57 L 279.42,448.18" fill="none" stroke="#2a2a2a" stroke-width="2.0" stroke-linecap="round" stroke-linejoin="round"  />
<path d="M 266.64,444.97 L 262.72,446.73 L 262.09,447.94" fill="none" stroke="#2a2a2a" stroke-width="2.0" stroke-linecap="round" stroke-linejoin="round"  />
<path d="M 262.09,447.94 L 262.99,449.92 L 266.70,452.10 L 273.91,453.73 L 281.91,453.44" fill="none" stroke="#2a2a2a" stroke-width="2.0" stroke-linecap="round" stroke-linejoin="round"  />
<path d="M 683.70,357.48 L 689.57,359.50 L 700.84,359.71" fill="none" stroke="#2a2a2a" stroke-width="2.0" stroke-linecap="round" stroke-linejoin="round"  />
<path d="M 684.99,356.90 L 681.06,358.65 L 680.44,359.87" fill="none" stroke="#2a2a2a" stroke-width="2.0" stroke-linecap="round" stroke-linejoin="round"  />
<path d="M 680.44,359.87 L 681.34,361.85 L 685.04,364.02 L 692.25,365.65 L 700.25,365.37" fill="none" stroke="#2a2a2a" stroke-width="2.0" stroke-linecap="round" stroke-linejoin="round"  />
<path d="M 1034.80,552.30 L 1040.67,554.32 L 1051.94,554.53" fill="none" stroke="#2a2a2a" stroke-width="2.0" stroke-linecap="round" stroke-linejoin="round"  />
<path d="M 1036.08,551.72 L 1032.16,553.47 L 1031.53,554.69" fill="none" stroke="#2a2a2a" stroke-width="2.0" stroke-linecap="round" stroke-linejoin="round"  />
<path d="M 1031.53,554.69 L 1032.43,556.67 L 1036.14,558.85 L 1043.35,560.48 L 1051.35,560.19" fill="none" stroke="#2a2a2a" stroke-width="2.0" stroke-linecap="round" stroke-linejoin="round"  />
<path d="M 616.45,640.38 L 622.32,642.40 L 633.59,642.61" fill="none" stroke="#2a2a2a" stroke-width="2.0" stroke-linecap="round" stroke-linejoin="round"  />
<path d="M 617.74,639.80 L 613.81,641.55 L 613.19,642.77" fill="none" stroke="#2a2a2a" stroke-width="2.0" stroke-linecap="round" stroke-linejoin="round"  />
<path d="M 613.19,642.77 L 614.09,644.75 L 617.79,646.92 L 625.00,648.55 L 633.00,648.27" fill="none" stroke="#2a2a2a" stroke-width="2.0" stroke-linecap="round" stroke-linejoin="round"  />
<path d="M 934.21,454.12 L 865.00,447.28" fill="none" stroke="#2a2a2a" stroke-width="2.0" stroke-linecap="round" stroke-linejoin="round"  />
<path d="M 934.21,453.37 L 934.21,454.12" fill="none" stroke="#2a2a2a" stroke-width="2.0" stroke-linecap="round" stroke-linejoin="round"  />
<path d="M 506.52,417.97 L 506.20,418.07 L 505.96,418.22 L 505.81,418.42 L 505.75,418.67 L 505.78,418.96 L 505.90,419.30 L 506.11,419.68 L 506.41,420.11 L 506.79,420.58 L 507.26,421.09 L 507.82,421.65 L 508.45,422.24 L 509.18,422.87 L 509.98,423.55" fill="none" stroke="#2a2a2a" stroke-width="2.0" stroke-linecap="round" stroke-linejoin="round"  />
<path d="M 509.98,423.55 L 510.44,423.92 L 510.93,424.31 L 511.44,424.70 L 511.97,425.11 L 512.52,425.52 L 513.10,425.94 L 513.69,426.38 L 514.31,426.82 L 514.95,427.26 L 515.60,427.72 L 516.27,428.19 L 516.97,428.66 L 517.68,429.14 L 518.41,429.62" fill="none" stroke="#2a2a2a" stroke-width="2.0" stroke-linecap="round" stroke-linejoin="round"  />
<path d="M 519.84,421.66 L 518.08,426.70 L 518.41,429.62" fill="none" stroke="#2a2a2a" stroke-width="2.0" stroke-linecap="round" stroke-linejoin="round"  />
<path d="M 664.46,319.63 L 464.80,361.67" fill="none" stroke="#2a2a2a" stroke-width="2.0" stroke-linecap="round" stroke-linejoin="round"  />
<path d="M 664.46,319.63 L 701.47,340.17" fill="none" stroke="#2a2a2a" stroke-width="2.0" stroke-linecap="round" stroke-linejoin="round"  />
<path d="M 715.23,347.80 L 740.79,361.98" fill="none" stroke="#2a2a2a" stroke-width="2.0" stroke-linecap="round" stroke-linejoin="round"  />
<path d="M 738.96,377.34 L 988.44,515.78" fill="none" stroke="#2a2a2a" stroke-width="2.0" stroke-linecap="round" stroke-linejoin="round"  />
<path d="M 1027.01,520.81 L 988.44,515.78" fill="none" stroke="#2a2a2a" stroke-width="2.0" stroke-linecap="round" stroke-linejoin="round"  />
<path d="M 1052.57,534.99 L 1027.01,520.81" fill="none" stroke="#2a2a2a" stroke-width="2.0" stroke-linecap="round" stroke-linejoin="round"  />
<path d="M 1103.33,563.16 L 1066.33,542.63" fill="none" stroke="#2a2a2a" stroke-width="2.0" stroke-linecap="round" stroke-linejoin="round"  />
<path d="M 580.14,614.89 L 580.50,613.68" fill="none" stroke="#2a2a2a" stroke-width="2.0" stroke-linecap="round" stroke-linejoin="round"  />
<path d="M 417.26,371.68 L 217.60,413.71" fill="none" stroke="#2a2a2a" stroke-width="2.0" stroke-linecap="round" stroke-linejoin="round"  />
<path d="M 652.49,582.17 L 657.93,586.90 L 667.13,591.81 L 680.40,596.30 L 696.93,599.52 L 714.67,600.75 L 726.13,600.29 L 736.38,598.79" fill="none" stroke="#2a2a2a" stroke-width="2.0" stroke-linecap="round" stroke-linejoin="round"  />
<path d="M 736.38,598.79 L 914.65,561.26" fill="none" stroke="#2a2a2a" stroke-width="2.0" stroke-linecap="round" stroke-linejoin="round"  />
<path d="M 914.65,561.26 L 925.31,557.91 L 930.29,554.97" fill="none" stroke="#2a2a2a" stroke-width="2.0" stroke-linecap="round" stroke-linejoin="round"  />
<path d="M 570.69,578.57 L 897.28,509.82" fill="none" stroke="#2a2a2a" stroke-width="2.0" stroke-linecap="round" stroke-linejoin="round"  />
<path d="M 684.03,641.47 L 570.69,578.57" fill="none" stroke="#2a2a2a" stroke-width="2.0" stroke-linecap="round" stroke-linejoin="round"  />
<path d="M 1010.63,572.71 L 684.03,641.47" fill="none" stroke="#2a2a2a" stroke-width="2.0" stroke-linecap="round" stroke-linejoin="round"  />
<path d="M 897.28,509.82 L 1010.63,572.71" fill="none" stroke="#2a2a2a" stroke-width="2.0" stroke-linecap="round" stroke-linejoin="round"  />
<path d="M 734.91,612.94 L 913.19,575.41" fill="none" stroke="#2a2a2a" stroke-width="2.0" stroke-linecap="round" stroke-linejoin="round"  />
<path d="M 734.91,612.94 L 721.21,614.69 L 704.48,614.57 L 686.84,612.26 L 670.97,608.02 L 659.05,602.67 L 651.91,597.29 L 648.70,592.45 L 648.22,588.88" fill="none" stroke="#2a2a2a" stroke-width="2.0" stroke-linecap="round" stroke-linejoin="round"  />
<path d="M 648.22,588.88 L 649.74,585.00 L 653.68,581.31 L 660.79,577.90 L 668.13,575.88" fill="none" stroke="#2a2a2a" stroke-width="2.0" stroke-linecap="round" stroke-linejoin="round"  />
<path d="M 668.13,575.88 L 846.40,538.35" fill="none" stroke="#2a2a2a" stroke-width="2.0" stroke-linecap="round" stroke-linejoin="round"  />
<path d="M 846.40,538.35 L 860.11,536.59 L 876.84,536.71 L 894.48,539.03 L 910.34,543.27 L 922.26,548.61 L 929.40,553.99 L 932.62,558.83 L 933.10,562.41" fill="none" stroke="#2a2a2a" stroke-width="2.0" stroke-linecap="round" stroke-linejoin="round"  />
<path d="M 933.10,562.41 L 931.58,566.29 L 927.63,569.97 L 920.52,573.39 L 913.19,575.41" fill="none" stroke="#2a2a2a" stroke-width="2.0" stroke-linecap="round" stroke-linejoin="round"  />
<path d="M 469.53,340.89 L 463.59,342.14" fill="none" stroke="#2a2a2a" stroke-width="2.0" stroke-linecap="round" stroke-linejoin="round"  />
<path d="M 488.78,356.62 L 469.53,340.89" fill="none" stroke="#2a2a2a" stroke-width="2.0" stroke-linecap="round" stroke-linejoin="round"  />
<path d="M 531.60,426.84 L 528.94,425.60 L 526.37,424.44 L 523.89,423.35 L 521.53,422.35 L 519.29,421.44 L 517.19,420.63 L 515.24,419.92 L 513.45,419.31 L 511.83,418.81 L 510.38,418.41 L 509.12,418.13 L 508.06,417.96 L 507.19,417.91 L 506.52,417.97" fill="none" stroke="#2a2a2a" stroke-width="2.0" stroke-linecap="round" stroke-linejoin="round"  />
<path d="M 531.60,426.84 L 518.41,429.62" fill="none" stroke="#2a2a2a" stroke-width="2.0" stroke-linecap="round" stroke-linejoin="round"  />
<path d="M 281.91,453.44 L 285.80,451.73" fill="none" stroke="#2a2a2a" stroke-width="2.0" stroke-linecap="round" stroke-linejoin="round"  />
<path d="M 272.89,444.56 L 266.64,444.97" fill="none" stroke="#2a2a2a" stroke-width="2.0" stroke-linecap="round" stroke-linejoin="round"  />
<path d="M 700.25,365.37 L 704.18,363.62 L 704.81,362.40" fill="none" stroke="#2a2a2a" stroke-width="2.0" stroke-linecap="round" stroke-linejoin="round"  />
<path d="M 704.81,362.40 L 703.91,360.42 L 700.20,358.24 L 692.99,356.61 L 684.99,356.90" fill="none" stroke="#2a2a2a" stroke-width="2.0" stroke-linecap="round" stroke-linejoin="round"  />
<path d="M 1051.35,560.19 L 1055.28,558.44 L 1055.90,557.22" fill="none" stroke="#2a2a2a" stroke-width="2.0" stroke-linecap="round" stroke-linejoin="round"  />
<path d="M 1055.90,557.22 L 1055.00,555.24 L 1051.30,553.07 L 1044.09,551.44 L 1036.08,551.72" fill="none" stroke="#2a2a2a" stroke-width="2.0" stroke-linecap="round" stroke-linejoin="round"  />
<path d="M 633.00,648.27 L 636.93,646.52 L 637.55,645.30" fill="none" stroke="#2a2a2a" stroke-width="2.0" stroke-linecap="round" stroke-linejoin="round"  />
<path d="M 637.55,645.30 L 636.66,643.32 L 632.95,641.14 L 625.74,639.51 L 617.74,639.80" fill="none" stroke="#2a2a2a" stroke-width="2.0" stroke-linecap="round" stroke-linejoin="round"  />
<path d="M 527.84,572.99 L 901.97,494.22" fill="none" stroke="#2a2a2a" stroke-width="2.0" stroke-linecap="round" stroke-linejoin="round"  />
<path d="M 901.97,494.22 L 1053.48,578.29" fill="none" stroke="#2a2a2a" stroke-width="2.0" stroke-linecap="round" stroke-linejoin="round"  />
<path d="M 620.21,342.79 L 258.91,418.85" fill="none" stroke="#2a2a2a" stroke-width="2.0" stroke-linecap="round" stroke-linejoin="round"  />
<path d="M 258.91,418.85 L 487.89,545.91" fill="none" stroke="#2a2a2a" stroke-width="2.0" stroke-linecap="round" stroke-linejoin="round"  />
<path d="M 251.78,420.35 L 216.13,427.86" fill="none" stroke="#2a2a2a" stroke-width="2.0" stroke-linecap="round" stroke-linejoin="round"  />
<path d="M 216.13,427.86 L 292.45,470.21" fill="none" stroke="#2a2a2a" stroke-width="2.0" stroke-linecap="round" stroke-linejoin="round"  />
<path d="M 292.45,470.21 L 327.30,474.75" fill="none" stroke="#2a2a2a" stroke-width="2.0" stroke-linecap="round" stroke-linejoin="round"  />
<path d="M 582.89,615.00 L 486.28,561.39" fill="none" stroke="#2a2a2a" stroke-width="2.0" stroke-linecap="round" stroke-linejoin="round"  />
<path d="M 578.67,629.04 L 582.89,615.00" fill="none" stroke="#2a2a2a" stroke-width="2.0" stroke-linecap="round" stroke-linejoin="round"  />
<path d="M 655.00,671.39 L 578.67,629.04" fill="none" stroke="#2a2a2a" stroke-width="2.0" stroke-linecap="round" stroke-linejoin="round"  />
<path d="M 655.00,671.39 L 1101.87,577.31" fill="none" stroke="#2a2a2a" stroke-width="2.0" stroke-linecap="round" stroke-linejoin="round"  />
<path d="M 1101.87,577.31 L 1025.54,534.95" fill="none" stroke="#2a2a2a" stroke-width="2.0" stroke-linecap="round" stroke-linejoin="round"  />
<path d="M 1025.54,534.95 L 986.97,529.93" fill="none" stroke="#2a2a2a" stroke-width="2.0" stroke-linecap="round" stroke-linejoin="round"  />
<path d="M 735.10,390.16 L 986.97,529.93" fill="none" stroke="#2a2a2a" stroke-width="2.0" stroke-linecap="round" stroke-linejoin="round"  />
<path d="M 739.32,376.13 L 735.10,390.16" fill="none" stroke="#2a2a2a" stroke-width="2.0" stroke-linecap="round" stroke-linejoin="round"  />
<path d="M 663.00,333.78 L 739.32,376.13" fill="none" stroke="#2a2a2a" stroke-width="2.0" stroke-linecap="round" stroke-linejoin="round"  />
<path d="M 663.00,333.78 L 627.34,341.28" fill="none" stroke="#2a2a2a" stroke-width="2.0" stroke-linecap="round" stroke-linejoin="round"  />
<path d="M 627.34,341.28 L 856.32,468.34" fill="none" stroke="#2a2a2a" stroke-width="2.0" stroke-linecap="round" stroke-linejoin="round"  />
<path d="M 216.13,427.86 L 217.60,413.71" fill="none" stroke="#2a2a2a" stroke-width="2.0" stroke-linecap="round" stroke-linejoin="round"  />
<path d="M 578.67,629.04 L 580.14,614.89" fill="none" stroke="#2a2a2a" stroke-width="2.0" stroke-linecap="round" stroke-linejoin="round"  />
<path d="M 1101.87,577.31 L 1103.33,563.16" fill="none" stroke="#2a2a2a" stroke-width="2.0" stroke-linecap="round" stroke-linejoin="round"  />
<path d="M 1066.33,542.63 L 1062.80,542.81 L 1059.15,541.64" fill="none" stroke="#2a2a2a" stroke-width="2.0" stroke-linecap="round" stroke-linejoin="round"  />
<path d="M 1025.54,534.95 L 1027.01,520.81" fill="none" stroke="#2a2a2a" stroke-width="2.0" stroke-linecap="round" stroke-linejoin="round"  />
<path d="M 986.97,529.93 L 988.44,515.78" fill="none" stroke="#2a2a2a" stroke-width="2.0" stroke-linecap="round" stroke-linejoin="round"  />
<path d="M 739.32,376.13 L 740.79,361.98" fill="none" stroke="#2a2a2a" stroke-width="2.0" stroke-linecap="round" stroke-linejoin="round"  />
<path d="M 663.00,333.78 L 664.46,319.63" fill="none" stroke="#2a2a2a" stroke-width="2.0" stroke-linecap="round" stroke-linejoin="round"  />
<path d="M 464.80,361.67 L 417.26,371.68" fill="none" stroke="#2a2a2a" stroke-width="2.0" stroke-linecap="round" stroke-linejoin="round"  />
<path d="M 251.78,420.35 L 257.15,435.83" fill="none" stroke="#2a2a2a" stroke-width="2.0" stroke-linecap="round" stroke-linejoin="round"  />
<path d="M 257.15,435.83 L 258.91,418.85" fill="none" stroke="#2a2a2a" stroke-width="2.0" stroke-linecap="round" stroke-linejoin="round"  />
<path d="M 618.45,359.76 L 620.21,342.79" fill="none" stroke="#2a2a2a" stroke-width="2.0" stroke-linecap="round" stroke-linejoin="round"  />
<path d="M 627.34,341.28 L 618.45,359.76" fill="none" stroke="#2a2a2a" stroke-width="2.0" stroke-linecap="round" stroke-linejoin="round"  />
<path d="M 715.23,347.80 L 711.70,347.99 L 708.06,346.81" fill="none" stroke="#2a2a2a" stroke-width="2.0" stroke-linecap="round" stroke-linejoin="round"  />
<path d="M 633.59,642.61 L 635.15,642.19" fill="none" stroke="#2a2a2a" stroke-width="2.0" stroke-linecap="round" stroke-linejoin="round"  />
<path d="M 1051.94,554.53 L 1053.50,554.11" fill="none" stroke="#2a2a2a" stroke-width="2.0" stroke-linecap="round" stroke-linejoin="round"  />
<path d="M 700.84,359.71 L 702.40,359.29" fill="none" stroke="#2a2a2a" stroke-width="2.0" stroke-linecap="round" stroke-linejoin="round"  />
<path d="M 570.69,578.57 L 526.96,581.48" fill="none" stroke="#2a2a2a" stroke-width="2.0" stroke-linecap="round" stroke-linejoin="round"  />
<path d="M 897.28,509.82 L 901.09,502.71" fill="none" stroke="#2a2a2a" stroke-width="2.0" stroke-linecap="round" stroke-linejoin="round"  />
<path d="M 526.96,581.48 L 901.09,502.71" fill="none" stroke="#2a2a2a" stroke-width="2.0" stroke-linecap="round" stroke-linejoin="round"  />
<path d="M 901.09,502.71 L 901.97,494.22" fill="none" stroke="#2a2a2a" stroke-width="2.0" stroke-linecap="round" stroke-linejoin="round"  />
<path d="M 526.96,581.48 L 527.84,572.99" fill="none" stroke="#2a2a2a" stroke-width="2.0" stroke-linecap="round" stroke-linejoin="round"  />
<path d="M 1010.63,572.71 L 1052.60,586.78" fill="none" stroke="#2a2a2a" stroke-width="2.0" stroke-linecap="round" stroke-linejoin="round"  />
<path d="M 901.09,502.71 L 1052.60,586.78" fill="none" stroke="#2a2a2a" stroke-width="2.0" stroke-linecap="round" stroke-linejoin="round"  />
<path d="M 1052.60,586.78 L 1053.48,578.29" fill="none" stroke="#2a2a2a" stroke-width="2.0" stroke-linecap="round" stroke-linejoin="round"  />
<path d="M 678.46,665.55 L 526.96,581.48" fill="none" stroke="#2a2a2a" stroke-width="2.0" stroke-linecap="round" stroke-linejoin="round"  />
<path d="M 684.03,641.47 L 678.46,665.55" fill="none" stroke="#2a2a2a" stroke-width="2.0" stroke-linecap="round" stroke-linejoin="round"  />
<path d="M 1052.60,586.78 L 678.46,665.55" fill="none" stroke="#2a2a2a" stroke-width="2.0" stroke-linecap="round" stroke-linejoin="round"  />
<path d="M 618.45,359.76 L 847.42,486.82" fill="none" stroke="#2a2a2a" stroke-width="2.0" stroke-linecap="round" stroke-linejoin="round"  />
<path d="M 847.42,486.82 L 856.32,468.34" fill="none" stroke="#2a2a2a" stroke-width="2.0" stroke-linecap="round" stroke-linejoin="round"  />
<path d="M 487.89,545.91 L 486.13,562.89" fill="none" stroke="#2a2a2a" stroke-width="2.0" stroke-linecap="round" stroke-linejoin="round"  />
<path d="M 257.15,435.83 L 486.13,562.89" fill="none" stroke="#2a2a2a" stroke-width="2.0" stroke-linecap="round" stroke-linejoin="round"  />
<path d="M 934.21,454.12 L 931.11,483.97" fill="none" stroke="#2a2a2a" stroke-width="2.0" stroke-linecap="round" stroke-linejoin="round"  />
<path d="M 417.26,371.68 L 418.43,366.53" fill="none" stroke="#2a2a2a" stroke-width="2.0" stroke-linecap="round" stroke-linejoin="round"  />
<path d="M 464.80,361.67 L 469.53,340.89" fill="none" stroke="#2a2a2a" stroke-width="2.0" stroke-linecap="round" stroke-linejoin="round"  />
        <path d="M 26.07,280.39 L 28.13,279.88" fill="none" stroke="#2a2a2a" stroke-width="2.0" stroke-linecap="round" stroke-linejoin="round"  />
<path d="M 604.14,158.61 L 323.41,217.71" fill="none" stroke="#2a2a2a" stroke-width="2.0" stroke-linecap="round" stroke-linejoin="round"  />
<path d="M 287.75,225.22 L 28.13,279.88" fill="none" stroke="#2a2a2a" stroke-width="2.0" stroke-linecap="round" stroke-linejoin="round"  />
<path d="M 604.14,158.61 L 607.57,158.06 L 610.65,157.80 L 619.87,158.04 L 620.33,158.09 L 626.42,159.04 L 631.59,160.36 L 634.80,161.51 L 637.94,162.99" fill="none" stroke="#2a2a2a" stroke-width="2.0" stroke-linecap="round" stroke-linejoin="round"  />
<path d="M 16.62,294.93 L 19.39,298.10 L 22.20,299.98" fill="none" stroke="#2a2a2a" stroke-width="2.0" stroke-linecap="round" stroke-linejoin="round"  />
<path d="M 16.00,292.49 L 16.01,292.88 L 16.21,293.92 L 16.62,294.93" fill="none" stroke="#2a2a2a" stroke-width="2.0" stroke-linecap="round" stroke-linejoin="round"  />
<path d="M 1179.40,477.56 L 1180.25,477.27" fill="none" stroke="#2a2a2a" stroke-width="2.0" stroke-linecap="round" stroke-linejoin="round"  />
<path d="M 1179.22,477.53 L 1178.78,477.43" fill="none" stroke="#2a2a2a" stroke-width="2.0" stroke-linecap="round" stroke-linejoin="round"  />
<path d="M 1162.46,475.34 L 1012.98,461.00 L 863.50,446.45" fill="none" stroke="#2a2a2a" stroke-width="2.0" stroke-linecap="round" stroke-linejoin="round"  />
<path d="M 22.29,300.02 L 29.90,304.28 L 32.76,305.85 L 35.92,307.59 L 37.63,308.54" fill="none" stroke="#2a2a2a" stroke-width="2.0" stroke-linecap="round" stroke-linejoin="round"  />
<path d="M 1179.80,477.54 L 1176.88,479.36 L 1176.71,479.43 L 1171.44,481.08" fill="none" stroke="#2a2a2a" stroke-width="2.0" stroke-linecap="round" stroke-linejoin="round"  />
<path d="M 1180.25,477.27 L 1181.32,475.76 L 1181.79,474.45" fill="none" stroke="#2a2a2a" stroke-width="2.0" stroke-linecap="round" stroke-linejoin="round"  />
<path d="M 1171.44,481.08 L 999.66,517.24" fill="none" stroke="#2a2a2a" stroke-width="2.0" stroke-linecap="round" stroke-linejoin="round"  />
<path d="M 895.35,539.20 L 660.67,588.61" fill="none" stroke="#2a2a2a" stroke-width="2.0" stroke-linecap="round" stroke-linejoin="round"  />
<path d="M 37.60,308.53 L 224.52,412.25" fill="none" stroke="#2a2a2a" stroke-width="2.0" stroke-linecap="round" stroke-linejoin="round"  />
<path d="M 1179.24,477.53 L 1178.37,477.35 L 1176.10,476.96 L 1174.93,476.78 L 1171.12,476.28 L 1166.80,475.78 L 1164.17,475.51 L 1162.46,475.34" fill="none" stroke="#2a2a2a" stroke-width="2.0" stroke-linecap="round" stroke-linejoin="round"  />
<path d="M 1162.46,475.34 L 1162.46,475.34" fill="none" stroke="#2a2a2a" stroke-width="2.0" stroke-linecap="round" stroke-linejoin="round"  />
<path d="M 1181.82,474.37 L 1182.79,469.51" fill="none" stroke="#2a2a2a" stroke-width="2.0" stroke-linecap="round" stroke-linejoin="round"  />
<path d="M 16.00,292.51 L 16.06,287.34" fill="none" stroke="#2a2a2a" stroke-width="2.0" stroke-linecap="round" stroke-linejoin="round"  />
<path d="M 1177.55,431.74 L 1179.41,432.90 L 1183.06,436.66 L 1184.00,440.28" fill="none" stroke="#2a2a2a" stroke-width="2.0" stroke-linecap="round" stroke-linejoin="round"  />
<path d="M 1177.55,431.74 L 640.73,133.86" fill="none" stroke="#2a2a2a" stroke-width="2.0" stroke-linecap="round" stroke-linejoin="round"  />
<path d="M 640.73,133.86 L 636.46,131.93 L 633.16,130.84 L 630.47,130.15 L 623.15,128.94 L 617.02,128.61 L 607.52,129.49" fill="none" stroke="#2a2a2a" stroke-width="2.0" stroke-linecap="round" stroke-linejoin="round"  />
<path d="M 607.52,129.49 L 327.76,188.39" fill="none" stroke="#2a2a2a" stroke-width="2.0" stroke-linecap="round" stroke-linejoin="round"  />
<path d="M 292.11,195.90 L 31.51,250.76" fill="none" stroke="#2a2a2a" stroke-width="2.0" stroke-linecap="round" stroke-linejoin="round"  />
<path d="M 20.87,258.45 L 22.55,255.09 L 26.92,252.15 L 31.51,250.76" fill="none" stroke="#2a2a2a" stroke-width="2.0" stroke-linecap="round" stroke-linejoin="round"  />
<path d="M 20.87,258.45 L 16.28,285.34" fill="none" stroke="#2a2a2a" stroke-width="2.0" stroke-linecap="round" stroke-linejoin="round"  />
<path d="M 1184.00,440.28 L 1182.97,467.53" fill="none" stroke="#2a2a2a" stroke-width="2.0" stroke-linecap="round" stroke-linejoin="round"  />
      </svg>
    