<?xml version="1.0" encoding="UTF-8" standalone="no"?>
<svg
   xmlns:svg="http://www.w3.org/2000/svg"
   xmlns="http://www.w3.org/2000/svg"
   width="800.0"
   height="600.0"

>
    <g transform="scale(16.666666666666664, -16.666666666666664)   translate(9.2000001,-14.7)" stroke-width="1.0"  fill="none">
       <!-- hidden lines -->
       <g  stroke="#8b949e" fill="none" stroke-dasharray="1.0,1.0" >
			<path d="M0.0,-8.0 L-8.0,-8.0 " />
			<path d="M0.0,13.5 L0.0,8.0 " />
			<path d="M0.0,8.0 L0.0,-8.0 " />
			<path d="M0.0,-8.0 L0.0,-13.5 " />
			<path d="M0.0,-12.35 L0.0,-12.309884659490917 L0.0,-12.19155018864387 L0.0,-12.000930371948847 L0.0,-11.747583682973973 L0.0,-11.444213982588092 L0.0,-11.106033494330102 L0.0,-10.75 L0.0,-10.393966505669898 L0.0,-10.055786017411908 L0.0,-9.752416317026027 L0.0,-9.499069628051153 L0.0,-9.30844981135613 L0.0,-9.190115340509083 L0.0,-9.15 " />
			<path d="M0.0,-9.15 L0.0,-9.190115340509083 L0.0,-9.30844981135613 L0.0,-9.499069628051153 L0.0,-9.752416317026025 L0.0,-10.055786017411906 L0.0,-10.393966505669896 L0.0,-10.75 L0.0,-11.106033494330102 L0.0,-11.444213982588092 L0.0,-11.747583682973973 L0.0,-12.000930371948847 L0.0,-12.19155018864387 L0.0,-12.309884659490917 L0.0,-12.349999999999998 " />
			<path d="M0.0,-1.75 L0.0,-1.7938761536818086 L0.0,-1.9233044811707665 L0.0,-2.1317949056809478 L0.0,-2.408892846747216 L0.0,-2.7407034565442734 L0.0,-3.11058836557645 L0.0,-3.5 L0.0,-3.88941163442355 L0.0,-4.259296543455727 L0.0,-4.591107153252784 L0.0,-4.868205094319052 L0.0,-5.076695518829233 L0.0,-5.206123846318191 L0.0,-5.249999999999999 " />
			<path d="M0.0,-5.25 L0.0,-5.206123846318191 L0.0,-5.076695518829234 L0.0,-4.868205094319052 L0.0,-4.591107153252784 L0.0,-4.2592965434557275 L0.0,-3.8894116344235505 L0.0,-3.5000000000000004 L0.0,-3.11058836557645 L0.0,-2.7407034565442734 L0.0,-2.4088928467472166 L0.0,-2.131794905680948 L0.0,-1.9233044811707667 L0.0,-1.7938761536818089 L0.0,-1.7500000000000018 " />
			<path d="M0.0,5.25 L0.0,5.206123846318191 L0.0,5.076695518829234 L0.0,4.868205094319052 L0.0,4.591107153252784 L0.0,4.259296543455727 L0.0,3.88941163442355 L0.0,3.5 L0.0,3.11058836557645 L0.0,2.7407034565442734 L0.0,2.408892846747216 L0.0,2.131794905680948 L0.0,1.9233044811707667 L0.0,1.7938761536818086 L0.0,1.7500000000000009 " />
			<path d="M0.0,1.75 L0.0,1.7938761536818086 L0.0,1.9233044811707665 L0.0,2.1317949056809478 L0.0,2.408892846747216 L0.0,2.740703456544273 L0.0,3.1105883655764495 L0.0,3.4999999999999996 L0.0,3.88941163442355 L0.0,4.259296543455727 L0.0,4.591107153252784 L0.0,4.868205094319052 L0.0,5.076695518829233 L0.0,5.206123846318191 L0.0,5.249999999999998 " />
			<path d="M0.0,9.15 L0.0,9.190115340509083 L0.0,9.30844981135613 L0.0,9.499069628051153 L0.0,9.752416317026027 L0.0,10.055786017411908 L0.0,10.393966505669898 L0.0,10.75 L0.0,11.106033494330102 L0.0,11.444213982588092 L0.0,11.747583682973973 L0.0,12.000930371948847 L0.0,12.19155018864387 L0.0,12.309884659490917 L0.0,12.35 " />
			<path d="M0.0,12.35 L0.0,12.309884659490917 L0.0,12.19155018864387 L0.0,12.000930371948847 L0.0,11.747583682973975 L0.0,11.444213982588094 L0.0,11.106033494330104 L0.0,10.75 L0.0,10.393966505669898 L0.0,10.055786017411908 L0.0,9.752416317026027 L0.0,9.499069628051153 L0.0,9.30844981135613 L0.0,9.190115340509083 L0.0,9.150000000000002 " />
			<path d="M-8.0,13.5 L-8.0,8.0 " />
			<path d="M-8.0,8.0 L-8.0,-8.0 " />
			<path d="M-8.0,-8.0 L-8.0,-13.5 " />
			<path d="M-8.0,-12.35 L-8.0,-12.309884659490917 L-8.0,-12.19155018864387 L-8.0,-12.000930371948847 L-8.0,-11.747583682973973 L-8.0,-11.444213982588092 L-8.0,-11.106033494330102 L-8.0,-10.75 L-8.0,-10.393966505669898 L-8.0,-10.055786017411908 L-8.0,-9.752416317026027 L-8.0,-9.499069628051153 L-8.0,-9.30844981135613 L-8.0,-9.190115340509083 L-8.0,-9.15 " />
			<path d="M-8.0,-9.15 L-8.0,-9.190115340509083 L-8.0,-9.30844981135613 L-8.0,-9.499069628051153 L-8.0,-9.752416317026025 L-8.0,-10.055786017411906 L-8.0,-10.393966505669896 L-8.0,-10.75 L-8.0,-11.106033494330102 L-8.0,-11.444213982588092 L-8.0,-11.747583682973973 L-8.0,-12.000930371948847 L-8.0,-12.19155018864387 L-8.0,-12.309884659490917 L-8.0,-12.349999999999998 " />
			<path d="M-8.0,9.15 L-8.0,9.190115340509083 L-8.0,9.30844981135613 L-8.0,9.499069628051153 L-8.0,9.752416317026027 L-8.0,10.055786017411908 L-8.0,10.393966505669898 L-8.0,10.75 L-8.0,11.106033494330102 L-8.0,11.444213982588092 L-8.0,11.747583682973973 L-8.0,12.000930371948847 L-8.0,12.19155018864387 L-8.0,12.309884659490917 L-8.0,12.35 " />
			<path d="M-8.0,12.35 L-8.0,12.309884659490917 L-8.0,12.19155018864387 L-8.0,12.000930371948847 L-8.0,11.747583682973975 L-8.0,11.444213982588094 L-8.0,11.106033494330104 L-8.0,10.75 L-8.0,10.393966505669898 L-8.0,10.055786017411908 L-8.0,9.752416317026027 L-8.0,9.499069628051153 L-8.0,9.30844981135613 L-8.0,9.190115340509083 L-8.0,9.150000000000002 " />
			<path d="M0.0,8.0 L-8.0,8.0 " />
			<path d="M0.0,-13.5 L-8.0,-13.5 " />
			<path d="M0.0,-8.0 L-8.0,-8.0 " />
			<path d="M0.0,13.5 L-8.0,13.5 " />
			<path d="M0.0,-8.0 L-8.0,-8.0 " />
			<path d="M0.0,8.0 L-8.0,8.0 " />
			<path d="M0.0,8.0 L-8.0,8.0 " />
			<path d="M-8.0,-12.35 L0.0,-12.35 " />
			<path d="M6.0,-1.75 L6.0,-1.7938761536818086 L6.0,-1.9233044811707665 L6.0,-2.1317949056809478 L6.0,-2.408892846747216 L6.0,-2.7407034565442734 L6.0,-3.11058836557645 L6.0,-3.5 L6.0,-3.88941163442355 L6.0,-4.259296543455727 L6.0,-4.591107153252784 L6.0,-4.868205094319052 L6.0,-5.076695518829233 L6.0,-5.206123846318191 L6.0,-5.249999999999999 " />
			<path d="M6.0,5.25 L6.0,5.206123846318191 L6.0,5.076695518829234 L6.0,4.868205094319052 L6.0,4.591107153252784 L6.0,4.259296543455727 L6.0,3.88941163442355 L6.0,3.5 L6.0,3.11058836557645 L6.0,2.7407034565442734 L6.0,2.408892846747216 L6.0,2.131794905680948 L6.0,1.9233044811707667 L6.0,1.7938761536818086 L6.0,1.7500000000000009 " />
			<path d="M-8.0,9.15 L0.0,9.15 " />
			<path d="M-8.0,-9.15 L0.0,-9.15 " />
			<path d="M-8.0,12.35 L0.0,12.35 " />

       </g>

       <!-- solid lines -->
       <g  stroke="#f0f6fc" fill="none">
			<path d="M0.0,-8.0 L-8.0,-8.0 " />
			<path d="M-8.0,-8.0 L-8.0,5.5 " />
			<path d="M0.0,5.5 L-8.0,5.5 " />
			<path d="M0.0,-8.0 L0.0,5.5 " />
			<path d="M-8.0,5.5 L-8.0,8.0 " />
			<path d="M0.0,8.0 L-8.0,8.0 " />
			<path d="M0.0,5.5 L0.0,8.0 " />
			<path d="M0.0,8.0 L0.0,13.5 " />
			<path d="M0.0,-13.5 L0.0,-8.0 " />
			<path d="M-8.0,8.0 L-8.0,13.5 " />
			<path d="M-8.0,-13.5 L-8.0,-8.0 " />
			<path d="M0.0,-13.5 L-8.0,-13.5 " />
			<path d="M0.0,13.5 L-8.0,13.5 " />
			<path d="M0.0,-1.75 L6.0,-1.75 " />
			<path d="M6.0,-5.25 L6.0,-5.206123846318191 L6.0,-5.076695518829234 L6.0,-4.868205094319052 L6.0,-4.591107153252784 L6.0,-4.2592965434557275 L6.0,-3.8894116344235505 L6.0,-3.5000000000000004 L6.0,-3.11058836557645 L6.0,-2.7407034565442734 L6.0,-2.4088928467472166 L6.0,-2.131794905680948 L6.0,-1.9233044811707667 L6.0,-1.7938761536818089 L6.0,-1.7500000000000018 " />
			<path d="M0.0,5.25 L6.0,5.25 " />
			<path d="M6.0,1.75 L6.0,1.7938761536818086 L6.0,1.9233044811707665 L6.0,2.1317949056809478 L6.0,2.408892846747216 L6.0,2.740703456544273 L6.0,3.1105883655764495 L6.0,3.4999999999999996 L6.0,3.88941163442355 L6.0,4.259296543455727 L6.0,4.591107153252784 L6.0,4.868205094319052 L6.0,5.076695518829233 L6.0,5.206123846318191 L6.0,5.249999999999998 " />
			<path d="M6.0,-5.25 L0.0,-5.25 " />
			<path d="M6.0,1.75 L0.0,1.75 " />

       </g>
    </g>
    
</svg>
