
      <svg xmlns="http://www.w3.org/2000/svg" width="1200" height="800" viewBox="0 0 1200 800" style="background: #ffffff;">
        
        <path d="M 386.52,708.53 L 387.88,708.53" fill="none" stroke="#2a2a2a" stroke-width="2.0" stroke-linecap="round" stroke-linejoin="round"  />
<path d="M 380.20,721.12 L 389.21,722.08 L 397.58,719.57 L 399.70,717.58 L 400.44,715.34" fill="none" stroke="#2a2a2a" stroke-width="2.0" stroke-linecap="round" stroke-linejoin="round"  />
<path d="M 400.44,715.34 L 398.56,711.84 L 394.20,709.55" fill="none" stroke="#2a2a2a" stroke-width="2.0" stroke-linecap="round" stroke-linejoin="round"  />
<path d="M 359.65,730.65 L 361.00,730.65" fill="none" stroke="#2a2a2a" stroke-width="2.0" stroke-linecap="round" stroke-linejoin="round"  />
<path d="M 353.32,743.25 L 362.33,744.20 L 370.70,741.70 L 372.83,739.70 L 373.56,737.46" fill="none" stroke="#2a2a2a" stroke-width="2.0" stroke-linecap="round" stroke-linejoin="round"  />
<path d="M 373.56,737.46 L 371.68,733.96 L 367.33,731.68" fill="none" stroke="#2a2a2a" stroke-width="2.0" stroke-linecap="round" stroke-linejoin="round"  />
<path d="M 199.31,579.40 L 211.84,581.44 L 225.43,579.95 L 235.30,575.42 L 238.64,571.80 L 239.79,567.83" fill="none" stroke="#2a2a2a" stroke-width="2.0" stroke-linecap="round" stroke-linejoin="round"  />
<path d="M 239.79,567.83 L 237.88,562.75 L 227.32,556.26" fill="none" stroke="#2a2a2a" stroke-width="2.0" stroke-linecap="round" stroke-linejoin="round"  />
<path d="M 199.31,570.32 L 211.84,572.36 L 225.43,570.87 L 235.30,566.34 L 238.28,563.29" fill="none" stroke="#2a2a2a" stroke-width="2.0" stroke-linecap="round" stroke-linejoin="round"  />
<path d="M 766.36,127.67 L 777.64,129.33 L 789.49,127.43 L 796.79,122.99 L 798.75,118.42" fill="none" stroke="#2a2a2a" stroke-width="2.0" stroke-linecap="round" stroke-linejoin="round"  />
<path d="M 798.75,118.42 L 798.31,116.22" fill="none" stroke="#2a2a2a" stroke-width="2.0" stroke-linecap="round" stroke-linejoin="round"  />
<path d="M 766.36,118.60 L 777.64,120.25 L 789.49,118.36 L 792.70,116.97 L 795.33,115.28" fill="none" stroke="#2a2a2a" stroke-width="2.0" stroke-linecap="round" stroke-linejoin="round"  />
<path d="M 757.96,148.23 L 772.64,150.95 L 789.03,150.19 L 802.98,145.93 L 811.44,139.78 L 814.54,133.33 L 813.43,127.21 L 807.20,120.57" fill="none" stroke="#2a2a2a" stroke-width="2.0" stroke-linecap="round" stroke-linejoin="round"  />
<path d="M 807.20,120.57 L 797.17,115.84" fill="none" stroke="#2a2a2a" stroke-width="2.0" stroke-linecap="round" stroke-linejoin="round"  />
<path d="M 273.43,534.95 L 284.71,536.60 L 296.55,534.71 L 303.86,530.27 L 305.81,525.70" fill="none" stroke="#2a2a2a" stroke-width="2.0" stroke-linecap="round" stroke-linejoin="round"  />
<path d="M 305.81,525.70 L 305.38,523.50" fill="none" stroke="#2a2a2a" stroke-width="2.0" stroke-linecap="round" stroke-linejoin="round"  />
<path d="M 273.43,525.88 L 284.71,527.53 L 296.55,525.64 L 299.77,524.25 L 302.40,522.56" fill="none" stroke="#2a2a2a" stroke-width="2.0" stroke-linecap="round" stroke-linejoin="round"  />
<path d="M 265.03,555.51 L 279.71,558.23 L 296.10,557.47 L 310.05,553.21 L 318.51,547.06 L 321.61,540.61 L 320.49,534.49 L 314.26,527.85" fill="none" stroke="#2a2a2a" stroke-width="2.0" stroke-linecap="round" stroke-linejoin="round"  />
<path d="M 314.26,527.85 L 304.24,523.12" fill="none" stroke="#2a2a2a" stroke-width="2.0" stroke-linecap="round" stroke-linejoin="round"  />
<path d="M 128.13,641.10 L 137.14,642.05 L 145.51,639.55 L 147.63,637.56 L 148.37,635.31" fill="none" stroke="#2a2a2a" stroke-width="2.0" stroke-linecap="round" stroke-linejoin="round"  />
<path d="M 148.37,635.31 L 146.49,631.81 L 142.13,629.53" fill="none" stroke="#2a2a2a" stroke-width="2.0" stroke-linecap="round" stroke-linejoin="round"  />
<path d="M 134.45,628.51 L 135.81,628.51" fill="none" stroke="#2a2a2a" stroke-width="2.0" stroke-linecap="round" stroke-linejoin="round"  />
<path d="M 155.02,618.88 L 164.03,619.84 L 172.39,617.33 L 174.52,615.34 L 175.26,613.10" fill="none" stroke="#2a2a2a" stroke-width="2.0" stroke-linecap="round" stroke-linejoin="round"  />
<path d="M 175.26,613.10 L 173.38,609.60 L 169.02,607.31" fill="none" stroke="#2a2a2a" stroke-width="2.0" stroke-linecap="round" stroke-linejoin="round"  />
<path d="M 162.70,606.29 L 161.34,606.29" fill="none" stroke="#2a2a2a" stroke-width="2.0" stroke-linecap="round" stroke-linejoin="round"  />
<path d="M 909.38,111.46 L 901.24,114.65 L 889.15,115.02 L 880.07,112.77" fill="none" stroke="#2a2a2a" stroke-width="2.0" stroke-linecap="round" stroke-linejoin="round"  />
<path d="M 910.63,112.69 L 904.52,116.06 L 901.24,116.92 L 889.15,117.28 L 880.07,115.03" fill="none" stroke="#2a2a2a" stroke-width="2.0" stroke-linecap="round" stroke-linejoin="round"  />
<path d="M 880.07,121.84 L 871.83,116.03" fill="none" stroke="#2a2a2a" stroke-width="2.0" stroke-linecap="round" stroke-linejoin="round"  />
<path d="M 880.07,124.11 L 872.55,119.19 L 870.10,113.37" fill="none" stroke="#2a2a2a" stroke-width="2.0" stroke-linecap="round" stroke-linejoin="round"  />
<path d="M 115.33,613.29 L 130.73,600.56" fill="none" stroke="#2a2a2a" stroke-width="2.0" stroke-linecap="round" stroke-linejoin="round"  />
<path d="M 130.73,611.45 L 130.73,600.56" fill="none" stroke="#2a2a2a" stroke-width="2.0" stroke-linecap="round" stroke-linejoin="round"  />
<path d="M 115.33,624.18 L 130.73,611.45" fill="none" stroke="#2a2a2a" stroke-width="2.0" stroke-linecap="round" stroke-linejoin="round"  />
<path d="M 115.33,624.18 L 115.33,613.29" fill="none" stroke="#2a2a2a" stroke-width="2.0" stroke-linecap="round" stroke-linejoin="round"  />
<path d="M 747.04,16.00 L 108.47,543.61" fill="none" stroke="#2a2a2a" stroke-width="2.0" stroke-linecap="round" stroke-linejoin="round"  />
<path d="M 108.47,643.46 L 108.47,543.61" fill="none" stroke="#2a2a2a" stroke-width="2.0" stroke-linecap="round" stroke-linejoin="round"  />
<path d="M 164.48,597.18 L 108.47,643.46" fill="none" stroke="#2a2a2a" stroke-width="2.0" stroke-linecap="round" stroke-linejoin="round"  />
<path d="M 164.48,597.18 L 164.48,520.02" fill="none" stroke="#2a2a2a" stroke-width="2.0" stroke-linecap="round" stroke-linejoin="round"  />
<path d="M 747.04,38.69 L 164.48,520.02" fill="none" stroke="#2a2a2a" stroke-width="2.0" stroke-linecap="round" stroke-linejoin="round"  />
<path d="M 747.04,38.69 L 747.04,16.00" fill="none" stroke="#2a2a2a" stroke-width="2.0" stroke-linecap="round" stroke-linejoin="round"  />
<path d="M 157.62,589.24 L 142.22,601.96" fill="none" stroke="#2a2a2a" stroke-width="2.0" stroke-linecap="round" stroke-linejoin="round"  />
<path d="M 142.22,601.96 L 142.22,591.07" fill="none" stroke="#2a2a2a" stroke-width="2.0" stroke-linecap="round" stroke-linejoin="round"  />
<path d="M 157.62,578.34 L 142.22,591.07" fill="none" stroke="#2a2a2a" stroke-width="2.0" stroke-linecap="round" stroke-linejoin="round"  />
<path d="M 157.62,589.24 L 157.62,578.34" fill="none" stroke="#2a2a2a" stroke-width="2.0" stroke-linecap="round" stroke-linejoin="round"  />
<path d="M 227.32,556.26 L 214.78,554.22 L 198.18,556.64" fill="none" stroke="#2a2a2a" stroke-width="2.0" stroke-linecap="round" stroke-linejoin="round"  />
<path d="M 198.18,579.02 L 199.31,579.40" fill="none" stroke="#2a2a2a" stroke-width="2.0" stroke-linecap="round" stroke-linejoin="round"  />
<path d="M 797.17,115.84 L 782.49,113.12 L 766.11,113.88 L 756.02,116.50 L 747.94,120.57" fill="none" stroke="#2a2a2a" stroke-width="2.0" stroke-linecap="round" stroke-linejoin="round"  />
<path d="M 747.94,120.57 L 741.84,126.96 L 740.59,133.33 L 743.30,139.31 L 750.25,144.93 L 757.96,148.23" fill="none" stroke="#2a2a2a" stroke-width="2.0" stroke-linecap="round" stroke-linejoin="round"  />
<path d="M 304.24,523.12 L 289.56,520.40 L 273.17,521.16 L 263.09,523.78 L 255.01,527.85" fill="none" stroke="#2a2a2a" stroke-width="2.0" stroke-linecap="round" stroke-linejoin="round"  />
<path d="M 255.01,527.85 L 248.91,534.24 L 247.66,540.61 L 250.37,546.59 L 257.32,552.21 L 265.03,555.51" fill="none" stroke="#2a2a2a" stroke-width="2.0" stroke-linecap="round" stroke-linejoin="round"  />
<path d="M 869.30,125.12 L 864.30,119.04" fill="none" stroke="#2a2a2a" stroke-width="2.0" stroke-linecap="round" stroke-linejoin="round"  />
<path d="M 864.30,119.04 L 864.77,114.74" fill="none" stroke="#2a2a2a" stroke-width="2.0" stroke-linecap="round" stroke-linejoin="round"  />
<path d="M 864.77,114.74 L 869.47,110.07 L 878.88,106.32 L 891.53,105.40 L 902.48,107.87" fill="none" stroke="#2a2a2a" stroke-width="2.0" stroke-linecap="round" stroke-linejoin="round"  />
<path d="M 909.25,122.89 L 912.46,117.12" fill="none" stroke="#2a2a2a" stroke-width="2.0" stroke-linecap="round" stroke-linejoin="round"  />
<path d="M 912.46,117.12 L 910.56,112.61 L 902.48,107.87" fill="none" stroke="#2a2a2a" stroke-width="2.0" stroke-linecap="round" stroke-linejoin="round"  />
<path d="M 909.25,122.89 L 903.54,126.81 L 893.04,129.41 L 879.97,128.89 L 869.30,125.12" fill="none" stroke="#2a2a2a" stroke-width="2.0" stroke-linecap="round" stroke-linejoin="round"  />
<path d="M 198.18,595.10 L 419.26,666.07" fill="none" stroke="#2a2a2a" stroke-width="2.0" stroke-linecap="round" stroke-linejoin="round"  />
<path d="M 419.26,666.07 L 475.28,619.79" fill="none" stroke="#2a2a2a" stroke-width="2.0" stroke-linecap="round" stroke-linejoin="round"  />
<path d="M 508.98,630.60 L 475.28,619.79" fill="none" stroke="#2a2a2a" stroke-width="2.0" stroke-linecap="round" stroke-linejoin="round"  />
<path d="M 1091.53,149.27 L 508.98,630.60" fill="none" stroke="#2a2a2a" stroke-width="2.0" stroke-linecap="round" stroke-linejoin="round"  />
<path d="M 747.04,38.69 L 1091.53,149.27" fill="none" stroke="#2a2a2a" stroke-width="2.0" stroke-linecap="round" stroke-linejoin="round"  />
<path d="M 164.48,520.02 L 198.18,530.84" fill="none" stroke="#2a2a2a" stroke-width="2.0" stroke-linecap="round" stroke-linejoin="round"  />
<path d="M 759.80,115.28 L 766.36,118.60" fill="none" stroke="#2a2a2a" stroke-width="2.0" stroke-linecap="round" stroke-linejoin="round"  />
<path d="M 266.87,522.56 L 273.43,525.88" fill="none" stroke="#2a2a2a" stroke-width="2.0" stroke-linecap="round" stroke-linejoin="round"  />
<path d="M 747.04,16.00 L 1091.53,126.58" fill="none" stroke="#2a2a2a" stroke-width="2.0" stroke-linecap="round" stroke-linejoin="round"  />
<path d="M 1091.53,149.27 L 1091.53,126.58" fill="none" stroke="#2a2a2a" stroke-width="2.0" stroke-linecap="round" stroke-linejoin="round"  />
<path d="M 508.98,737.72 L 508.98,630.60" fill="none" stroke="#2a2a2a" stroke-width="2.0" stroke-linecap="round" stroke-linejoin="round"  />
<path d="M 452.96,784.00 L 508.98,737.72" fill="none" stroke="#2a2a2a" stroke-width="2.0" stroke-linecap="round" stroke-linejoin="round"  />
<path d="M 452.96,784.00 L 326.40,743.37" fill="none" stroke="#2a2a2a" stroke-width="2.0" stroke-linecap="round" stroke-linejoin="round"  />
<path d="M 326.40,743.37 L 326.40,729.76" fill="none" stroke="#2a2a2a" stroke-width="2.0" stroke-linecap="round" stroke-linejoin="round"  />
<path d="M 360.10,730.66 L 360.10,730.64" fill="none" stroke="#2a2a2a" stroke-width="2.0" stroke-linecap="round" stroke-linejoin="round"  />
<path d="M 419.26,678.96 L 419.26,666.07" fill="none" stroke="#2a2a2a" stroke-width="2.0" stroke-linecap="round" stroke-linejoin="round"  />
<path d="M 108.47,643.46 L 142.17,654.28" fill="none" stroke="#2a2a2a" stroke-width="2.0" stroke-linecap="round" stroke-linejoin="round"  />
<path d="M 198.18,608.00 L 198.18,530.84" fill="none" stroke="#2a2a2a" stroke-width="2.0" stroke-linecap="round" stroke-linejoin="round"  />
<path d="M 142.17,654.28 L 198.18,608.00" fill="none" stroke="#2a2a2a" stroke-width="2.0" stroke-linecap="round" stroke-linejoin="round"  />
<path d="M 164.48,597.18 L 198.18,608.00" fill="none" stroke="#2a2a2a" stroke-width="2.0" stroke-linecap="round" stroke-linejoin="round"  />
<path d="M 169.02,607.31 L 160.01,606.36 L 151.65,608.87 L 149.52,610.86 L 148.78,613.10" fill="none" stroke="#2a2a2a" stroke-width="2.0" stroke-linecap="round" stroke-linejoin="round"  />
<path d="M 148.78,613.10 L 150.66,616.60 L 155.02,618.88" fill="none" stroke="#2a2a2a" stroke-width="2.0" stroke-linecap="round" stroke-linejoin="round"  />
<path d="M 142.13,629.53 L 133.13,628.58 L 124.76,631.08 L 122.63,633.07 L 121.89,635.31" fill="none" stroke="#2a2a2a" stroke-width="2.0" stroke-linecap="round" stroke-linejoin="round"  />
<path d="M 121.89,635.31 L 123.77,638.82 L 128.13,641.10" fill="none" stroke="#2a2a2a" stroke-width="2.0" stroke-linecap="round" stroke-linejoin="round"  />
<path d="M 475.28,696.95 L 475.28,619.79" fill="none" stroke="#2a2a2a" stroke-width="2.0" stroke-linecap="round" stroke-linejoin="round"  />
<path d="M 475.28,696.95 L 416.11,677.95" fill="none" stroke="#2a2a2a" stroke-width="2.0" stroke-linecap="round" stroke-linejoin="round"  />
<path d="M 416.11,694.29 L 416.11,677.95" fill="none" stroke="#2a2a2a" stroke-width="2.0" stroke-linecap="round" stroke-linejoin="round"  />
<path d="M 382.41,683.48 L 416.11,694.29" fill="none" stroke="#2a2a2a" stroke-width="2.0" stroke-linecap="round" stroke-linejoin="round"  />
<path d="M 382.41,697.09 L 382.41,683.48" fill="none" stroke="#2a2a2a" stroke-width="2.0" stroke-linecap="round" stroke-linejoin="round"  />
<path d="M 382.41,697.09 L 508.98,737.72" fill="none" stroke="#2a2a2a" stroke-width="2.0" stroke-linecap="round" stroke-linejoin="round"  />
<path d="M 912.40,116.34 L 909.71,120.29 L 901.24,123.72 L 889.15,124.09 L 880.07,121.84" fill="none" stroke="#2a2a2a" stroke-width="2.0" stroke-linecap="round" stroke-linejoin="round"  />
<path d="M 869.30,125.12 L 864.84,119.06 L 864.44,117.35 L 864.38,115.68" fill="none" stroke="#2a2a2a" stroke-width="2.0" stroke-linecap="round" stroke-linejoin="round"  />
<path d="M 908.70,120.99 L 903.94,122.36 L 890.37,123.22 L 883.19,122.18 L 876.83,120.29" fill="none" stroke="#2a2a2a" stroke-width="2.0" stroke-linecap="round" stroke-linejoin="round"  />
<path d="M 908.70,111.91 L 903.94,113.28 L 890.37,114.14 L 883.19,113.11 L 876.83,111.22" fill="none" stroke="#2a2a2a" stroke-width="2.0" stroke-linecap="round" stroke-linejoin="round"  />
<path d="M 909.25,122.89 L 901.24,125.99 L 889.15,126.36 L 880.07,124.11" fill="none" stroke="#2a2a2a" stroke-width="2.0" stroke-linecap="round" stroke-linejoin="round"  />
<path d="M 130.73,604.38 L 123.60,607.46 L 121.89,610.81" fill="none" stroke="#2a2a2a" stroke-width="2.0" stroke-linecap="round" stroke-linejoin="round"  />
<path d="M 121.89,610.81 L 122.89,613.40 L 125.71,615.60" fill="none" stroke="#2a2a2a" stroke-width="2.0" stroke-linecap="round" stroke-linejoin="round"  />
<path d="M 124.82,616.33 L 115.33,613.29" fill="none" stroke="#2a2a2a" stroke-width="2.0" stroke-linecap="round" stroke-linejoin="round"  />
<path d="M 152.60,593.38 L 148.78,588.59" fill="none" stroke="#2a2a2a" stroke-width="2.0" stroke-linecap="round" stroke-linejoin="round"  />
<path d="M 148.78,588.59 L 150.66,585.09 L 157.62,582.16" fill="none" stroke="#2a2a2a" stroke-width="2.0" stroke-linecap="round" stroke-linejoin="round"  />
<path d="M 151.71,594.12 L 142.22,591.07" fill="none" stroke="#2a2a2a" stroke-width="2.0" stroke-linecap="round" stroke-linejoin="round"  />
<path d="M 263.89,523.50 L 263.46,525.70" fill="none" stroke="#2a2a2a" stroke-width="2.0" stroke-linecap="round" stroke-linejoin="round"  />
<path d="M 263.46,525.70 L 265.35,530.21 L 273.43,534.95" fill="none" stroke="#2a2a2a" stroke-width="2.0" stroke-linecap="round" stroke-linejoin="round"  />
<path d="M 756.82,116.22 L 756.39,118.42" fill="none" stroke="#2a2a2a" stroke-width="2.0" stroke-linecap="round" stroke-linejoin="round"  />
<path d="M 756.39,118.42 L 758.28,122.93 L 766.36,127.67" fill="none" stroke="#2a2a2a" stroke-width="2.0" stroke-linecap="round" stroke-linejoin="round"  />
<path d="M 198.18,569.94 L 199.31,570.32" fill="none" stroke="#2a2a2a" stroke-width="2.0" stroke-linecap="round" stroke-linejoin="round"  />
<path d="M 416.11,677.95 L 401.87,689.72" fill="none" stroke="#2a2a2a" stroke-width="2.0" stroke-linecap="round" stroke-linejoin="round"  />
<path d="M 326.40,729.76 L 382.41,683.48" fill="none" stroke="#2a2a2a" stroke-width="2.0" stroke-linecap="round" stroke-linejoin="round"  />
<path d="M 326.40,743.37 L 382.41,697.09" fill="none" stroke="#2a2a2a" stroke-width="2.0" stroke-linecap="round" stroke-linejoin="round"  />
<path d="M 367.33,731.68 L 358.32,730.72 L 349.95,733.23 L 347.83,735.22 L 347.09,737.46" fill="none" stroke="#2a2a2a" stroke-width="2.0" stroke-linecap="round" stroke-linejoin="round"  />
<path d="M 347.09,737.46 L 348.97,740.96 L 353.32,743.25" fill="none" stroke="#2a2a2a" stroke-width="2.0" stroke-linecap="round" stroke-linejoin="round"  />
<path d="M 394.20,709.55 L 385.20,708.60 L 376.83,711.10 L 374.70,713.10 L 373.97,715.34" fill="none" stroke="#2a2a2a" stroke-width="2.0" stroke-linecap="round" stroke-linejoin="round"  />
<path d="M 373.97,715.34 L 375.84,718.84 L 380.20,721.12" fill="none" stroke="#2a2a2a" stroke-width="2.0" stroke-linecap="round" stroke-linejoin="round"  />
        <path d="M 864.15,118.26 L 864.31,119.04" fill="none" stroke="#2a2a2a" stroke-width="2.0" stroke-linecap="round" stroke-linejoin="round"  />
      </svg>
    