
      <svg xmlns="http://www.w3.org/2000/svg" width="1200" height="800" viewBox="0 0 1200 800" style="background: #ffffff;">
        
        <path d="M 396.44,522.42 L 315.05,481.23" fill="none" stroke="#808080" stroke-width="4.0" stroke-linecap="round" stroke-linejoin="round"  />
<path d="M 245.24,373.52 L 103.37,301.73" fill="none" stroke="#808080" stroke-width="4.0" stroke-linecap="round" stroke-linejoin="round"  />
<path d="M 103.37,301.73 L 57.73,229.85 L 77.80,163.71 L 163.60,98.39 L 341.14,40.59 L 605.08,16.00 L 791.51,29.09 L 954.54,65.41" fill="none" stroke="#808080" stroke-width="4.0" stroke-linecap="round" stroke-linejoin="round"  />
<path d="M 390.90,532.69 L 315.25,496.63 L 281.25,452.57" fill="none" stroke="#808080" stroke-width="4.0" stroke-linecap="round" stroke-linejoin="round"  />
<path d="M 279.99,568.02 L 309.25,610.72 L 390.90,643.91" fill="none" stroke="#808080" stroke-width="4.0" stroke-linecap="round" stroke-linejoin="round"  />
<path d="M 279.99,581.93 L 309.25,624.62 L 348.89,644.57" fill="none" stroke="#808080" stroke-width="4.0" stroke-linecap="round" stroke-linejoin="round"  />
<path d="M 348.89,644.57 L 390.90,657.81" fill="none" stroke="#808080" stroke-width="4.0" stroke-linecap="round" stroke-linejoin="round"  />
<path d="M 279.99,456.80 L 309.25,499.50 L 390.90,532.69" fill="none" stroke="#808080" stroke-width="4.0" stroke-linecap="round" stroke-linejoin="round"  />
<path d="M 279.99,470.71 L 309.25,513.41 L 348.89,533.35" fill="none" stroke="#808080" stroke-width="4.0" stroke-linecap="round" stroke-linejoin="round"  />
<path d="M 348.89,533.35 L 390.90,546.59" fill="none" stroke="#808080" stroke-width="4.0" stroke-linecap="round" stroke-linejoin="round"  />
<path d="M 390.90,532.69 L 620.46,561.56" fill="none" stroke="#808080" stroke-width="4.0" stroke-linecap="round" stroke-linejoin="round"  />
<path d="M 390.90,546.59 L 620.46,561.56" fill="none" stroke="#808080" stroke-width="4.0" stroke-linecap="round" stroke-linejoin="round"  />
<path d="M 390.90,643.91 L 582.42,661.11 L 705.15,647.82 L 862.96,591.57 L 905.49,553.35 L 919.79,513.51" fill="none" stroke="#808080" stroke-width="4.0" stroke-linecap="round" stroke-linejoin="round"  />
<path d="M 390.90,657.81 L 582.42,675.01 L 705.15,661.72 L 804.55,634.42" fill="none" stroke="#808080" stroke-width="4.0" stroke-linecap="round" stroke-linejoin="round"  />
<path d="M 804.55,634.42 L 890.41,584.30 L 919.79,527.41" fill="none" stroke="#808080" stroke-width="4.0" stroke-linecap="round" stroke-linejoin="round"  />
<path d="M 390.90,755.12 L 582.42,772.33 L 705.15,759.04 L 862.96,702.79 L 905.49,664.57 L 919.79,624.73" fill="none" stroke="#808080" stroke-width="4.0" stroke-linecap="round" stroke-linejoin="round"  />
<path d="M 390.90,755.12 L 620.46,784.00" fill="none" stroke="#808080" stroke-width="4.0" stroke-linecap="round" stroke-linejoin="round"  />
<path d="M 620.46,784.00 L 705.15,772.94 L 804.55,745.64" fill="none" stroke="#808080" stroke-width="4.0" stroke-linecap="round" stroke-linejoin="round"  />
<path d="M 804.55,745.64 L 890.71,695.23 L 919.79,638.00" fill="none" stroke="#808080" stroke-width="4.0" stroke-linecap="round" stroke-linejoin="round"  />
<path d="M 884.57,153.17 L 466.59,334.73" fill="none" stroke="#808080" stroke-width="4.0" stroke-linecap="round" stroke-linejoin="round"  />
<path d="M 466.59,334.73 L 315.21,285.77" fill="none" stroke="#808080" stroke-width="4.0" stroke-linecap="round" stroke-linejoin="round"  />
<path d="M 733.19,104.21 L 315.21,285.77" fill="none" stroke="#808080" stroke-width="4.0" stroke-linecap="round" stroke-linejoin="round"  />
<path d="M 884.57,153.17 L 733.19,104.21" fill="none" stroke="#808080" stroke-width="4.0" stroke-linecap="round" stroke-linejoin="round"  />
<path d="M 954.54,65.41 L 1098.66,139.13 L 1142.27,210.86 L 1133.30,257.28 L 1096.41,301.73" fill="none" stroke="#808080" stroke-width="4.0" stroke-linecap="round" stroke-linejoin="round"  />
<path d="M 1096.41,301.73 L 975.97,366.21 L 758.89,414.02 L 477.58,417.71 L 245.24,373.52" fill="none" stroke="#808080" stroke-width="4.0" stroke-linecap="round" stroke-linejoin="round"  />
<path d="M 733.19,218.92 L 733.19,104.21" fill="none" stroke="#808080" stroke-width="4.0" stroke-linecap="round" stroke-linejoin="round"  />
<path d="M 884.72,481.23 L 786.03,527.62 L 598.83,550.77 L 490.87,543.38 L 396.44,522.42" fill="none" stroke="#808080" stroke-width="4.0" stroke-linecap="round" stroke-linejoin="round"  />
<path d="M 918.53,452.57 L 877.42,501.54 L 757.00,546.36 L 691.02,556.84 L 620.46,561.56" fill="none" stroke="#808080" stroke-width="4.0" stroke-linecap="round" stroke-linejoin="round"  />
<path d="M 390.90,755.12 L 313.30,699.36 L 309.70,661.35" fill="none" stroke="#808080" stroke-width="4.0" stroke-linecap="round" stroke-linejoin="round"  />
<path d="M 620.46,784.00 L 790.20,751.13" fill="none" stroke="#808080" stroke-width="4.0" stroke-linecap="round" stroke-linejoin="round"  />
<path d="M 395.19,662.49 L 433.32,674.14 L 606.66,684.10 L 683.78,673.49 L 758.42,652.29" fill="none" stroke="#808080" stroke-width="4.0" stroke-linecap="round" stroke-linejoin="round"  />
<path d="M 395.19,551.27 L 433.32,562.92 L 606.66,572.88 L 683.78,562.27 L 725.43,552.19" fill="none" stroke="#808080" stroke-width="4.0" stroke-linecap="round" stroke-linejoin="round"  />
<path d="M 345.00,643.03 L 372.09,679.37 L 433.32,701.94 L 606.66,711.90 L 683.78,701.30 L 789.97,665.80 L 848.64,614.02" fill="none" stroke="#808080" stroke-width="4.0" stroke-linecap="round" stroke-linejoin="round"  />
<path d="M 345.00,531.81 L 372.09,568.15 L 433.32,590.72 L 606.66,600.68 L 683.78,590.08 L 832.79,524.11" fill="none" stroke="#808080" stroke-width="4.0" stroke-linecap="round" stroke-linejoin="round"  />
        <path d="M 315.05,481.23 L 103.37,301.73" fill="none" stroke="#808080" stroke-width="4.0" stroke-linecap="round" stroke-linejoin="round"  />
<path d="M 279.99,568.33 L 279.99,582.23" fill="none" stroke="#808080" stroke-width="4.0" stroke-linecap="round" stroke-linejoin="round"  />
<path d="M 279.99,457.11 L 279.99,471.01" fill="none" stroke="#808080" stroke-width="4.0" stroke-linecap="round" stroke-linejoin="round"  />
<path d="M 919.79,512.72 L 919.79,526.62" fill="none" stroke="#808080" stroke-width="4.0" stroke-linecap="round" stroke-linejoin="round"  />
<path d="M 919.79,623.94 L 919.79,638.00" fill="none" stroke="#808080" stroke-width="4.0" stroke-linecap="round" stroke-linejoin="round"  />
<path d="M 884.72,481.23 L 1096.41,301.73" fill="none" stroke="#808080" stroke-width="4.0" stroke-linecap="round" stroke-linejoin="round"  />
<path d="M 790.22,751.18 L 797.14,748.50 L 804.55,745.64" fill="none" stroke="#808080" stroke-width="4.0" stroke-linecap="round" stroke-linejoin="round"  />
<path d="M 348.89,644.57 L 371.81,653.42 L 395.19,662.49" fill="none" stroke="#808080" stroke-width="4.0" stroke-linecap="round" stroke-linejoin="round"  />
<path d="M 804.55,634.42 L 781.70,643.26 L 758.42,652.29" fill="none" stroke="#808080" stroke-width="4.0" stroke-linecap="round" stroke-linejoin="round"  />
<path d="M 348.89,533.35 L 371.81,542.21 L 395.19,551.27" fill="none" stroke="#808080" stroke-width="4.0" stroke-linecap="round" stroke-linejoin="round"  />
      </svg>
    