<?xml version="1.0" encoding="UTF-8" standalone="no"?>
<svg width="297.011mm" height="209.973mm"
 viewBox="0 0 3508 2480"
 xmlns="http://www.w3.org/2000/svg" xmlns:xlink="http://www.w3.org/1999/xlink"  version="1.2" baseProfile="tiny">
<defs>
</defs>
<g fill="none" stroke="#f0f6fc" stroke-width="1" fill-rule="evenodd" stroke-linecap="square" stroke-linejoin="bevel" >

<g fill="#0d1117" fill-opacity="1" stroke="none" transform="matrix(1,0,0,1,0,0)"
font-family="Arial" font-size="12" font-weight="400" font-style="normal" 
>
<rect x="0" y="0" width="3508" height="2480"/>
</g>

<g fill="none" stroke="#f0f6fc" stroke-opacity="1" stroke-width="1" stroke-linecap="square" stroke-linejoin="bevel" transform="matrix(1,0,0,1,0,0)"
font-family="Arial" font-size="12" font-weight="400" font-style="normal" 
>
</g>

<g fill="#f0f6fc" fill-opacity="1" stroke="#f0f6fc" stroke-opacity="1" stroke-width="1" stroke-linecap="butt" stroke-linejoin="miter" stroke-miterlimit="2" transform="matrix(1,0,0,1,0,0)"
font-family="Arial" font-size="12" font-weight="400" font-style="normal" 
>
</g>

<g fill="#f0f6fc" fill-opacity="1" stroke="#f0f6fc" stroke-opacity="1" stroke-width="5" stroke-linecap="round" stroke-linejoin="bevel" transform="matrix(1,0,0,1,0,0)"
font-family="Arial" font-size="12" font-weight="400" font-style="normal" 
>
<polyline fill="none" vector-effect="none" points="6.3671,1138.74 340.391,1331.59 " />
<polyline fill="none" vector-effect="none" points="3496.92,1293.02 3334.96,1199.51 " />
<polyline fill="none" vector-effect="none" points="3274.74,1164.75 3162.89,1100.17 " />
<polyline fill="none" vector-effect="none" points="6.3671,1138.74 6.3671,1090.53 " />
<polyline fill="none" vector-effect="none" points="3162.89,1100.17 3012.58,1100.17 " />
<polyline fill="none" vector-effect="none" points="3012.58,1100.17 1910.3,463.769 " />
<polyline fill="none" vector-effect="none" points="1910.3,376.987 1910.3,463.769 " />
<polyline fill="none" vector-effect="none" points="1798.45,312.409 1910.3,376.987 " />
<polyline fill="none" vector-effect="none" points="208.248,1215.63 203.478,1213.68 " />
<polyline fill="none" vector-effect="none" points="1576.28,184.138 1738.23,277.643 " />
<polyline fill="none" vector-effect="none" points="1744.76,2102.73 1739.99,2100.78 " />
<polyline fill="none" vector-effect="none" points="6.3671,1090.53 1576.28,184.138 " />
<polyline fill="none" vector-effect="none" points="1927,2247.62 1592.98,2054.77 " />
<polyline fill="none" vector-effect="none" points="2077.31,2218.69 2077.31,2160.84 " />
<polyline fill="none" vector-effect="none" points="3371.66,1413.55 3346.6,1485.87 " />
<polyline fill="none" vector-effect="none" points="340.391,1331.59 490.702,1331.59 " />
<polyline fill="none" vector-effect="none" points="1592.98,2006.56 1592.98,1919.78 " />
<polyline fill="none" vector-effect="none" points="1927,2199.41 1765.05,2105.9 " />
<polyline fill="none" vector-effect="none" points="6.3671,1090.53 168.322,1184.03 " />
<polyline fill="none" vector-effect="none" points="490.702,1283.38 1592.98,1919.78 " />
<polyline fill="none" vector-effect="none" points="3496.92,1293.02 1927,2199.41 " />
<polyline fill="none" vector-effect="none" points="1927,2247.62 1927,2199.41 " />
<polyline fill="none" vector-effect="none" points="340.391,1283.38 490.702,1283.38 " />
<polyline fill="none" vector-effect="none" points="2052.26,2175.3 1927,2247.62 " />
<polyline fill="none" vector-effect="none" points="1704.83,2071.14 1592.98,2006.56 " />
<polyline fill="none" vector-effect="none" points="228.539,1218.8 340.391,1283.38 " />
<polyline fill="none" vector-effect="none" points="490.702,1331.59 1592.98,1967.99 " />
<polyline fill="none" vector-effect="none" points="3346.6,1485.87 3346.6,1428.01 " />
<polyline fill="none" vector-effect="none" points="3346.6,1428.01 2077.31,2160.84 " />
<polyline fill="none" vector-effect="none" points="2077.31,2218.69 2027.21,2189.76 " />
<polyline fill="none" vector-effect="none" points="2052.26,2175.3 2077.31,2218.69 " />
<polyline fill="none" vector-effect="none" points="3496.92,1341.23 3371.66,1413.55 " />
<polyline fill="none" vector-effect="none" points="3496.92,1341.23 3496.92,1293.02 " />
<polyline fill="none" vector-effect="none" points="490.702,1331.59 490.702,1283.38 " />
<polyline fill="none" vector-effect="none" points="3346.6,1485.87 3296.5,1456.94 " />
<polyline fill="none" vector-effect="none" points="1592.98,2054.77 1592.98,2006.56 " />
<polyline fill="none" vector-effect="none" points="340.391,1331.59 340.391,1283.38 " />
<polyline fill="none" vector-effect="none" points="1738.23,277.643 1739.88,279.512 1740.71,280.445 1741.53,281.377 1742.37,282.308 1743.21,283.236 1743.63,283.7 1744.05,284.163 1744.48,284.625 1744.9,285.086 1745.33,285.547 1745.76,286.007 1746.2,286.466 1746.63,286.924 1747.07,287.381 1747.51,287.837 1747.96,288.292 1748.41,288.746 1748.86,289.199 1749.31,289.65 1749.77,290.1 1750.23,290.549 1750.7,290.997 1751.16,291.443 1751.64,291.887 1752.11,292.33 1752.59,292.771 1753.07,293.209 1753.56,293.644 1754.04,294.077 1754.53,294.506 1755.02,294.933 1755.51,295.355 1756,295.774 1756.49,296.188 1756.98,296.599 1757.47,297.004 1757.96,297.405 1758.45,297.801 1758.94,298.191 1759.43,298.576 1759.92,298.955 1760.4,299.328 1760.65,299.512 1760.89,299.694 1761.13,299.875 1761.37,300.054 1761.61,300.232 1761.84,300.408 1762.08,300.581 1762.32,300.754 1762.55,300.924 1762.79,301.092 1763.02,301.259 1763.26,301.424 1763.49,301.586 1763.72,301.747 1763.95,301.906 1764.18,302.062 1764.41,302.217 1764.63,302.369 1764.86,302.52 1765.08,302.668 1765.31,302.814 1765.53,302.959 1765.75,303.101 1765.97,303.241 1766.19,303.38 1766.4,303.516 1766.62,303.651 1766.84,303.784 1767.05,303.915 1767.27,304.045 1767.48,304.173 1767.69,304.299 1767.9,304.424 1768.12,304.547 1768.54,304.788 1768.95,305.024 1769.37,305.254 1769.78,305.479 1770.19,305.699 1770.6,305.914 1771.01,306.124 1771.42,306.331 1771.82,306.534 1772.23,306.733 1772.63,306.929 1773.04,307.121 1773.44,307.312 1773.85,307.499 1774.25,307.685 1774.66,307.868 1775.07,308.049 1775.48,308.227 1775.89,308.403 1776.31,308.575 1776.72,308.745 1777.14,308.912 1777.57,309.075 1777.99,309.234 1778.43,309.391 1778.86,309.543 1779.3,309.692 1779.75,309.836 1779.97,309.907 1780.2,309.977 1780.43,310.045 1780.66,310.113 1780.89,310.179 1781.12,310.245 1781.36,310.309 1781.59,310.372 1781.83,310.434 1782.07,310.494 1782.31,310.554 1782.55,310.612 1782.8,310.669 1783.04,310.724 1783.29,310.779 1783.54,310.832 1783.8,310.884 1784.05,310.934 1784.31,310.984 1784.57,311.032 1784.83,311.079 1785.09,311.124 1785.36,311.169 1785.62,311.213 1785.89,311.255 1786.16,311.296 1786.43,311.337 1786.7,311.376 1786.98,311.415 1787.25,311.452 1787.81,311.524 1788.37,311.593 1788.93,311.658 1789.51,311.72 1790.08,311.78 1790.66,311.836 1791.24,311.89 1791.83,311.941 1792.42,311.991 1793.02,312.038 1793.61,312.084 1794.21,312.128 1794.81,312.171 1795.42,312.212 1796.02,312.253 1797.24,312.332 1798.45,312.409 " />
<polyline fill="none" vector-effect="none" points="3274.74,1164.75 3276.39,1166.62 3277.22,1167.55 3278.04,1168.48 3278.88,1169.41 3279.72,1170.34 3280.14,1170.8 3280.56,1171.27 3280.99,1171.73 3281.41,1172.19 3281.84,1172.65 3282.27,1173.11 3282.71,1173.57 3283.14,1174.03 3283.58,1174.48 3284.02,1174.94 3284.47,1175.4 3284.92,1175.85 3285.37,1176.3 3285.82,1176.75 3286.28,1177.2 3286.74,1177.65 3287.2,1178.1 3287.67,1178.55 3288.15,1178.99 3288.62,1179.43 3289.1,1179.87 3289.58,1180.31 3290.06,1180.75 3290.55,1181.18 3291.04,1181.61 3291.53,1182.04 3292.02,1182.46 3292.51,1182.88 3293,1183.29 3293.49,1183.7 3293.98,1184.11 3294.47,1184.51 3294.96,1184.9 3295.45,1185.3 3295.94,1185.68 3296.43,1186.06 3296.91,1186.43 3297.16,1186.62 3297.4,1186.8 3297.64,1186.98 3297.88,1187.16 3298.12,1187.34 3298.35,1187.51 3298.59,1187.69 3298.83,1187.86 3299.06,1188.03 3299.3,1188.2 3299.53,1188.36 3299.77,1188.53 3300,1188.69 3300.23,1188.85 3300.46,1189.01 3300.69,1189.17 3300.92,1189.32 3301.14,1189.47 3301.37,1189.62 3301.59,1189.77 3301.81,1189.92 3302.04,1190.06 3302.26,1190.2 3302.48,1190.35 3302.7,1190.48 3302.91,1190.62 3303.13,1190.76 3303.35,1190.89 3303.56,1191.02 3303.78,1191.15 3303.99,1191.28 3304.2,1191.4 3304.41,1191.53 3304.62,1191.65 3305.04,1191.89 3305.46,1192.13 3305.88,1192.36 3306.29,1192.58 3306.7,1192.8 3307.11,1193.02 3307.52,1193.23 3307.93,1193.44 3308.33,1193.64 3308.74,1193.84 3309.14,1194.03 3309.55,1194.23 3309.95,1194.42 3310.36,1194.6 3310.76,1194.79 3311.17,1194.97 3311.58,1195.15 3311.99,1195.33 3312.4,1195.51 3312.82,1195.68 3313.23,1195.85 3313.65,1196.02 3314.08,1196.18 3314.5,1196.34 3314.94,1196.49 3315.37,1196.65 3315.81,1196.8 3316.26,1196.94 3316.48,1197.01 3316.71,1197.08 3316.94,1197.15 3317.17,1197.22 3317.4,1197.28 3317.63,1197.35 3317.86,1197.41 3318.1,1197.48 3318.34,1197.54 3318.58,1197.6 3318.82,1197.66 3319.06,1197.72 3319.31,1197.77 3319.55,1197.83 3319.8,1197.88 3320.05,1197.94 3320.31,1197.99 3320.56,1198.04 3320.82,1198.09 3321.08,1198.14 3321.34,1198.18 3321.6,1198.23 3321.87,1198.27 3322.13,1198.32 3322.4,1198.36 3322.67,1198.4 3322.94,1198.44 3323.21,1198.48 3323.49,1198.52 3323.76,1198.56 3324.32,1198.63 3324.88,1198.7 3325.44,1198.76 3326.01,1198.82 3326.59,1198.88 3327.17,1198.94 3327.75,1198.99 3328.34,1199.05 3328.93,1199.09 3329.53,1199.14 3330.12,1199.19 3330.72,1199.23 3331.32,1199.27 3331.93,1199.32 3332.53,1199.36 3333.74,1199.44 3334.96,1199.51 " />
<polyline fill="none" vector-effect="none" points="1765.05,2105.9 1763.67,2105.92 1762.3,2105.91 1760.92,2105.87 1759.54,2105.79 1758.17,2105.68 1756.8,2105.53 1755.44,2105.35 1754.08,2105.14 1752.72,2104.89 1751.37,2104.61 1750.03,2104.3 1748.7,2103.96 1747.38,2103.58 1746.06,2103.17 1744.76,2102.73 " />
<polyline fill="none" vector-effect="none" points="1739.99,2100.78 1739.8,2100.7 1739.7,2100.65 1739.61,2100.61 1739.51,2100.56 1739.41,2100.51 1739.3,2100.46 1739.19,2100.41 1739.07,2100.35 1739.01,2100.32 1738.95,2100.29 1738.89,2100.26 1738.82,2100.23 1738.75,2100.2 1738.69,2100.16 1738.62,2100.13 1738.54,2100.09 1738.47,2100.05 1738.39,2100.01 1738.32,2099.97 1738.24,2099.93 1738.16,2099.89 1738.08,2099.85 1737.91,2099.76 1737.74,2099.67 1737.56,2099.57 1737.37,2099.48 1737.19,2099.38 1737,2099.27 1736.8,2099.17 1736.6,2099.06 1736.4,2098.95 1736.2,2098.84 1735.99,2098.73 1735.79,2098.62 1735.37,2098.39 1734.95,2098.17 " />
<polyline fill="none" vector-effect="none" points="1734.95,2098.17 1734.26,2097.74 1733.91,2097.53 1733.57,2097.32 1733.22,2097.1 1732.87,2096.89 1732.52,2096.66 1732.16,2096.44 1731.8,2096.21 1731.44,2095.98 1731.25,2095.86 1731.07,2095.74 1730.88,2095.61 1730.7,2095.49 1730.51,2095.37 1730.32,2095.24 1730.13,2095.11 1729.94,2094.98 1729.74,2094.85 1729.55,2094.71 1729.35,2094.58 1729.15,2094.44 1728.95,2094.3 1728.75,2094.16 1728.55,2094.01 1728.34,2093.86 1728.13,2093.72 1727.93,2093.56 1727.72,2093.41 1727.5,2093.26 1727.29,2093.1 1727.08,2092.94 1726.86,2092.78 1726.64,2092.61 1726.43,2092.45 1726.21,2092.28 1725.98,2092.11 1725.76,2091.93 1725.54,2091.76 1725.31,2091.58 1725.08,2091.4 1724.86,2091.22 1724.63,2091.03 1724.39,2090.84 1724.16,2090.65 1723.93,2090.46 1723.69,2090.27 1723.46,2090.07 1723.22,2089.87 1722.98,2089.67 1722.74,2089.46 1722.5,2089.26 1722.26,2089.05 1722.02,2088.84 1721.77,2088.62 1721.53,2088.4 1721.28,2088.18 1721.03,2087.96 1720.78,2087.74 1720.53,2087.51 1720.28,2087.28 1720.03,2087.05 1719.78,2086.81 1719.52,2086.57 1719.27,2086.33 1719.01,2086.09 1718.76,2085.84 1718.5,2085.59 1718.24,2085.34 1717.98,2085.09 1717.72,2084.84 1717.46,2084.58 1717.2,2084.32 1716.93,2084.06 1716.67,2083.79 1716.4,2083.53 1716.14,2083.26 1715.87,2082.99 1715.61,2082.72 1715.34,2082.44 1715.07,2082.17 1714.8,2081.89 1714.53,2081.61 1714.26,2081.33 1713.72,2080.76 1713.18,2080.19 1712.63,2079.61 1712.08,2079.03 1711.53,2078.44 1710.98,2077.85 1710.42,2077.25 1709.87,2076.65 1709.31,2076.05 1708.76,2075.44 1708.2,2074.83 1707.64,2074.22 1707.08,2073.6 1705.95,2072.37 1704.83,2071.14 " />
<polyline fill="none" vector-effect="none" points="228.539,1218.8 227.163,1218.82 225.786,1218.81 224.41,1218.76 223.035,1218.69 221.663,1218.57 220.294,1218.43 218.929,1218.25 217.568,1218.04 216.214,1217.79 214.865,1217.51 213.524,1217.2 212.191,1216.85 210.867,1216.48 209.553,1216.07 208.248,1215.63 " />
<polyline fill="none" vector-effect="none" points="203.478,1213.68 203.291,1213.59 203.196,1213.55 203.099,1213.51 202.999,1213.46 202.896,1213.41 202.79,1213.36 202.679,1213.31 202.563,1213.25 202.502,1213.22 202.441,1213.19 202.377,1213.16 202.312,1213.13 202.246,1213.09 202.177,1213.06 202.107,1213.02 202.034,1212.99 201.961,1212.95 201.885,1212.91 201.808,1212.87 201.729,1212.83 201.649,1212.79 201.567,1212.74 201.4,1212.66 201.226,1212.56 201.048,1212.47 200.865,1212.37 200.678,1212.27 200.487,1212.17 200.292,1212.07 200.094,1211.96 199.893,1211.85 199.69,1211.74 199.484,1211.63 199.277,1211.52 198.858,1211.29 198.437,1211.06 " />
<polyline fill="none" vector-effect="none" points="198.437,1211.06 197.749,1210.64 197.404,1210.43 197.058,1210.22 196.709,1210 196.359,1209.78 196.006,1209.56 195.651,1209.34 195.291,1209.11 194.928,1208.87 194.745,1208.75 194.56,1208.63 194.375,1208.51 194.188,1208.39 194,1208.26 193.81,1208.13 193.619,1208.01 193.427,1207.88 193.233,1207.74 193.038,1207.61 192.841,1207.47 192.642,1207.33 192.442,1207.19 192.24,1207.05 192.036,1206.91 191.831,1206.76 191.624,1206.61 191.416,1206.46 191.206,1206.31 190.995,1206.15 190.782,1205.99 190.568,1205.83 190.352,1205.67 190.135,1205.51 189.916,1205.34 189.696,1205.17 189.474,1205 189.251,1204.83 189.027,1204.65 188.801,1204.48 188.574,1204.29 188.346,1204.11 188.116,1203.93 187.885,1203.74 187.653,1203.55 187.419,1203.36 187.184,1203.16 186.948,1202.97 186.711,1202.77 186.472,1202.56 186.232,1202.36 185.992,1202.15 185.749,1201.94 185.506,1201.73 185.262,1201.52 185.016,1201.3 184.77,1201.08 184.522,1200.86 184.273,1200.63 184.023,1200.4 183.772,1200.17 183.52,1199.94 183.267,1199.71 183.014,1199.47 182.759,1199.23 182.503,1198.98 182.246,1198.74 181.988,1198.49 181.729,1198.24 181.47,1197.99 181.209,1197.73 180.948,1197.47 180.686,1197.21 180.423,1196.95 180.159,1196.69 179.895,1196.42 179.63,1196.15 179.364,1195.88 179.097,1195.61 178.83,1195.34 178.561,1195.06 178.293,1194.79 178.023,1194.51 177.753,1194.23 177.211,1193.66 176.667,1193.09 176.12,1192.51 175.572,1191.93 175.021,1191.34 174.469,1190.75 173.916,1190.15 173.36,1189.55 172.804,1188.94 172.246,1188.34 171.687,1187.73 171.128,1187.11 170.568,1186.5 169.446,1185.27 168.322,1184.03 " />
<polyline fill="none" vector-effect="none" points="1760.61,364.934 1761.11,364.332 1761.58,363.724 1762.03,363.109 1762.45,362.488 1762.84,361.862 1763.21,361.23 1763.55,360.593 1763.86,359.951 1764.15,359.305 1764.41,358.656 1764.64,358.003 1764.84,357.346 1765.01,356.688 1765.16,356.026 1765.28,355.363 1765.37,354.699 1765.43,354.033 1765.47,353.367 1765.48,352.701 1765.45,352.034 1765.4,351.368 1765.33,350.703 1765.22,350.04 1765.09,349.378 1764.92,348.718 1764.73,348.06 1764.52,347.406 1764.27,346.754 1764,346.107 1763.7,345.463 1763.37,344.824 1763.01,344.19 1762.63,343.56 1762.23,342.937 1761.79,342.319 1761.33,341.708 1760.85,341.103 1760.33,340.506 1759.8,339.915 1759.24,339.333 1758.65,338.758 1758.04,338.193 1757.41,337.635 1756.75,337.087 1756.07,336.549 1755.37,336.02 1754.64,335.501 1753.9,334.992 1753.13,334.495 1752.34,334.008 1751.53,333.532 1750.7,333.068 1749.85,332.616 1748.99,332.176 1748.1,331.749 1747.2,331.334 1746.28,330.932 1745.34,330.542 1744.39,330.167 1743.42,329.805 1742.43,329.456 1741.43,329.122 1740.42,328.802 1739.39,328.496 1738.36,328.205 1737.31,327.928 1736.24,327.667 1735.17,327.42 1734.09,327.189 1733,326.973 1731.9,326.773 1730.79,326.588 1729.67,326.418 1728.55,326.265 1727.42,326.128 1726.28,326.006 1725.14,325.901 1724,325.811 1722.85,325.738 1721.7,325.681 1720.55,325.641 1719.39,325.616 1718.24,325.608 1717.08,325.616 1715.93,325.641 1714.78,325.681 1713.63,325.738 1712.48,325.811 1711.34,325.901 1710.2,326.006 1709.06,326.128 1707.93,326.265 1706.81,326.418 1705.69,326.588 1704.58,326.773 1703.48,326.973 1702.39,327.189 1701.31,327.42 1700.23,327.667 1699.17,327.928 1698.12,328.205 1697.08,328.496 1696.06,328.802 1695.04,329.122 1694.05,329.456 1693.06,329.805 1692.09,330.167 1691.14,330.542 1690.2,330.932 1689.28,331.334 1688.38,331.749 1687.49,332.176 1686.62,332.616 1685.78,333.068 1684.95,333.532 1684.14,334.008 1683.35,334.495 1682.58,334.992 1681.84,335.501 1681.11,336.02 1680.41,336.549 1679.73,337.087 1679.07,337.635 1678.44,338.193 1677.83,338.758 1677.24,339.333 1676.68,339.915 1676.14,340.506 1675.63,341.103 1675.15,341.708 1674.69,342.319 1674.25,342.937 1673.84,343.56 1673.46,344.19 1673.11,344.824 1672.78,345.463 1672.48,346.107 1672.21,346.754 1671.96,347.406 1671.74,348.06 1671.55,348.718 1671.39,349.378 1671.26,350.04 1671.15,350.703 1671.07,351.368 1671.02,352.034 1671,352.701 1671.01,353.367 1671.04,354.033 1671.11,354.699 1671.2,355.363 1671.32,356.026 1671.46,356.688 1671.64,357.346 1671.84,358.003 1672.07,358.656 1672.33,359.305 1672.62,359.951 1672.93,360.593 1673.27,361.23 1673.64,361.862 1674.03,362.488 1674.45,363.109 1674.89,363.724 1675.37,364.332 1675.86,364.934 " />
<polyline fill="none" vector-effect="none" points="1674.05,362.523 1674.47,361.903 1674.92,361.289 1675.39,360.681 1675.89,360.08 1676.42,359.486 1676.97,358.9 1677.54,358.322 1678.14,357.752 1678.76,357.191 1679.4,356.638 1680.07,356.095 1680.76,355.562 1681.48,355.038 1682.21,354.525 1682.97,354.022 1683.75,353.53 1684.55,353.049 1685.37,352.579 1686.21,352.121 1687.06,351.676 1687.94,351.242 1688.83,350.821 1689.75,350.413 1690.68,350.017 1691.62,349.635 1692.58,349.266 1693.56,348.911 1694.55,348.57 1695.56,348.243 1696.57,347.93 1697.61,347.632 1698.65,347.348 1699.71,347.079 1700.77,346.825 1701.85,346.587 1702.94,346.363 1704.04,346.155 1705.14,345.962 1706.25,345.785 1707.37,345.624 1708.5,345.479 1709.63,345.349 1710.77,345.236 1711.91,345.139 1713.06,345.057 1714.2,344.992 1715.36,344.944 1716.51,344.911 1717.66,344.895 1718.82,344.895 1719.97,344.911 1721.12,344.944 1722.27,344.992 1723.42,345.057 1724.57,345.139 1725.71,345.236 1726.85,345.349 1727.98,345.479 1729.11,345.624 1730.23,345.785 1731.34,345.962 1732.44,346.155 1733.54,346.363 1734.63,346.587 1735.7,346.825 1736.77,347.079 1737.83,347.348 1738.87,347.632 1739.9,347.93 1740.92,348.243 1741.93,348.57 1742.92,348.911 1743.9,349.266 1744.86,349.635 1745.8,350.017 1746.73,350.413 1747.64,350.821 1748.54,351.242 1749.41,351.676 1750.27,352.121 1751.11,352.579 1751.93,353.049 1752.73,353.53 1753.51,354.022 1754.26,354.525 1755,355.038 1755.71,355.562 1756.41,356.095 1757.07,356.638 1757.72,357.191 1758.34,357.752 1758.94,358.322 1759.51,358.9 1760.06,359.486 1760.59,360.08 1761.08,360.681 1761.56,361.289 1762,361.903 1762.43,362.523 " />
<polyline fill="none" vector-effect="none" points="290.909,1213.47 291.406,1212.87 291.878,1212.26 292.324,1211.64 292.744,1211.02 293.137,1210.4 293.504,1209.77 293.844,1209.13 294.157,1208.49 294.442,1207.84 294.701,1207.19 294.931,1206.54 295.134,1205.88 295.309,1205.22 295.457,1204.56 295.576,1203.9 295.667,1203.24 295.73,1202.57 295.765,1201.9 295.771,1201.24 295.75,1200.57 295.7,1199.91 295.622,1199.24 295.516,1198.58 295.382,1197.92 295.22,1197.26 295.03,1196.6 294.812,1195.94 294.567,1195.29 294.294,1194.65 293.994,1194 293.667,1193.36 293.313,1192.73 292.932,1192.1 292.525,1191.48 292.091,1190.86 291.631,1190.25 291.146,1189.64 290.635,1189.05 290.099,1188.46 289.538,1187.87 288.953,1187.3 288.343,1186.73 287.71,1186.18 287.054,1185.63 286.374,1185.09 285.672,1184.56 284.948,1184.04 284.202,1183.53 283.434,1183.04 282.646,1182.55 281.838,1182.07 281.009,1181.61 280.161,1181.16 279.295,1180.72 278.41,1180.29 277.507,1179.87 276.587,1179.47 275.65,1179.08 274.697,1178.71 273.728,1178.34 272.744,1178 271.746,1177.66 270.734,1177.34 269.709,1177.04 268.671,1176.74 267.621,1176.47 266.559,1176.21 265.487,1175.96 264.405,1175.73 263.313,1175.51 262.212,1175.31 261.104,1175.13 259.987,1174.96 258.864,1174.8 257.735,1174.66 256.6,1174.54 255.461,1174.44 254.317,1174.35 253.17,1174.27 252.02,1174.22 250.868,1174.18 249.715,1174.15 248.561,1174.14 247.407,1174.15 246.253,1174.17 245.101,1174.21 243.951,1174.27 242.804,1174.34 241.66,1174.43 240.52,1174.54 239.385,1174.66 238.256,1174.8 237.132,1174.95 236.016,1175.12 234.907,1175.3 233.806,1175.5 232.714,1175.72 231.631,1175.95 230.558,1176.19 229.496,1176.46 228.446,1176.73 227.407,1177.02 226.381,1177.33 225.369,1177.65 224.37,1177.98 223.385,1178.33 222.416,1178.69 221.462,1179.07 220.524,1179.45 219.604,1179.86 218.7,1180.27 217.814,1180.7 216.946,1181.14 216.098,1181.59 215.268,1182.05 214.459,1182.53 213.67,1183.01 212.902,1183.51 212.155,1184.02 211.429,1184.54 210.726,1185.07 210.045,1185.6 209.388,1186.15 208.754,1186.71 208.143,1187.27 207.557,1187.85 206.995,1188.43 206.458,1189.02 205.946,1189.62 205.459,1190.22 204.998,1190.83 204.563,1191.45 204.155,1192.07 203.773,1192.7 203.417,1193.33 203.089,1193.97 202.787,1194.62 202.513,1195.26 202.267,1195.91 202.048,1196.57 201.857,1197.23 201.693,1197.89 201.558,1198.55 201.451,1199.21 201.372,1199.88 201.32,1200.54 201.298,1201.21 201.303,1201.87 201.336,1202.54 201.398,1203.21 201.488,1203.87 201.606,1204.53 201.752,1205.19 201.926,1205.85 202.127,1206.51 202.357,1207.16 202.614,1207.81 202.898,1208.46 203.21,1209.1 203.549,1209.74 203.914,1210.37 204.306,1210.99 204.725,1211.62 205.17,1212.23 205.64,1212.84 206.136,1213.44 206.658,1214.04 207.204,1214.62 207.776,1215.2 " />
<polyline fill="none" vector-effect="none" points="3297.12,1252.04 3297.62,1251.44 3298.09,1250.83 3298.54,1250.21 3298.96,1249.59 3299.35,1248.97 3299.72,1248.33 3300.06,1247.7 3300.37,1247.06 3300.66,1246.41 3300.92,1245.76 3301.15,1245.11 3301.35,1244.45 3301.52,1243.79 3301.67,1243.13 3301.79,1242.47 3301.88,1241.8 3301.94,1241.14 3301.98,1240.47 3301.99,1239.8 3301.96,1239.14 3301.91,1238.47 3301.84,1237.81 3301.73,1237.14 3301.6,1236.48 3301.43,1235.82 3301.24,1235.16 3301.02,1234.51 3300.78,1233.86 3300.51,1233.21 3300.21,1232.57 3299.88,1231.93 3299.52,1231.29 3299.14,1230.66 3298.73,1230.04 3298.3,1229.42 3297.84,1228.81 3297.35,1228.21 3296.84,1227.61 3296.31,1227.02 3295.75,1226.44 3295.16,1225.86 3294.55,1225.3 3293.92,1224.74 3293.26,1224.19 3292.58,1223.65 3291.88,1223.12 3291.15,1222.6 3290.41,1222.1 3289.64,1221.6 3288.85,1221.11 3288.04,1220.64 3287.21,1220.17 3286.36,1219.72 3285.5,1219.28 3284.61,1218.85 3283.71,1218.44 3282.79,1218.04 3281.85,1217.65 3280.89,1217.27 3279.93,1216.91 3278.94,1216.56 3277.94,1216.23 3276.93,1215.91 3275.9,1215.6 3274.87,1215.31 3273.82,1215.03 3272.75,1214.77 3271.68,1214.52 3270.6,1214.29 3269.51,1214.08 3268.4,1213.88 3267.3,1213.69 3266.18,1213.52 3265.06,1213.37 3263.93,1213.23 3262.79,1213.11 3261.65,1213 3260.51,1212.92 3259.36,1212.84 3258.21,1212.79 3257.06,1212.74 3255.9,1212.72 3254.75,1212.71 3253.59,1212.72 3252.44,1212.74 3251.29,1212.79 3250.14,1212.84 3248.99,1212.92 3247.85,1213 3246.71,1213.11 3245.57,1213.23 3244.44,1213.37 3243.32,1213.52 3242.2,1213.69 3241.09,1213.88 3239.99,1214.08 3238.9,1214.29 3237.82,1214.52 3236.74,1214.77 3235.68,1215.03 3234.63,1215.31 3233.59,1215.6 3232.57,1215.91 3231.55,1216.23 3230.56,1216.56 3229.57,1216.91 3228.6,1217.27 3227.65,1217.65 3226.71,1218.04 3225.79,1218.44 3224.89,1218.85 3224,1219.28 3223.13,1219.72 3222.29,1220.17 3221.46,1220.64 3220.65,1221.11 3219.86,1221.6 3219.09,1222.1 3218.34,1222.6 3217.62,1223.12 3216.92,1223.65 3216.24,1224.19 3215.58,1224.74 3214.95,1225.3 3214.34,1225.86 3213.75,1226.44 3213.19,1227.02 3212.65,1227.61 3212.14,1228.21 3211.66,1228.81 3211.2,1229.42 3210.76,1230.04 3210.35,1230.66 3209.97,1231.29 3209.62,1231.93 3209.29,1232.57 3208.99,1233.21 3208.72,1233.86 3208.47,1234.51 3208.25,1235.16 3208.06,1235.82 3207.9,1236.48 3207.77,1237.14 3207.66,1237.81 3207.58,1238.47 3207.53,1239.14 3207.51,1239.8 3207.52,1240.47 3207.55,1241.14 3207.62,1241.8 3207.71,1242.47 3207.83,1243.13 3207.97,1243.79 3208.15,1244.45 3208.35,1245.11 3208.58,1245.76 3208.84,1246.41 3209.13,1247.06 3209.44,1247.7 3209.78,1248.33 3210.14,1248.97 3210.54,1249.59 3210.96,1250.21 3211.4,1250.83 3211.88,1251.44 3212.37,1252.04 " />
<polyline fill="none" vector-effect="none" points="1827.42,2100.57 1827.92,2099.97 1828.39,2099.36 1828.83,2098.75 1829.25,2098.13 1829.65,2097.5 1830.01,2096.87 1830.35,2096.23 1830.67,2095.59 1830.95,2094.95 1831.21,2094.3 1831.44,2093.64 1831.64,2092.99 1831.82,2092.33 1831.97,2091.67 1832.09,2091 1832.18,2090.34 1832.24,2089.68 1832.27,2089.01 1832.28,2088.34 1832.26,2087.68 1832.21,2087.01 1832.13,2086.35 1832.03,2085.68 1831.89,2085.02 1831.73,2084.36 1831.54,2083.7 1831.32,2083.05 1831.08,2082.4 1830.8,2081.75 1830.5,2081.11 1830.18,2080.47 1829.82,2079.83 1829.44,2079.2 1829.03,2078.58 1828.6,2077.96 1828.14,2077.35 1827.66,2076.75 1827.14,2076.15 1826.61,2075.56 1826.05,2074.98 1825.46,2074.4 1824.85,2073.84 1824.22,2073.28 1823.56,2072.73 1822.88,2072.19 1822.18,2071.66 1821.46,2071.15 1820.71,2070.64 1819.94,2070.14 1819.16,2069.65 1818.35,2069.18 1817.52,2068.71 1816.67,2068.26 1815.8,2067.82 1814.92,2067.39 1814.02,2066.98 1813.1,2066.58 1812.16,2066.19 1811.21,2065.81 1810.24,2065.45 1809.25,2065.1 1808.26,2064.77 1807.24,2064.45 1806.22,2064.14 1805.18,2063.85 1804.13,2063.57 1803.07,2063.31 1802,2063.06 1800.91,2062.83 1799.82,2062.62 1798.72,2062.41 1797.61,2062.23 1796.5,2062.06 1795.37,2061.91 1794.24,2061.77 1793.11,2061.65 1791.97,2061.54 1790.83,2061.45 1789.68,2061.38 1788.53,2061.32 1787.38,2061.28 1786.22,2061.25 1785.07,2061.25 1783.92,2061.25 1782.76,2061.28 1781.61,2061.32 1780.46,2061.38 1779.31,2061.45 1778.17,2061.54 1777.03,2061.64 1775.89,2061.76 1774.77,2061.9 1773.64,2062.05 1772.53,2062.22 1771.42,2062.41 1770.32,2062.61 1769.22,2062.82 1768.14,2063.05 1767.07,2063.3 1766.01,2063.56 1764.96,2063.84 1763.92,2064.13 1762.89,2064.43 1761.88,2064.75 1760.88,2065.08 1759.89,2065.43 1758.93,2065.79 1757.97,2066.17 1757.03,2066.56 1756.11,2066.96 1755.21,2067.37 1754.32,2067.8 1753.46,2068.24 1752.61,2068.69 1751.78,2069.16 1750.97,2069.63 1750.18,2070.12 1749.41,2070.61 1748.66,2071.12 1747.94,2071.64 1747.24,2072.17 1746.55,2072.71 1745.9,2073.26 1745.26,2073.81 1744.65,2074.38 1744.07,2074.95 1743.5,2075.53 1742.97,2076.12 1742.46,2076.72 1741.97,2077.32 1741.51,2077.94 1741.07,2078.55 1740.66,2079.18 1740.28,2079.8 1739.93,2080.44 1739.6,2081.08 1739.3,2081.72 1739.02,2082.37 1738.78,2083.02 1738.56,2083.67 1738.37,2084.33 1738.2,2084.99 1738.07,2085.65 1737.96,2086.32 1737.88,2086.98 1737.83,2087.65 1737.81,2088.31 1737.81,2088.98 1737.85,2089.64 1737.91,2090.31 1738,2090.97 1738.12,2091.64 1738.26,2092.3 1738.44,2092.96 1738.64,2093.61 1738.87,2094.27 1739.12,2094.92 1739.41,2095.56 1739.72,2096.2 1740.06,2096.84 1740.42,2097.47 1740.82,2098.1 1741.23,2098.72 1741.68,2099.33 1742.15,2099.94 1742.65,2100.55 1743.17,2101.14 1743.71,2101.73 1744.29,2102.31 " />
<polyline fill="none" vector-effect="none" points="204.347,1211.06 204.768,1210.44 205.216,1209.82 205.689,1209.22 206.188,1208.61 206.712,1208.02 207.261,1207.43 207.834,1206.86 208.432,1206.29 209.054,1205.73 209.7,1205.17 210.368,1204.63 211.06,1204.1 211.773,1203.57 212.509,1203.06 213.266,1202.56 214.045,1202.06 214.844,1201.58 215.663,1201.11 216.501,1200.66 217.359,1200.21 218.235,1199.78 219.13,1199.36 220.042,1198.95 220.971,1198.55 221.916,1198.17 222.877,1197.8 223.854,1197.45 224.845,1197.1 225.851,1196.78 226.87,1196.46 227.902,1196.17 228.946,1195.88 230.002,1195.61 231.069,1195.36 232.147,1195.12 233.234,1194.9 234.331,1194.69 235.435,1194.5 236.548,1194.32 237.668,1194.16 238.794,1194.01 239.926,1193.88 241.064,1193.77 242.206,1193.67 243.351,1193.59 244.5,1193.53 245.651,1193.48 246.803,1193.45 247.957,1193.43 249.111,1193.43 250.265,1193.45 251.418,1193.48 252.569,1193.53 253.718,1193.59 254.863,1193.67 256.005,1193.77 257.142,1193.88 258.274,1194.01 259.401,1194.16 260.521,1194.32 261.633,1194.5 262.738,1194.69 263.835,1194.9 264.922,1195.12 265.999,1195.36 267.066,1195.61 268.122,1195.88 269.167,1196.17 270.199,1196.46 271.218,1196.78 272.223,1197.1 273.215,1197.45 274.191,1197.8 275.153,1198.17 276.098,1198.55 277.027,1198.95 277.939,1199.36 278.833,1199.78 279.71,1200.21 280.568,1200.66 281.406,1201.11 282.225,1201.58 283.024,1202.06 283.802,1202.56 284.559,1203.06 285.295,1203.57 286.009,1204.1 286.7,1204.63 287.369,1205.17 288.015,1205.73 288.636,1206.29 289.234,1206.86 289.808,1207.43 290.357,1208.02 290.881,1208.61 291.38,1209.22 291.853,1209.82 292.3,1210.44 292.722,1211.06 " />
<polyline fill="none" vector-effect="none" points="3334.96,1199.51 3335.43,1200.65 3335.84,1201.8 3336.21,1202.95 3336.53,1204.11 3336.8,1205.27 3337.03,1206.43 3337.2,1207.6 3337.32,1208.77 3337.39,1209.94 3337.41,1211.11 3337.39,1212.28 3337.31,1213.45 3337.18,1214.62 3337.01,1215.78 3336.78,1216.95 3336.51,1218.11 3336.18,1219.26 3335.81,1220.41 3335.39,1221.56 3334.92,1222.7 3334.4,1223.83 3333.83,1224.95 3333.22,1226.07 3332.56,1227.18 3331.85,1228.27 3331.1,1229.36 3330.29,1230.44 3329.45,1231.5 3328.56,1232.55 3327.62,1233.59 3326.64,1234.62 3325.62,1235.63 3324.55,1236.62 3323.45,1237.6 3322.3,1238.57 3321.11,1239.52 3319.88,1240.45 3318.61,1241.36 3317.31,1242.26 3315.96,1243.13 3314.58,1243.99 3313.16,1244.83 3311.71,1245.65 3310.22,1246.44 3308.7,1247.22 3307.15,1247.97 3305.57,1248.7 3303.95,1249.41 3302.31,1250.1 3300.63,1250.76 3298.93,1251.4 3297.21,1252.01 3295.45,1252.6 3293.68,1253.16 3291.88,1253.7 3290.05,1254.21 3288.21,1254.7 3286.34,1255.16 3284.46,1255.6 3282.56,1256 3280.64,1256.38 3278.71,1256.74 3276.76,1257.06 3274.8,1257.36 3272.83,1257.63 3270.84,1257.87 3268.85,1258.09 3266.84,1258.27 3264.83,1258.43 3262.82,1258.56 3260.8,1258.66 3258.77,1258.73 3256.75,1258.77 3254.72,1258.79 3252.69,1258.77 3250.67,1258.73 3248.64,1258.65 3246.62,1258.55 3244.61,1258.42 3242.6,1258.27 3240.59,1258.08 3238.6,1257.87 3236.62,1257.62 3234.64,1257.35 3232.68,1257.05 3230.73,1256.73 3228.8,1256.37 3226.88,1255.99 3224.98,1255.58 3223.1,1255.15 3221.24,1254.69 3219.39,1254.2 3217.57,1253.69 3215.77,1253.15 3213.99,1252.58 3212.24,1251.99 3210.52,1251.38 3208.82,1250.74 3207.14,1250.08 3205.5,1249.39 3203.89,1248.68 3202.3,1247.95 3200.75,1247.2 3199.23,1246.42 3197.75,1245.62 3196.29,1244.81 3194.88,1243.97 3193.5,1243.11 3192.15,1242.23 3190.85,1241.34 3189.58,1240.42 3188.35,1239.49 3187.16,1238.54 3186.02,1237.58 3184.91,1236.6 3183.85,1235.6 3182.83,1234.59 3181.85,1233.56 3180.91,1232.52 3180.02,1231.47 3179.18,1230.41 3178.38,1229.33 3177.63,1228.24 3176.92,1227.15 3176.26,1226.04 3175.65,1224.92 3175.08,1223.8 3174.56,1222.67 3174.09,1221.53 3173.67,1220.38 3173.3,1219.23 3172.98,1218.07 3172.71,1216.91 3172.48,1215.75 3172.31,1214.58 3172.18,1213.41 3172.11,1212.24 3172.08,1211.07 3172.11,1209.9 3172.18,1208.73 3172.3,1207.56 3172.48,1206.4 3172.7,1205.23 3172.97,1204.07 3173.29,1202.92 3173.66,1201.77 3174.08,1200.62 3174.55,1199.48 3175.07,1198.35 3175.63,1197.22 3176.24,1196.11 3176.9,1195 3177.61,1193.9 3178.36,1192.82 3179.16,1191.74 3180,1190.67 3180.89,1189.62 3181.82,1188.58 3182.8,1187.56 3183.82,1186.54 3184.88,1185.55 3185.99,1184.57 3187.13,1183.6 3188.32,1182.65 3189.55,1181.72 3190.81,1180.8 3192.12,1179.91 3193.46,1179.03 3194.84,1178.17 3196.25,1177.33 3197.7,1176.51 3199.19,1175.72 3200.71,1174.94 3202.26,1174.19 3203.84,1173.45 3205.45,1172.74 3207.1,1172.06 3208.77,1171.39 3210.47,1170.75 3212.19,1170.14 3213.94,1169.55 3215.72,1168.98 3217.52,1168.44 3219.34,1167.93 3221.18,1167.44 3223.05,1166.98 3224.93,1166.54 3226.83,1166.13 3228.75,1165.75 3230.68,1165.4 3232.63,1165.07 3234.59,1164.77 3236.56,1164.5 3238.54,1164.26 3240.54,1164.04 3242.54,1163.85 3244.55,1163.69 3246.56,1163.56 3248.58,1163.46 3250.61,1163.39 3252.64,1163.35 3254.66,1163.33 3256.69,1163.34 3258.72,1163.39 3260.74,1163.46 3262.76,1163.55 3264.78,1163.68 3266.79,1163.84 3268.79,1164.02 3270.79,1164.24 3272.77,1164.48 3274.74,1164.75 " />
<polyline fill="none" vector-effect="none" points="1798.45,312.409 1798.92,313.549 1799.34,314.695 1799.7,315.846 1800.02,317.002 1800.29,318.163 1800.52,319.326 1800.69,320.493 1800.81,321.662 1800.88,322.832 1800.91,324.003 1800.88,325.174 1800.8,326.344 1800.68,327.512 1800.5,328.679 1800.27,329.842 1800,331.002 1799.68,332.158 1799.3,333.309 1798.88,334.454 1798.41,335.593 1797.89,336.725 1797.32,337.849 1796.71,338.965 1796.05,340.072 1795.34,341.169 1794.59,342.256 1793.79,343.332 1792.94,344.396 1792.05,345.448 1791.11,346.487 1790.13,347.512 1789.11,348.523 1788.05,349.519 1786.94,350.5 1785.79,351.465 1784.6,352.414 1783.37,353.345 1782.1,354.259 1780.8,355.154 1779.45,356.031 1778.07,356.888 1776.65,357.725 1775.2,358.542 1773.71,359.339 1772.19,360.114 1770.64,360.867 1769.06,361.598 1767.44,362.306 1765.8,362.992 1764.12,363.654 1762.42,364.291 1760.7,364.905 1758.94,365.494 1757.17,366.058 1755.37,366.597 1753.54,367.11 1751.7,367.597 1749.83,368.058 1747.95,368.492 1746.05,368.899 1744.13,369.28 1742.2,369.633 1740.25,369.958 1738.29,370.256 1736.32,370.526 1734.33,370.768 1732.34,370.982 1730.34,371.167 1728.33,371.325 1726.31,371.453 1724.29,371.553 1722.27,371.625 1720.24,371.667 1718.21,371.681 1716.18,371.666 1714.16,371.623 1712.13,371.551 1710.11,371.45 1708.1,371.321 1706.09,371.163 1704.08,370.976 1702.09,370.762 1700.11,370.519 1698.13,370.248 1696.17,369.949 1694.23,369.623 1692.29,369.269 1690.37,368.888 1688.47,368.48 1686.59,368.045 1684.73,367.583 1682.88,367.096 1681.06,366.582 1679.26,366.043 1677.48,365.478 1675.73,364.888 1674.01,364.274 1672.31,363.635 1670.63,362.973 1668.99,362.287 1667.38,361.578 1665.79,360.846 1664.24,360.092 1662.72,359.317 1661.24,358.52 1659.78,357.702 1658.37,356.864 1656.99,356.006 1655.64,355.129 1654.34,354.233 1653.07,353.319 1651.84,352.387 1650.66,351.438 1649.51,350.473 1648.4,349.492 1647.34,348.495 1646.32,347.483 1645.34,346.458 1644.4,345.418 1643.51,344.366 1642.67,343.302 1641.87,342.226 1641.12,341.139 1640.41,340.041 1639.75,338.934 1639.14,337.818 1638.57,336.693 1638.05,335.561 1637.59,334.422 1637.16,333.277 1636.79,332.126 1636.47,330.97 1636.2,329.81 1635.97,328.646 1635.8,327.479 1635.67,326.311 1635.6,325.141 1635.57,323.97 1635.6,322.799 1635.67,321.629 1635.79,320.46 1635.97,319.294 1636.19,318.13 1636.46,316.97 1636.78,315.814 1637.15,314.662 1637.57,313.517 1638.04,312.378 1638.56,311.245 1639.12,310.121 1639.73,309.004 1640.39,307.897 1641.1,306.799 1641.85,305.712 1642.65,304.635 1643.49,303.571 1644.38,302.518 1645.31,301.478 1646.29,300.452 1647.31,299.44 1648.37,298.443 1649.48,297.461 1650.62,296.495 1651.81,295.546 1653.04,294.614 1654.3,293.699 1655.61,292.803 1656.95,291.925 1658.33,291.067 1659.74,290.228 1661.2,289.41 1662.68,288.612 1664.2,287.836 1665.75,287.082 1667.33,286.349 1668.94,285.64 1670.59,284.953 1672.26,284.29 1673.96,283.651 1675.68,283.036 1677.43,282.445 1679.21,281.88 1681.01,281.34 1682.83,280.825 1684.67,280.337 1686.54,279.875 1688.42,279.439 1690.32,279.03 1692.24,278.648 1694.17,278.294 1696.12,277.966 1698.08,277.667 1700.05,277.395 1702.03,277.152 1704.03,276.936 1706.03,276.749 1708.04,276.591 1710.05,276.46 1712.08,276.359 1714.1,276.286 1716.13,276.242 1718.15,276.226 1720.18,276.239 1722.21,276.281 1724.23,276.352 1726.25,276.451 1728.27,276.579 1730.28,276.735 1732.28,276.92 1734.28,277.133 1736.26,277.374 1738.23,277.643 " />
<polyline fill="none" vector-effect="none" points="1704.83,2071.14 1704.37,2070 1703.95,2068.85 1703.58,2067.7 1703.26,2066.54 1702.99,2065.38 1702.77,2064.22 1702.59,2063.05 1702.47,2061.88 1702.4,2060.71 1702.38,2059.54 1702.4,2058.37 1702.48,2057.2 1702.61,2056.03 1702.78,2054.87 1703.01,2053.7 1703.28,2052.54 1703.61,2051.39 1703.98,2050.24 1704.4,2049.09 1704.87,2047.95 1705.39,2046.82 1705.96,2045.7 1706.57,2044.58 1707.23,2043.47 1707.94,2042.38 1708.7,2041.29 1709.5,2040.21 1710.34,2039.15 1711.23,2038.1 1712.17,2037.06 1713.15,2036.03 1714.17,2035.02 1715.24,2034.03 1716.34,2033.05 1717.49,2032.08 1718.68,2031.13 1719.91,2030.2 1721.18,2029.29 1722.49,2028.39 1723.83,2027.52 1725.21,2026.66 1726.63,2025.82 1728.08,2025 1729.57,2024.21 1731.09,2023.43 1732.64,2022.68 1734.23,2021.95 1735.84,2021.24 1737.48,2020.55 1739.16,2019.89 1740.86,2019.25 1742.59,2018.64 1744.34,2018.05 1746.12,2017.49 1747.92,2016.95 1749.74,2016.44 1751.58,2015.95 1753.45,2015.49 1755.33,2015.05 1757.23,2014.65 1759.15,2014.27 1761.08,2013.91 1763.03,2013.59 1764.99,2013.29 1766.97,2013.02 1768.95,2012.78 1770.94,2012.56 1772.95,2012.38 1774.96,2012.22 1776.97,2012.09 1778.99,2011.99 1781.02,2011.92 1783.04,2011.88 1785.07,2011.86 1787.1,2011.88 1789.13,2011.92 1791.15,2011.99 1793.17,2012.1 1795.19,2012.23 1797.2,2012.38 1799.2,2012.57 1801.19,2012.78 1803.18,2013.03 1805.15,2013.3 1807.11,2013.6 1809.06,2013.92 1810.99,2014.28 1812.91,2014.66 1814.81,2015.07 1816.69,2015.5 1818.56,2015.96 1820.4,2016.45 1822.22,2016.96 1824.02,2017.5 1825.8,2018.07 1827.55,2018.66 1829.28,2019.27 1830.98,2019.91 1832.65,2020.57 1834.29,2021.26 1835.91,2021.97 1837.49,2022.7 1839.04,2023.45 1840.56,2024.23 1842.05,2025.03 1843.5,2025.84 1844.91,2026.68 1846.29,2027.54 1847.64,2028.42 1848.94,2029.31 1850.21,2030.23 1851.44,2031.16 1852.63,2032.11 1853.77,2033.07 1854.88,2034.05 1855.94,2035.05 1856.97,2036.06 1857.94,2037.09 1858.88,2038.13 1859.77,2039.18 1860.61,2040.24 1861.41,2041.32 1862.17,2042.41 1862.87,2043.5 1863.53,2044.61 1864.15,2045.73 1864.71,2046.85 1865.23,2047.98 1865.7,2049.12 1866.12,2050.27 1866.49,2051.42 1866.81,2052.58 1867.09,2053.74 1867.31,2054.9 1867.48,2056.07 1867.61,2057.23 1867.68,2058.4 1867.71,2059.58 1867.69,2060.75 1867.61,2061.92 1867.49,2063.09 1867.32,2064.25 1867.09,2065.42 1866.82,2066.58 1866.5,2067.73 1866.13,2068.88 1865.71,2070.03 1865.24,2071.17 1864.73,2072.3 1864.16,2073.43 1863.55,2074.54 1862.89,2075.65 1862.19,2076.75 1861.43,2077.83 1860.64,2078.91 1859.79,2079.98 1858.9,2081.03 1857.97,2082.07 1856.99,2083.09 1855.97,2084.11 1854.91,2085.1 1853.81,2086.08 1852.66,2087.05 1851.47,2088 1850.25,2088.93 1848.98,2089.85 1847.67,2090.74 1846.33,2091.62 1844.95,2092.48 1843.54,2093.32 1842.09,2094.14 1840.6,2094.93 1839.08,2095.71 1837.53,2096.46 1835.95,2097.2 1834.34,2097.91 1832.7,2098.59 1831.02,2099.26 1829.32,2099.89 1827.6,2100.51 1825.85,2101.1 1824.07,2101.67 1822.27,2102.21 1820.45,2102.72 1818.61,2103.21 1816.74,2103.67 1814.86,2104.11 1812.96,2104.52 1811.04,2104.9 1809.11,2105.25 1807.16,2105.58 1805.2,2105.88 1803.23,2106.15 1801.25,2106.39 1799.25,2106.61 1797.25,2106.8 1795.24,2106.95 1793.23,2107.09 1791.21,2107.19 1789.18,2107.26 1787.16,2107.3 1785.13,2107.32 1783.1,2107.31 1781.07,2107.26 1779.05,2107.19 1777.03,2107.09 1775.01,2106.97 1773,2106.81 1771,2106.63 1769.01,2106.41 1767.02,2106.17 1765.05,2105.9 " />
<polyline fill="none" vector-effect="none" points="3210.56,1249.63 3210.98,1249.01 3211.43,1248.39 3211.9,1247.78 3212.4,1247.18 3212.93,1246.59 3213.47,1246 3214.05,1245.43 3214.65,1244.86 3215.27,1244.29 3215.91,1243.74 3216.58,1243.2 3217.27,1242.67 3217.99,1242.14 3218.72,1241.63 3219.48,1241.13 3220.26,1240.63 3221.06,1240.15 3221.88,1239.68 3222.72,1239.23 3223.57,1238.78 3224.45,1238.35 3225.34,1237.93 3226.26,1237.52 3227.18,1237.12 3228.13,1236.74 3229.09,1236.37 3230.07,1236.02 3231.06,1235.67 3232.06,1235.35 3233.08,1235.03 3234.12,1234.74 3235.16,1234.45 3236.22,1234.18 3237.28,1233.93 3238.36,1233.69 3239.45,1233.47 3240.54,1233.26 3241.65,1233.07 3242.76,1232.89 3243.88,1232.73 3245.01,1232.58 3246.14,1232.45 3247.28,1232.34 3248.42,1232.24 3249.57,1232.16 3250.71,1232.1 3251.86,1232.05 3253.02,1232.02 3254.17,1232 3255.33,1232 3256.48,1232.02 3257.63,1232.05 3258.78,1232.1 3259.93,1232.16 3261.08,1232.24 3262.22,1232.34 3263.36,1232.45 3264.49,1232.58 3265.61,1232.73 3266.73,1232.89 3267.85,1233.07 3268.95,1233.26 3270.05,1233.47 3271.14,1233.69 3272.21,1233.93 3273.28,1234.18 3274.34,1234.45 3275.38,1234.74 3276.41,1235.03 3277.43,1235.35 3278.44,1235.67 3279.43,1236.02 3280.41,1236.37 3281.37,1236.74 3282.31,1237.12 3283.24,1237.52 3284.15,1237.93 3285.05,1238.35 3285.92,1238.78 3286.78,1239.23 3287.62,1239.68 3288.44,1240.15 3289.24,1240.63 3290.02,1241.13 3290.77,1241.63 3291.51,1242.14 3292.22,1242.67 3292.91,1243.2 3293.58,1243.74 3294.23,1244.29 3294.85,1244.86 3295.45,1245.43 3296.02,1246 3296.57,1246.59 3297.1,1247.18 3297.59,1247.78 3298.07,1248.39 3298.51,1249.01 3298.94,1249.63 " />
<polyline fill="none" vector-effect="none" points="1740.86,2098.16 1741.28,2097.54 1741.73,2096.93 1742.2,2096.32 1742.7,2095.72 1743.22,2095.12 1743.77,2094.54 1744.34,2093.96 1744.94,2093.39 1745.56,2092.83 1746.21,2092.28 1746.88,2091.73 1747.57,2091.2 1748.28,2090.68 1749.02,2090.16 1749.78,2089.66 1750.55,2089.17 1751.35,2088.69 1752.17,2088.22 1753.01,2087.76 1753.87,2087.31 1754.74,2086.88 1755.64,2086.46 1756.55,2086.05 1757.48,2085.66 1758.43,2085.27 1759.39,2084.9 1760.36,2084.55 1761.35,2084.21 1762.36,2083.88 1763.38,2083.57 1764.41,2083.27 1765.46,2082.99 1766.51,2082.72 1767.58,2082.46 1768.66,2082.22 1769.74,2082 1770.84,2081.79 1771.94,2081.6 1773.06,2081.42 1774.18,2081.26 1775.3,2081.12 1776.44,2080.99 1777.57,2080.87 1778.71,2080.78 1779.86,2080.7 1781.01,2080.63 1782.16,2080.58 1783.31,2080.55 1784.47,2080.53 1785.62,2080.53 1786.77,2080.55 1787.93,2080.58 1789.08,2080.63 1790.23,2080.7 1791.37,2080.78 1792.51,2080.87 1793.65,2080.99 1794.78,2081.12 1795.91,2081.26 1797.03,2081.42 1798.14,2081.6 1799.25,2081.79 1800.34,2082 1801.43,2082.22 1802.51,2082.46 1803.58,2082.72 1804.63,2082.99 1805.68,2083.27 1806.71,2083.57 1807.73,2083.88 1808.73,2084.21 1809.72,2084.55 1810.7,2084.9 1811.66,2085.27 1812.61,2085.66 1813.54,2086.05 1814.45,2086.46 1815.34,2086.88 1816.22,2087.31 1817.08,2087.76 1817.92,2088.22 1818.73,2088.69 1819.53,2089.17 1820.31,2089.66 1821.07,2090.16 1821.8,2090.68 1822.52,2091.2 1823.21,2091.73 1823.88,2092.28 1824.52,2092.83 1825.15,2093.39 1825.74,2093.96 1826.32,2094.54 1826.87,2095.12 1827.39,2095.72 1827.89,2096.32 1828.36,2096.93 1828.81,2097.54 1829.23,2098.16 " />
<polyline fill="none" vector-effect="none" points="168.322,1184.03 167.856,1182.89 167.438,1181.75 167.069,1180.6 166.749,1179.44 166.478,1178.28 166.257,1177.12 166.085,1175.95 165.963,1174.78 165.89,1173.61 165.868,1172.44 165.895,1171.27 165.971,1170.1 166.098,1168.93 166.274,1167.76 166.499,1166.6 166.774,1165.44 167.098,1164.28 167.471,1163.13 167.893,1161.99 168.364,1160.85 168.882,1159.72 169.449,1158.59 170.063,1157.48 170.725,1156.37 171.433,1155.27 172.188,1154.19 172.988,1153.11 173.834,1152.05 174.725,1150.99 175.661,1149.95 176.64,1148.93 177.663,1147.92 178.728,1146.92 179.835,1145.94 180.984,1144.98 182.173,1144.03 183.402,1143.1 184.67,1142.18 185.977,1141.29 187.322,1140.41 188.703,1139.55 190.12,1138.72 191.573,1137.9 193.06,1137.1 194.58,1136.33 196.132,1135.57 197.716,1134.84 199.331,1134.14 200.976,1133.45 202.649,1132.79 204.349,1132.15 206.076,1131.54 207.829,1130.95 209.606,1130.38 211.407,1129.84 213.23,1129.33 215.074,1128.84 216.939,1128.38 218.822,1127.95 220.723,1127.54 222.641,1127.16 224.575,1126.81 226.523,1126.48 228.484,1126.19 230.457,1125.92 232.442,1125.67 234.436,1125.46 236.438,1125.27 238.448,1125.12 240.463,1124.99 242.484,1124.89 244.508,1124.82 246.535,1124.77 248.563,1124.76 250.591,1124.78 252.617,1124.82 254.641,1124.89 256.662,1124.99 258.677,1125.12 260.687,1125.28 262.689,1125.47 264.683,1125.68 266.667,1125.92 268.64,1126.19 270.601,1126.49 272.548,1126.82 274.481,1127.17 276.399,1127.55 278.3,1127.96 280.183,1128.4 282.046,1128.86 283.89,1129.35 285.713,1129.86 287.513,1130.4 289.289,1130.96 291.041,1131.55 292.768,1132.17 294.467,1132.81 296.14,1133.47 297.783,1134.15 299.397,1134.86 300.98,1135.6 302.532,1136.35 304.051,1137.12 305.537,1137.92 306.988,1138.74 308.405,1139.58 309.785,1140.44 311.129,1141.31 312.434,1142.21 313.702,1143.12 314.93,1144.05 316.118,1145 317.265,1145.97 318.371,1146.95 319.435,1147.95 320.457,1148.96 321.435,1149.98 322.369,1151.02 323.259,1152.08 324.104,1153.14 324.903,1154.22 325.656,1155.3 326.363,1156.4 327.023,1157.51 327.636,1158.62 328.202,1159.75 328.719,1160.88 329.188,1162.02 329.608,1163.16 329.98,1164.32 330.303,1165.47 330.576,1166.63 330.801,1167.8 330.975,1168.96 331.1,1170.13 331.175,1171.3 331.201,1172.47 331.177,1173.64 331.103,1174.81 330.979,1175.98 330.806,1177.15 330.583,1178.31 330.311,1179.47 329.99,1180.63 329.62,1181.78 329.2,1182.92 328.733,1184.06 328.217,1185.2 327.653,1186.32 327.041,1187.44 326.382,1188.54 325.677,1189.64 324.925,1190.73 324.127,1191.81 323.283,1192.87 322.395,1193.92 321.462,1194.96 320.485,1195.99 319.465,1197 318.402,1198 317.297,1198.98 316.15,1199.95 314.963,1200.9 313.737,1201.83 312.47,1202.74 311.166,1203.64 309.823,1204.52 308.444,1205.37 307.029,1206.21 305.578,1207.03 304.093,1207.83 302.575,1208.61 301.024,1209.36 299.442,1210.09 297.829,1210.8 296.186,1211.49 294.515,1212.15 292.816,1212.79 291.09,1213.41 289.339,1214 287.563,1214.56 285.763,1215.1 283.941,1215.62 282.098,1216.1 280.235,1216.57 278.353,1217 276.452,1217.41 274.535,1217.79 272.603,1218.15 270.655,1218.48 268.695,1218.77 266.722,1219.05 264.738,1219.29 262.745,1219.51 260.743,1219.69 258.734,1219.85 256.718,1219.98 254.698,1220.08 252.674,1220.16 250.647,1220.2 248.62,1220.22 246.592,1220.2 244.565,1220.16 242.541,1220.09 240.52,1219.99 238.504,1219.86 236.494,1219.71 234.492,1219.52 232.497,1219.31 230.513,1219.07 228.539,1218.8 " />
</g>

<g fill="none" stroke="#f0f6fc" stroke-opacity="1" stroke-width="1" stroke-linecap="square" stroke-linejoin="bevel" transform="matrix(1,0,0,1,0,0)"
font-family="Arial" font-size="12" font-weight="400" font-style="normal" 
>
</g>
</g>
</svg>
