<?xml version="1.0" encoding="UTF-8" standalone="no"?>
<svg width="297.011mm" height="209.973mm"
 viewBox="0 0 3508 2480"
 xmlns="http://www.w3.org/2000/svg" xmlns:xlink="http://www.w3.org/1999/xlink"  version="1.2" baseProfile="tiny">
<defs>
</defs>
<g fill="none" stroke="black" stroke-width="1" fill-rule="evenodd" stroke-linecap="square" stroke-linejoin="bevel" >

<g fill="#ffffff" fill-opacity="1" stroke="none" transform="matrix(1,0,0,1,0,0)"
font-family="Arial" font-size="12" font-weight="400" font-style="normal" 
>
<rect x="0" y="0" width="3508" height="2480"/>
</g>

<g fill="none" stroke="#000000" stroke-opacity="1" stroke-width="1" stroke-linecap="square" stroke-linejoin="bevel" transform="matrix(1,0,0,1,0,0)"
font-family="Arial" font-size="12" font-weight="400" font-style="normal" 
>
</g>

<g fill="#000000" fill-opacity="1" stroke="#000000" stroke-opacity="1" stroke-width="1" stroke-linecap="butt" stroke-linejoin="miter" stroke-miterlimit="2" transform="matrix(1,0,0,1,0,0)"
font-family="Arial" font-size="12" font-weight="400" font-style="normal" 
>
</g>

<g fill="#000000" fill-opacity="1" stroke="#000000" stroke-opacity="1" stroke-width="5" stroke-linecap="round" stroke-linejoin="bevel" transform="matrix(1,0,0,1,0,0)"
font-family="Arial" font-size="12" font-weight="400" font-style="normal" 
>
<polyline fill="none" vector-effect="none" points="1496.09,845.002 1650.58,755.809 " />
<polyline fill="none" vector-effect="none" points="1650.58,755.809 1650.58,466.536 " />
<polyline fill="none" vector-effect="none" points="1663.1,763.041 1650.58,755.809 " />
<polyline fill="none" vector-effect="none" points="1775.84,1008.44 1750.79,1022.9 " />
<polyline fill="none" vector-effect="none" points="1750.79,1022.9 1683.98,984.335 " />
<polyline fill="none" vector-effect="none" points="1709.03,969.871 1775.84,1008.44 " />
<polyline fill="none" vector-effect="none" points="1263.95,1045.56 1197.14,1006.99 " />
<polyline fill="none" vector-effect="none" points="1222.19,1069.67 1222.19,1154.52 " />
<polyline fill="none" vector-effect="none" points="1155.39,1031.1 1222.19,1069.67 " />
<polyline fill="none" vector-effect="none" points="1085.24,1148.74 1085.24,1224.91 " />
<polyline fill="none" vector-effect="none" points="1043.49,1172.84 1043.49,1200.81 " />
<polyline fill="none" vector-effect="none" points="1043.49,1172.84 976.686,1134.27 " />
<polyline fill="none" vector-effect="none" points="2182.51,668.545 2207.56,654.082 " />
<polyline fill="none" vector-effect="none" points="2115.71,629.976 2182.51,668.545 " />
<polyline fill="none" vector-effect="none" points="2099.01,629.976 2099.01,1024.35 " />
<polyline fill="none" vector-effect="none" points="2182.51,678.188 2099.01,629.976 " />
<polyline fill="none" vector-effect="none" points="2099.01,1024.35 1646.4,1285.66 " />
<polyline fill="none" vector-effect="none" points="2324.47,750.506 2391.28,789.076 " />
<polyline fill="none" vector-effect="none" points="2307.77,750.506 2307.77,1144.88 " />
<polyline fill="none" vector-effect="none" points="2391.28,798.718 2307.77,750.506 " />
<polyline fill="none" vector-effect="none" points="1671.46,1309.77 1646.4,1324.23 " />
<polyline fill="none" vector-effect="none" points="2767.05,977.103 2767.05,1006.03 " />
<polyline fill="none" vector-effect="none" points="2140.76,605.87 2099.01,629.976 " />
<polyline fill="none" vector-effect="none" points="2960.93,1038.73 2960.93,1053.2 " />
<polyline fill="none" vector-effect="none" points="1709.03,960.229 1792.54,1008.44 " />
<polyline fill="none" vector-effect="none" points="1668.95,188.834 1706.53,167.139 " />
<polyline fill="none" vector-effect="none" points="1543.69,1489.6 1562.9,1478.51 " />
<polyline fill="none" vector-effect="none" points="2072.98,1551.39 2839.85,1108.64 " />
<polyline fill="none" vector-effect="none" points="1646.4,1324.23 1579.6,1285.66 " />
<polyline fill="none" vector-effect="none" points="2850.56,1114.82 2850.56,1015.67 " />
<polyline fill="none" vector-effect="none" points="2850.56,1015.67 2808.81,1039.78 " />
<polyline fill="none" vector-effect="none" points="2072.98,1575.5 1976.94,1630.94 " />
<polyline fill="none" vector-effect="none" points="3101.08,1039.5 3126.13,967.179 " />
<polyline fill="none" vector-effect="none" points="2960.93,1053.2 3101.08,972.282 " />
<polyline fill="none" vector-effect="none" points="2960.93,1062.84 2852.37,1125.51 " />
<polyline fill="none" vector-effect="none" points="2725.3,991.567 2725.3,1174.77 " />
<polyline fill="none" vector-effect="none" points="1771.66,1502.62 1771.66,1599.04 " />
<polyline fill="none" vector-effect="none" points="863.953,1547.45 450.599,1308.8 " />
<polyline fill="none" vector-effect="none" points="3126.13,967.179 3126.13,1579.07 " />
<polyline fill="none" vector-effect="none" points="1562.9,1285.66 1562.9,1382.09 " />
<polyline fill="none" vector-effect="none" points="1836.8,1702.21 442.248,897.071 " />
<polyline fill="none" vector-effect="none" points="1197.14,1006.99 1155.39,1031.1 " />
<polyline fill="none" vector-effect="none" points="1479.39,1343.52 1454.34,1357.98 " />
<polyline fill="none" vector-effect="none" points="1681.48,224.993 1706.53,258.742 " />
<polyline fill="none" vector-effect="none" points="1729.91,1517.08 1754.96,1502.62 " />
<polyline fill="none" vector-effect="none" points="2542.42,1280.36 2433.03,1217.2 " />
<polyline fill="none" vector-effect="none" points="1706.53,258.742 1706.53,797.754 " />
<polyline fill="none" vector-effect="none" points="1855.17,1550.83 1771.66,1502.62 " />
<polyline fill="none" vector-effect="none" points="450.599,1144.88 450.599,1308.8 " />
<polyline fill="none" vector-effect="none" points="1771.66,1406.19 1771.66,1502.62 " />
<polyline fill="none" vector-effect="none" points="1562.9,1382.09 1479.39,1333.87 " />
<polyline fill="none" vector-effect="none" points="1667.28,984.335 1750.79,1032.55 " />
<polyline fill="none" vector-effect="none" points="442.248,897.071 479.826,875.376 " />
<polyline fill="none" vector-effect="none" points="2224.26,1096.67 1646.4,1430.3 " />
<polyline fill="none" vector-effect="none" points="2335.33,1331.46 2310.28,1345.93 " />
<polyline fill="none" vector-effect="none" points="1142.86,1108.72 1222.19,1154.52 " />
<polyline fill="none" vector-effect="none" points="479.826,875.376 1861.85,1673.29 " />
<polyline fill="none" vector-effect="none" points="1668.95,188.834 3050.97,986.746 " />
<polyline fill="none" vector-effect="none" points="1562.9,1382.09 1562.9,1478.51 " />
<polyline fill="none" vector-effect="none" points="1222.19,1069.67 1263.95,1045.56 " />
<polyline fill="none" vector-effect="none" points="1142.86,1108.72 1079.4,1145.36 " />
<polyline fill="none" vector-effect="none" points="2085.5,1582.73 1976.94,1645.41 " />
<polyline fill="none" vector-effect="none" points="1155.39,1019.53 1086.91,1003.7 " />
<polyline fill="none" vector-effect="none" points="2361.21,1384.98 2293.57,1345.93 " />
<polyline fill="none" vector-effect="none" points="2335.33,1321.82 2293.57,1345.93 " />
<polyline fill="none" vector-effect="none" points="1334.93,1369.07 1792.54,1104.87 " />
<polyline fill="none" vector-effect="none" points="1836.8,2332.83 1817.39,2321.63 " />
<polyline fill="none" vector-effect="none" points="2099.01,1024.35 1706.53,797.754 " />
<polyline fill="none" vector-effect="none" points="2140.76,615.512 2140.76,644.439 " />
<polyline fill="none" vector-effect="none" points="2072.98,1551.39 2085.5,1558.62 " />
<polyline fill="none" vector-effect="none" points="2072.98,1575.5 2072.98,1551.39 " />
<polyline fill="none" vector-effect="none" points="1896.92,1430.3 1855.17,1454.4 " />
<polyline fill="none" vector-effect="none" points="1836.8,1702.21 1836.8,1769.43 " />
<polyline fill="none" vector-effect="none" points="2349.52,726.4 2307.77,750.506 " />
<polyline fill="none" vector-effect="none" points="2085.5,1582.73 2072.98,1575.5 " />
<polyline fill="none" vector-effect="none" points="1836.8,2332.83 1836.8,2265.61 " />
<polyline fill="none" vector-effect="none" points="3101.08,1535.68 3126.13,1579.07 " />
<polyline fill="none" vector-effect="none" points="1836.8,1769.43 1811.75,1726.04 " />
<polyline fill="none" vector-effect="none" points="1085.24,1148.74 1043.49,1172.84 " />
<polyline fill="none" vector-effect="none" points="863.953,1383.53 417.196,1125.6 " />
<polyline fill="none" vector-effect="none" points="1663.1,1478.51 1729.91,1517.08 " />
<polyline fill="none" vector-effect="none" points="1752.46,1610.13 1771.66,1599.04 " />
<polyline fill="none" vector-effect="none" points="2349.52,736.042 2324.47,750.506 " />
<polyline fill="none" vector-effect="none" points="2307.77,1144.88 2224.26,1096.67 " />
<polyline fill="none" vector-effect="none" points="1263.95,1045.56 1263.95,1130.42 " />
<polyline fill="none" vector-effect="none" points="1811.75,1726.04 1811.75,2337.93 " />
<polyline fill="none" vector-effect="none" points="1155.39,1019.53 1155.39,1031.1 " />
<polyline fill="none" vector-effect="none" points="2852.37,1139.98 2852.37,1115.87 " />
<polyline fill="none" vector-effect="none" points="2808.81,1039.78 2808.81,1126.56 " />
<polyline fill="none" vector-effect="none" points="442.248,897.071 442.248,935.359 " />
<polyline fill="none" vector-effect="none" points="2742,991.567 2808.81,1030.14 " />
<polyline fill="none" vector-effect="none" points="2833.86,1015.67 2767.05,977.103 " />
<polyline fill="none" vector-effect="none" points="1142.86,1016.63 1142.86,1108.72 " />
<polyline fill="none" vector-effect="none" points="1836.8,1702.21 1976.94,1621.3 " />
<polyline fill="none" vector-effect="none" points="1688.16,1309.77 1646.4,1333.87 " />
<polyline fill="none" vector-effect="none" points="1688.16,1464.05 1663.1,1478.51 " />
<polyline fill="none" vector-effect="none" points="1579.6,1285.66 1604.65,1271.2 " />
<polyline fill="none" vector-effect="none" points="2085.5,1558.62 2852.37,1115.87 " />
<polyline fill="none" vector-effect="none" points="2960.93,1077.3 2960.93,1053.2 " />
<polyline fill="none" vector-effect="none" points="2140.76,615.512 2115.71,629.976 " />
<polyline fill="none" vector-effect="none" points="1222.19,1154.52 1263.95,1130.42 " />
<polyline fill="none" vector-effect="none" points="1646.4,1478.51 1688.16,1454.4 " />
<polyline fill="none" vector-effect="none" points="2182.51,1072.56 1729.91,1333.87 " />
<polyline fill="none" vector-effect="none" points="1896.92,1430.3 1813.42,1382.09 " />
<polyline fill="none" vector-effect="none" points="1521.14,1406.19 1437.64,1357.98 " />
<polyline fill="none" vector-effect="none" points="677.735,849.823 617.193,954.685 " />
<polyline fill="none" vector-effect="none" points="1792.54,1104.87 1792.54,1008.44 " />
<polyline fill="none" vector-effect="none" points="1836.8,2265.61 1811.75,2337.93 " />
<polyline fill="none" vector-effect="none" points="1646.4,1333.87 1562.9,1285.66 " />
<polyline fill="none" vector-effect="none" points="2085.5,1582.73 2085.5,1558.62 " />
<polyline fill="none" vector-effect="none" points="2433.03,1217.2 1855.17,1550.83 " />
<polyline fill="none" vector-effect="none" points="2207.56,654.082 2140.76,615.512 " />
<polyline fill="none" vector-effect="none" points="2767.05,977.103 2742,991.567 " />
<polyline fill="none" vector-effect="none" points="1646.4,1430.3 1562.9,1382.09 " />
<polyline fill="none" vector-effect="none" points="1496.09,859.466 1663.1,763.041 " />
<polyline fill="none" vector-effect="none" points="417.196,920.896 417.196,1125.6 " />
<polyline fill="none" vector-effect="none" points="3101.08,1602.9 1836.8,2332.83 " />
<polyline fill="none" vector-effect="none" points="1706.53,258.742 3009.22,1010.85 " />
<polyline fill="none" vector-effect="none" points="1729.91,1526.72 1771.66,1502.62 " />
<polyline fill="none" vector-effect="none" points="863.953,1383.53 863.953,1586.02 " />
<polyline fill="none" vector-effect="none" points="1976.94,1645.41 1976.94,1621.3 " />
<polyline fill="none" vector-effect="none" points="1681.48,224.993 517.403,897.071 " />
<polyline fill="none" vector-effect="none" points="863.953,1586.02 417.196,1328.09 " />
<polyline fill="none" vector-effect="none" points="2391.28,789.076 2416.33,774.612 " />
<polyline fill="none" vector-effect="none" points="1811.75,1726.04 417.196,920.896 " />
<polyline fill="none" vector-effect="none" points="3101.08,972.282 1706.53,167.139 " />
<polyline fill="none" vector-effect="none" points="1683.98,984.335 1709.03,969.871 " />
<polyline fill="none" vector-effect="none" points="2839.85,1108.64 2852.37,1115.87 " />
<polyline fill="none" vector-effect="none" points="1861.85,1673.29 1951.89,1621.3 " />
<polyline fill="none" vector-effect="none" points="1018.44,1110.17 1018.44,1098.6 " />
<polyline fill="none" vector-effect="none" points="1681.48,224.993 3025.92,1001.21 " />
<polyline fill="none" vector-effect="none" points="1811.75,2337.93 417.196,1532.79 " />
<polyline fill="none" vector-effect="none" points="1521.14,1406.19 1562.9,1382.09 " />
<polyline fill="none" vector-effect="none" points="1688.16,1309.77 1604.65,1261.56 " />
<polyline fill="none" vector-effect="none" points="1694,203.298 504.877,889.839 " />
<polyline fill="none" vector-effect="none" points="2850.56,1015.67 2767.05,967.461 " />
<polyline fill="none" vector-effect="none" points="1835.96,1658.34 2251.82,1418.24 " />
<polyline fill="none" vector-effect="none" points="1725.93,178.341 1731.58,162.036 " />
<polyline fill="none" vector-effect="none" points="417.196,1328.09 450.599,1308.8 " />
<polyline fill="none" vector-effect="none" points="1709.03,960.229 1667.28,984.335 " />
<polyline fill="none" vector-effect="none" points="3126.13,967.179 1731.58,162.036 " />
<polyline fill="none" vector-effect="none" points="2433.03,774.612 2349.52,726.4 " />
<polyline fill="none" vector-effect="none" points="2224.26,1096.67 2224.26,654.082 " />
<polyline fill="none" vector-effect="none" points="2224.26,654.082 2140.76,605.87 " />
<polyline fill="none" vector-effect="none" points="2767.05,967.461 2725.3,991.567 " />
<polyline fill="none" vector-effect="none" points="2416.33,774.612 2349.52,736.042 " />
<polyline fill="none" vector-effect="none" points="1018.44,1098.6 1086.91,1003.7 " />
<polyline fill="none" vector-effect="none" points="1018.44,1110.17 976.686,1134.27 " />
<polyline fill="none" vector-effect="none" points="3126.13,1579.07 3101.08,1564.61 " />
<polyline fill="none" vector-effect="none" points="976.686,1134.27 976.686,1162.24 " />
<polyline fill="none" vector-effect="none" points="2391.28,1193.09 2307.77,1144.88 " />
<polyline fill="none" vector-effect="none" points="1706.53,797.754 1263.95,1053.28 " />
<polyline fill="none" vector-effect="none" points="1663.1,763.041 1663.1,473.768 " />
<polyline fill="none" vector-effect="none" points="1663.1,473.768 1496.09,377.344 " />
<polyline fill="none" vector-effect="none" points="677.735,989.638 677.735,849.823 " />
<polyline fill="none" vector-effect="none" points="2391.28,1193.09 1938.67,1454.4 " />
<polyline fill="none" vector-effect="none" points="2391.28,798.718 2391.28,1193.09 " />
<polyline fill="none" vector-effect="none" points="1546.2,1382.09 1479.39,1343.52 " />
<polyline fill="none" vector-effect="none" points="1976.94,1621.3 1951.89,1621.3 " />
<polyline fill="none" vector-effect="none" points="1729.91,1526.72 1646.4,1478.51 " />
<polyline fill="none" vector-effect="none" points="2433.03,774.612 2391.28,798.718 " />
<polyline fill="none" vector-effect="none" points="1855.17,1454.4 1855.17,1550.83 " />
<polyline fill="none" vector-effect="none" points="2960.93,1038.73 3050.97,986.746 " />
<polyline fill="none" vector-effect="none" points="1521.14,1396.55 1546.2,1382.09 " />
<polyline fill="none" vector-effect="none" points="2349.52,736.042 2349.52,764.97 " />
<polyline fill="none" vector-effect="none" points="1788.36,1406.19 1813.42,1391.73 " />
</g>

<g fill="#000000" fill-opacity="1" stroke="#000000" stroke-opacity="1" stroke-width="2" stroke-linecap="round" stroke-linejoin="bevel" transform="matrix(1,0,0,1,0,0)"
font-family="Arial" font-size="12" font-weight="400" font-style="normal" 
>
<polyline fill="none" vector-effect="none" points="2277.71,1433.19 2251.82,1418.24 " />
</g>

<g fill="#000000" fill-opacity="1" stroke="#000000" stroke-opacity="1" stroke-width="5" stroke-linecap="round" stroke-linejoin="bevel" transform="matrix(1,0,0,1,0,0)"
font-family="Arial" font-size="12" font-weight="400" font-style="normal" 
>
<polyline fill="none" vector-effect="none" points="2808.81,1039.78 2725.3,991.567 " />
<polyline fill="none" vector-effect="none" points="2808.81,1030.14 2833.86,1015.67 " />
<polyline fill="none" vector-effect="none" points="1754.96,1502.62 1688.16,1464.05 " />
<polyline fill="none" vector-effect="none" points="1771.66,1502.62 1688.16,1454.4 " />
<polyline fill="none" vector-effect="none" points="665.209,982.407 665.209,871.519 " />
<polyline fill="none" vector-effect="none" points="2182.51,678.188 2182.51,1072.56 " />
<polyline fill="none" vector-effect="none" points="2224.26,654.082 2182.51,678.188 " />
<polyline fill="none" vector-effect="none" points="1619.33,1303.63 1650.7,1321.75 " />
<polyline fill="none" vector-effect="none" points="3101.08,1602.9 3101.08,1535.68 " />
<polyline fill="none" vector-effect="none" points="1646.4,1333.87 1646.4,1430.3 " />
<polyline fill="none" vector-effect="none" points="1293.17,1344.96 1709.03,1104.87 " />
<polyline fill="none" vector-effect="none" points="1792.54,1008.44 1750.79,1032.55 " />
<polyline fill="none" vector-effect="none" points="1855.17,1454.4 1771.66,1406.19 " />
<polyline fill="none" vector-effect="none" points="1855.17,1444.76 1788.36,1406.19 " />
<polyline fill="none" vector-effect="none" points="1813.42,1391.73 1880.22,1430.3 " />
<polyline fill="none" vector-effect="none" points="3101.08,972.282 3101.08,1039.5 " />
<polyline fill="none" vector-effect="none" points="1813.42,1382.09 1771.66,1406.19 " />
<polyline fill="none" vector-effect="none" points="2182.51,1072.56 2099.01,1024.35 " />
</g>

<g fill="#000000" fill-opacity="1" stroke="#000000" stroke-opacity="1" stroke-width="2" stroke-linecap="round" stroke-linejoin="bevel" transform="matrix(1,0,0,1,0,0)"
font-family="Arial" font-size="12" font-weight="400" font-style="normal" 
>
<polyline fill="none" vector-effect="none" points="1729.91,1333.87 1688.16,1309.77 " />
</g>

<g fill="#000000" fill-opacity="1" stroke="#000000" stroke-opacity="1" stroke-width="5" stroke-linecap="round" stroke-linejoin="bevel" transform="matrix(1,0,0,1,0,0)"
font-family="Arial" font-size="12" font-weight="400" font-style="normal" 
>
<polyline fill="none" vector-effect="none" points="2960.93,1077.3 2852.37,1139.98 " />
<polyline fill="none" vector-effect="none" points="1880.22,1430.3 1855.17,1444.76 " />
<polyline fill="none" vector-effect="none" points="1828.09,1424.16 1859.47,1442.28 " />
<polyline fill="none" vector-effect="none" points="417.196,1328.09 417.196,1532.79 " />
<polyline fill="none" vector-effect="none" points="1209.67,1296.75 1625.53,1056.65 " />
</g>

<g fill="#000000" fill-opacity="1" stroke="#000000" stroke-opacity="1" stroke-width="2" stroke-linecap="round" stroke-linejoin="bevel" transform="matrix(1,0,0,1,0,0)"
font-family="Arial" font-size="12" font-weight="400" font-style="normal" 
>
<polyline fill="none" vector-effect="none" points="1938.67,1454.4 1896.92,1430.3 " />
</g>

<g fill="#000000" fill-opacity="1" stroke="#000000" stroke-opacity="1" stroke-width="5" stroke-linecap="round" stroke-linejoin="bevel" transform="matrix(1,0,0,1,0,0)"
font-family="Arial" font-size="12" font-weight="400" font-style="normal" 
>
<polyline fill="none" vector-effect="none" points="2394.62,1365.69 2335.33,1331.46 " />
<polyline fill="none" vector-effect="none" points="1454.34,1357.98 1521.14,1396.55 " />
<polyline fill="none" vector-effect="none" points="1437.64,1357.98 1479.39,1333.87 " />
<polyline fill="none" vector-effect="none" points="2402.97,1360.87 2335.33,1321.82 " />
<polyline fill="none" vector-effect="none" points="2433.03,1217.2 2433.03,774.612 " />
<polyline fill="none" vector-effect="none" points="1604.65,1261.56 1562.9,1285.66 " />
<polyline fill="none" vector-effect="none" points="1018.44,1110.17 1085.24,1148.74 " />
<polyline fill="none" vector-effect="none" points="1496.09,377.344 1496.09,859.466 " />
<polyline fill="none" vector-effect="none" points="2310.28,1345.93 2369.57,1380.16 " />
</g>

<g fill="#000000" fill-opacity="1" stroke="#000000" stroke-opacity="1" stroke-width="2" stroke-linecap="round" stroke-linejoin="bevel" transform="matrix(1,0,0,1,0,0)"
font-family="Arial" font-size="12" font-weight="400" font-style="normal" 
>
<polyline fill="none" vector-effect="none" points="1625.53,1056.65 1709.03,1104.87 " />
</g>

<g fill="#000000" fill-opacity="1" stroke="#000000" stroke-opacity="1" stroke-width="5" stroke-linecap="round" stroke-linejoin="bevel" transform="matrix(1,0,0,1,0,0)"
font-family="Arial" font-size="12" font-weight="400" font-style="normal" 
>
<polyline fill="none" vector-effect="none" points="2307.77,1144.88 1855.17,1406.19 " />
<polyline fill="none" vector-effect="none" points="1604.65,1271.2 1671.46,1309.77 " />
<polyline fill="none" vector-effect="none" points="1221.48,1038.33 1221.47,1038.5 1221.46,1038.67 1221.45,1038.83 1221.42,1039 1221.39,1039.17 1221.35,1039.33 1221.3,1039.5 1221.25,1039.66 1221.19,1039.83 1221.12,1039.99 1221.05,1040.15 1220.97,1040.31 1220.88,1040.47 1220.79,1040.63 1220.69,1040.79 1220.58,1040.94 1220.46,1041.1 1220.34,1041.25 1220.22,1041.4 1220.08,1041.55 1219.94,1041.69 1219.8,1041.84 1219.64,1041.98 1219.49,1042.12 1219.32,1042.26 1219.15,1042.39 1218.98,1042.53 1218.8,1042.66 1218.61,1042.79 1218.42,1042.91 1218.22,1043.03 1218.02,1043.15 1217.81,1043.27 1217.6,1043.38 1217.38,1043.5 1217.16,1043.6 1216.93,1043.71 1216.7,1043.81 1216.47,1043.91 1216.23,1044 1215.99,1044.09 1215.74,1044.18 1215.49,1044.27 1215.23,1044.35 1214.98,1044.42 1214.72,1044.5 1214.45,1044.57 1214.19,1044.63 1213.92,1044.69 1213.65,1044.75 1213.37,1044.81 1213.1,1044.86 1212.82,1044.9 1212.54,1044.95 1212.26,1044.99 1211.97,1045.02 1211.69,1045.05 1211.4,1045.08 1211.11,1045.1 1210.83,1045.12 1210.54,1045.13 1210.25,1045.14 1209.96,1045.15 1209.67,1045.15 1209.38,1045.15 1209.09,1045.14 1208.8,1045.13 1208.51,1045.12 1208.22,1045.1 1207.93,1045.08 1207.65,1045.05 1207.36,1045.02 1207.08,1044.99 1206.8,1044.95 1206.52,1044.9 1206.24,1044.86 1205.96,1044.81 1205.69,1044.75 1205.42,1044.69 1205.15,1044.63 1204.88,1044.57 1204.62,1044.5 1204.36,1044.42 1204.1,1044.35 1203.85,1044.27 1203.6,1044.18 1203.35,1044.09 1203.11,1044 1202.87,1043.91 1202.63,1043.81 1202.4,1043.71 1202.18,1043.6 1201.95,1043.5 1201.74,1043.38 1201.52,1043.27 1201.32,1043.15 1201.11,1043.03 1200.92,1042.91 1200.73,1042.79 1200.54,1042.66 1200.36,1042.53 1200.18,1042.39 1200.01,1042.26 1199.85,1042.12 1199.69,1041.98 1199.54,1041.84 1199.39,1041.69 1199.25,1041.55 1199.12,1041.4 1198.99,1041.25 1198.87,1041.1 1198.76,1040.94 1198.65,1040.79 1198.55,1040.63 1198.45,1040.47 1198.37,1040.31 1198.29,1040.15 1198.21,1039.99 1198.15,1039.83 1198.09,1039.66 1198.03,1039.5 1197.99,1039.33 1197.95,1039.17 1197.91,1039 1197.89,1038.83 1197.87,1038.67 1197.86,1038.5 1197.86,1038.33 1197.86,1038.17 1197.87,1038 1197.89,1037.83 1197.91,1037.66 1197.95,1037.5 1197.99,1037.33 1198.03,1037.17 1198.09,1037 1198.15,1036.84 1198.21,1036.68 1198.29,1036.51 1198.37,1036.35 1198.45,1036.19 1198.55,1036.04 1198.65,1035.88 1198.76,1035.72 1198.87,1035.57 1198.99,1035.42 1199.12,1035.27 1199.25,1035.12 1199.39,1034.97 1199.54,1034.83 1199.69,1034.69 1199.85,1034.54 1200.01,1034.41 1200.18,1034.27 1200.36,1034.14 1200.54,1034.01 1200.73,1033.88 1200.92,1033.75 1201.11,1033.63 1201.32,1033.51 1201.52,1033.39 1201.74,1033.28 1201.95,1033.17 1202.18,1033.06 1202.4,1032.96 1202.63,1032.86 1202.87,1032.76 1203.11,1032.66 1203.35,1032.57 1203.6,1032.48 1203.85,1032.4 1204.1,1032.32 1204.36,1032.24 1204.62,1032.17 1204.88,1032.1 1205.15,1032.03 1205.42,1031.97 1205.69,1031.91 1205.96,1031.86 1206.24,1031.81 1206.52,1031.76 1206.8,1031.72 1207.08,1031.68 1207.36,1031.65 1207.65,1031.61 1207.93,1031.59 1208.22,1031.57 1208.51,1031.55 1208.8,1031.53 1209.09,1031.52 1209.38,1031.52 1209.67,1031.51 1209.96,1031.52 1210.25,1031.52 1210.54,1031.53 1210.83,1031.55 1211.11,1031.57 1211.4,1031.59 1211.69,1031.61 1211.97,1031.65 1212.26,1031.68 1212.54,1031.72 1212.82,1031.76 1213.1,1031.81 1213.37,1031.86 1213.65,1031.91 1213.92,1031.97 1214.19,1032.03 1214.45,1032.1 1214.72,1032.17 1214.98,1032.24 1215.23,1032.32 1215.49,1032.4 1215.74,1032.48 1215.99,1032.57 1216.23,1032.66 1216.47,1032.76 1216.7,1032.86 1216.93,1032.96 1217.16,1033.06 1217.38,1033.17 1217.6,1033.28 1217.81,1033.39 1218.02,1033.51 1218.22,1033.63 1218.42,1033.75 1218.61,1033.88 1218.8,1034.01 1218.98,1034.14 1219.15,1034.27 1219.32,1034.41 1219.49,1034.54 1219.64,1034.69 1219.8,1034.83 1219.94,1034.97 1220.08,1035.12 1220.22,1035.27 1220.34,1035.42 1220.46,1035.57 1220.58,1035.72 1220.69,1035.88 1220.79,1036.04 1220.88,1036.19 1220.97,1036.35 1221.05,1036.51 1221.12,1036.68 1221.19,1036.84 1221.25,1037 1221.3,1037.17 1221.35,1037.33 1221.39,1037.5 1221.42,1037.66 1221.45,1037.83 1221.46,1038 1221.47,1038.17 1221.48,1038.33 " />
<polyline fill="none" vector-effect="none" points="1938.67,1454.4 1937.67,1454.97 1936.66,1455.51 1935.65,1456.02 1934.64,1456.51 1933.64,1456.96 1932.64,1457.38 1931.65,1457.77 1930.65,1458.14 1929.66,1458.47 1928.68,1458.77 1927.71,1459.04 1926.74,1459.28 1925.77,1459.49 1924.82,1459.67 1923.87,1459.82 1922.93,1459.93 1922,1460.02 1921.08,1460.07 1920.17,1460.09 1919.27,1460.08 1918.38,1460.04 1917.51,1459.97 1916.64,1459.87 1915.79,1459.73 1914.96,1459.56 1914.13,1459.37 1913.32,1459.14 1912.53,1458.88 1911.75,1458.59 1910.99,1458.26 1910.24,1457.91 1909.51,1457.53 1908.8,1457.12 1908.1,1456.68 1907.42,1456.21 1906.76,1455.71 1906.12,1455.18 1905.5,1454.62 1904.9,1454.03 1904.31,1453.42 1903.75,1452.78 1903.21,1452.11 1902.68,1451.41 1902.18,1450.69 1901.7,1449.94 1901.25,1449.17 1900.81,1448.37 1900.4,1447.55 1900,1446.7 1899.63,1445.83 1899.29,1444.93 1898.97,1444.02 1898.66,1443.08 1898.39,1442.12 1898.13,1441.14 1897.91,1440.13 1897.7,1439.11 1897.52,1438.07 1897.36,1437.01 1897.23,1435.93 1897.12,1434.84 1897.03,1433.73 1896.97,1432.6 1896.93,1431.46 1896.92,1430.3 " />
<polyline fill="none" vector-effect="none" points="1709.03,1104.87 1710.04,1104.27 1711.05,1103.64 1712.06,1102.99 1713.06,1102.31 1714.07,1101.61 1715.07,1100.88 1716.06,1100.12 1717.06,1099.34 1718.04,1098.53 1719.03,1097.7 1720,1096.84 1720.97,1095.96 1721.94,1095.06 1722.89,1094.13 1723.84,1093.18 1724.78,1092.22 1725.71,1091.23 1726.63,1090.22 1727.54,1089.19 1728.44,1088.14 1729.32,1087.07 1730.2,1085.99 1731.06,1084.89 1731.91,1083.77 1732.75,1082.64 1733.57,1081.49 1734.38,1080.33 1735.18,1079.15 1735.96,1077.96 1736.72,1076.76 1737.47,1075.54 1738.2,1074.32 1738.91,1073.08 1739.61,1071.83 1740.29,1070.58 1740.95,1069.32 1741.59,1068.05 1742.21,1066.77 1742.81,1065.49 1743.4,1064.2 1743.96,1062.91 1744.5,1061.61 1745.02,1060.32 1745.52,1059.02 1746,1057.71 1746.46,1056.41 1746.9,1055.11 1747.31,1053.81 1747.7,1052.51 1748.07,1051.21 1748.42,1049.92 1748.74,1048.63 1749.04,1047.34 1749.32,1046.06 1749.57,1044.79 1749.8,1043.52 1750.01,1042.26 1750.19,1041.01 1750.35,1039.77 1750.48,1038.53 1750.59,1037.31 1750.68,1036.1 1750.74,1034.9 1750.77,1033.72 1750.79,1032.55 " />
<polyline fill="none" vector-effect="none" points="2332.09,1358.52 2332.61,1356.18 2333.08,1353.85 2333.5,1351.53 2333.88,1349.23 2334.22,1346.94 2334.51,1344.67 2334.76,1342.41 2334.97,1340.18 2335.12,1337.96 2335.24,1335.77 2335.31,1333.61 2335.33,1331.46 " />
<polyline fill="none" vector-effect="none" points="2251.82,1418.24 2252.83,1417.65 2253.84,1417.02 2254.85,1416.37 2255.85,1415.69 2256.85,1414.99 2257.85,1414.26 2258.85,1413.5 2259.84,1412.72 2260.83,1411.91 2261.81,1411.07 2262.79,1410.22 2263.76,1409.34 2264.72,1408.44 2265.68,1407.51 2266.63,1406.56 2267.57,1405.6 2268.5,1404.61 2269.42,1403.6 2270.33,1402.57 2271.23,1401.52 2272.11,1400.45 2272.99,1399.37 2273.85,1398.27 2274.7,1397.15 2275.54,1396.02 2276.36,1394.87 2277.17,1393.7 2277.97,1392.53 2278.75,1391.34 2279.51,1390.13 2280.26,1388.92 2280.99,1387.69 2281.7,1386.46 2282.4,1385.21 2283.07,1383.96 2283.73,1382.7 2284.38,1381.43 2285,1380.15 2285.6,1378.87 2286.18,1377.58 2286.75,1376.29 2287.29,1374.99 2287.81,1373.7 2288.31,1372.39 2288.79,1371.09 2289.25,1369.79 2289.69,1368.49 2290.1,1367.19 2290.49,1365.89 2290.86,1364.59 2291.21,1363.29 2291.53,1362 2291.83,1360.72 2292.11,1359.44 2292.36,1358.16 2292.59,1356.9 2292.8,1355.64 2292.98,1354.39 2293.14,1353.15 2293.27,1351.91 2293.38,1350.69 2293.47,1349.48 2293.53,1348.28 2293.56,1347.1 2293.57,1345.93 " />
<polyline fill="none" vector-effect="none" points="1476.16,1370.57 1476.67,1368.23 1477.14,1365.9 1477.57,1363.58 1477.95,1361.28 1478.29,1358.99 1478.58,1356.72 1478.83,1354.46 1479.03,1352.23 1479.19,1350.02 1479.3,1347.83 1479.37,1345.66 1479.39,1343.52 " />
<polyline fill="none" vector-effect="none" points="1619.33,1303.63 1618.49,1303.13 1617.68,1302.59 1616.89,1302.02 1616.12,1301.41 1615.37,1300.77 1614.64,1300.1 1613.94,1299.39 1613.26,1298.65 1612.6,1297.88 1611.97,1297.08 1611.36,1296.25 1610.78,1295.39 1610.22,1294.49 1609.69,1293.57 1609.18,1292.62 1608.7,1291.64 1608.24,1290.63 1607.81,1289.59 1607.41,1288.53 1607.03,1287.44 1606.68,1286.33 1606.36,1285.19 1606.06,1284.02 1605.8,1282.83 1605.56,1281.62 1605.34,1280.39 1605.16,1279.14 1605.01,1277.86 1604.88,1276.57 1604.78,1275.25 1604.71,1273.92 1604.66,1272.57 1604.65,1271.2 " />
<polyline fill="none" vector-effect="none" points="1497.71,1463.05 1498.61,1462 1499.51,1460.93 1500.39,1459.85 1501.26,1458.74 1502.12,1457.62 1502.96,1456.49 1503.79,1455.34 1504.6,1454.17 1505.4,1452.99 1506.19,1451.8 1506.96,1450.59 1507.71,1449.37 1508.45,1448.14 1509.17,1446.9 1509.87,1445.65 1510.55,1444.4 1511.22,1443.13 1511.86,1441.85 1512.49,1440.57 1513.1,1439.29 1513.69,1437.99 1514.26,1436.7 1514.8,1435.39 1515.33,1434.09 1515.84,1432.78 1516.32,1431.48 1516.78,1430.17 1517.22,1428.86 1517.64,1427.55 1518.03,1426.25 1518.41,1424.94 1518.76,1423.64 1519.08,1422.35 1519.39,1421.05 1519.66,1419.77 1519.92,1418.49 1520.15,1417.21 1520.36,1415.95 1520.54,1414.69 1520.7,1413.44 1520.84,1412.21 1520.95,1410.98 1521.03,1409.76 1521.1,1408.56 1521.13,1407.37 1521.14,1406.19 " />
<polyline fill="none" vector-effect="none" points="1706.47,1583.58 1707.38,1582.53 1708.27,1581.46 1709.15,1580.38 1710.02,1579.28 1710.88,1578.16 1711.72,1577.02 1712.55,1575.87 1713.37,1574.7 1714.17,1573.52 1714.95,1572.33 1715.72,1571.12 1716.48,1569.9 1717.21,1568.67 1717.93,1567.44 1718.63,1566.19 1719.32,1564.93 1719.98,1563.66 1720.63,1562.39 1721.26,1561.1 1721.87,1559.82 1722.45,1558.52 1723.02,1557.23 1723.57,1555.93 1724.1,1554.62 1724.6,1553.31 1725.08,1552.01 1725.55,1550.7 1725.99,1549.39 1726.4,1548.08 1726.8,1546.78 1727.17,1545.47 1727.52,1544.17 1727.85,1542.88 1728.15,1541.58 1728.43,1540.3 1728.69,1539.02 1728.92,1537.75 1729.12,1536.48 1729.31,1535.22 1729.47,1533.97 1729.6,1532.74 1729.71,1531.51 1729.8,1530.29 1729.86,1529.09 1729.9,1527.9 1729.91,1526.72 " />
<polyline fill="none" vector-effect="none" points="1828.09,1424.16 1827.23,1423.64 1826.39,1423.09 1825.58,1422.49 1824.79,1421.86 1824.02,1421.2 1823.28,1420.5 1822.56,1419.76 1821.86,1419 1821.19,1418.19 1820.54,1417.36 1819.92,1416.49 1819.33,1415.58 1818.77,1414.65 1818.23,1413.69 1817.71,1412.69 1817.23,1411.67 1816.77,1410.61 1816.34,1409.53 1815.94,1408.42 1815.57,1407.28 1815.23,1406.11 1814.92,1404.92 1814.63,1403.7 1814.38,1402.46 1814.15,1401.19 1813.96,1399.9 1813.79,1398.59 1813.66,1397.26 1813.55,1395.91 1813.48,1394.53 1813.43,1393.14 1813.42,1391.73 " />
<polyline fill="none" vector-effect="none" points="1019.16,1141.51 1019.16,1141.67 1019.17,1141.84 1019.19,1142.01 1019.21,1142.18 1019.24,1142.34 1019.28,1142.51 1019.33,1142.67 1019.38,1142.84 1019.44,1143 1019.51,1143.16 1019.58,1143.33 1019.66,1143.49 1019.75,1143.65 1019.85,1143.8 1019.95,1143.96 1020.05,1144.12 1020.17,1144.27 1020.29,1144.42 1020.42,1144.57 1020.55,1144.72 1020.69,1144.87 1020.84,1145.01 1020.99,1145.15 1021.15,1145.29 1021.31,1145.43 1021.48,1145.57 1021.65,1145.7 1021.84,1145.83 1022.02,1145.96 1022.21,1146.09 1022.41,1146.21 1022.61,1146.33 1022.82,1146.44 1023.03,1146.56 1023.25,1146.67 1023.47,1146.78 1023.7,1146.88 1023.93,1146.98 1024.16,1147.08 1024.4,1147.18 1024.65,1147.27 1024.89,1147.36 1025.14,1147.44 1025.4,1147.52 1025.66,1147.6 1025.92,1147.67 1026.18,1147.74 1026.45,1147.81 1026.71,1147.87 1026.99,1147.93 1027.26,1147.98 1027.54,1148.03 1027.82,1148.08 1028.1,1148.12 1028.38,1148.16 1028.66,1148.19 1028.95,1148.22 1029.23,1148.25 1029.52,1148.27 1029.81,1148.29 1030.1,1148.31 1030.39,1148.32 1030.68,1148.32 1030.96,1148.33 1031.25,1148.32 1031.54,1148.32 1031.83,1148.31 1032.12,1148.29 1032.41,1148.27 1032.7,1148.25 1032.98,1148.22 1033.27,1148.19 1033.55,1148.16 1033.83,1148.12 1034.11,1148.08 1034.39,1148.03 1034.67,1147.98 1034.94,1147.93 1035.22,1147.87 1035.48,1147.81 1035.75,1147.74 1036.01,1147.67 1036.27,1147.6 1036.53,1147.52 1036.79,1147.44 1037.04,1147.36 1037.28,1147.27 1037.53,1147.18 1037.76,1147.08 1038,1146.98 1038.23,1146.88 1038.46,1146.78 1038.68,1146.67 1038.9,1146.56 1039.11,1146.44 1039.32,1146.33 1039.52,1146.21 1039.72,1146.09 1039.91,1145.96 1040.09,1145.83 1040.27,1145.7 1040.45,1145.57 1040.62,1145.43 1040.78,1145.29 1040.94,1145.15 1041.09,1145.01 1041.24,1144.87 1041.38,1144.72 1041.51,1144.57 1041.64,1144.42 1041.76,1144.27 1041.88,1144.12 1041.98,1143.96 1042.08,1143.8 1042.18,1143.65 1042.27,1143.49 1042.35,1143.33 1042.42,1143.16 1042.49,1143 1042.55,1142.84 1042.6,1142.67 1042.65,1142.51 1042.69,1142.34 1042.72,1142.18 1042.74,1142.01 1042.76,1141.84 1042.77,1141.67 1042.77,1141.51 1042.77,1141.34 1042.76,1141.17 1042.74,1141.01 1042.72,1140.84 1042.69,1140.67 1042.65,1140.51 1042.6,1140.34 1042.55,1140.18 1042.49,1140.01 1042.42,1139.85 1042.35,1139.69 1042.27,1139.53 1042.18,1139.37 1042.08,1139.21 1041.98,1139.05 1041.88,1138.9 1041.76,1138.74 1041.64,1138.59 1041.51,1138.44 1041.38,1138.29 1041.24,1138.15 1041.09,1138 1040.94,1137.86 1040.78,1137.72 1040.62,1137.58 1040.45,1137.45 1040.27,1137.31 1040.09,1137.18 1039.91,1137.05 1039.72,1136.93 1039.52,1136.81 1039.32,1136.69 1039.11,1136.57 1038.9,1136.45 1038.68,1136.34 1038.46,1136.24 1038.23,1136.13 1038,1136.03 1037.76,1135.93 1037.53,1135.84 1037.28,1135.75 1037.04,1135.66 1036.79,1135.57 1036.53,1135.49 1036.27,1135.42 1036.01,1135.34 1035.75,1135.27 1035.48,1135.21 1035.22,1135.15 1034.94,1135.09 1034.67,1135.03 1034.39,1134.98 1034.11,1134.94 1033.83,1134.89 1033.55,1134.85 1033.27,1134.82 1032.98,1134.79 1032.7,1134.76 1032.41,1134.74 1032.12,1134.72 1031.83,1134.71 1031.54,1134.7 1031.25,1134.69 1030.96,1134.69 1030.68,1134.69 1030.39,1134.7 1030.1,1134.71 1029.81,1134.72 1029.52,1134.74 1029.23,1134.76 1028.95,1134.79 1028.66,1134.82 1028.38,1134.85 1028.1,1134.89 1027.82,1134.94 1027.54,1134.98 1027.26,1135.03 1026.99,1135.09 1026.71,1135.15 1026.45,1135.21 1026.18,1135.27 1025.92,1135.34 1025.66,1135.42 1025.4,1135.49 1025.14,1135.57 1024.89,1135.66 1024.65,1135.75 1024.4,1135.84 1024.16,1135.93 1023.93,1136.03 1023.7,1136.13 1023.47,1136.24 1023.25,1136.34 1023.03,1136.45 1022.82,1136.57 1022.61,1136.69 1022.41,1136.81 1022.21,1136.93 1022.02,1137.05 1021.84,1137.18 1021.65,1137.31 1021.48,1137.45 1021.31,1137.58 1021.15,1137.72 1020.99,1137.86 1020.84,1138 1020.69,1138.15 1020.55,1138.29 1020.42,1138.44 1020.29,1138.59 1020.17,1138.74 1020.05,1138.9 1019.95,1139.05 1019.85,1139.21 1019.75,1139.37 1019.66,1139.53 1019.58,1139.69 1019.51,1139.85 1019.44,1140.01 1019.38,1140.18 1019.33,1140.34 1019.28,1140.51 1019.24,1140.67 1019.21,1140.84 1019.19,1141.01 1019.17,1141.17 1019.16,1141.34 1019.16,1141.51 " />
<polyline fill="none" vector-effect="none" points="1625.53,1056.65 1626.54,1056.06 1627.54,1055.43 1628.55,1054.78 1629.56,1054.1 1630.56,1053.4 1631.56,1052.66 1632.56,1051.91 1633.55,1051.12 1634.54,1050.32 1635.52,1049.48 1636.5,1048.63 1637.47,1047.75 1638.43,1046.84 1639.39,1045.92 1640.33,1044.97 1641.27,1044 1642.2,1043.01 1643.12,1042.01 1644.03,1040.98 1644.93,1039.93 1645.82,1038.86 1646.69,1037.78 1647.56,1036.68 1648.41,1035.56 1649.25,1034.43 1650.07,1033.28 1650.88,1032.11 1651.67,1030.94 1652.45,1029.75 1653.21,1028.54 1653.96,1027.33 1654.69,1026.1 1655.41,1024.87 1656.1,1023.62 1656.78,1022.37 1657.44,1021.11 1658.08,1019.84 1658.7,1018.56 1659.31,1017.28 1659.89,1015.99 1660.45,1014.7 1661,1013.4 1661.52,1012.1 1662.02,1010.8 1662.5,1009.5 1662.96,1008.2 1663.39,1006.9 1663.81,1005.6 1664.2,1004.3 1664.57,1003 1664.91,1001.7 1665.24,1000.41 1665.54,999.128 1665.81,997.848 1666.07,996.574 1666.3,995.306 1666.5,994.047 1666.68,992.796 1666.84,991.554 1666.98,990.322 1667.09,989.101 1667.17,987.891 1667.23,986.693 1667.27,985.507 1667.28,984.335 " />
<polyline fill="none" vector-effect="none" points="1684.92,1491.11 1685.43,1488.76 1685.9,1486.43 1686.33,1484.11 1686.71,1481.81 1687.05,1479.52 1687.34,1477.25 1687.59,1475 1687.79,1472.76 1687.95,1470.55 1688.07,1468.36 1688.13,1466.19 1688.16,1464.05 " />
<polyline fill="none" vector-effect="none" points="1622.97,1535.37 1623.87,1534.32 1624.77,1533.25 1625.65,1532.17 1626.52,1531.06 1627.37,1529.94 1628.22,1528.81 1629.05,1527.66 1629.86,1526.49 1630.66,1525.31 1631.45,1524.12 1632.22,1522.91 1632.97,1521.69 1633.71,1520.46 1634.43,1519.22 1635.13,1517.97 1635.81,1516.71 1636.48,1515.45 1637.12,1514.17 1637.75,1512.89 1638.36,1511.6 1638.95,1510.31 1639.52,1509.01 1640.06,1507.71 1640.59,1506.41 1641.09,1505.1 1641.58,1503.79 1642.04,1502.49 1642.48,1501.18 1642.9,1499.87 1643.29,1498.56 1643.67,1497.26 1644.02,1495.96 1644.34,1494.66 1644.64,1493.37 1644.92,1492.09 1645.18,1490.81 1645.41,1489.53 1645.62,1488.27 1645.8,1487.01 1645.96,1485.76 1646.1,1484.52 1646.21,1483.3 1646.29,1482.08 1646.35,1480.88 1646.39,1479.69 1646.4,1478.51 " />
<polyline fill="none" vector-effect="none" points="1729.91,1333.87 1728.9,1334.44 1727.89,1334.98 1726.89,1335.49 1725.88,1335.97 1724.88,1336.43 1723.88,1336.85 1722.88,1337.24 1721.89,1337.61 1720.9,1337.94 1719.92,1338.24 1718.94,1338.51 1717.97,1338.75 1717.01,1338.96 1716.05,1339.14 1715.1,1339.29 1714.16,1339.4 1713.24,1339.49 1712.31,1339.54 1711.41,1339.56 1710.51,1339.55 1709.62,1339.51 1708.74,1339.44 1707.88,1339.34 1707.03,1339.2 1706.19,1339.03 1705.37,1338.83 1704.56,1338.61 1703.76,1338.35 1702.99,1338.06 1702.22,1337.73 1701.48,1337.38 1700.74,1337 1700.03,1336.59 1699.34,1336.15 1698.66,1335.68 1698,1335.18 1697.36,1334.65 1696.73,1334.09 1696.13,1333.5 1695.55,1332.89 1694.98,1332.25 1694.44,1331.58 1693.92,1330.88 1693.42,1330.16 1692.94,1329.41 1692.48,1328.64 1692.04,1327.84 1691.63,1327.02 1691.24,1326.17 1690.87,1325.3 1690.52,1324.4 1690.2,1323.49 1689.9,1322.55 1689.62,1321.59 1689.37,1320.6 1689.14,1319.6 1688.93,1318.58 1688.75,1317.54 1688.59,1316.48 1688.46,1315.4 1688.35,1314.31 1688.27,1313.2 1688.21,1312.07 1688.17,1310.93 1688.16,1309.77 " />
<polyline fill="none" vector-effect="none" points="1414.2,1414.84 1415.11,1413.79 1416,1412.72 1416.88,1411.64 1417.75,1410.53 1418.61,1409.41 1419.45,1408.28 1420.28,1407.13 1421.1,1405.96 1421.9,1404.78 1422.68,1403.59 1423.45,1402.38 1424.21,1401.16 1424.94,1399.93 1425.66,1398.69 1426.36,1397.44 1427.05,1396.18 1427.71,1394.92 1428.36,1393.64 1428.99,1392.36 1429.59,1391.07 1430.18,1389.78 1430.75,1388.48 1431.3,1387.18 1431.82,1385.88 1432.33,1384.57 1432.81,1383.26 1433.28,1381.96 1433.72,1380.65 1434.13,1379.34 1434.53,1378.03 1434.9,1376.73 1435.25,1375.43 1435.58,1374.13 1435.88,1372.84 1436.16,1371.56 1436.41,1370.28 1436.65,1369 1436.85,1367.74 1437.04,1366.48 1437.2,1365.23 1437.33,1363.99 1437.44,1362.77 1437.53,1361.55 1437.59,1360.35 1437.63,1359.16 1437.64,1357.98 " />
<polyline fill="none" vector-effect="none" points="1705.8,996.93 1706.31,994.588 1706.78,992.257 1707.21,989.939 1707.59,987.635 1707.93,985.346 1708.22,983.074 1708.47,980.82 1708.67,978.586 1708.83,976.373 1708.94,974.182 1709.01,972.014 1709.03,969.871 " />
</g>

<g fill="none" stroke="#000000" stroke-opacity="1" stroke-width="1" stroke-linecap="square" stroke-linejoin="bevel" transform="matrix(1,0,0,1,0,0)"
font-family="Arial" font-size="12" font-weight="400" font-style="normal" 
>
</g>
</g>
</svg>
