
      <svg xmlns="http://www.w3.org/2000/svg" width="1200" height="800" viewBox="0 0 1200 800" style="background: transparent;">
        
        <path d="M 946.79,330.09 L 932.41,346.88 L 927.34,365.03" fill="none" stroke="#ffffff" stroke-width="1.2" stroke-linecap="round" stroke-linejoin="round"  />
<path d="M 927.34,365.03 L 934.65,385.08 L 956.40,400.30 L 990.57,405.55 L 1027.19,396.69 L 1044.08,386.18" fill="none" stroke="#ffffff" stroke-width="1.2" stroke-linecap="round" stroke-linejoin="round"  />
<path d="M 660.91,165.28 L 631.04,180.71 L 592.93,184.11 L 560.80,172.90 L 548.55,159.86 L 544.17,144.13" fill="none" stroke="#ffffff" stroke-width="1.2" stroke-linecap="round" stroke-linejoin="round"  />
<path d="M 544.17,144.13 L 551.28,122.66 L 563.62,109.19" fill="none" stroke="#ffffff" stroke-width="1.2" stroke-linecap="round" stroke-linejoin="round"  />
<path d="M 252.91,410.35 L 253.21,410.23" fill="none" stroke="#ffffff" stroke-width="1.2" stroke-linecap="round" stroke-linejoin="round"  />
<path d="M 155.92,354.14 L 141.52,362.80 L 136.47,374.01" fill="none" stroke="#ffffff" stroke-width="1.2" stroke-linecap="round" stroke-linejoin="round"  />
<path d="M 136.47,374.01 L 143.85,388.85 L 170.13,405.05 L 214.83,414.86 L 252.91,410.35" fill="none" stroke="#ffffff" stroke-width="1.2" stroke-linecap="round" stroke-linejoin="round"  />
<path d="M 636.11,631.23 L 602.92,635.94 L 558.05,627.73 L 526.77,609.48 L 519.64,594.91" fill="none" stroke="#ffffff" stroke-width="1.2" stroke-linecap="round" stroke-linejoin="round"  />
<path d="M 519.64,594.91 L 526.74,581.83 L 539.09,575.04" fill="none" stroke="#ffffff" stroke-width="1.2" stroke-linecap="round" stroke-linejoin="round"  />
<path d="M 636.38,631.13 L 636.11,631.23" fill="none" stroke="#ffffff" stroke-width="1.2" stroke-linecap="round" stroke-linejoin="round"  />
<path d="M 587.99,183.40 L 627.25,181.75" fill="none" stroke="#ffffff" stroke-width="1.2" stroke-linecap="round" stroke-linejoin="round"  />
<path d="M 39.43,472.50 L 579.76,784.00" fill="none" stroke="#ffffff" stroke-width="1.2" stroke-linecap="round" stroke-linejoin="round"  />
<path d="M 579.76,784.00 L 1160.57,435.04" fill="none" stroke="#ffffff" stroke-width="1.2" stroke-linecap="round" stroke-linejoin="round"  />
<path d="M 1010.41,402.65 L 971.16,404.30" fill="none" stroke="#ffffff" stroke-width="1.2" stroke-linecap="round" stroke-linejoin="round"  />
<path d="M 661.21,165.03 L 660.91,165.28" fill="none" stroke="#ffffff" stroke-width="1.2" stroke-linecap="round" stroke-linejoin="round"  />
<path d="M 563.62,109.19 L 595.11,92.55 L 633.74,88.58 L 664.06,99.21 L 676.08,112.66 L 680.36,129.06" fill="none" stroke="#ffffff" stroke-width="1.2" stroke-linecap="round" stroke-linejoin="round"  />
<path d="M 680.36,129.06 L 673.25,151.52 L 661.21,165.03" fill="none" stroke="#ffffff" stroke-width="1.2" stroke-linecap="round" stroke-linejoin="round"  />
<path d="M 620.24,16.00 L 1160.57,327.50" fill="none" stroke="#ffffff" stroke-width="1.2" stroke-linecap="round" stroke-linejoin="round"  />
<path d="M 983.06,473.94 L 1072.55,404.65 L 1160.57,327.50" fill="none" stroke="#ffffff" stroke-width="1.2" stroke-linecap="round" stroke-linejoin="round"  />
<path d="M 620.24,16.00 L 477.25,136.77" fill="none" stroke="#ffffff" stroke-width="1.2" stroke-linecap="round" stroke-linejoin="round"  />
<path d="M 1044.08,386.18 L 1044.34,385.96" fill="none" stroke="#ffffff" stroke-width="1.2" stroke-linecap="round" stroke-linejoin="round"  />
<path d="M 1044.34,385.96 L 1058.49,368.90 L 1063.53,349.96" fill="none" stroke="#ffffff" stroke-width="1.2" stroke-linecap="round" stroke-linejoin="round"  />
<path d="M 1063.53,349.96 L 1056.22,328.87 L 1035.02,313.66 L 1002.53,309.09 L 965.68,318.32 L 946.79,330.09" fill="none" stroke="#ffffff" stroke-width="1.2" stroke-linecap="round" stroke-linejoin="round"  />
<path d="M 539.09,575.04 L 574.60,569.43 L 619.93,576.97 L 648.76,594.42 L 655.83,609.98" fill="none" stroke="#ffffff" stroke-width="1.2" stroke-linecap="round" stroke-linejoin="round"  />
<path d="M 655.83,609.98 L 648.71,624.04 L 636.38,631.13" fill="none" stroke="#ffffff" stroke-width="1.2" stroke-linecap="round" stroke-linejoin="round"  />
<path d="M 216.94,298.09 L 757.27,609.59" fill="none" stroke="#ffffff" stroke-width="1.2" stroke-linecap="round" stroke-linejoin="round"  />
<path d="M 579.76,676.46 L 695.04,637.15 L 757.27,609.59" fill="none" stroke="#ffffff" stroke-width="1.2" stroke-linecap="round" stroke-linejoin="round"  />
<path d="M 39.43,364.96 L 579.76,676.46" fill="none" stroke="#ffffff" stroke-width="1.2" stroke-linecap="round" stroke-linejoin="round"  />
<path d="M 216.94,298.09 L 127.45,336.34 L 39.43,364.96" fill="none" stroke="#ffffff" stroke-width="1.2" stroke-linecap="round" stroke-linejoin="round"  />
<path d="M 253.21,410.23 L 267.52,401.21 L 272.66,389.08" fill="none" stroke="#ffffff" stroke-width="1.2" stroke-linecap="round" stroke-linejoin="round"  />
<path d="M 272.66,389.08 L 265.41,373.31 L 240.46,357.45 L 198.62,348.71 L 155.92,354.14" fill="none" stroke="#ffffff" stroke-width="1.2" stroke-linecap="round" stroke-linejoin="round"  />
<path d="M 39.43,364.96 L 39.43,472.50" fill="none" stroke="#ffffff" stroke-width="1.2" stroke-linecap="round" stroke-linejoin="round"  />
<path d="M 579.76,676.46 L 579.76,784.00" fill="none" stroke="#ffffff" stroke-width="1.2" stroke-linecap="round" stroke-linejoin="round"  />
<path d="M 1160.57,435.04 L 1160.57,327.50" fill="none" stroke="#ffffff" stroke-width="1.2" stroke-linecap="round" stroke-linejoin="round"  />
<path d="M 442.73,116.87 L 983.06,428.37" fill="none" stroke="#ffffff" stroke-width="1.2" stroke-linecap="round" stroke-linejoin="round"  />
<path d="M 983.06,428.37 L 983.06,473.94" fill="none" stroke="#ffffff" stroke-width="1.2" stroke-linecap="round" stroke-linejoin="round"  />
<path d="M 757.27,564.03 L 983.06,428.37" fill="none" stroke="#ffffff" stroke-width="1.2" stroke-linecap="round" stroke-linejoin="round"  />
<path d="M 757.27,564.03 L 757.27,609.59" fill="none" stroke="#ffffff" stroke-width="1.2" stroke-linecap="round" stroke-linejoin="round"  />
<path d="M 216.94,252.53 L 442.73,116.87" fill="none" stroke="#ffffff" stroke-width="1.2" stroke-linecap="round" stroke-linejoin="round"  />
<path d="M 216.94,252.53 L 757.27,564.03" fill="none" stroke="#ffffff" stroke-width="1.2" stroke-linecap="round" stroke-linejoin="round"  />
<path d="M 216.94,252.53 L 216.94,298.09" fill="none" stroke="#ffffff" stroke-width="1.2" stroke-linecap="round" stroke-linejoin="round"  />
        
      </svg>
    