
      <svg xmlns="http://www.w3.org/2000/svg" width="1200" height="800" viewBox="0 0 1200 800" style="background: #ffffff;">
        
        <path d="M 912.59,63.22 L 921.79,53.93" fill="none" stroke="#2a2a2a" stroke-width="1.2" stroke-linecap="round" stroke-linejoin="round"  />
<path d="M 921.79,53.93 L 915.34,45.72 L 897.73,44.64" fill="none" stroke="#2a2a2a" stroke-width="1.2" stroke-linecap="round" stroke-linejoin="round"  />
<path d="M 302.27,574.98 L 311.48,565.69" fill="none" stroke="#2a2a2a" stroke-width="1.2" stroke-linecap="round" stroke-linejoin="round"  />
<path d="M 311.48,565.69 L 305.03,557.48 L 287.41,556.40" fill="none" stroke="#2a2a2a" stroke-width="1.2" stroke-linecap="round" stroke-linejoin="round"  />
<path d="M 96.35,317.61 L 105.55,308.32" fill="none" stroke="#2a2a2a" stroke-width="1.2" stroke-linecap="round" stroke-linejoin="round"  />
<path d="M 105.55,308.32 L 99.10,300.12 L 81.48,299.04" fill="none" stroke="#2a2a2a" stroke-width="1.2" stroke-linecap="round" stroke-linejoin="round"  />
<path d="M 1118.52,320.58 L 1127.72,311.29" fill="none" stroke="#2a2a2a" stroke-width="1.2" stroke-linecap="round" stroke-linejoin="round"  />
<path d="M 1127.72,311.29 L 1121.27,303.09 L 1103.65,302.01" fill="none" stroke="#2a2a2a" stroke-width="1.2" stroke-linecap="round" stroke-linejoin="round"  />
<path d="M 897.73,44.64 L 888.52,53.93" fill="none" stroke="#2a2a2a" stroke-width="1.2" stroke-linecap="round" stroke-linejoin="round"  />
<path d="M 888.52,53.93 L 894.97,62.14 L 912.59,63.22" fill="none" stroke="#2a2a2a" stroke-width="1.2" stroke-linecap="round" stroke-linejoin="round"  />
<path d="M 287.41,556.40 L 278.21,565.69" fill="none" stroke="#2a2a2a" stroke-width="1.2" stroke-linecap="round" stroke-linejoin="round"  />
<path d="M 278.21,565.69 L 284.66,573.90 L 302.27,574.98" fill="none" stroke="#2a2a2a" stroke-width="1.2" stroke-linecap="round" stroke-linejoin="round"  />
<path d="M 81.48,299.04 L 72.28,308.32" fill="none" stroke="#2a2a2a" stroke-width="1.2" stroke-linecap="round" stroke-linejoin="round"  />
<path d="M 72.28,308.32 L 78.73,316.53 L 96.35,317.61" fill="none" stroke="#2a2a2a" stroke-width="1.2" stroke-linecap="round" stroke-linejoin="round"  />
<path d="M 1103.65,302.01 L 1094.45,311.29" fill="none" stroke="#2a2a2a" stroke-width="1.2" stroke-linecap="round" stroke-linejoin="round"  />
<path d="M 1094.45,311.29 L 1100.90,319.50 L 1118.52,320.58" fill="none" stroke="#2a2a2a" stroke-width="1.2" stroke-linecap="round" stroke-linejoin="round"  />
<path d="M 404.58,198.34 L 268.54,240.74" fill="none" stroke="#2a2a2a" stroke-width="1.2" stroke-linecap="round" stroke-linejoin="round"  />
<path d="M 404.58,198.34 L 389.29,179.24" fill="none" stroke="#2a2a2a" stroke-width="1.2" stroke-linecap="round" stroke-linejoin="round"  />
<path d="M 35.59,289.47 L 389.29,179.24" fill="none" stroke="#2a2a2a" stroke-width="1.2" stroke-linecap="round" stroke-linejoin="round"  />
<path d="M 286.95,603.62 L 35.59,289.47" fill="none" stroke="#2a2a2a" stroke-width="1.2" stroke-linecap="round" stroke-linejoin="round"  />
<path d="M 286.95,603.62 L 1164.41,330.14" fill="none" stroke="#2a2a2a" stroke-width="1.2" stroke-linecap="round" stroke-linejoin="round"  />
<path d="M 1164.41,330.14 L 913.05,16.00" fill="none" stroke="#2a2a2a" stroke-width="1.2" stroke-linecap="round" stroke-linejoin="round"  />
<path d="M 559.34,126.24 L 913.05,16.00" fill="none" stroke="#2a2a2a" stroke-width="1.2" stroke-linecap="round" stroke-linejoin="round"  />
<path d="M 574.63,145.34 L 559.34,126.24" fill="none" stroke="#2a2a2a" stroke-width="1.2" stroke-linecap="round" stroke-linejoin="round"  />
<path d="M 710.67,102.94 L 574.63,145.34" fill="none" stroke="#2a2a2a" stroke-width="1.2" stroke-linecap="round" stroke-linejoin="round"  />
<path d="M 710.67,102.94 L 931.46,378.88" fill="none" stroke="#2a2a2a" stroke-width="1.2" stroke-linecap="round" stroke-linejoin="round"  />
<path d="M 931.46,378.88 L 489.33,516.68" fill="none" stroke="#2a2a2a" stroke-width="1.2" stroke-linecap="round" stroke-linejoin="round"  />
<path d="M 268.54,240.74 L 489.33,516.68" fill="none" stroke="#2a2a2a" stroke-width="1.2" stroke-linecap="round" stroke-linejoin="round"  />
<path d="M 404.58,410.76 L 404.58,198.34" fill="none" stroke="#2a2a2a" stroke-width="1.2" stroke-linecap="round" stroke-linejoin="round"  />
<path d="M 559.34,363.86 L 559.34,126.24" fill="none" stroke="#2a2a2a" stroke-width="1.2" stroke-linecap="round" stroke-linejoin="round"  />
<path d="M 710.56,447.73 L 710.67,310.86" fill="none" stroke="#2a2a2a" stroke-width="1.2" stroke-linecap="round" stroke-linejoin="round"  />
<path d="M 710.67,310.86 L 798.30,420.38" fill="none" stroke="#2a2a2a" stroke-width="1.2" stroke-linecap="round" stroke-linejoin="round"  />
<path d="M 710.65,340.57 L 574.63,382.96" fill="none" stroke="#2a2a2a" stroke-width="1.2" stroke-linecap="round" stroke-linejoin="round"  />
<path d="M 574.63,382.96 L 559.34,363.86" fill="none" stroke="#2a2a2a" stroke-width="1.2" stroke-linecap="round" stroke-linejoin="round"  />
<path d="M 470.61,784.00 L 980.76,625.00" fill="none" stroke="#2a2a2a" stroke-width="1.2" stroke-linecap="round" stroke-linejoin="round"  />
<path d="M 470.61,784.00 L 356.47,641.36" fill="none" stroke="#2a2a2a" stroke-width="1.2" stroke-linecap="round" stroke-linejoin="round"  />
<path d="M 286.95,663.02 L 470.61,605.79" fill="none" stroke="#2a2a2a" stroke-width="1.2" stroke-linecap="round" stroke-linejoin="round"  />
<path d="M 286.95,663.02 L 35.59,348.88" fill="none" stroke="#2a2a2a" stroke-width="1.2" stroke-linecap="round" stroke-linejoin="round"  />
<path d="M 574.63,382.96 L 574.63,145.34" fill="none" stroke="#2a2a2a" stroke-width="1.2" stroke-linecap="round" stroke-linejoin="round"  />
<path d="M 710.67,102.94 L 710.67,310.86" fill="none" stroke="#2a2a2a" stroke-width="1.2" stroke-linecap="round" stroke-linejoin="round"  />
<path d="M 35.59,289.47 L 35.59,348.88" fill="none" stroke="#2a2a2a" stroke-width="1.2" stroke-linecap="round" stroke-linejoin="round"  />
<path d="M 286.95,603.62 L 286.95,663.02" fill="none" stroke="#2a2a2a" stroke-width="1.2" stroke-linecap="round" stroke-linejoin="round"  />
<path d="M 470.61,784.00 L 470.61,605.79" fill="none" stroke="#2a2a2a" stroke-width="1.2" stroke-linecap="round" stroke-linejoin="round"  />
<path d="M 980.76,625.00 L 980.76,446.79" fill="none" stroke="#2a2a2a" stroke-width="1.2" stroke-linecap="round" stroke-linejoin="round"  />
<path d="M 980.76,446.79 L 1164.41,389.55" fill="none" stroke="#2a2a2a" stroke-width="1.2" stroke-linecap="round" stroke-linejoin="round"  />
<path d="M 1164.41,330.14 L 1164.41,389.55" fill="none" stroke="#2a2a2a" stroke-width="1.2" stroke-linecap="round" stroke-linejoin="round"  />
        
      </svg>
    