<?xml version="1.0" encoding="UTF-8" standalone="no"?>
<svg
   xmlns:svg="http://www.w3.org/2000/svg"
   xmlns="http://www.w3.org/2000/svg"
   width="800.0"
   height="600.0"

>
    <g transform="scale(22.22222222222222, -22.22222222222222)   translate(14.4,-8.9)" stroke-width="1.0"  fill="none">
       <!-- hidden lines -->
       <g  stroke="#8b949e" fill="none" stroke-dasharray="1.0,1.0" >
			<path d="M-8.0,-8.0 L5.5,-8.0 " />
			<path d="M-8.0,-4.0 L-8.0,-8.0 " />
			<path d="M5.5,-8.0 L8.0,-5.5 " />
			<path d="M8.0,-5.5 L8.0,-4.0 " />
			<path d="M8.0,-4.0 L13.5,-4.0 " />
			<path d="M13.5,-4.0 L13.5,4.0 " />
			<path d="M13.5,4.0 L8.0,4.0 " />
			<path d="M8.0,4.0 L8.0,8.0 " />
			<path d="M8.0,8.0 L-8.0,8.0 " />
			<path d="M-8.0,8.0 L-8.0,4.0 " />
			<path d="M-8.0,4.0 L-13.5,4.0 " />
			<path d="M-13.5,4.0 L-13.5,-4.0 " />
			<path d="M-13.5,-4.0 L-8.0,-4.0 " />
			<path d="M-12.35,0.0 L-12.346014440241222,0.11286233446769754 L-12.334077616823127,0.22516239446222486 L-12.314248998399544,0.33634070673355376 L-12.286627370150047,0.4458433865223874 L-12.251350341637167,0.5531248969861701 L-12.208593661242467,0.657650767036195 L-12.158570340596945,0.7589002540456837 L-12.101529593367811,0.8563689381633589 L-12.037755593688521,0.94957123530777 L-11.967566060417548,1.0380428163227617 L-11.891310674279008,1.1213429202419727 L-11.809369335770882,1.1990565501378 L-11.722150272519839,1.2707965406152173 L-11.630088005511746,1.3362054866502966 L-11.533641184329966,1.3949575241640617 L-11.433290302186203,1.4467599534609359 L-11.329535302127493,1.4913546974439031 L-11.222893086345096,1.5285195873416246 L-11.11389494099377,1.5580694695420805 L-11.003083889350886,1.5798571280185523 L-10.891011986501764,1.5937740177524624 L-10.778237569029006,1.5997508054991978 L-10.66532247340774,1.5977577152028455 L-10.552829236964547,1.5878046763390066 L-10.441318295344805,1.5699412744466477 L-10.331345190450497,1.54425650409544 L-10.223457802758386,1.5108783255192897 L-10.118193621807055,1.4699730271248903 L-10.016077068451056,1.4217443970512438 L-9.917616882222589,1.3664327079074026 L-9.823303586816747,1.3043135197464197 L-9.733607046327139,1.2356963072390226 L-9.64897412440661,1.1609229178863723 L-9.569826458015005,1.0803658689530085 L-9.496558356845036,0.9944264916045745 L-9.429534838891236,0.9035329314961381 L-9.369089811948665,0.8081380157720747 L-9.315524410101073,0.7087169971040115 L-9.269105493486045,0.6057651860059238 L-9.230064318811214,0.4997954832220686 L-9.198595387244978,0.3913358244812776 L-9.174855475421467,0.2809265503477106 L-9.158962854387228,0.1691177142713459 L-9.150996700380835,0.056466342249360736 L-9.150996700380835,-0.05646634224936745 L-9.15896285438723,-0.16911771427135258 L-9.174855475421467,-0.2809265503477172 L-9.19859538724498,-0.3913358244812841 L-9.230064318811216,-0.499795483222075 L-9.269105493486048,-0.60576518600593 L-9.315524410101077,-0.7087169971040175 L-9.369089811948669,-0.8081380157720806 L-9.42953483889124,-0.9035329314961436 L-9.49655835684504,-0.9944264916045799 L-9.569826458015008,-1.0803658689530136 L-9.648974124406614,-1.160922917886377 L-9.733607046327142,-1.2356963072390261 L-9.823303586816753,-1.304313519746423 L-9.917616882222594,-1.366432707907406 L-10.016077068451061,-1.4217443970512464 L-10.11819362180706,-1.469973027124893 L-10.223457802758391,-1.5108783255192917 L-10.331345190450502,-1.5442565040954415 L-10.441318295344812,-1.569941274446649 L-10.552829236964554,-1.5878046763390075 L-10.665322473407748,-1.597757715202846 L-10.778237569029015,-1.5997508054991978 L-10.891011986501772,-1.5937740177524617 L-11.003083889350895,-1.579857128018551 L-11.113894940993779,-1.5580694695420785 L-11.222893086345104,-1.528519587341622 L-11.329535302127502,-1.4913546974438996 L-11.433290302186212,-1.4467599534609314 L-11.533641184329975,-1.3949575241640566 L-11.630088005511755,-1.3362054866502908 L-11.722150272519848,-1.2707965406152104 L-11.809369335770889,-1.1990565501377926 L-11.891310674279017,-1.1213429202419642 L-11.967566060417557,-1.0380428163227522 L-12.037755593688528,-0.9495712353077599 L-12.101529593367818,-0.8563689381633479 L-12.158570340596953,-0.758900254045672 L-12.208593661242473,-0.6576507670361826 L-12.251350341637172,-0.5531248969861572 L-12.28662737015005,-0.44584338652237393 L-12.314248998399545,-0.3363407067335397 L-12.33407761682313,-0.2251623944622103 L-12.346014440241223,-0.11286233446768262 L-12.35,1.5240053210995052e-14 " />
			<path d="M-1.75,0.0 L-1.7539924243098763,0.11814205700213928 L-1.765951480723082,0.2357450588952567 L-1.7858226028081345,0.3522724101551551 L-1.8135151231926034,0.4671924232047654 L-1.8489026872575345,0.5799807443826126 L-1.8918238296645964,0.6901227464483075 L-1.9420827110853849,0.7971158767086096 L-1.9994500117713607,0.9004719500501005 L-2.0636639778872663,0.9997193764158867 L-2.1344316158338392,1.0944053125628646 L-2.2114300291104048,1.1840977282815757 L-2.2943078916175486,1.2683873776509602 L-2.3826870506775295,1.3468896663336316 L-2.476164252458212,1.4192464063916272 L-2.574312981927816,1.4851274506158145 L-2.676685408945178,1.5442321989118837 L-2.782814431605972,1.5962909698696335 L-2.8922158075215645,1.6410662312573907 L-3.004390363305968,1.6783536838271038 L-3.1188262721895095,1.7079831934849516 L-3.23500138936699,1.729819567574195 L-3.352385634424671,1.7437631717282578 L-3.4704434099756196,1.7497503844794922 L-3.588636045467746,1.7477538875493426 L-3.7064242550139794,1.737782790495384 L-3.82327059803008,1.7198825891465017 L-3.93864193145276,1.6941349580158578 L-4.052011842349195,1.6606573776388212 L-4.162863049818506,1.61960259853623 L-4.270689765225859,1.5711579442487986 L-4.374999999999999,1.5155444566227683 L-4.475317810464263,1.453015887246659 L-4.57118546945841,1.3838575396409731 L-4.662165554842668,1.308384967483666 L-4.747842945354636,1.2269425348110925 L-4.827826714712384,1.139901844763889 L-4.901751915321423,1.047660044047076 L-4.9692812434468685,0.9506380108407324 L-5.030106578253019,0.8492784344293911 L-5.083950387688063,0.7440437953123704 L-5.13056699479917,0.6354142550113293 L-5.169743698700086,0.523885465203375 L-5.201301745076484,0.4099663061761421 L-5.225097141800907,0.29417656492375743 L-5.241021315935817,0.17704456347800418 L-5.249001609127006,0.0591047482960669 L-5.249001609127006,-0.0591047482960719 L-5.241021315935816,-0.17704456347800918 L-5.225097141800906,-0.2941765649237624 L-5.201301745076483,-0.40996630617614704 L-5.169743698700085,-0.5238854652033799 L-5.130566994799168,-0.635414255011334 L-5.08395038768806,-0.7440437953123749 L-5.030106578253017,-0.8492784344293955 L-4.969281243446866,-0.9506380108407366 L-4.90175191532142,-1.0476600440470802 L-4.827826714712381,-1.1399018447638927 L-4.747842945354632,-1.2269425348110958 L-4.662165554842664,-1.3083849674836694 L-4.571185469458406,-1.3838575396409756 L-4.47531781046426,-1.453015887246661 L-4.3749999999999964,-1.5155444566227696 L-4.270689765225857,-1.5711579442487993 L-4.1628630498185055,-1.6196025985362303 L-4.052011842349195,-1.6606573776388214 L-3.9386419314527594,-1.6941349580158578 L-3.82327059803008,-1.7198825891465017 L-3.70642425501398,-1.737782790495384 L-3.588636045467747,-1.7477538875493424 L-3.470443409975621,-1.7497503844794922 L-3.3523856344246723,-1.7437631717282578 L-3.2350013893669924,-1.7298195675741952 L-3.1188262721895117,-1.7079831934849523 L-3.0043903633059705,-1.6783536838271045 L-2.892215807521567,-1.6410662312573918 L-2.782814431605975,-1.596290969869635 L-2.6766854089451817,-1.5442321989118852 L-2.57431298192782,-1.4851274506158165 L-2.476164252458216,-1.4192464063916301 L-2.3826870506775335,-1.3468896663336352 L-2.294307891617553,-1.2683873776509644 L-2.211430029110409,-1.1840977282815806 L-2.1344316158338437,-1.0944053125628703 L-2.0636639778872707,-0.9997193764158931 L-1.999450011771365,-0.9004719500501077 L-1.9420827110853889,-0.7971158767086176 L-1.8918238296646002,-0.6901227464483164 L-1.848902687257538,-0.5799807443826223 L-1.8135151231926065,-0.4671924232047757 L-1.785822602808137,-0.35227241015516614 L-1.7659514807230836,-0.23574505889526842 L-1.753992424309877,-0.11814205700215158 L-1.75,-1.2863124255503326e-14 " />
			<path d="M5.25,0.0 L5.246007575690124,0.11814205700213928 L5.234048519276918,0.2357450588952567 L5.2141773971918655,0.3522724101551551 L5.186484876807397,0.4671924232047654 L5.151097312742466,0.5799807443826126 L5.108176170335404,0.6901227464483075 L5.057917288914615,0.7971158767086096 L5.00054998822864,0.9004719500501005 L4.936336022112734,0.9997193764158867 L4.865568384166161,1.0944053125628646 L4.788569970889595,1.1840977282815757 L4.705692108382451,1.2683873776509602 L4.6173129493224705,1.3468896663336316 L4.5238357475417885,1.4192464063916272 L4.425687018072184,1.4851274506158145 L4.323314591054822,1.5442321989118837 L4.217185568394028,1.5962909698696335 L4.1077841924784355,1.6410662312573907 L3.995609636694032,1.6783536838271038 L3.8811737278104905,1.7079831934849516 L3.76499861063301,1.729819567574195 L3.647614365575329,1.7437631717282578 L3.5295565900243804,1.7497503844794922 L3.411363954532254,1.7477538875493426 L3.2935757449860206,1.737782790495384 L3.17672940196992,1.7198825891465017 L3.06135806854724,1.6941349580158578 L2.9479881576508045,1.6606573776388212 L2.8371369501814936,1.61960259853623 L2.7293102347741414,1.5711579442487986 L2.625000000000001,1.5155444566227683 L2.5246821895357368,1.453015887246659 L2.4288145305415902,1.3838575396409731 L2.3378344451573323,1.308384967483666 L2.2521570546453646,1.2269425348110925 L2.1721732852876157,1.139901844763889 L2.098248084678577,1.047660044047076 L2.0307187565531315,0.9506380108407324 L1.969893421746981,0.8492784344293911 L1.9160496123119375,0.7440437953123704 L1.8694330052008297,0.6354142550113293 L1.8302563012999142,0.523885465203375 L1.798698254923516,0.4099663061761421 L1.774902858199093,0.29417656492375743 L1.7589786840641832,0.17704456347800418 L1.7509983908729934,0.0591047482960669 L1.7509983908729936,-0.0591047482960719 L1.758978684064184,-0.17704456347800918 L1.774902858199094,-0.2941765649237624 L1.798698254923517,-0.40996630617614704 L1.8302563012999156,-0.5238854652033799 L1.8694330052008317,-0.635414255011334 L1.9160496123119397,-0.7440437953123749 L1.9698934217469832,-0.8492784344293955 L2.030718756553134,-0.9506380108407366 L2.0982480846785796,-1.0476600440470802 L2.172173285287619,-1.1399018447638927 L2.252157054645368,-1.2269425348110958 L2.337834445157336,-1.3083849674836694 L2.428814530541594,-1.3838575396409756 L2.52468218953574,-1.453015887246661 L2.6250000000000036,-1.5155444566227696 L2.729310234774143,-1.5711579442487993 L2.8371369501814945,-1.6196025985362303 L2.947988157650805,-1.6606573776388214 L3.0613580685472406,-1.6941349580158578 L3.17672940196992,-1.7198825891465017 L3.29357574498602,-1.737782790495384 L3.411363954532253,-1.7477538875493424 L3.529556590024379,-1.7497503844794922 L3.6476143655753277,-1.7437631717282578 L3.7649986106330076,-1.7298195675741952 L3.8811737278104883,-1.7079831934849523 L3.9956096366940295,-1.6783536838271045 L4.107784192478433,-1.6410662312573918 L4.217185568394025,-1.596290969869635 L4.323314591054818,-1.5442321989118852 L4.42568701807218,-1.4851274506158165 L4.523835747541784,-1.4192464063916301 L4.617312949322466,-1.3468896663336352 L4.705692108382447,-1.2683873776509644 L4.788569970889591,-1.1840977282815806 L4.865568384166156,-1.0944053125628703 L4.936336022112729,-0.9997193764158931 L5.000549988228635,-0.9004719500501077 L5.057917288914611,-0.7971158767086176 L5.108176170335399,-0.6901227464483164 L5.151097312742462,-0.5799807443826223 L5.186484876807393,-0.4671924232047757 L5.214177397191863,-0.35227241015516614 L5.234048519276916,-0.23574505889526842 L5.246007575690123,-0.11814205700215158 L5.25,-1.2863124255503326e-14 " />
			<path d="M9.15,0.0 L9.153985559758778,0.11286233446769754 L9.165922383176873,0.22516239446222486 L9.185751001600456,0.33634070673355376 L9.213372629849953,0.4458433865223874 L9.248649658362833,0.5531248969861701 L9.291406338757533,0.657650767036195 L9.341429659403055,0.7589002540456837 L9.398470406632189,0.8563689381633589 L9.462244406311479,0.94957123530777 L9.532433939582452,1.0380428163227617 L9.608689325720992,1.1213429202419727 L9.690630664229118,1.1990565501378 L9.777849727480161,1.2707965406152173 L9.869911994488254,1.3362054866502966 L9.966358815670034,1.3949575241640617 L10.066709697813797,1.4467599534609359 L10.170464697872507,1.4913546974439031 L10.277106913654904,1.5285195873416246 L10.38610505900623,1.5580694695420805 L10.496916110649114,1.5798571280185523 L10.608988013498236,1.5937740177524624 L10.721762430970994,1.5997508054991978 L10.83467752659226,1.5977577152028455 L10.947170763035453,1.5878046763390066 L11.058681704655195,1.5699412744466477 L11.168654809549503,1.54425650409544 L11.276542197241614,1.5108783255192897 L11.381806378192945,1.4699730271248903 L11.483922931548944,1.4217443970512438 L11.582383117777411,1.3664327079074026 L11.676696413183253,1.3043135197464197 L11.766392953672861,1.2356963072390226 L11.85102587559339,1.1609229178863723 L11.930173541984995,1.0803658689530085 L12.003441643154964,0.9944264916045745 L12.070465161108764,0.9035329314961381 L12.130910188051335,0.8081380157720747 L12.184475589898927,0.7087169971040115 L12.230894506513955,0.6057651860059238 L12.269935681188786,0.4997954832220686 L12.301404612755022,0.3913358244812776 L12.325144524578533,0.2809265503477106 L12.341037145612772,0.1691177142713459 L12.349003299619165,0.056466342249360736 L12.349003299619165,-0.05646634224936745 L12.34103714561277,-0.16911771427135258 L12.325144524578533,-0.2809265503477172 L12.30140461275502,-0.3913358244812841 L12.269935681188784,-0.499795483222075 L12.230894506513952,-0.60576518600593 L12.184475589898923,-0.7087169971040175 L12.130910188051331,-0.8081380157720806 L12.07046516110876,-0.9035329314961436 L12.00344164315496,-0.9944264916045799 L11.930173541984992,-1.0803658689530136 L11.851025875593386,-1.160922917886377 L11.766392953672858,-1.2356963072390261 L11.676696413183247,-1.304313519746423 L11.582383117777406,-1.366432707907406 L11.483922931548939,-1.4217443970512464 L11.38180637819294,-1.469973027124893 L11.276542197241609,-1.5108783255192917 L11.168654809549498,-1.5442565040954415 L11.058681704655188,-1.569941274446649 L10.947170763035446,-1.5878046763390075 L10.834677526592252,-1.597757715202846 L10.721762430970985,-1.5997508054991978 L10.608988013498228,-1.5937740177524617 L10.496916110649105,-1.579857128018551 L10.386105059006221,-1.5580694695420785 L10.277106913654896,-1.528519587341622 L10.170464697872498,-1.4913546974438996 L10.066709697813788,-1.4467599534609314 L9.966358815670025,-1.3949575241640566 L9.869911994488245,-1.3362054866502908 L9.777849727480152,-1.2707965406152104 L9.690630664229111,-1.1990565501377926 L9.608689325720983,-1.1213429202419642 L9.532433939582443,-1.0380428163227522 L9.462244406311472,-0.9495712353077599 L9.398470406632182,-0.8563689381633479 L9.341429659403047,-0.758900254045672 L9.291406338757527,-0.6576507670361826 L9.248649658362828,-0.5531248969861572 L9.21337262984995,-0.44584338652237393 L9.185751001600455,-0.3363407067335397 L9.16592238317687,-0.2251623944622103 L9.153985559758777,-0.11286233446768262 L9.15,1.5240053210995052e-14 " />
			<path d="M-1.75,0.0 L-1.7539924243098763,0.11814205700213928 L-1.765951480723082,0.2357450588952567 L-1.7858226028081345,0.3522724101551551 L-1.8135151231926034,0.4671924232047654 L-1.8489026872575345,0.5799807443826126 L-1.8918238296645964,0.6901227464483075 L-1.9420827110853849,0.7971158767086096 L-1.9994500117713607,0.9004719500501005 L-2.0636639778872663,0.9997193764158867 L-2.1344316158338392,1.0944053125628646 L-2.2114300291104048,1.1840977282815757 L-2.2943078916175486,1.2683873776509602 L-2.3826870506775295,1.3468896663336316 L-2.476164252458212,1.4192464063916272 L-2.574312981927816,1.4851274506158145 L-2.676685408945178,1.5442321989118837 L-2.782814431605972,1.5962909698696335 L-2.8922158075215645,1.6410662312573907 L-3.004390363305968,1.6783536838271038 L-3.1188262721895095,1.7079831934849516 L-3.23500138936699,1.729819567574195 L-3.352385634424671,1.7437631717282578 L-3.4704434099756196,1.7497503844794922 L-3.588636045467746,1.7477538875493426 L-3.7064242550139794,1.737782790495384 L-3.82327059803008,1.7198825891465017 L-3.93864193145276,1.6941349580158578 L-4.052011842349195,1.6606573776388212 L-4.162863049818506,1.61960259853623 L-4.270689765225859,1.5711579442487986 L-4.374999999999999,1.5155444566227683 L-4.475317810464263,1.453015887246659 L-4.57118546945841,1.3838575396409731 L-4.662165554842668,1.308384967483666 L-4.747842945354636,1.2269425348110925 L-4.827826714712384,1.139901844763889 L-4.901751915321423,1.047660044047076 L-4.9692812434468685,0.9506380108407324 L-5.030106578253019,0.8492784344293911 L-5.083950387688063,0.7440437953123704 L-5.13056699479917,0.6354142550113293 L-5.169743698700086,0.523885465203375 L-5.201301745076484,0.4099663061761421 L-5.225097141800907,0.29417656492375743 L-5.241021315935817,0.17704456347800418 L-5.249001609127006,0.0591047482960669 L-5.249001609127006,-0.0591047482960719 L-5.241021315935816,-0.17704456347800918 L-5.225097141800906,-0.2941765649237624 L-5.201301745076483,-0.40996630617614704 L-5.169743698700085,-0.5238854652033799 L-5.130566994799168,-0.635414255011334 L-5.08395038768806,-0.7440437953123749 L-5.030106578253017,-0.8492784344293955 L-4.969281243446866,-0.9506380108407366 L-4.90175191532142,-1.0476600440470802 L-4.827826714712381,-1.1399018447638927 L-4.747842945354632,-1.2269425348110958 L-4.662165554842664,-1.3083849674836694 L-4.571185469458406,-1.3838575396409756 L-4.47531781046426,-1.453015887246661 L-4.3749999999999964,-1.5155444566227696 L-4.270689765225857,-1.5711579442487993 L-4.1628630498185055,-1.6196025985362303 L-4.052011842349195,-1.6606573776388214 L-3.9386419314527594,-1.6941349580158578 L-3.82327059803008,-1.7198825891465017 L-3.70642425501398,-1.737782790495384 L-3.588636045467747,-1.7477538875493424 L-3.470443409975621,-1.7497503844794922 L-3.3523856344246723,-1.7437631717282578 L-3.2350013893669924,-1.7298195675741952 L-3.1188262721895117,-1.7079831934849523 L-3.0043903633059705,-1.6783536838271045 L-2.892215807521567,-1.6410662312573918 L-2.782814431605975,-1.596290969869635 L-2.6766854089451817,-1.5442321989118852 L-2.57431298192782,-1.4851274506158165 L-2.476164252458216,-1.4192464063916301 L-2.3826870506775335,-1.3468896663336352 L-2.294307891617553,-1.2683873776509644 L-2.211430029110409,-1.1840977282815806 L-2.1344316158338437,-1.0944053125628703 L-2.0636639778872707,-0.9997193764158931 L-1.999450011771365,-0.9004719500501077 L-1.9420827110853889,-0.7971158767086176 L-1.8918238296646002,-0.6901227464483164 L-1.848902687257538,-0.5799807443826223 L-1.8135151231926065,-0.4671924232047757 L-1.785822602808137,-0.35227241015516614 L-1.7659514807230836,-0.23574505889526842 L-1.753992424309877,-0.11814205700215158 L-1.75,-1.2863124255503326e-14 " />
			<path d="M5.25,0.0 L5.246007575690124,0.11814205700213928 L5.234048519276918,0.2357450588952567 L5.2141773971918655,0.3522724101551551 L5.186484876807397,0.4671924232047654 L5.151097312742466,0.5799807443826126 L5.108176170335404,0.6901227464483075 L5.057917288914615,0.7971158767086096 L5.00054998822864,0.9004719500501005 L4.936336022112734,0.9997193764158867 L4.865568384166161,1.0944053125628646 L4.788569970889595,1.1840977282815757 L4.705692108382451,1.2683873776509602 L4.6173129493224705,1.3468896663336316 L4.5238357475417885,1.4192464063916272 L4.425687018072184,1.4851274506158145 L4.323314591054822,1.5442321989118837 L4.217185568394028,1.5962909698696335 L4.1077841924784355,1.6410662312573907 L3.995609636694032,1.6783536838271038 L3.8811737278104905,1.7079831934849516 L3.76499861063301,1.729819567574195 L3.647614365575329,1.7437631717282578 L3.5295565900243804,1.7497503844794922 L3.411363954532254,1.7477538875493426 L3.2935757449860206,1.737782790495384 L3.17672940196992,1.7198825891465017 L3.06135806854724,1.6941349580158578 L2.9479881576508045,1.6606573776388212 L2.8371369501814936,1.61960259853623 L2.7293102347741414,1.5711579442487986 L2.625000000000001,1.5155444566227683 L2.5246821895357368,1.453015887246659 L2.4288145305415902,1.3838575396409731 L2.3378344451573323,1.308384967483666 L2.2521570546453646,1.2269425348110925 L2.1721732852876157,1.139901844763889 L2.098248084678577,1.047660044047076 L2.0307187565531315,0.9506380108407324 L1.969893421746981,0.8492784344293911 L1.9160496123119375,0.7440437953123704 L1.8694330052008297,0.6354142550113293 L1.8302563012999142,0.523885465203375 L1.798698254923516,0.4099663061761421 L1.774902858199093,0.29417656492375743 L1.7589786840641832,0.17704456347800418 L1.7509983908729934,0.0591047482960669 L1.7509983908729936,-0.0591047482960719 L1.758978684064184,-0.17704456347800918 L1.774902858199094,-0.2941765649237624 L1.798698254923517,-0.40996630617614704 L1.8302563012999156,-0.5238854652033799 L1.8694330052008317,-0.635414255011334 L1.9160496123119397,-0.7440437953123749 L1.9698934217469832,-0.8492784344293955 L2.030718756553134,-0.9506380108407366 L2.0982480846785796,-1.0476600440470802 L2.172173285287619,-1.1399018447638927 L2.252157054645368,-1.2269425348110958 L2.337834445157336,-1.3083849674836694 L2.428814530541594,-1.3838575396409756 L2.52468218953574,-1.453015887246661 L2.6250000000000036,-1.5155444566227696 L2.729310234774143,-1.5711579442487993 L2.8371369501814945,-1.6196025985362303 L2.947988157650805,-1.6606573776388214 L3.0613580685472406,-1.6941349580158578 L3.17672940196992,-1.7198825891465017 L3.29357574498602,-1.737782790495384 L3.411363954532253,-1.7477538875493424 L3.529556590024379,-1.7497503844794922 L3.6476143655753277,-1.7437631717282578 L3.7649986106330076,-1.7298195675741952 L3.8811737278104883,-1.7079831934849523 L3.9956096366940295,-1.6783536838271045 L4.107784192478433,-1.6410662312573918 L4.217185568394025,-1.596290969869635 L4.323314591054818,-1.5442321989118852 L4.42568701807218,-1.4851274506158165 L4.523835747541784,-1.4192464063916301 L4.617312949322466,-1.3468896663336352 L4.705692108382447,-1.2683873776509644 L4.788569970889591,-1.1840977282815806 L4.865568384166156,-1.0944053125628703 L4.936336022112729,-0.9997193764158931 L5.000549988228635,-0.9004719500501077 L5.057917288914611,-0.7971158767086176 L5.108176170335399,-0.6901227464483164 L5.151097312742462,-0.5799807443826223 L5.186484876807393,-0.4671924232047757 L5.214177397191863,-0.35227241015516614 L5.234048519276916,-0.23574505889526842 L5.246007575690123,-0.11814205700215158 L5.25,-1.2863124255503326e-14 " />

       </g>

       <!-- solid lines -->
       <g  stroke="#f0f6fc" fill="none">
			<path d="M-8.0,-8.0 L5.5,-8.0 " />
			<path d="M-8.0,-4.0 L-8.0,-8.0 " />
			<path d="M5.5,-8.0 L8.0,-5.5 " />
			<path d="M8.0,-5.5 L8.0,-4.0 " />
			<path d="M8.0,-4.0 L13.5,-4.0 " />
			<path d="M13.5,-4.0 L13.5,4.0 " />
			<path d="M13.5,4.0 L8.0,4.0 " />
			<path d="M8.0,4.0 L8.0,8.0 " />
			<path d="M8.0,8.0 L-8.0,8.0 " />
			<path d="M-8.0,8.0 L-8.0,4.0 " />
			<path d="M-8.0,4.0 L-13.5,4.0 " />
			<path d="M-13.5,4.0 L-13.5,-4.0 " />
			<path d="M-13.5,-4.0 L-8.0,-4.0 " />
			<path d="M-12.35,0.0 L-12.346014440241222,0.11286233446769754 L-12.334077616823127,0.22516239446222486 L-12.314248998399544,0.33634070673355376 L-12.286627370150047,0.4458433865223874 L-12.251350341637167,0.5531248969861701 L-12.208593661242467,0.657650767036195 L-12.158570340596945,0.7589002540456837 L-12.101529593367811,0.8563689381633589 L-12.037755593688521,0.94957123530777 L-11.967566060417548,1.0380428163227617 L-11.891310674279008,1.1213429202419727 L-11.809369335770882,1.1990565501378 L-11.722150272519839,1.2707965406152173 L-11.630088005511746,1.3362054866502966 L-11.533641184329966,1.3949575241640617 L-11.433290302186203,1.4467599534609359 L-11.329535302127493,1.4913546974439031 L-11.222893086345096,1.5285195873416246 L-11.11389494099377,1.5580694695420805 L-11.003083889350886,1.5798571280185523 L-10.891011986501764,1.5937740177524624 L-10.778237569029006,1.5997508054991978 L-10.66532247340774,1.5977577152028455 L-10.552829236964547,1.5878046763390066 L-10.441318295344805,1.5699412744466477 L-10.331345190450497,1.54425650409544 L-10.223457802758386,1.5108783255192897 L-10.118193621807055,1.4699730271248903 L-10.016077068451056,1.4217443970512438 L-9.917616882222589,1.3664327079074026 L-9.823303586816747,1.3043135197464197 L-9.733607046327139,1.2356963072390226 L-9.64897412440661,1.1609229178863723 L-9.569826458015005,1.0803658689530085 L-9.496558356845036,0.9944264916045745 L-9.429534838891236,0.9035329314961381 L-9.369089811948665,0.8081380157720747 L-9.315524410101073,0.7087169971040115 L-9.269105493486045,0.6057651860059238 L-9.230064318811214,0.4997954832220686 L-9.198595387244978,0.3913358244812776 L-9.174855475421467,0.2809265503477106 L-9.158962854387228,0.1691177142713459 L-9.150996700380835,0.056466342249360736 L-9.150996700380835,-0.05646634224936745 L-9.15896285438723,-0.16911771427135258 L-9.174855475421467,-0.2809265503477172 L-9.19859538724498,-0.3913358244812841 L-9.230064318811216,-0.499795483222075 L-9.269105493486048,-0.60576518600593 L-9.315524410101077,-0.7087169971040175 L-9.369089811948669,-0.8081380157720806 L-9.42953483889124,-0.9035329314961436 L-9.49655835684504,-0.9944264916045799 L-9.569826458015008,-1.0803658689530136 L-9.648974124406614,-1.160922917886377 L-9.733607046327142,-1.2356963072390261 L-9.823303586816753,-1.304313519746423 L-9.917616882222594,-1.366432707907406 L-10.016077068451061,-1.4217443970512464 L-10.11819362180706,-1.469973027124893 L-10.223457802758391,-1.5108783255192917 L-10.331345190450502,-1.5442565040954415 L-10.441318295344812,-1.569941274446649 L-10.552829236964554,-1.5878046763390075 L-10.665322473407748,-1.597757715202846 L-10.778237569029015,-1.5997508054991978 L-10.891011986501772,-1.5937740177524617 L-11.003083889350895,-1.579857128018551 L-11.113894940993779,-1.5580694695420785 L-11.222893086345104,-1.528519587341622 L-11.329535302127502,-1.4913546974438996 L-11.433290302186212,-1.4467599534609314 L-11.533641184329975,-1.3949575241640566 L-11.630088005511755,-1.3362054866502908 L-11.722150272519848,-1.2707965406152104 L-11.809369335770889,-1.1990565501377926 L-11.891310674279017,-1.1213429202419642 L-11.967566060417557,-1.0380428163227522 L-12.037755593688528,-0.9495712353077599 L-12.101529593367818,-0.8563689381633479 L-12.158570340596953,-0.758900254045672 L-12.208593661242473,-0.6576507670361826 L-12.251350341637172,-0.5531248969861572 L-12.28662737015005,-0.44584338652237393 L-12.314248998399545,-0.3363407067335397 L-12.33407761682313,-0.2251623944622103 L-12.346014440241223,-0.11286233446768262 L-12.35,1.5240053210995052e-14 " />
			<path d="M9.15,0.0 L9.153985559758778,0.11286233446769754 L9.165922383176873,0.22516239446222486 L9.185751001600456,0.33634070673355376 L9.213372629849953,0.4458433865223874 L9.248649658362833,0.5531248969861701 L9.291406338757533,0.657650767036195 L9.341429659403055,0.7589002540456837 L9.398470406632189,0.8563689381633589 L9.462244406311479,0.94957123530777 L9.532433939582452,1.0380428163227617 L9.608689325720992,1.1213429202419727 L9.690630664229118,1.1990565501378 L9.777849727480161,1.2707965406152173 L9.869911994488254,1.3362054866502966 L9.966358815670034,1.3949575241640617 L10.066709697813797,1.4467599534609359 L10.170464697872507,1.4913546974439031 L10.277106913654904,1.5285195873416246 L10.38610505900623,1.5580694695420805 L10.496916110649114,1.5798571280185523 L10.608988013498236,1.5937740177524624 L10.721762430970994,1.5997508054991978 L10.83467752659226,1.5977577152028455 L10.947170763035453,1.5878046763390066 L11.058681704655195,1.5699412744466477 L11.168654809549503,1.54425650409544 L11.276542197241614,1.5108783255192897 L11.381806378192945,1.4699730271248903 L11.483922931548944,1.4217443970512438 L11.582383117777411,1.3664327079074026 L11.676696413183253,1.3043135197464197 L11.766392953672861,1.2356963072390226 L11.85102587559339,1.1609229178863723 L11.930173541984995,1.0803658689530085 L12.003441643154964,0.9944264916045745 L12.070465161108764,0.9035329314961381 L12.130910188051335,0.8081380157720747 L12.184475589898927,0.7087169971040115 L12.230894506513955,0.6057651860059238 L12.269935681188786,0.4997954832220686 L12.301404612755022,0.3913358244812776 L12.325144524578533,0.2809265503477106 L12.341037145612772,0.1691177142713459 L12.349003299619165,0.056466342249360736 L12.349003299619165,-0.05646634224936745 L12.34103714561277,-0.16911771427135258 L12.325144524578533,-0.2809265503477172 L12.30140461275502,-0.3913358244812841 L12.269935681188784,-0.499795483222075 L12.230894506513952,-0.60576518600593 L12.184475589898923,-0.7087169971040175 L12.130910188051331,-0.8081380157720806 L12.07046516110876,-0.9035329314961436 L12.00344164315496,-0.9944264916045799 L11.930173541984992,-1.0803658689530136 L11.851025875593386,-1.160922917886377 L11.766392953672858,-1.2356963072390261 L11.676696413183247,-1.304313519746423 L11.582383117777406,-1.366432707907406 L11.483922931548939,-1.4217443970512464 L11.38180637819294,-1.469973027124893 L11.276542197241609,-1.5108783255192917 L11.168654809549498,-1.5442565040954415 L11.058681704655188,-1.569941274446649 L10.947170763035446,-1.5878046763390075 L10.834677526592252,-1.597757715202846 L10.721762430970985,-1.5997508054991978 L10.608988013498228,-1.5937740177524617 L10.496916110649105,-1.579857128018551 L10.386105059006221,-1.5580694695420785 L10.277106913654896,-1.528519587341622 L10.170464697872498,-1.4913546974438996 L10.066709697813788,-1.4467599534609314 L9.966358815670025,-1.3949575241640566 L9.869911994488245,-1.3362054866502908 L9.777849727480152,-1.2707965406152104 L9.690630664229111,-1.1990565501377926 L9.608689325720983,-1.1213429202419642 L9.532433939582443,-1.0380428163227522 L9.462244406311472,-0.9495712353077599 L9.398470406632182,-0.8563689381633479 L9.341429659403047,-0.758900254045672 L9.291406338757527,-0.6576507670361826 L9.248649658362828,-0.5531248969861572 L9.21337262984995,-0.44584338652237393 L9.185751001600455,-0.3363407067335397 L9.16592238317687,-0.2251623944622103 L9.153985559758777,-0.11286233446768262 L9.15,1.5240053210995052e-14 " />

       </g>
    </g>
    
</svg>
