
      <svg xmlns="http://www.w3.org/2000/svg" width="1200" height="800" viewBox="0 0 1200 800" style="background: transparent;">
        
        <path d="M 532.10,722.75 L 537.00,721.56 L 541.30,722.55" fill="none" stroke="#ffffff" stroke-width="1.2" stroke-linecap="round" stroke-linejoin="round"  />
<path d="M 541.30,722.55 L 545.28,727.11 L 546.32,734.97 L 543.34,744.96 L 536.51,753.65 L 532.10,756.46" fill="none" stroke="#ffffff" stroke-width="1.2" stroke-linecap="round" stroke-linejoin="round"  />
<path d="M 525.68,727.44 L 522.94,734.66 L 518.41,740.92" fill="none" stroke="#ffffff" stroke-width="1.2" stroke-linecap="round" stroke-linejoin="round"  />
<path d="M 464.93,720.23 L 460.03,721.42 L 455.73,720.42" fill="none" stroke="#ffffff" stroke-width="1.2" stroke-linecap="round" stroke-linejoin="round"  />
<path d="M 455.73,720.42 L 451.75,715.86 L 450.71,708.01 L 453.69,698.01 L 460.52,689.33 L 464.93,686.52" fill="none" stroke="#ffffff" stroke-width="1.2" stroke-linecap="round" stroke-linejoin="round"  />
<path d="M 583.07,343.64 L 576.52,337.70 L 571.58,327.60 L 570.92,317.39 L 572.59,313.21 L 575.48,310.72" fill="none" stroke="#ffffff" stroke-width="1.2" stroke-linecap="round" stroke-linejoin="round"  />
<path d="M 575.48,310.72 L 579.06,310.18 L 583.07,311.49" fill="none" stroke="#ffffff" stroke-width="1.2" stroke-linecap="round" stroke-linejoin="round"  />
<path d="M 583.07,172.50 L 576.52,166.57 L 571.58,156.47 L 570.92,146.26 L 572.59,142.07 L 575.48,139.58" fill="none" stroke="#ffffff" stroke-width="1.2" stroke-linecap="round" stroke-linejoin="round"  />
<path d="M 575.48,139.58 L 579.06,139.04 L 583.07,140.35" fill="none" stroke="#ffffff" stroke-width="1.2" stroke-linecap="round" stroke-linejoin="round"  />
<path d="M 522.59,507.11 L 540.62,475.85 L 551.61,450.41 L 554.94,437.34 L 556.12,424.53" fill="none" stroke="#ffffff" stroke-width="1.2" stroke-linecap="round" stroke-linejoin="round"  />
<path d="M 556.12,82.25 L 556.12,424.53" fill="none" stroke="#ffffff" stroke-width="1.2" stroke-linecap="round" stroke-linejoin="round"  />
<path d="M 703.07,16.00 L 556.12,82.25" fill="none" stroke="#ffffff" stroke-width="1.2" stroke-linecap="round" stroke-linejoin="round"  />
<path d="M 419.93,674.41 L 412.53,690.56 L 409.64,706.81 L 411.36,720.49 L 416.66,730.11 L 422.18,734.50" fill="none" stroke="#ffffff" stroke-width="1.2" stroke-linecap="round" stroke-linejoin="round"  />
<path d="M 419.93,674.41 L 522.59,507.11" fill="none" stroke="#ffffff" stroke-width="1.2" stroke-linecap="round" stroke-linejoin="round"  />
<path d="M 458.51,691.21 L 455.76,698.43 L 451.24,704.69" fill="none" stroke="#ffffff" stroke-width="1.2" stroke-linecap="round" stroke-linejoin="round"  />
<path d="M 790.36,63.08 L 643.41,129.33" fill="none" stroke="#ffffff" stroke-width="1.2" stroke-linecap="round" stroke-linejoin="round"  />
<path d="M 790.36,63.08 L 703.07,16.00" fill="none" stroke="#ffffff" stroke-width="1.2" stroke-linecap="round" stroke-linejoin="round"  />
<path d="M 643.41,129.33 L 556.12,82.25" fill="none" stroke="#ffffff" stroke-width="1.2" stroke-linecap="round" stroke-linejoin="round"  />
<path d="M 583.07,140.35 L 589.63,146.28 L 594.57,156.38 L 595.22,166.59 L 593.56,170.78 L 590.67,173.27" fill="none" stroke="#ffffff" stroke-width="1.2" stroke-linecap="round" stroke-linejoin="round"  />
<path d="M 590.67,173.27 L 587.09,173.81 L 583.07,172.50" fill="none" stroke="#ffffff" stroke-width="1.2" stroke-linecap="round" stroke-linejoin="round"  />
<path d="M 583.07,311.49 L 589.63,317.42 L 594.57,327.52 L 595.22,337.73 L 593.56,341.92 L 590.67,344.41" fill="none" stroke="#ffffff" stroke-width="1.2" stroke-linecap="round" stroke-linejoin="round"  />
<path d="M 590.67,344.41 L 587.09,344.95 L 583.07,343.64" fill="none" stroke="#ffffff" stroke-width="1.2" stroke-linecap="round" stroke-linejoin="round"  />
<path d="M 643.41,129.33 L 643.41,471.61" fill="none" stroke="#ffffff" stroke-width="1.2" stroke-linecap="round" stroke-linejoin="round"  />
<path d="M 609.88,554.19 L 627.91,522.93 L 638.90,497.49 L 642.23,484.42 L 643.41,471.61" fill="none" stroke="#ffffff" stroke-width="1.2" stroke-linecap="round" stroke-linejoin="round"  />
<path d="M 507.22,721.49 L 609.88,554.19" fill="none" stroke="#ffffff" stroke-width="1.2" stroke-linecap="round" stroke-linejoin="round"  />
<path d="M 507.22,721.49 L 499.82,737.64 L 496.93,753.89 L 498.65,767.57 L 503.95,777.19 L 509.46,781.58" fill="none" stroke="#ffffff" stroke-width="1.2" stroke-linecap="round" stroke-linejoin="round"  />
<path d="M 509.46,781.58 L 518.49,784.00 L 532.10,781.09" fill="none" stroke="#ffffff" stroke-width="1.2" stroke-linecap="round" stroke-linejoin="round"  />
<path d="M 532.10,781.09 L 543.79,773.47 L 556.99,757.72" fill="none" stroke="#ffffff" stroke-width="1.2" stroke-linecap="round" stroke-linejoin="round"  />
<path d="M 659.65,590.42 L 556.99,757.72" fill="none" stroke="#ffffff" stroke-width="1.2" stroke-linecap="round" stroke-linejoin="round"  />
<path d="M 659.65,590.42 L 674.65,569.67 L 700.51,540.48 L 748.49,488.28 L 770.67,459.13 L 783.40,435.93 L 789.36,416.47 L 790.36,405.36" fill="none" stroke="#ffffff" stroke-width="1.2" stroke-linecap="round" stroke-linejoin="round"  />
<path d="M 790.36,63.08 L 790.36,405.36" fill="none" stroke="#ffffff" stroke-width="1.2" stroke-linecap="round" stroke-linejoin="round"  />
<path d="M 532.10,756.46 L 527.21,757.65 L 522.91,756.66" fill="none" stroke="#ffffff" stroke-width="1.2" stroke-linecap="round" stroke-linejoin="round"  />
<path d="M 522.91,756.66 L 518.93,752.09 L 517.88,744.24 L 520.87,734.24 L 527.69,725.56 L 532.10,722.75" fill="none" stroke="#ffffff" stroke-width="1.2" stroke-linecap="round" stroke-linejoin="round"  />
<path d="M 464.93,744.86 L 477.42,736.52" fill="none" stroke="#ffffff" stroke-width="1.2" stroke-linecap="round" stroke-linejoin="round"  />
<path d="M 440.04,685.26 L 432.64,701.41 L 429.76,717.66 L 431.47,731.34 L 436.77,740.96 L 442.29,745.35" fill="none" stroke="#ffffff" stroke-width="1.2" stroke-linecap="round" stroke-linejoin="round"  />
<path d="M 442.29,745.35 L 451.31,747.77 L 464.93,744.86" fill="none" stroke="#ffffff" stroke-width="1.2" stroke-linecap="round" stroke-linejoin="round"  />
<path d="M 440.04,685.26 L 472.10,633.01" fill="none" stroke="#ffffff" stroke-width="1.2" stroke-linecap="round" stroke-linejoin="round"  />
<path d="M 472.10,633.01 L 481.88,620.74 L 496.17,608.85 L 506.00,602.38 L 516.02,596.34" fill="none" stroke="#ffffff" stroke-width="1.2" stroke-linecap="round" stroke-linejoin="round"  />
<path d="M 519.16,658.39 L 525.56,644.30 L 528.07,634.57" fill="none" stroke="#ffffff" stroke-width="1.2" stroke-linecap="round" stroke-linejoin="round"  />
<path d="M 528.07,634.57 L 530.90,604.37" fill="none" stroke="#ffffff" stroke-width="1.2" stroke-linecap="round" stroke-linejoin="round"  />
<path d="M 487.10,710.64 L 519.16,658.39" fill="none" stroke="#ffffff" stroke-width="1.2" stroke-linecap="round" stroke-linejoin="round"  />
<path d="M 464.93,686.52 L 469.82,685.33 L 474.12,686.32" fill="none" stroke="#ffffff" stroke-width="1.2" stroke-linecap="round" stroke-linejoin="round"  />
<path d="M 474.12,686.32 L 478.10,690.88 L 479.15,698.74 L 476.16,708.73 L 469.34,717.42 L 464.93,720.23" fill="none" stroke="#ffffff" stroke-width="1.2" stroke-linecap="round" stroke-linejoin="round"  />
<path d="M 487.10,710.64 L 479.70,726.79 L 476.82,743.04 L 478.53,756.72 L 483.83,766.34 L 489.35,770.73" fill="none" stroke="#ffffff" stroke-width="1.2" stroke-linecap="round" stroke-linejoin="round"  />
        <path d="M 442.29,745.35 L 422.18,734.50" fill="none" stroke="#ffffff" stroke-width="1.2" stroke-linecap="round" stroke-linejoin="round"  />
<path d="M 519.83,657.28 L 518.26,656.43" fill="none" stroke="#ffffff" stroke-width="1.2" stroke-linecap="round" stroke-linejoin="round"  />
<path d="M 489.35,770.73 L 509.46,781.58" fill="none" stroke="#ffffff" stroke-width="1.2" stroke-linecap="round" stroke-linejoin="round"  />
<path d="M 527.98,634.99 L 528.07,634.57" fill="none" stroke="#ffffff" stroke-width="1.2" stroke-linecap="round" stroke-linejoin="round"  />
      </svg>
    