
      <svg xmlns="http://www.w3.org/2000/svg" width="1200" height="800" viewBox="0 0 1200 800" style="background: #ffffff;">
        
        <path d="M 791.16,357.42 L 782.33,416.64 L 750.69,472.87 L 699.89,516.63 L 639.69,539.69" fill="none" stroke="#000000" stroke-width="0.5" stroke-linecap="round" stroke-linejoin="round"  />
<path d="M 743.57,663.31 L 804.09,640.07 L 854.84,596.17 L 886.72,538.77 L 894.87,478.00 L 879.59,423.46 L 872.66,411.91 L 864.58,401.19" fill="none" stroke="#000000" stroke-width="0.5" stroke-linecap="round" stroke-linejoin="round"  />
<path d="M 864.58,401.19 L 821.45,367.88 L 765.86,354.00 L 746.28,354.19 L 726.53,356.75" fill="none" stroke="#000000" stroke-width="0.5" stroke-linecap="round" stroke-linejoin="round"  />
<path d="M 951.63,511.25 L 972.88,496.18 L 971.80,467.56" fill="none" stroke="#000000" stroke-width="0.5" stroke-linecap="round" stroke-linejoin="round"  />
<path d="M 971.80,467.56 L 948.79,460.15" fill="none" stroke="#000000" stroke-width="0.5" stroke-linecap="round" stroke-linejoin="round"  />
<path d="M 292.76,287.94 L 314.01,272.88 L 312.93,244.25" fill="none" stroke="#000000" stroke-width="0.5" stroke-linecap="round" stroke-linejoin="round"  />
<path d="M 312.93,244.25 L 289.92,236.85" fill="none" stroke="#000000" stroke-width="0.5" stroke-linecap="round" stroke-linejoin="round"  />
<path d="M 311.92,632.45 L 333.16,617.39 L 332.08,588.76" fill="none" stroke="#000000" stroke-width="0.5" stroke-linecap="round" stroke-linejoin="round"  />
<path d="M 332.08,588.76 L 309.07,581.36" fill="none" stroke="#000000" stroke-width="0.5" stroke-linecap="round" stroke-linejoin="round"  />
<path d="M 932.48,166.74 L 953.73,151.67 L 952.65,123.05" fill="none" stroke="#000000" stroke-width="0.5" stroke-linecap="round" stroke-linejoin="round"  />
<path d="M 952.65,123.05 L 929.64,115.64" fill="none" stroke="#000000" stroke-width="0.5" stroke-linecap="round" stroke-linejoin="round"  />
<path d="M 237.75,682.64 L 196.19,633.19" fill="none" stroke="#000000" stroke-width="0.5" stroke-linecap="round" stroke-linejoin="round"  />
<path d="M 237.75,682.64 L 211.78,215.51" fill="none" stroke="#000000" stroke-width="0.5" stroke-linecap="round" stroke-linejoin="round"  />
<path d="M 211.78,215.51 L 170.22,166.06" fill="none" stroke="#000000" stroke-width="0.5" stroke-linecap="round" stroke-linejoin="round"  />
<path d="M 196.19,633.19 L 170.22,166.06" fill="none" stroke="#000000" stroke-width="0.5" stroke-linecap="round" stroke-linejoin="round"  />
<path d="M 237.75,682.64 L 420.52,648.01" fill="none" stroke="#000000" stroke-width="0.5" stroke-linecap="round" stroke-linejoin="round"  />
<path d="M 952.60,547.20 L 1029.78,532.58" fill="none" stroke="#000000" stroke-width="0.5" stroke-linecap="round" stroke-linejoin="round"  />
<path d="M 534.80,784.00 L 961.28,703.20" fill="none" stroke="#000000" stroke-width="0.5" stroke-linecap="round" stroke-linejoin="round"  />
<path d="M 420.52,648.01 L 534.80,784.00" fill="none" stroke="#000000" stroke-width="0.5" stroke-linecap="round" stroke-linejoin="round"  />
<path d="M 1029.78,532.58 L 1003.81,65.45" fill="none" stroke="#000000" stroke-width="0.5" stroke-linecap="round" stroke-linejoin="round"  />
<path d="M 1003.81,65.45 L 962.25,16.00" fill="none" stroke="#000000" stroke-width="0.5" stroke-linecap="round" stroke-linejoin="round"  />
<path d="M 211.78,215.51 L 394.55,180.88" fill="none" stroke="#000000" stroke-width="0.5" stroke-linecap="round" stroke-linejoin="round"  />
<path d="M 394.55,180.88 L 508.83,316.87" fill="none" stroke="#000000" stroke-width="0.5" stroke-linecap="round" stroke-linejoin="round"  />
<path d="M 508.83,316.87 L 935.30,236.06" fill="none" stroke="#000000" stroke-width="0.5" stroke-linecap="round" stroke-linejoin="round"  />
<path d="M 821.03,100.08 L 935.30,236.06" fill="none" stroke="#000000" stroke-width="0.5" stroke-linecap="round" stroke-linejoin="round"  />
<path d="M 821.03,100.08 L 1003.81,65.45" fill="none" stroke="#000000" stroke-width="0.5" stroke-linecap="round" stroke-linejoin="round"  />
<path d="M 170.22,166.06 L 962.25,16.00" fill="none" stroke="#000000" stroke-width="0.5" stroke-linecap="round" stroke-linejoin="round"  />
<path d="M 726.53,356.75 L 666.01,379.99 L 615.27,423.89 L 583.38,481.29 L 575.23,542.06 L 590.51,596.60 L 597.44,608.15 L 605.52,618.88" fill="none" stroke="#000000" stroke-width="0.5" stroke-linecap="round" stroke-linejoin="round"  />
<path d="M 605.52,618.88 L 648.65,652.19 L 704.24,666.07 L 723.82,665.87 L 743.57,663.31" fill="none" stroke="#000000" stroke-width="0.5" stroke-linecap="round" stroke-linejoin="round"  />
<path d="M 508.83,316.87 L 534.80,784.00" fill="none" stroke="#000000" stroke-width="0.5" stroke-linecap="round" stroke-linejoin="round"  />
<path d="M 935.30,236.06 L 961.28,703.20" fill="none" stroke="#000000" stroke-width="0.5" stroke-linecap="round" stroke-linejoin="round"  />
<path d="M 929.64,115.64 L 908.39,130.71 L 909.47,159.33" fill="none" stroke="#000000" stroke-width="0.5" stroke-linecap="round" stroke-linejoin="round"  />
<path d="M 909.47,159.33 L 932.48,166.74" fill="none" stroke="#000000" stroke-width="0.5" stroke-linecap="round" stroke-linejoin="round"  />
<path d="M 309.07,581.36 L 287.83,596.42 L 288.91,625.04" fill="none" stroke="#000000" stroke-width="0.5" stroke-linecap="round" stroke-linejoin="round"  />
<path d="M 288.91,625.04 L 311.92,632.45" fill="none" stroke="#000000" stroke-width="0.5" stroke-linecap="round" stroke-linejoin="round"  />
<path d="M 289.92,236.85 L 268.67,251.91 L 269.75,280.53" fill="none" stroke="#000000" stroke-width="0.5" stroke-linecap="round" stroke-linejoin="round"  />
<path d="M 269.75,280.53 L 292.76,287.94" fill="none" stroke="#000000" stroke-width="0.5" stroke-linecap="round" stroke-linejoin="round"  />
<path d="M 948.79,460.15 L 947.77,460.37" fill="none" stroke="#000000" stroke-width="0.5" stroke-linecap="round" stroke-linejoin="round"  />
<path d="M 950.61,511.42 L 951.63,511.25" fill="none" stroke="#000000" stroke-width="0.5" stroke-linecap="round" stroke-linejoin="round"  />
<path d="M 575.16,523.25 L 730.79,493.76" fill="none" stroke="#000000" stroke-width="0.5" stroke-linecap="round" stroke-linejoin="round"  />
<path d="M 774.38,404.37 L 786.65,402.05" fill="none" stroke="#000000" stroke-width="0.5" stroke-linecap="round" stroke-linejoin="round"  />
<path d="M 783.01,414.64 L 774.38,404.37" fill="none" stroke="#000000" stroke-width="0.5" stroke-linecap="round" stroke-linejoin="round"  />
<path d="M 774.38,404.37 L 775.94,432.56" fill="none" stroke="#000000" stroke-width="0.5" stroke-linecap="round" stroke-linejoin="round"  />
<path d="M 639.69,539.69 L 575.05,539.02" fill="none" stroke="#000000" stroke-width="0.5" stroke-linecap="round" stroke-linejoin="round"  />
<path d="M 394.55,180.88 L 420.52,648.01" fill="none" stroke="#000000" stroke-width="0.5" stroke-linecap="round" stroke-linejoin="round"  />
        
      </svg>
    