<?xml version="1.0" encoding="UTF-8" standalone="no"?>
<svg
   xmlns:svg="http://www.w3.org/2000/svg"
   xmlns="http://www.w3.org/2000/svg"
   width="800.0"
   height="600.0"

>
    <g transform="scale(13.23529411764706, -13.23529411764706)   translate(21.511111211111114,-18.511111111111113)" stroke-width="1.0"  fill="none">
       <!-- hidden lines -->
       <g  stroke="#6e7781" fill="none" stroke-dasharray="1.0,1.0" >
			<path d="M0.0,-7.9 L-12.0,-7.9 " />
			<path d="M-12.0,-7.9 L-12.0,-17.0 " />
			<path d="M-12.0,-14.049999999999999 L-12.0,-14.009884659490917 L-12.0,-13.891550188643869 L-12.0,-13.700930371948846 L-12.0,-13.447583682973972 L-12.0,-13.144213982588091 L-12.0,-12.806033494330102 L-12.0,-12.45 L-12.0,-12.093966505669897 L-12.0,-11.755786017411907 L-12.0,-11.452416317026026 L-12.0,-11.199069628051152 L-12.0,-11.00844981135613 L-12.0,-10.890115340509082 L-12.0,-10.85 " />
			<path d="M-12.0,-10.85 L-12.0,-10.890115340509082 L-12.0,-11.00844981135613 L-12.0,-11.199069628051152 L-12.0,-11.452416317026024 L-12.0,-11.755786017411905 L-12.0,-12.093966505669895 L-12.0,-12.45 L-12.0,-12.806033494330102 L-12.0,-13.144213982588091 L-12.0,-13.447583682973972 L-12.0,-13.700930371948846 L-12.0,-13.891550188643869 L-12.0,-14.009884659490917 L-12.0,-14.049999999999997 " />
			<path d="M-12.0,-17.0 L-20.0,-17.0 " />
			<path d="M-20.0,17.0 L-20.0,-17.0 " />
			<path d="M-20.0,-14.049999999999999 L-20.0,-14.009884659490917 L-20.0,-13.891550188643869 L-20.0,-13.700930371948846 L-20.0,-13.447583682973972 L-20.0,-13.144213982588091 L-20.0,-12.806033494330102 L-20.0,-12.45 L-20.0,-12.093966505669897 L-20.0,-11.755786017411907 L-20.0,-11.452416317026026 L-20.0,-11.199069628051152 L-20.0,-11.00844981135613 L-20.0,-10.890115340509082 L-20.0,-10.85 " />
			<path d="M-20.0,-10.85 L-20.0,-10.890115340509082 L-20.0,-11.00844981135613 L-20.0,-11.199069628051152 L-20.0,-11.452416317026024 L-20.0,-11.755786017411905 L-20.0,-12.093966505669895 L-20.0,-12.45 L-20.0,-12.806033494330102 L-20.0,-13.144213982588091 L-20.0,-13.447583682973972 L-20.0,-13.700930371948846 L-20.0,-13.891550188643869 L-20.0,-14.009884659490917 L-20.0,-14.049999999999997 " />
			<path d="M-20.0,10.85 L-20.0,10.890115340509082 L-20.0,11.00844981135613 L-20.0,11.199069628051152 L-20.0,11.452416317026026 L-20.0,11.755786017411907 L-20.0,12.093966505669897 L-20.0,12.45 L-20.0,12.806033494330102 L-20.0,13.144213982588091 L-20.0,13.447583682973972 L-20.0,13.700930371948846 L-20.0,13.891550188643869 L-20.0,14.009884659490917 L-20.0,14.049999999999999 " />
			<path d="M-20.0,14.049999999999999 L-20.0,14.009884659490917 L-20.0,13.891550188643869 L-20.0,13.700930371948846 L-20.0,13.447583682973974 L-20.0,13.144213982588093 L-20.0,12.806033494330103 L-20.0,12.45 L-20.0,12.093966505669897 L-20.0,11.755786017411907 L-20.0,11.452416317026026 L-20.0,11.199069628051152 L-20.0,11.00844981135613 L-20.0,10.890115340509082 L-20.0,10.850000000000001 " />
			<path d="M-20.0,-1.4 L-20.0,-1.45265138441817 L-20.0,-1.6079653774049196 L-20.0,-1.8581538868171374 L-20.0,-2.1906714160966594 L-20.0,-2.588844147853128 L-20.0,-3.0327060386917397 L-20.0,-3.5 L-20.0,-3.9672939613082603 L-20.0,-4.411155852146872 L-20.0,-4.809328583903341 L-20.0,-5.141846113182862 L-20.0,-5.39203462259508 L-20.0,-5.54734861558183 L-20.0,-5.599999999999999 " />
			<path d="M-20.0,-5.6 L-20.0,-5.54734861558183 L-20.0,-5.39203462259508 L-20.0,-5.141846113182863 L-20.0,-4.809328583903341 L-20.0,-4.411155852146872 L-20.0,-3.9672939613082607 L-20.0,-3.5000000000000004 L-20.0,-3.03270603869174 L-20.0,-2.5888441478531283 L-20.0,-2.19067141609666 L-20.0,-1.8581538868171377 L-20.0,-1.6079653774049198 L-20.0,-1.4526513844181705 L-20.0,-1.400000000000002 " />
			<path d="M-20.0,5.6 L-20.0,5.54734861558183 L-20.0,5.39203462259508 L-20.0,5.141846113182862 L-20.0,4.809328583903341 L-20.0,4.411155852146872 L-20.0,3.9672939613082603 L-20.0,3.5 L-20.0,3.0327060386917397 L-20.0,2.588844147853128 L-20.0,2.1906714160966594 L-20.0,1.8581538868171377 L-20.0,1.6079653774049198 L-20.0,1.45265138441817 L-20.0,1.400000000000001 " />
			<path d="M-20.0,1.4 L-20.0,1.45265138441817 L-20.0,1.6079653774049196 L-20.0,1.858153886817137 L-20.0,2.1906714160966594 L-20.0,2.5888441478531274 L-20.0,3.0327060386917393 L-20.0,3.4999999999999996 L-20.0,3.96729396130826 L-20.0,4.411155852146872 L-20.0,4.809328583903341 L-20.0,5.141846113182862 L-20.0,5.39203462259508 L-20.0,5.5473486155818295 L-20.0,5.599999999999998 " />
			<path d="M-12.0,7.9 L-20.0,7.9 " />
			<path d="M0.0,7.9 L0.0,-7.9 " />
			<path d="M0.0,-4.5 L0.0,-2.5 " />
			<path d="M0.0,-2.5 L0.0,-4.5 " />
			<path d="M0.0,2.5 L0.0,4.5 " />
			<path d="M0.0,4.5 L0.0,2.5 " />
			<path d="M0.0,7.9 L-12.0,7.9 " />
			<path d="M-12.0,17.0 L-12.0,7.9 " />
			<path d="M-12.0,17.0 L-20.0,17.0 " />
			<path d="M-20.0,-14.05 L-12.0,-14.05 " />
			<path d="M-12.0,10.85 L-12.0,10.890115340509082 L-12.0,11.00844981135613 L-12.0,11.199069628051152 L-12.0,11.452416317026026 L-12.0,11.755786017411907 L-12.0,12.093966505669897 L-12.0,12.45 L-12.0,12.806033494330102 L-12.0,13.144213982588091 L-12.0,13.447583682973972 L-12.0,13.700930371948846 L-12.0,13.891550188643869 L-12.0,14.009884659490917 L-12.0,14.049999999999999 " />
			<path d="M-12.0,14.049999999999999 L-12.0,14.009884659490917 L-12.0,13.891550188643869 L-12.0,13.700930371948846 L-12.0,13.447583682973974 L-12.0,13.144213982588093 L-12.0,12.806033494330103 L-12.0,12.45 L-12.0,12.093966505669897 L-12.0,11.755786017411907 L-12.0,11.452416317026026 L-12.0,11.199069628051152 L-12.0,11.00844981135613 L-12.0,10.890115340509082 L-12.0,10.850000000000001 " />
			<path d="M-20.0,10.85 L-12.0,10.85 " />
			<path d="M-20.0,-1.4 L-12.0,-1.4 " />
			<path d="M-12.0,-1.4 L-12.0,-1.45265138441817 L-12.0,-1.6079653774049196 L-12.0,-1.8581538868171374 L-12.0,-2.1906714160966594 L-12.0,-2.588844147853128 L-12.0,-3.0327060386917397 L-12.0,-3.5 L-12.0,-3.9672939613082603 L-12.0,-4.411155852146872 L-12.0,-4.809328583903341 L-12.0,-5.141846113182862 L-12.0,-5.39203462259508 L-12.0,-5.54734861558183 L-12.0,-5.599999999999999 " />
			<path d="M-12.0,-5.6 L-12.0,-5.54734861558183 L-12.0,-5.39203462259508 L-12.0,-5.141846113182863 L-12.0,-4.809328583903341 L-12.0,-4.411155852146872 L-12.0,-3.9672939613082607 L-12.0,-3.5000000000000004 L-12.0,-3.03270603869174 L-12.0,-2.5888441478531283 L-12.0,-2.19067141609666 L-12.0,-1.8581538868171377 L-12.0,-1.6079653774049198 L-12.0,-1.4526513844181705 L-12.0,-1.400000000000002 " />
			<path d="M-20.0,5.6 L-12.0,5.6 " />
			<path d="M-12.0,5.6 L-12.0,5.54734861558183 L-12.0,5.39203462259508 L-12.0,5.141846113182862 L-12.0,4.809328583903341 L-12.0,4.411155852146872 L-12.0,3.9672939613082603 L-12.0,3.5 L-12.0,3.0327060386917397 L-12.0,2.588844147853128 L-12.0,2.1906714160966594 L-12.0,1.8581538868171377 L-12.0,1.6079653774049198 L-12.0,1.45265138441817 L-12.0,1.400000000000001 " />
			<path d="M-12.0,1.4 L-12.0,1.45265138441817 L-12.0,1.6079653774049196 L-12.0,1.858153886817137 L-12.0,2.1906714160966594 L-12.0,2.5888441478531274 L-12.0,3.0327060386917393 L-12.0,3.4999999999999996 L-12.0,3.96729396130826 L-12.0,4.411155852146872 L-12.0,4.809328583903341 L-12.0,5.141846113182862 L-12.0,5.39203462259508 L-12.0,5.5473486155818295 L-12.0,5.599999999999998 " />
			<path d="M0.0,-4.5 L8.0,-4.5 " />
			<path d="M0.0,-2.5 L8.0,-2.5 " />
			<path d="M8.0,-2.5 L8.0,-4.5 " />
			<path d="M0.0,4.5 L8.0,4.5 " />
			<path d="M8.0,4.5 L8.0,2.5 " />
			<path d="M0.0,2.5 L8.0,2.5 " />
			<path d="M-20.0,-10.85 L-12.0,-10.85 " />
			<path d="M-20.0,14.049999999999999 L-12.0,14.049999999999999 " />
			<path d="M-12.0,-5.6 L-20.0,-5.6 " />
			<path d="M-12.0,1.4 L-20.0,1.4 " />

       </g>

       <!-- solid lines -->
       <g  stroke="#24292f" fill="none">
			<path d="M0.0,-7.9 L-12.0,-7.9 " />
			<path d="M-12.0,-17.0 L-12.0,-7.9 " />
			<path d="M-12.0,-17.0 L-20.0,-17.0 " />
			<path d="M-20.0,5.4 L-20.0,-17.0 " />
			<path d="M0.0,5.4 L-20.0,5.4 " />
			<path d="M0.0,-7.9 L0.0,5.4 " />
			<path d="M-20.0,5.4 L-20.0,7.9 " />
			<path d="M-20.0,7.9 L-20.0,17.0 " />
			<path d="M0.0,7.9 L-12.0,7.9 " />
			<path d="M0.0,5.4 L0.0,7.9 " />
			<path d="M-12.0,7.9 L-20.0,7.9 " />
			<path d="M-12.0,17.0 L-20.0,17.0 " />
			<path d="M-12.0,7.9 L-12.0,17.0 " />
			<path d="M0.0,-4.5 L8.0,-4.5 " />
			<path d="M8.0,-4.5 L8.0,-2.5 " />
			<path d="M0.0,-2.5 L8.0,-2.5 " />
			<path d="M0.0,2.5 L8.0,2.5 " />
			<path d="M8.0,2.5 L8.0,4.5 " />
			<path d="M0.0,4.5 L8.0,4.5 " />

       </g>
    </g>
    
</svg>
