<?xml version="1.0" encoding="UTF-8" standalone="no"?>
<svg
   xmlns:svg="http://www.w3.org/2000/svg"
   xmlns="http://www.w3.org/2000/svg"
   width="800.0"
   height="600.0"

>
    <g transform="scale(14.561035459080976, -14.561035459080976)   translate(27.53647959670735,-22.76573911311151)" stroke-width="1.0"  fill="none">
       <!-- hidden lines -->
       <g  stroke="rgb(200,200,200)" fill="none" stroke-dasharray="1.0,1.0" >
			<path d="M-5.586143571373726,3.061862178478973 L-5.586143571373726,-9.51218516780801 " />
			<path d="M-5.586143571373726,3.061862178478973 L-14.071424945612296,7.960841664045331 " />
			<path d="M-14.071424945612296,-4.613205682241653 L-14.071424945612296,7.96084166404533 " />
			<path d="M-14.071424945612296,7.960841664045329 L-20.50609665440988,4.245782220824175 " />
			<path d="M-20.50609665440988,4.245782220824176 L-20.50609665440988,-8.328265125462806 " />
			<path d="M-18.420131649909568,-0.8369089954509197 L-18.4170661515793,-0.7390347857142296 L-18.407886268789554,-0.6381512322278209 L-18.392641748120532,-0.5348050317088512 L-18.371415200950572,-0.4295562261721188 L-18.344321655777907,-0.3229751680138591 L-18.311507934871283,-0.21563942922269402 L-18.27315185862736,-0.10813067146698196 L-18.229461281946577,-0.0010314940198423717 L-18.180672967849432,0.10507772339678595 L-18.127051304437163,0.20962196574014186 L-18.068886872149722,0.3120346987029792 L-18.0064948690852,0.4117609388120651 L-17.940213402914,0.5082602609317057 L-17.870401658644113,0.6010097268743808 L-17.79743795216641,0.6895067192480904 L-17.721717680128048,0.77327166518355 L-17.643651177243818,0.851850635181121 L-17.56366149265673,0.9248178029940983 L-17.48218209739808,0.9917777532180378 L-17.399654535370363,1.05236762408109 L-17.31652603058261,1.1062590738233824 L-17.233247063604736,1.1531600600094658 L-17.150268930374306,1.1928164221315734 L-17.068041296584735,1.2250132589274338 L-16.98700976090795,1.2495760929488329 L-16.90761344025656,1.2663718160700195 L-16.83028259017129,1.2753094108121752 L-16.75543627322889,1.2763404435750154 L-16.71907215085882,1.2738875770938194 L-16.683480088105764,1.269459327102667 L-16.64870832043023,1.2630616949024394 L-16.614803971603553,1.2547033507614913 L-16.581812989844313,1.2443956221654335 L-16.549780085547873,1.2321524784657776 L-16.518748670693498,1.2179905119482402 L-16.488760800011093,1.2019289153463655 " />
			<path d="M-16.48876080001109,1.2019289153463635 L-16.450470295585017,1.1775964625191422 L-16.414199306409685,1.149984499017919 L-16.380035212474976,1.1191595444812916 L-16.348060318075603,1.0851958589246862 L-16.318351653532844,1.048175263841475 L-16.290980789621752,1.0081869450878358 L-16.266013665150897,0.9653272380262081 L-16.24351042810999,0.919699395444971 L-16.22352529076811,0.8714133388134291 L-16.206106399071608,0.8205853934713678 L-16.191295716656295,0.7673380083911177 L-16.17912892375337,0.7117994611872576 L-16.169635331232627,0.6541035490846032 L-16.162837809989984,0.5943892665889746 L-16.158752735849507,0.532800470637258 L-16.157389950112613,0.4694855340334425 L-16.158752735849507,0.40459698800553956 L-16.162837809989984,0.3382911547444958 L-16.169635331232627,0.2707277708103432 L-16.17912892375337,0.2020696023128319 L-16.191295716656295,0.13248205279361763 L-16.206106399071608,0.062132764754641745 L-16.22352529076811,-0.008808784207339992 L-16.24351042810999,-0.08017168968713245 L-16.266013665150897,-0.15178403219478237 L-16.290980789621752,-0.22347329132468857 L-16.318351653532844,-0.29506676137236953 L-16.348060318075603,-0.3663919673976343 L-16.380035212474976,-0.4372770807318166 L-16.414199306409685,-0.5075513329280905 L-16.450470295585017,-0.5770454271576189 L-16.48876080001109,-0.6455919460604389 L-16.528978574508887,-0.713025755068548 L-16.571026730936982,-0.7791844002295415 L-16.614803971603553,-0.8439084995724135 L-16.660204833301407,-0.9070421270726867 L-16.707119941378068,-0.9684331882918591 L-16.755436273228895,-1.0279337867862308 L-16.80503743057845,-1.0854005804023927 L-16.855803919894132,-1.1406951266010275 L-16.90761344025656,-1.193684215977112 L-16.960341177993204,-1.2442401931730431 L-17.01386010736545,-1.2922412644115755 L-17.068041296584735,-1.337571790907698 L-17.12275421842052,-1.3801225674525963 L-17.177867064651817,-1.4197910854985665 L-17.233247063604736,-1.456481780111083 L-17.28876080001109,-1.4901062601931 L-17.344274536417444,-1.5205835214269432 L-17.399654535370363,-1.547840141420806 L-17.45476738160166,-1.5718104565897266 L-17.509480303437446,-1.592436720344911 L-17.56366149265673,-1.6096692422103258 L-17.617180422028976,-1.623466507531406 L-17.66990815976562,-1.6337952774874966 L-17.721717680128048,-1.6406306691670793 L-17.77248416944373,-1.643956215512888 L-17.822085326793285,-1.6437639049924928 L-17.870401658644113,-1.6400542008987813 L-17.91731676672077,-1.632836040233847 L-17.962717628418627,-1.6221268121789685 L-18.0064948690852,-1.6079523162025469 L-18.048543025513293,-1.5903466999069291 L-18.088760800011084,-1.5693523767638449 " />
			<path d="M-18.08876080001109,-1.5693523767638407 L-18.127051304437163,-1.5450199239366191 L-18.163322293612495,-1.5174079604353963 L-18.197486387547205,-1.4865830058987692 L-18.229461281946577,-1.4526193203421633 L-18.259169946489337,-1.4155987252589521 L-18.286540810400428,-1.3756104065053127 L-18.311507934871283,-1.332750699443685 L-18.33401117191219,-1.287122856862448 L-18.35399630925407,-1.2388368002309065 L-18.371415200950572,-1.188008854888845 L-18.386225883365885,-1.1347614698085948 L-18.39839267626881,-1.079222922604734 L-18.407886268789554,-1.0215270105020797 L-18.414683790032196,-0.9618127280064515 L-18.418768864172673,-0.9002239320547354 L-18.420131649909568,-0.836908995450921 " />
			<path d="M-20.50609665440988,4.245782220824176 L-26.162950903902264,7.511768544535082 " />
			<path d="M-2.8991378028648453,3.8783587594067 L-8.555992052357226,7.144345083117605 " />
			<path d="M-1.1313708498984774,2.857738033247043 L-2.8991378028648453,3.8783587594067 " />
			<path d="M5.586143571373726,9.51218516780801 L-5.586143571373728,3.061862178478971 " />
			<path d="M-3.1819805153394642,-4.286607049870562 L-1.7677669529663689,-3.4701104689428357 " />
			<path d="M-3.1819805153394642,0.6123724356957945 L-3.1819805153394642,-4.286607049870562 " />
			<path d="M-1.7677669529663689,1.4288690166235207 L-3.1819805153394642,0.6123724356957944 " />
			<path d="M-1.7677669529663689,-3.4701104689428357 L-1.7677669529663689,1.428869016623521 " />
			<path d="M1.7677669529663689,-1.4288690166235207 L3.1819805153394642,-0.6123724356957944 " />
			<path d="M1.7677669529663689,3.4701104689428357 L1.7677669529663689,-1.428869016623521 " />
			<path d="M3.1819805153394642,4.286607049870562 L1.7677669529663689,3.4701104689428357 " />
			<path d="M3.1819805153394642,-0.6123724356957945 L3.1819805153394642,4.286607049870562 " />
			<path d="M3.5355339059327378,10.696105210153213 L-2.8991378028648453,14.411164653374367 " />
			<path d="M3.5355339059327378,18.12622409659552 L-2.8991378028648453,14.411164653374367 " />
			<path d="M-2.8991378028648453,3.8783587594066997 L-2.8991378028648453,1.837117307087384 " />
			<path d="M-0.8131727983645305,9.328473437099271 L-0.8101073000342636,9.42634764683596 L-0.8009274172445169,9.527231200322369 L-0.7856828965754978,9.63057740084134 L-0.7644563494055365,9.735826206378071 L-0.737362804232871,9.842407264536332 L-0.7045490833262471,9.949743003327496 L-0.6661930070823251,10.057251761083208 L-0.6225024304015414,10.164350938530347 L-0.5737141163043955,10.270460155946976 L-0.5200924528921268,10.375004398290333 L-0.46192802060468785,10.47741713125317 L-0.39953601754016355,10.577143371362256 L-0.3332545513689664,10.673642693481897 L-0.2634428070990785,10.766392159424571 L-0.19047910062137074,10.85488915179828 L-0.11475882858301206,10.93865409773374 L-0.03669232569878139,11.017233067731311 L0.043297358888305104,11.09020023554429 L0.12477675414695483,11.157160185768229 L0.2073043161746726,11.21775005663128 L0.2904328209624256,11.271641506373573 L0.37371178794029836,11.318542492559656 L0.45668992117072943,11.358198854681763 L0.5389175549603,11.390395691477625 L0.6199490906370873,11.414958525499024 L0.6993454112884746,11.43175424862021 L0.7766762613737465,11.440691843362366 L0.8515225783161428,11.441722876125207 L0.8878867006862156,11.43927000964401 L0.9234787634392724,11.434841759652858 L0.958250531114806,11.42844412745263 L0.992154879941481,11.420085783311682 L1.0251458617007239,11.409778054715623 L1.0571787659971639,11.397534911015969 L1.0882101808515383,11.383372944498431 L1.118198051533942,11.367311347896557 " />
			<path d="M1.1181980515339456,11.367311347896553 L1.156488555960018,11.342978895069333 L1.1927595451353517,11.315366931568109 L1.22692363907006,11.284541977031482 L1.2588985334694327,11.250578291474877 L1.288607198012192,11.213557696391666 L1.3159780619232826,11.173569377638026 L1.3409451863941382,11.1307096705764 L1.363448423435047,11.085081827995161 L1.3834335607769261,11.03679577136362 L1.400852452473428,10.985967826021557 L1.4156631348887407,10.932720440941308 L1.4278299277916637,10.877181893737449 L1.4373235203124084,10.819485981634793 L1.4441210415550518,10.759771699139165 L1.4482061156955277,10.698182903187448 L1.4495689014324218,10.634867966583633 L1.448206115695528,10.56997942055573 L1.4441210415550518,10.503673587294687 L1.4373235203124084,10.436110203360533 L1.4278299277916637,10.367452034863023 L1.415663134888741,10.297864485343808 L1.4008524524734283,10.227515197304832 L1.3834335607769264,10.156573648342851 L1.3634484234350475,10.085210742863058 L1.3409451863941388,10.013598400355407 L1.3159780619232835,9.941909141225501 L1.288607198012193,9.87031567117782 L1.2588985334694331,9.798990465152556 L1.22692363907006,9.728105351818375 L1.1927595451353519,9.6578310996221 L1.1564885559600184,9.588337005392571 L1.118198051533946,9.519790486489752 L1.0779802770361497,9.452356677481642 L1.0359321206080554,9.38619803232065 L0.992154879941482,9.321473932977778 L0.9467540182436276,9.258340305477503 L0.8998389101669694,9.196949244258331 L0.8515225783161426,9.13744864576396 L0.8019214209665861,9.079981852147798 L0.7511549316509032,9.024687305949163 L0.6993454112884749,8.971698216573078 L0.6466176735518321,8.921142239377147 L0.5930987441795865,8.873141168138615 L0.5389175549603009,8.827810641642493 L0.484204633124516,8.785259865097593 L0.42909178689322003,8.745591347051624 L0.3737117879402996,8.708900652439107 L0.3181980515339462,8.67527617235709 L0.26268431512759294,8.644798911123248 L0.20730431617467238,8.617542291129384 L0.15219146994337646,8.593571975960463 L0.09747854810759154,8.572945712205279 L0.04329735888830588,8.555713190339866 L-0.010221570483939568,8.541915925018785 L-0.06294930822058253,8.531587155062693 L-0.11475882858301095,8.524751763383112 L-0.1655253178986938,8.521426217037302 L-0.21512647524825046,8.521618527557697 L-0.2634428070990771,8.52532823165141 L-0.3103579151757354,8.532546392316343 L-0.3557587768735897,8.543255620371221 L-0.3995360175401632,8.557430116347643 L-0.44158417396825766,8.575035732643261 L-0.48180194846604685,8.596030055786345 " />
			<path d="M-0.4818019484660542,8.59603005578635 L-0.5200924528921266,8.620362508613571 L-0.5563634420674601,8.647974472114795 L-0.5905275360021685,8.678799426651421 L-0.6225024304015412,8.712763112208027 L-0.6522110949443005,8.749783707291238 L-0.6795819588553912,8.789772026044878 L-0.7045490833262469,8.832631733106506 L-0.7270523203671555,8.878259575687743 L-0.7470374577090346,8.926545632319284 L-0.7644563494055365,8.977373577661346 L-0.7792670318208494,9.030620962741596 L-0.7914338247237722,9.086159509945457 L-0.8009274172445169,9.14385542204811 L-0.8077249384871603,9.203569704543739 L-0.8118100126276364,9.265158500495454 L-0.8131727983645303,9.32847343709927 " />
			<path d="M-9.475230867899738,4.327431878916948 L-9.477019524179411,4.4105327332094575 L-9.482381183988787,4.491368027896084 L-9.491302930619756,4.569743023671596 L-9.503763270803233,4.64546890830633 L-9.51973218648832,4.718363251511397 L-9.539171207158418,4.788250444429225 L-9.562033502510076,4.85496212269068 L-9.588263995271292,4.9183375720195786 L-9.617799493887485,4.978224115407452 L-9.650568844755483,5.034477480925839 L-9.686493103638789,5.08696214928999 L-9.725485725851161,5.135551680336705 L-9.767452774750339,5.180129017629751 L-9.812293148039643,5.220586770459074 L-9.85989882133227,5.256827472554429 L-9.910155108391479,5.288763816890151 " />
			<path d="M-9.91015510839149,5.288763816890157 L-9.962940937419846,5.316318866015461 L-10.01812914273172,5.339426237403459 L-10.075586771106599,5.3580302633725125 L-10.13517540208503,5.37208612519454 L-10.196751481435644,5.381559961067267 L-10.260166666989855,5.386428947690263 L-10.325268186011147,5.386681355248282 L-10.391899203237982,5.382316575669408 L-10.45989919871367,5.373345124089956 L-10.529104354493013,5.359788613522587 L-10.599347949294085,5.341679702788669 L-10.670460760144397,5.319062017840312 L-10.742271470053867,5.291990046661632 L-10.814607080732442,5.260529008002424 L-10.887293329358151,5.224754694260479 L-10.960155108391488,5.184753288891061 L-11.033016887424827,5.140621158783413 L-11.105703136050534,5.092464622104485 L-11.17803874672911,5.04039969216915 L-11.249849456638579,4.984551797953971 L-11.320962267488891,4.925055481927809 L-11.391205862289963,4.862054075927236 L-11.460411018069308,4.795699355857575 L-11.528411013544995,4.726151176051465 L-11.595042030771829,4.6535770841657556 L-11.660143549793123,4.5781519175445435 L-11.723558735347332,4.50005738202068 L-11.785134814697946,4.419481614170517 L-11.844723445676378,4.33661872807641 L-11.902181074051256,4.251668347688891 L-11.95736927936313,4.164835125915086 L-12.010155108391489,4.076328251591943 L-12.060411395450709,3.986360945531991 L-12.108017068743333,3.8951499468557347 L-12.152857442032637,3.8029149908481252 L-12.194824490931815,3.709878279597012 L-12.233817113144188,3.6162639466888535 L-12.269741372027493,3.522297517251272 L-12.30251072289549,3.4282053646432695 L-12.332046221511684,3.3342141651019785 L-12.3582767142729,3.2405503516597505 L-12.381139009624558,3.1474395686471492 L-12.400578030294657,3.0551061280959937 L-12.416546945979743,2.963772469352025 L-12.42900728616322,2.8736586231990415 L-12.437929032794191,2.784981681785465 L-12.443290692603565,2.6979552756303455 L-12.445079348883239,2.6127890589687235 L-12.443290692603565,2.5296882046762157 L-12.43792903279419,2.4488529099895877 L-12.42900728616322,2.3704779142140753 L-12.416546945979743,2.294752029579341 L-12.400578030294657,2.2218576863742747 L-12.381139009624558,2.1519704934564468 L-12.3582767142729,2.085258815194991 L-12.332046221511684,2.021883365866092 L-12.30251072289549,1.9619968224782183 L-12.269741372027493,1.9057434569598322 L-12.233817113144186,1.8532587885956804 L-12.194824490931815,1.8046692575489662 L-12.152857442032639,1.7600919202559213 L-12.108017068743333,1.7196341674265978 L-12.060411395450707,1.6833934653312426 L-12.010155108391492,1.6514571209955171 " />
			<path d="M-12.010155108391489,1.6514571209955144 L-11.970796028120828,1.6303762754555513 L-11.930067296124463,1.6117886944012834 L-11.888024109235385,1.595719568295485 L-11.844723445676378,1.5821906745131593 L-11.800223987841367,1.5712203478281643 L-11.75458604276723,1.5628234555653657 L-11.707871460403842,1.5570113774519787 L-11.660143549793123,1.5537919901954087 L-11.61146699327066,1.5531696568084983 L-11.561907758806226,1.5551452206966363 L-11.511533010601948,1.5597160045147478 L-11.460411018069308,1.5668758137957155 L-11.408611063308333,1.5766149453453133 L-11.356203347214361,1.5889202003922733 L-11.303258894339624,1.6037749024756667 L-11.249849456638579,1.621158920045359 L-11.196047416227453,1.6410486937449078 L-11.141925687289767,1.6634172683399262 L-11.087557617260789,1.6882343292486504 L-11.033016887424827,1.7154662436251924 L-10.978377413060077,1.7450761059398117 L-10.923713243266368,1.7770237879944268 L-10.814607080732442,1.8477563157811854 L-10.706289655571064,1.9272805212889408 L-10.599347949294085,2.015165455957862 L-10.494361488273533,2.1109348637123944 L-10.391899203237982,2.2140697618342062 L-10.292516346187636,2.324011253374496 L-10.196751481435644,2.4401635558649897 L-10.105123567081417,2.5618972299147518 L-10.01812914273172,2.68855259019678 L-9.936239638709532,2.8194432803399545 L-9.85989882133227,2.9538599923536797 L-9.789520388103666,3.0910743104293337 L-9.725485725851161,3.2303426582886576 L-9.668141843957633,3.37091032868803 L-9.617799493887485,3.512015573242401 L-9.574731485197542,3.6528937304058045 L-9.539171207158418,3.7927813692385217 L-9.511311363997844,3.930920426505483 L-9.491302930619756,4.06656231468663 L-9.479254334458213,4.198971978637543 L-9.475230867899738,4.327431878916933 " />
			<path d="M-4.525483399593904,7.18516991216399 L-4.527272055873578,7.268270766456499 L-4.532633715682953,7.349106061143126 L-4.541555462313922,7.427481056918638 L-4.5540158024974,7.503206941553372 L-4.569984718182486,7.576101284758439 L-4.5894237388525845,7.6459884776762665 L-4.612286034204242,7.712700155937722 L-4.638516526965459,7.7760756052666204 L-4.668052025581651,7.8359621486544935 L-4.70082137644965,7.8922155141728805 L-4.736745635332955,7.944700182537032 L-4.775738257545328,7.993289713583747 L-4.8177053064445055,8.037867050876793 L-4.86254567973381,8.078324803706115 L-4.910151353026435,8.11456550580147 L-4.960407640085645,8.146501850137193 " />
			<path d="M-4.960407640085655,8.146501850137199 L-5.013193469114013,8.174056899262503 L-5.068381674425886,8.197164270650502 L-5.125839302800765,8.215768296619554 L-5.185427933779198,8.229824158441582 L-5.247004013129811,8.239297994314308 L-5.310419198684021,8.244166980937305 L-5.375520717705314,8.244419388495324 L-5.442151734932148,8.24005460891645 L-5.510151730407835,8.231083157336998 L-5.579356886187179,8.21752664676963 L-5.649600480988251,8.199417736035711 L-5.720713291838565,8.176800051087355 L-5.792524001748033,8.149728079908675 L-5.864859612426609,8.118267041249466 L-5.937545861052317,8.082492727507521 L-6.0104076400856545,8.042491322138103 L-6.083269419118992,7.998359192030455 L-6.155955667744701,7.950202655351527 L-6.228291278423277,7.898137725416192 L-6.300101988332745,7.842289831201013 L-6.371214799183058,7.782793515174851 L-6.44145839398413,7.719792109174278 L-6.510663549763474,7.653437389104617 L-6.578663545239161,7.583889209298507 L-6.645294562465995,7.5113151174127974 L-6.710396081487289,7.435889950791585 L-6.7738112670414985,7.357795415267722 L-6.835387346392112,7.277219647417559 L-6.894975977370545,7.194356761323452 L-6.952433605745423,7.1094063809359325 L-7.007621811057296,7.022573159162128 L-7.060407640085655,6.934066284838985 L-7.110663927144874,6.844098978779033 L-7.1582696004375,6.752887980102777 L-7.2031099737268045,6.660653024095167 L-7.245077022625981,6.567616312844054 L-7.284069644838353,6.474001979935895 L-7.3199939037216595,6.380035550498314 L-7.352763254589657,6.285943397890311 L-7.38229875320585,6.19195219834902 L-7.408529245967067,6.098288384906793 L-7.431391541318725,6.005177601894191 L-7.450830561988823,5.912844161343036 L-7.466799477673909,5.821510502599067 L-7.479259817857386,5.731396656446083 L-7.4881815644883565,5.6427197150325075 L-7.493543224297731,5.555693308877387 L-7.495331880577405,5.470527092215765 L-7.493543224297731,5.387426237923258 L-7.4881815644883565,5.30659094323663 L-7.479259817857386,5.228215947461117 L-7.466799477673909,5.1524900628263826 L-7.450830561988823,5.079595719621317 L-7.431391541318725,5.009708526703489 L-7.408529245967067,4.942996848442033 L-7.38229875320585,4.879621399113134 L-7.352763254589657,4.81973485572526 L-7.3199939037216595,4.763481490206874 L-7.284069644838353,4.7109968218427225 L-7.245077022625981,4.662407290796008 L-7.2031099737268045,4.617829953502963 L-7.1582696004374995,4.57737220067364 L-7.110663927144874,4.5411314985782845 L-7.060407640085659,4.509195154242559 " />
			<path d="M-7.060407640085654,4.509195154242557 L-7.021048559814995,4.488114308702594 L-6.9803198278186285,4.469526727648326 L-6.938276640929551,4.453457601542527 L-6.894975977370544,4.439928707760201 L-6.850476519535534,4.428958381075207 L-6.804838574461396,4.420561488812408 L-6.7581239920980085,4.41474941069902 L-6.710396081487288,4.411530023442451 L-6.661719524964826,4.41090769005554 L-6.612160290500393,4.412883253943678 L-6.561785542296114,4.4174540377617895 L-6.510663549763474,4.424613847042758 L-6.4588635950025,4.434352978592355 L-6.406455878908528,4.446658233639315 L-6.353511426033791,4.461512935722709 L-6.300101988332745,4.478896953292401 L-6.246299947921619,4.49878672699195 L-6.192178218983933,4.521155301586968 L-6.137810148954955,4.545972362495692 L-6.083269419118992,4.573204276872234 L-6.028629944754243,4.602814139186854 L-5.973965774960535,4.634761821241469 L-5.864859612426609,4.7054943490282275 L-5.75654218726523,4.7850185545359825 L-5.649600480988251,4.872903489204903 L-5.5446140199677005,4.968672896959436 L-5.442151734932148,5.071807795081249 L-5.342768877881803,5.181749286621538 L-5.2470040131298115,5.297901589112032 L-5.155376098775583,5.419635263161794 L-5.068381674425887,5.546290623443822 L-4.986492170403698,5.677181313586996 L-4.910151353026435,5.811598025600722 L-4.8397729197978325,5.948812343676376 L-4.775738257545328,6.0880806915356995 L-4.718394375651799,6.228648361935072 L-4.668052025581652,6.369753606489443 L-4.624984016891708,6.510631763652847 L-4.5894237388525845,6.650519402485564 L-4.56156389569201,6.788658459752525 L-4.541555462313922,6.924300347933672 L-4.52950686615238,7.056710011884585 L-4.525483399593904,7.185169912163975 " />
			<path d="M-2.8991378028648453,14.411164653374367 L-2.8991378028648453,3.8783587594066997 " />
			<path d="M-3.1819805153394642,-4.286607049870562 L0.14142135623730967,-6.205374015050719 " />
			<path d="M-1.7677669529663689,-3.4701104689428357 L1.555634918610406,-5.388877434122993 " />
			<path d="M-3.1819805153394642,0.6123724356957945 L2.4748737341529172,-2.653613888015111 " />
			<path d="M2.4748737341529163,-2.6536138880151103 L2.4748737341529163,-7.552593373581467 " />
			<path d="M3.8890872965260117,-3.9600084174994725 L3.8890872965260117,-1.8371173070873832 " />
			<path d="M-1.7677669529663689,1.4288690166235207 L3.8890872965260126,-1.8371173070873847 " />
			<path d="M3.8890872965260117,-1.8371173070873839 L2.4748737341529163,-2.6536138880151103 " />
			<path d="M1.7677669529663689,-1.4288690166235207 L4.45477272147525,-2.980212520386201 " />
			<path d="M3.1819805153394642,-0.6123724356957945 L5.161879502661798,-1.7554676489946115 " />
			<path d="M3.1819805153394642,4.286607049870562 L5.586143571373726,2.8985628622934274 " />
			<path d="M8.838834764831844,1.0206207261596574 L7.424621202458749,0.204124145231931 " />
			<path d="M1.7677669529663689,3.4701104689428357 L7.42462120245875,0.20412414523193023 " />
			<path d="M7.4246212024587495,0.20412414523193112 L7.4246212024587495,-4.694855340334426 " />
			<path d="M-23.745615049503467,1.6966339469470642 L-18.088760800011087,-1.5693523767638413 " />
			<path d="M-22.14561504950347,4.467915239057268 L-16.488760800011086,1.2019289153463624 " />
			<path d="M-6.138656197958435,11.862016379497254 L-0.4818019484660532,8.596030055786349 " />
			<path d="M-4.538656197958435,14.633297671607458 L1.1181980515339465,11.367311347896553 " />
			<path d="M-9.910155108391486,5.288763816890157 L-15.567009357883867,8.554750140601062 " />
			<path d="M-12.010155108391485,1.6514571209955125 L-17.667009357883867,4.917443444706418 " />
			<path d="M-4.960407640085652,8.146501850137199 L-10.617261889578034,11.412488173848104 " />
			<path d="M-7.0604076400856535,4.509195154242555 L-12.717261889578035,7.77518147795346 " />

       </g>

       <!-- solid lines -->
       <g  stroke="rgb(0,0,0)" fill="none">
			<path d="M-5.586143571373726,-9.51218516780801 L-14.071424945612296,-4.613205682241652 " />
			<path d="M-20.50609665440988,-8.328265125462806 L-14.071424945612296,-4.613205682241652 " />
			<path d="M-20.50609665440988,-8.328265125462806 L-26.162950903902264,-5.062278801751901 " />
			<path d="M-10.323759005323595,4.0824829046386295 L-26.162950903902264,-5.062278801751905 " />
			<path d="M3.818376618407357,-4.082482904638631 L-10.323759005323595,4.082482904638631 " />
			<path d="M-5.586143571373726,-9.51218516780801 L3.818376618407359,-4.0824829046386295 " />
			<path d="M-26.16295090390226,7.51176854453508 L-26.16295090390226,-5.062278801751903 " />
			<path d="M-10.323759005323595,4.0824829046386295 L-8.555992052357226,7.144345083117603 " />
			<path d="M-8.555992052357226,7.144345083117601 L-8.555992052357226,5.1031036307982856 " />
			<path d="M-8.555992052357226,5.103103630798287 L-2.121320343559643,8.818163074019441 " />
			<path d="M-2.121320343559642,8.818163074019441 L-2.121320343559642,21.392210420306426 " />
			<path d="M-2.121320343559642,21.392210420306426 L-26.162950903902264,7.511768544535078 " />
			<path d="M-24.076985899401944,2.4290773282599845 L-24.073920401071675,2.5269515379966743 L-24.06474051828193,2.627835091483083 L-24.049495997612908,2.731181292002053 L-24.02826945044295,2.8364300975387855 L-24.001175905270284,2.943011155697045 L-23.96836218436366,3.05034689448821 L-23.930006108119738,3.157855652243922 L-23.886315531438953,3.264954829691062 L-23.83752721734181,3.3710640471076903 L-23.78390555392954,3.475608289451046 L-23.7257411216421,3.5780210224138833 L-23.663349118577575,3.6777472625229692 L-23.597067652406377,3.7742465846426096 L-23.52725590813649,3.8669960505852847 L-23.454292201658784,3.9554930429589943 L-23.378571929620424,4.039257988894454 L-23.300505426736194,4.117836958892025 L-23.220515742149107,4.190804126705002 L-23.139036346890457,4.257764076928942 L-23.05650878486274,4.318353947791994 L-22.973380280074988,4.372245397534287 L-22.890101313097112,4.41914638372037 L-22.807123179866682,4.458802745842478 L-22.72489554607711,4.490999582638338 L-22.643864010400325,4.515562416659737 L-22.564467689748938,4.532358139780923 L-22.487136839663666,4.5412957345230796 L-22.412290522721268,4.542326767285919 L-22.375926400351197,4.539873900804723 L-22.34033433759814,4.535445650813571 L-22.305562569922607,4.529048018613343 L-22.27165822109593,4.520689674472395 L-22.23866723933669,4.510381945876338 L-22.20663433504025,4.4981388021766815 L-22.175602920185874,4.483976835659144 L-22.14561504950347,4.46791523905727 " />
			<path d="M-22.145615049503466,4.467915239057268 L-22.107324545077393,4.4435827862300465 L-22.07105355590206,4.4159708227288235 L-22.036889461967352,4.385145868192196 L-22.00491456756798,4.35118218263559 L-21.97520590302522,4.314161587552379 L-21.94783503911413,4.27417326879874 L-21.922867914643273,4.231313561737112 L-21.900364677602365,4.185685719155876 L-21.880379540260485,4.137399662524333 L-21.862960648563984,4.086571717182272 L-21.84814996614867,4.033324332102022 L-21.835983173245747,3.9777857848981615 L-21.826489580725003,3.9200898727955074 L-21.81969205948236,3.8603755902998786 L-21.815606985341883,3.798786794348162 L-21.81424419960499,3.7354718577443466 L-21.815606985341883,3.6705833117164435 L-21.81969205948236,3.6042774784554 L-21.826489580725003,3.536714094521247 L-21.835983173245747,3.468055926023736 L-21.84814996614867,3.3984683765045216 L-21.862960648563984,3.328119088465546 L-21.880379540260485,3.257177539503564 L-21.900364677602365,3.185814634023772 L-21.922867914643273,3.1142022915161216 L-21.94783503911413,3.0425130323862155 L-21.97520590302522,2.9709195623385347 L-22.00491456756798,2.89959435631327 L-22.036889461967352,2.8287092429790874 L-22.07105355590206,2.7584349907828134 L-22.107324545077393,2.6889408965532855 L-22.145615049503466,2.6203943776504652 L-22.185832824001263,2.552960568642356 L-22.227880980429358,2.4868019234813628 L-22.27165822109593,2.4220778241384906 L-22.317059082793783,2.3589441966382174 L-22.363974190870444,2.297553135419045 L-22.41229052272127,2.2380525369246733 L-22.461891680070828,2.1805857433085114 L-22.51265816938651,2.1252911971098767 L-22.564467689748938,2.072302107733792 L-22.61719542748558,2.021746130537861 L-22.670714356857825,1.9737450592993286 L-22.72489554607711,1.928414532803206 L-22.779608467912897,1.8858637562583078 L-22.834721314144193,1.8461952382123377 L-22.890101313097112,1.8095045435998212 L-22.945615049503466,1.775880063517804 L-23.00112878590982,1.745402802283961 L-23.05650878486274,1.718146182290098 L-23.111621631094035,1.6941758671211775 L-23.166334552929822,1.6735496033659931 L-23.220515742149107,1.6563170815005783 L-23.274034671521353,1.642519816179498 L-23.326762409257995,1.6321910462234075 L-23.378571929620424,1.6253556545438248 L-23.429338418936105,1.6220301081980162 L-23.47893957628566,1.6222224187184113 L-23.52725590813649,1.6259321228121228 L-23.574171016213146,1.633150283477057 L-23.619571877911003,1.6438595115319357 L-23.663349118577575,1.6580340075083573 L-23.70539727500567,1.675639623803975 L-23.74561504950346,1.6966339469470593 " />
			<path d="M-23.745615049503467,1.6966339469470635 L-23.78390555392954,1.720966399774285 L-23.82017654310487,1.7485783632755079 L-23.85434063703958,1.779403317812135 L-23.886315531438953,1.8133670033687408 L-23.916024195981713,1.850387598451952 L-23.943395059892804,1.8903759172055914 L-23.96836218436366,1.933235624267219 L-23.990865421404568,1.9788634668484562 L-24.010850558746448,2.0271495234799977 L-24.02826945044295,2.077977468822059 L-24.04308013285826,2.1312248539023093 L-24.055246925761185,2.18676340110617 L-24.06474051828193,2.244459313208824 L-24.071538039524572,2.3041735957044525 L-24.07562311366505,2.365762391656169 L-24.076985899401944,2.429077328259983 " />
			<path d="M-6.47002704785691,12.594459760810176 L-6.466961549526643,12.692333970546866 L-6.457781666736897,12.793217524033274 L-6.4425371460678775,12.896563724552244 L-6.421310598897916,13.001812530088976 L-6.394217053725251,13.108393588247237 L-6.361403332818627,13.215729327038401 L-6.3230472565747045,13.323238084794113 L-6.279356679893921,13.430337262241252 L-6.230568365796775,13.536446479657881 L-6.176946702384506,13.640990722001238 L-6.118782270097068,13.743403454964074 L-6.056390267032543,13.843129695073161 L-5.990108800861346,13.939629017192802 L-5.920297056591458,14.032378483135476 L-5.84733335011375,14.120875475509186 L-5.771613078075392,14.204640421444646 L-5.693546575191161,14.283219391442216 L-5.613556890604075,14.356186559255194 L-5.532077495345425,14.423146509479134 L-5.449549933317707,14.483736380342185 L-5.366421428529954,14.537627830084478 L-5.283142461552082,14.584528816270561 L-5.20016432832165,14.624185178392668 L-5.117936694532079,14.65638201518853 L-5.036905158855292,14.68094484920993 L-4.957508838203905,14.697740572331115 L-4.880177988118633,14.706678167073271 L-4.805331671176237,14.707709199836112 L-4.768967548806164,14.705256333354916 L-4.733375486053108,14.700828083363763 L-4.698603718377574,14.694430451163536 L-4.664699369550899,14.686072107022587 L-4.631708387791655,14.675764378426528 L-4.599675483495216,14.663521234726874 L-4.568644068640841,14.649359268209336 L-4.538656197958438,14.633297671607462 " />
			<path d="M-4.538656197958434,14.633297671607458 L-4.500365693532362,14.608965218780238 L-4.464094704357028,14.581353255279014 L-4.4299306104223195,14.550528300742387 L-4.397955716022947,14.516564615185782 L-4.368247051480187,14.479544020102571 L-4.340876187569097,14.439555701348931 L-4.315909063098242,14.396695994287304 L-4.293405826057333,14.351068151706066 L-4.273420688715453,14.302782095074525 L-4.256001797018952,14.251954149732462 L-4.241191114603639,14.198706764652213 L-4.229024321700716,14.143168217448354 L-4.219530729179971,14.085472305345698 L-4.212733207937328,14.02575802285007 L-4.208648133796852,13.964169226898353 L-4.207285348059958,13.900854290294538 L-4.208648133796852,13.835965744266636 L-4.212733207937328,13.769659911005592 L-4.219530729179971,13.702096527071438 L-4.229024321700716,13.633438358573928 L-4.241191114603639,13.563850809054713 L-4.256001797018952,13.493501521015737 L-4.273420688715453,13.422559972053756 L-4.293405826057333,13.351197066573963 L-4.315909063098241,13.279584724066313 L-4.340876187569096,13.207895464936406 L-4.3682470514801865,13.136301994888726 L-4.397955716022946,13.064976788863461 L-4.4299306104223195,12.99409167552928 L-4.464094704357028,12.923817423333006 L-4.500365693532361,12.854323329103476 L-4.538656197958433,12.785776810200657 L-4.57887397245623,12.718343001192547 L-4.620922128884324,12.652184356031555 L-4.664699369550898,12.587460256688683 L-4.710100231248752,12.524326629188408 L-4.75701533932541,12.462935567969236 L-4.805331671176237,12.403434969474866 L-4.8549328285257936,12.345968175858703 L-4.905699317841476,12.290673629660068 L-4.957508838203904,12.237684540283983 L-5.010236575940548,12.187128563088052 L-5.063755505312793,12.13912749184952 L-5.117936694532079,12.093796965353398 L-5.172649616367863,12.051246188808499 L-5.227762462599159,12.011577670762529 L-5.28314246155208,11.974886976150012 L-5.338656197958434,11.941262496067996 L-5.394169934364787,11.910785234834153 L-5.449549933317707,11.883528614840289 L-5.504662779549003,11.859558299671368 L-5.559375701384788,11.838932035916184 L-5.613556890604074,11.82169951405077 L-5.667075819976319,11.80790224872969 L-5.719803557712963,11.797573478773598 L-5.771613078075391,11.790738087094017 L-5.822379567391073,11.787412540748207 L-5.87198072474063,11.787604851268602 L-5.9202970565914566,11.791314555362314 L-5.9672121646681155,11.798532716027248 L-6.012613026365969,11.809241944082126 L-6.056390267032543,11.823416440058548 L-6.098438423460637,11.841022056354166 L-6.138656197958427,11.86201637949725 " />
			<path d="M-6.138656197958434,11.862016379497256 L-6.176946702384506,11.886348832324476 L-6.21321769155984,11.9139607958257 L-6.247381785494548,11.944785750362326 L-6.279356679893921,11.978749435918932 L-6.30906534443668,12.015770031002143 L-6.336436208347771,12.055758349755783 L-6.361403332818627,12.098618056817411 L-6.383906569859535,12.144245899398648 L-6.4038917072014145,12.192531956030189 L-6.421310598897916,12.243359901372251 L-6.436121281313229,12.2966072864525 L-6.448288074216152,12.352145833656362 L-6.457781666736897,12.409841745759016 L-6.46457918797954,12.469556028254644 L-6.468664262120016,12.53114482420636 L-6.4700270478569095,12.594459760810174 " />
			<path d="M-15.132085117392116,7.593418202627852 L-15.13387377367179,7.676519056920361 L-15.139235433481165,7.757354351606988 L-15.148157180112134,7.8357293473825 L-15.160617520295611,7.911455232017234 L-15.176586435980697,7.984349575222301 L-15.196025456650796,8.054236768140129 L-15.218887752002454,8.120948446401584 L-15.24511824476367,8.184323895730483 L-15.274653743379863,8.244210439118357 L-15.307423094247861,8.300463804636742 L-15.343347353131167,8.352948473000895 L-15.38233997534354,8.401538004047609 L-15.424307024242717,8.446115341340654 L-15.469147397532021,8.486573094169978 L-15.516753070824645,8.522813796265332 L-15.567009357883856,8.554750140601055 " />
			<path d="M-15.567009357883865,8.554750140601062 L-15.619795186912224,8.582305189726364 L-15.674983392224098,8.605412561114363 L-15.732441020598976,8.624016587083416 L-15.792029651577408,8.638072448905445 L-15.853605730928022,8.647546284778171 L-15.917020916482233,8.652415271401168 L-15.982122435503525,8.652667678959187 L-16.04875345273036,8.648302899380312 L-16.116753448206047,8.63933144780086 L-16.18595860398539,8.62577493723349 L-16.256202198786465,8.607666026499572 L-16.327315009636777,8.585048341551216 L-16.399125719546245,8.557976370372536 L-16.47146133022482,8.526515331713329 L-16.544147578850527,8.490741017971382 L-16.617009357883866,8.450739612601964 L-16.689871136917205,8.406607482494318 L-16.762557385542912,8.35845094581539 L-16.834892996221487,8.306386015880054 L-16.906703706130955,8.250538121664874 L-16.97781651698127,8.191041805638713 L-17.04806011178234,8.12804039963814 L-17.117265267561685,8.06168567956848 L-17.185265263037373,7.992137499762369 L-17.25189628026421,7.919563407876661 L-17.3169977992855,7.844138241255447 L-17.38041298483971,7.766043705731584 L-17.441989064190324,7.6854679378814215 L-17.501577695168756,7.6026050517873145 L-17.559035323543633,7.517654671399795 L-17.614223528855508,7.430821449625991 L-17.667009357883867,7.342314575302847 L-17.717265644943087,7.252347269242895 L-17.764871318235713,7.161136270566639 L-17.809711691525017,7.06890131455903 L-17.85167874042419,6.975864603307916 L-17.890671362636564,6.882250270399758 L-17.92659562151987,6.788283840962176 L-17.95936497238787,6.694191688354174 L-17.98890047100406,6.600200488812883 L-18.015130963765277,6.506536675370654 L-18.037993259116938,6.413425892358053 L-18.057432279787033,6.321092451806898 L-18.073401195472123,6.2297587930629295 L-18.0858615356556,6.139644946909946 L-18.094783282286567,6.050968005496369 L-18.10014494209594,5.96394159934125 L-18.101933598375616,5.878775382679628 L-18.10014494209594,5.79567452838712 L-18.094783282286567,5.714839233700491 L-18.0858615356556,5.636464237924979 L-18.073401195472123,5.560738353290246 L-18.057432279787033,5.487844010085179 L-18.037993259116938,5.417956817167351 L-18.015130963765277,5.351245138905895 L-17.98890047100406,5.287869689576996 L-17.959364972387867,5.227983146189122 L-17.92659562151987,5.171729780670736 L-17.890671362636564,5.119245112306585 L-17.85167874042419,5.070655581259871 L-17.809711691525017,5.0260782439668255 L-17.764871318235713,4.985620491137502 L-17.717265644943087,4.949379789042147 L-17.66700935788387,4.9174434447064215 " />
			<path d="M-17.667009357883867,4.917443444706419 L-17.627650277613206,4.896362599166455 L-17.58692154561684,4.877775018112187 L-17.54487835872776,4.861705892006389 L-17.501577695168756,4.848176998224064 L-17.457078237333747,4.837206671539068 L-17.41144029225961,4.82880977927627 L-17.36472570989622,4.822997701162883 L-17.3169977992855,4.819778313906313 L-17.268321242763037,4.819155980519403 L-17.218762008298604,4.821131544407541 L-17.168387260094327,4.825702328225652 L-17.117265267561685,4.83286213750662 L-17.06546531280071,4.8426012690562175 L-17.01305759670674,4.8549065241031775 L-16.960113143832004,4.86976122618657 L-16.906703706130955,4.8871452437562635 L-16.85290166571983,4.9070350174558115 L-16.798779936782147,4.92940359205083 L-16.74441186675317,4.954220652959554 L-16.689871136917205,4.981452567336096 L-16.635231662552453,5.011062429650716 L-16.580567492758746,5.043010111705331 L-16.47146133022482,5.11374263949209 L-16.363143905063442,5.193266844999845 L-16.256202198786465,5.281151779668766 L-16.151215737765913,5.3769211874232985 L-16.04875345273036,5.48005608554511 L-15.949370595680014,5.5899975770854 L-15.853605730928024,5.706149879575894 L-15.761977816573795,5.8278835536256555 L-15.6749833922241,5.954538913907684 L-15.59309388820191,6.085429604050859 L-15.516753070824645,6.219846316064584 L-15.446374637596044,6.357060634140238 L-15.38233997534354,6.496328981999562 L-15.324996093450011,6.636896652398934 L-15.274653743379863,6.778001896953305 L-15.231585734689919,6.918880054116709 L-15.196025456650796,7.058767692949425 L-15.16816561349022,7.196906750216387 L-15.148157180112134,7.332548638397534 L-15.136108583950591,7.464958302348447 L-15.132085117392116,7.593418202627837 " />
			<path d="M-10.182337649086284,10.451156235874894 L-10.184126305365957,10.534257090167403 L-10.189487965175333,10.61509238485403 L-10.198409711806303,10.693467380629542 L-10.21087005198978,10.769193265264276 L-10.226838967674865,10.842087608469342 L-10.246277988344964,10.91197480138717 L-10.269140283696622,10.978686479648626 L-10.295370776457839,11.042061928977525 L-10.324906275074031,11.101948472365399 L-10.35767562594203,11.158201837883784 L-10.393599884825335,11.210686506247937 L-10.432592507037707,11.25927603729465 L-10.474559555936885,11.303853374587696 L-10.51939992922619,11.34431112741702 L-10.567005602518815,11.380551829512374 L-10.617261889578025,11.412488173848097 " />
			<path d="M-10.617261889578035,11.412488173848104 L-10.670047718606392,11.440043222973406 L-10.725235923918266,11.463150594361405 L-10.782693552293145,11.481754620330458 L-10.842282183271577,11.495810482152487 L-10.90385826262219,11.505284318025213 L-10.967273448176401,11.51015330464821 L-11.032374967197693,11.510405712206229 L-11.099005984424528,11.506040932627354 L-11.167005979900216,11.497069481047902 L-11.236211135679559,11.483512970480533 L-11.306454730480631,11.465404059746614 L-11.377567541330944,11.442786374798258 L-11.449378251240413,11.415714403619578 L-11.521713861918988,11.38425336496037 L-11.594400110544697,11.348479051218424 L-11.667261889578034,11.308477645849006 L-11.740123668611373,11.26434551574136 L-11.81280991723708,11.216188979062432 L-11.885145527915656,11.164124049127096 L-11.956956237825125,11.108276154911916 L-12.028069048675437,11.048779838885755 L-12.09831264347651,10.985778432885182 L-12.167517799255855,10.919423712815522 L-12.23551779473154,10.84987553300941 L-12.302148811958375,10.777301441123702 L-12.367250330979669,10.701876274502489 L-12.430665516533878,10.623781738978627 L-12.492241595884492,10.543205971128463 L-12.551830226862924,10.460343085034356 L-12.609287855237802,10.375392704646837 L-12.664476060549676,10.288559482873033 L-12.717261889578035,10.200052608549889 L-12.767518176637255,10.110085302489937 L-12.81512384992988,10.01887430381368 L-12.859964223219183,9.926639347806072 L-12.901931272118361,9.833602636554959 L-12.940923894330734,9.739988303646799 L-12.97684815321404,9.646021874209218 L-13.009617504082037,9.551929721601216 L-13.03915300269823,9.457938522059925 L-13.065383495459447,9.364274708617696 L-13.088245790811104,9.271163925605096 L-13.107684811481203,9.17883048505394 L-13.123653727166289,9.087496826309971 L-13.136114067349766,8.997382980156987 L-13.145035813980737,8.90870603874341 L-13.150397473790111,8.821679632588292 L-13.152186130069785,8.73651341592667 L-13.150397473790111,8.65341256163416 L-13.145035813980735,8.572577266947533 L-13.136114067349766,8.494202271172021 L-13.123653727166289,8.418476386537288 L-13.107684811481203,8.345582043332222 L-13.088245790811104,8.275694850414393 L-13.065383495459447,8.208983172152937 L-13.03915300269823,8.145607722824039 L-13.009617504082037,8.085721179436165 L-12.97684815321404,8.029467813917778 L-12.940923894330732,7.976983145553627 L-12.901931272118361,7.928393614506913 L-12.859964223219185,7.883816277213867 L-12.81512384992988,7.843358524384544 L-12.767518176637253,7.807117822289189 L-12.717261889578038,7.775181477953463 " />
			<path d="M-12.717261889578035,7.775181477953461 L-12.677902809307374,7.754100632413497 L-12.637174077311009,7.735513051359229 L-12.595130890421931,7.719443925253431 L-12.551830226862924,7.705915031471106 L-12.507330769027913,7.69494470478611 L-12.461692823953776,7.686547812523312 L-12.414978241590388,7.680735734409925 L-12.367250330979669,7.677516347153355 L-12.318573774457207,7.676894013766445 L-12.269014539992773,7.678869577654583 L-12.218639791788494,7.683440361472694 L-12.167517799255855,7.690600170753662 L-12.11571784449488,7.700339302303259 L-12.063310128400907,7.712644557350219 L-12.01036567552617,7.727499259433612 L-11.956956237825125,7.744883277003305 L-11.903154197413999,7.764773050702853 L-11.849032468476313,7.787141625297872 L-11.794664398447335,7.811958686206596 L-11.740123668611373,7.839190600583138 L-11.685484194246623,7.868800462897758 L-11.630820024452914,7.900748144952373 L-11.521713861918988,7.971480672739132 L-11.41339643675761,8.051004878246887 L-11.306454730480631,8.138889812915808 L-11.20146826946008,8.234659220670341 L-11.099005984424528,8.337794118792152 L-10.999623127374182,8.447735610332442 L-10.90385826262219,8.563887912822935 L-10.812230348267963,8.685621586872697 L-10.725235923918266,8.812276947154725 L-10.643346419896078,8.9431676372979 L-10.567005602518815,9.077584349311625 L-10.496627169290212,9.21479866738728 L-10.432592507037707,9.354067015246605 L-10.37524862514418,9.494634685645975 L-10.324906275074031,9.635739930200346 L-10.281838266384089,9.776618087363751 L-10.246277988344964,9.916505726196467 L-10.21841814518439,10.054644783463429 L-10.198409711806303,10.190286671644575 L-10.18636111564476,10.322696335595488 L-10.182337649086284,10.451156235874878 " />
			<path d="M5.586143571373726,-1.0206207261596574 L-1.1313708498984774,2.857738033247043 " />
			<path d="M3.818376618407357,-4.082482904638631 L5.586143571373727,-1.0206207261596574 " />
			<path d="M5.586143571373726,-1.0206207261596574 L5.586143571373726,9.51218516780801 " />
			<path d="M5.586143571373726,9.51218516780801 L3.5355339059327378,10.696105210153213 " />
			<path d="M3.5355339059327378,18.12622409659552 L-2.1213203435596437,21.392210420306426 " />
			<path d="M-2.8991378028648453,1.8371173070873836 L-8.555992052357226,5.103103630798289 " />
			<path d="M3.5355339059327378,5.552176750308537 L-2.1213203435596437,8.818163074019443 " />
			<path d="M-2.8991378028648453,1.8371173070873836 L3.5355339059327378,5.552176750308538 " />
			<path d="M3.5355339059327378,5.552176750308537 L3.5355339059327378,18.12622409659552 " />
			<path d="M0.14142135623730967,-6.205374015050719 L2.4748737341529172,-7.552593373581468 " />
			<path d="M2.4748737341529163,-7.552593373581466 L3.8890872965260117,-6.73609679265374 " />
			<path d="M1.555634918610406,-5.388877434122993 L3.8890872965260126,-6.736096792653742 " />
			<path d="M3.8890872965260117,-6.73609679265374 L3.8890872965260117,-3.9600084174994725 " />
			<path d="M4.45477272147525,-2.980212520386201 L7.42462120245875,-4.694855340334426 " />
			<path d="M7.4246212024587495,-4.694855340334425 L8.838834764831844,-3.878358759406699 " />
			<path d="M5.161879502661798,-1.7554676489946115 L8.838834764831846,-3.8783587594066997 " />
			<path d="M8.838834764831844,-3.878358759406699 L8.838834764831844,1.0206207261596578 " />
			<path d="M5.586143571373726,2.8985628622934274 L8.838834764831846,1.0206207261596565 " />

       </g>
    </g>
    
</svg>
