<?xml version="1.0" encoding="UTF-8" standalone="no"?>
<svg
   xmlns:svg="http://www.w3.org/2000/svg"
   xmlns="http://www.w3.org/2000/svg"
   width="800.0"
   height="600.0"

>
    <g transform="scale(17.647058823529413, -17.647058823529413)   translate(18.133333333333333,-8.833333333333334)" stroke-width="1.0"  fill="none">
       <!-- hidden lines -->
       <g  stroke="#6e7781" fill="none" stroke-dasharray="1.0,1.0" >
			<path d="M-17.0,-7.7 L-7.9,-7.7 " />
			<path d="M-7.9,-7.7 L5.4,-7.7 " />
			<path d="M-7.9,7.7 L-7.9,-7.7 " />
			<path d="M-7.9,-7.7 L-7.9,7.7 " />
			<path d="M-7.9,7.7 L-17.0,7.7 " />
			<path d="M-17.0,7.7 L-17.0,-7.7 " />
			<path d="M-14.049999999999999,0.0 L-14.04601444024122,0.11286233446769754 L-14.034077616823126,0.22516239446222486 L-14.014248998399543,0.33634070673355376 L-13.986627370150046,0.4458433865223874 L-13.951350341637166,0.5531248969861701 L-13.908593661242467,0.657650767036195 L-13.858570340596945,0.7589002540456837 L-13.80152959336781,0.8563689381633589 L-13.73775559368852,0.94957123530777 L-13.667566060417547,1.0380428163227617 L-13.591310674279008,1.1213429202419727 L-13.50936933577088,1.1990565501378 L-13.422150272519838,1.2707965406152173 L-13.330088005511746,1.3362054866502966 L-13.233641184329965,1.3949575241640617 L-13.133290302186202,1.4467599534609359 L-13.029535302127492,1.4913546974439031 L-12.922893086345095,1.5285195873416246 L-12.81389494099377,1.5580694695420805 L-12.703083889350886,1.5798571280185523 L-12.591011986501764,1.5937740177524624 L-12.478237569029005,1.5997508054991978 L-12.365322473407739,1.5977577152028455 L-12.252829236964546,1.5878046763390066 L-12.141318295344805,1.5699412744466477 L-12.031345190450496,1.54425650409544 L-11.923457802758385,1.5108783255192897 L-11.818193621807055,1.4699730271248903 L-11.716077068451055,1.4217443970512438 L-11.617616882222588,1.3664327079074026 L-11.523303586816747,1.3043135197464197 L-11.433607046327138,1.2356963072390226 L-11.34897412440661,1.1609229178863723 L-11.269826458015004,1.0803658689530085 L-11.196558356845035,0.9944264916045745 L-11.129534838891235,0.9035329314961381 L-11.069089811948665,0.8081380157720747 L-11.015524410101072,0.7087169971040115 L-10.969105493486044,0.6057651860059238 L-10.930064318811214,0.4997954832220686 L-10.898595387244978,0.3913358244812776 L-10.874855475421466,0.2809265503477106 L-10.858962854387228,0.1691177142713459 L-10.850996700380835,0.056466342249360736 L-10.850996700380835,-0.05646634224936745 L-10.85896285438723,-0.16911771427135258 L-10.874855475421466,-0.2809265503477172 L-10.89859538724498,-0.3913358244812841 L-10.930064318811215,-0.499795483222075 L-10.969105493486047,-0.60576518600593 L-11.015524410101076,-0.7087169971040175 L-11.069089811948668,-0.8081380157720806 L-11.129534838891239,-0.9035329314961436 L-11.196558356845038,-0.9944264916045799 L-11.269826458015007,-1.0803658689530136 L-11.348974124406613,-1.160922917886377 L-11.433607046327142,-1.2356963072390261 L-11.523303586816752,-1.304313519746423 L-11.617616882222594,-1.366432707907406 L-11.71607706845106,-1.4217443970512464 L-11.81819362180706,-1.469973027124893 L-11.92345780275839,-1.5108783255192917 L-12.031345190450502,-1.5442565040954415 L-12.141318295344812,-1.569941274446649 L-12.252829236964553,-1.5878046763390075 L-12.365322473407748,-1.597757715202846 L-12.478237569029014,-1.5997508054991978 L-12.591011986501771,-1.5937740177524617 L-12.703083889350895,-1.579857128018551 L-12.813894940993778,-1.5580694695420785 L-12.922893086345104,-1.528519587341622 L-13.0295353021275,-1.4913546974438996 L-13.13329030218621,-1.4467599534609314 L-13.233641184329974,-1.3949575241640566 L-13.330088005511755,-1.3362054866502908 L-13.422150272519847,-1.2707965406152104 L-13.509369335770888,-1.1990565501377926 L-13.591310674279017,-1.1213429202419642 L-13.667566060417556,-1.0380428163227522 L-13.737755593688528,-0.9495712353077599 L-13.801529593367817,-0.8563689381633479 L-13.858570340596952,-0.758900254045672 L-13.908593661242472,-0.6576507670361826 L-13.951350341637172,-0.5531248969861572 L-13.98662737015005,-0.44584338652237393 L-14.014248998399545,-0.3363407067335397 L-14.03407761682313,-0.2251623944622103 L-14.046014440241223,-0.11286233446768262 L-14.049999999999999,1.5240053210995052e-14 " />
			<path d="M5.4,-7.7 L7.9,-5.199999999999999 " />
			<path d="M7.9,-5.2 L7.9,7.7 " />
			<path d="M7.9,7.7 L-7.9,7.7 " />
			<path d="M-4.5,-3.0 L-2.5,-3.0 " />
			<path d="M-4.5,3.0 L-4.5,-3.0 " />
			<path d="M-2.5,3.0 L-4.5,3.0 " />
			<path d="M-2.5,-3.0 L-2.5,3.0 " />
			<path d="M2.5,-3.0 L4.5,-3.0 " />
			<path d="M2.5,3.0 L2.5,-3.0 " />
			<path d="M4.5,3.0 L2.5,3.0 " />
			<path d="M4.5,-3.0 L4.5,3.0 " />
			<path d="M17.0,7.7 L7.9,7.7 " />
			<path d="M7.9,-5.2 L7.9,-7.7 " />
			<path d="M7.9,-7.7 L17.0,-7.7 " />
			<path d="M17.0,-7.7 L17.0,7.7 " />
			<path d="M10.85,0.0 L10.853985559758778,0.11286233446769754 L10.865922383176873,0.22516239446222486 L10.885751001600456,0.33634070673355376 L10.913372629849952,0.4458433865223874 L10.948649658362832,0.5531248969861701 L10.991406338757532,0.657650767036195 L11.041429659403054,0.7589002540456837 L11.098470406632188,0.8563689381633589 L11.162244406311478,0.94957123530777 L11.232433939582451,1.0380428163227617 L11.30868932572099,1.1213429202419727 L11.390630664229118,1.1990565501378 L11.47784972748016,1.2707965406152173 L11.569911994488253,1.3362054866502966 L11.666358815670034,1.3949575241640617 L11.766709697813797,1.4467599534609359 L11.870464697872507,1.4913546974439031 L11.977106913654904,1.5285195873416246 L12.08610505900623,1.5580694695420805 L12.196916110649113,1.5798571280185523 L12.308988013498235,1.5937740177524624 L12.421762430970993,1.5997508054991978 L12.53467752659226,1.5977577152028455 L12.647170763035453,1.5878046763390066 L12.758681704655194,1.5699412744466477 L12.868654809549502,1.54425650409544 L12.976542197241614,1.5108783255192897 L13.081806378192944,1.4699730271248903 L13.183922931548944,1.4217443970512438 L13.28238311777741,1.3664327079074026 L13.376696413183252,1.3043135197464197 L13.46639295367286,1.2356963072390226 L13.551025875593389,1.1609229178863723 L13.630173541984995,1.0803658689530085 L13.703441643154964,0.9944264916045745 L13.770465161108763,0.9035329314961381 L13.830910188051334,0.8081380157720747 L13.884475589898926,0.7087169971040115 L13.930894506513955,0.6057651860059238 L13.969935681188785,0.4997954832220686 L14.001404612755021,0.3913358244812776 L14.025144524578533,0.2809265503477106 L14.041037145612771,0.1691177142713459 L14.049003299619164,0.056466342249360736 L14.049003299619164,-0.05646634224936745 L14.04103714561277,-0.16911771427135258 L14.025144524578533,-0.2809265503477172 L14.00140461275502,-0.3913358244812841 L13.969935681188783,-0.499795483222075 L13.930894506513951,-0.60576518600593 L13.884475589898923,-0.7087169971040175 L13.83091018805133,-0.8081380157720806 L13.77046516110876,-0.9035329314961436 L13.70344164315496,-0.9944264916045799 L13.630173541984991,-1.0803658689530136 L13.551025875593385,-1.160922917886377 L13.466392953672857,-1.2356963072390261 L13.376696413183247,-1.304313519746423 L13.282383117777405,-1.366432707907406 L13.183922931548938,-1.4217443970512464 L13.081806378192939,-1.469973027124893 L12.976542197241608,-1.5108783255192917 L12.868654809549497,-1.5442565040954415 L12.758681704655187,-1.569941274446649 L12.647170763035446,-1.5878046763390075 L12.534677526592251,-1.597757715202846 L12.421762430970984,-1.5997508054991978 L12.308988013498228,-1.5937740177524617 L12.196916110649104,-1.579857128018551 L12.08610505900622,-1.5580694695420785 L11.977106913654895,-1.528519587341622 L11.870464697872498,-1.4913546974438996 L11.766709697813788,-1.4467599534609314 L11.666358815670025,-1.3949575241640566 L11.569911994488244,-1.3362054866502908 L11.477849727480152,-1.2707965406152104 L11.39063066422911,-1.1990565501377926 L11.308689325720982,-1.1213429202419642 L11.232433939582442,-1.0380428163227522 L11.162244406311471,-0.9495712353077599 L11.098470406632181,-0.8563689381633479 L11.041429659403047,-0.758900254045672 L10.991406338757526,-0.6576507670361826 L10.948649658362827,-0.5531248969861572 L10.913372629849949,-0.44584338652237393 L10.885751001600454,-0.3363407067335397 L10.86592238317687,-0.2251623944622103 L10.853985559758776,-0.11286233446768262 L10.85,1.5240053210995052e-14 " />
			<path d="M-1.4,0.0 L-1.4039830096522072,0.12927790288127997 L-1.415916929688935,0.25806541039589964 L-1.435756490663806,0.3858739874147977 L-1.4634264343264798,0.512218812227592 L-1.4988217991029709,0.6366206156373915 L-1.5418083182508526,0.7586074989930212 L-1.5922229291790002,0.8777167242622452 L-1.6498743919998524,0.9934964693556212 L-1.7145440149678102,1.1055075420424472 L-1.7859864840519344,1.2133250459573275 L-1.8639307934960923,1.3165399923776238 L-1.9480812738366158,1.4147608516577703 L-2.0381187134778544,1.5076150384353282 L-2.133701569571092,1.5947503249748853 L-2.234467263603562,1.6758361772885033 L-2.340033556782938,1.7505650089643512 L-2.4500000000000006,1.8186533479473217 L-2.56394945286927,1.8798429118456312 L-2.681449666085374,1.933901587684403 L-2.8020549210927155,1.9806243123896832 L-2.925307720848627,2.0198338506629203 L-3.0507405252663564,2.051381467295162 L-3.177877524754762,2.075147491370645 L-3.306236445127067,2.0910417702195727 L-3.435330377032044,2.0990040113980686 L-3.5646696229679593,2.0990040113980686 L-3.6937635548729357,2.0910417702195723 L-3.822122475245241,2.0751474913706445 L-3.9492594747336462,2.0513814672951614 L-4.0746922791513756,2.0198338506629194 L-4.197945078907287,1.980624312389682 L-4.3185503339146285,1.933901587684402 L-4.436050547130732,1.8798429118456301 L-4.550000000000001,1.8186533479473204 L-4.659966443217063,1.7505650089643503 L-4.765532736396439,1.6758361772885029 L-4.866298430428909,1.594750324974885 L-4.9618812865221456,1.5076150384353282 L-5.051918726163384,1.4147608516577703 L-5.136069206503907,1.3165399923776244 L-5.214013515948065,1.2133250459573284 L-5.285455985032189,1.1055075420424485 L-5.3501256080001465,0.993496469355623 L-5.407777070820998,0.8777167242622473 L-5.458191681749146,0.7586074989930237 L-5.501178200897028,0.6366206156373944 L-5.536573565673519,0.5122188122275954 L-5.564243509336193,0.38587398741480144 L-5.584083070311065,0.2580654103959038 L-5.596016990347792,0.12927790288128452 L-5.6,4.920112531246601e-15 L-5.596016990347793,-0.1292779028812747 L-5.584083070311066,-0.25806541039589403 L-5.564243509336195,-0.3858739874147918 L-5.536573565673521,-0.5122188122275858 L-5.501178200897031,-0.6366206156373849 L-5.45819168174915,-0.7586074989930145 L-5.407777070821003,-0.8777167242622385 L-5.350125608000151,-0.9934964693556143 L-5.285455985032194,-1.1055075420424403 L-5.2140135159480705,-1.2133250459573204 L-5.1360692065039135,-1.3165399923776167 L-5.05191872616339,-1.4147608516577632 L-4.961881286522153,-1.5076150384353215 L-4.866298430428915,-1.594750324974879 L-4.765532736396446,-1.675836177288497 L-4.659966443217071,-1.7505650089643454 L-4.550000000000009,-1.818653347947316 L-4.43605054713074,-1.8798429118456261 L-4.3185503339146365,-1.9339015876843983 L-4.197945078907296,-1.980624312389679 L-4.074692279151385,-2.0198338506629168 L-3.9492594747336565,-2.051381467295159 L-3.822122475245252,-2.0751474913706427 L-3.693763554872947,-2.0910417702195714 L-3.564669622967971,-2.099004011398068 L-3.435330377032056,-2.099004011398069 L-3.30623644512708,-2.091041770219574 L-3.177877524754775,-2.075147491370647 L-3.0507405252663697,-2.051381467295165 L-2.9253077208486404,-2.0198338506629243 L-2.8020549210927292,-1.9806243123896878 L-2.681449666085388,-1.9339015876844088 L-2.5639494528692843,-1.8798429118456381 L-2.4500000000000144,-1.8186533479473295 L-2.340033556782952,-1.7505650089643603 L-2.234467263603575,-1.6758361772885135 L-2.1337015695711052,-1.5947503249748967 L-2.038118713477867,-1.5076150384353408 L-1.9480812738366282,-1.4147608516577836 L-1.8639307934961038,-1.3165399923776384 L-1.7859864840519455,-1.213325045957343 L-1.7145440149678206,-1.1055075420424638 L-1.6498743919998617,-0.9934964693556387 L-1.5922229291790087,-0.8777167242622637 L-1.5418083182508602,-0.7586074989930405 L-1.4988217991029775,-0.6366206156374113 L-1.4634264343264856,-0.5122188122276128 L-1.43575649066381,-0.3858739874148191 L-1.4159169296889376,-0.2580654103959217 L-1.4039830096522086,-0.12927790288130245 L-1.4,-2.2896447832085044e-14 " />
			<path d="M5.6,0.0 L5.596016990347793,0.12927790288127997 L5.584083070311065,0.25806541039589964 L5.564243509336194,0.3858739874147977 L5.53657356567352,0.512218812227592 L5.501178200897029,0.6366206156373915 L5.458191681749147,0.7586074989930212 L5.407777070821,0.8777167242622452 L5.350125608000147,0.9934964693556212 L5.28545598503219,1.1055075420424472 L5.214013515948066,1.2133250459573275 L5.136069206503908,1.3165399923776238 L5.051918726163384,1.4147608516577703 L4.9618812865221456,1.5076150384353282 L4.866298430428908,1.5947503249748853 L4.7655327363964375,1.6758361772885033 L4.659966443217062,1.7505650089643512 L4.549999999999999,1.8186533479473217 L4.43605054713073,1.8798429118456312 L4.318550333914626,1.933901587684403 L4.197945078907284,1.9806243123896832 L4.074692279151373,2.0198338506629203 L3.9492594747336436,2.051381467295162 L3.822122475245238,2.075147491370645 L3.693763554872933,2.0910417702195727 L3.564669622967956,2.0990040113980686 L3.4353303770320407,2.0990040113980686 L3.3062364451270643,2.0910417702195723 L3.177877524754759,2.0751474913706445 L3.0507405252663538,2.0513814672951614 L2.925307720848624,2.0198338506629194 L2.802054921092713,1.980624312389682 L2.6814496660853715,1.933901587684402 L2.563949452869268,1.8798429118456301 L2.449999999999999,1.8186533479473204 L2.340033556782937,1.7505650089643503 L2.2344672636035607,1.6758361772885029 L2.133701569571091,1.594750324974885 L2.0381187134778544,1.5076150384353282 L1.948081273836616,1.4147608516577703 L1.8639307934960927,1.3165399923776244 L1.785986484051935,1.2133250459573284 L1.714544014967811,1.1055075420424485 L1.6498743919998535,0.993496469355623 L1.5922229291790013,0.8777167242622473 L1.5418083182508537,0.7586074989930237 L1.4988217991029722,0.6366206156373944 L1.4634264343264811,0.5122188122275954 L1.435756490663807,0.38587398741480144 L1.4159169296889353,0.2580654103959038 L1.4039830096522077,0.12927790288128452 L1.4,4.920112531246601e-15 L1.4039830096522072,-0.1292779028812747 L1.415916929688934,-0.25806541039589403 L1.4357564906638052,-0.3858739874147918 L1.4634264343264785,-0.5122188122275858 L1.498821799102969,-0.6366206156373849 L1.5418083182508502,-0.7586074989930145 L1.592222929178997,-0.8777167242622385 L1.6498743919998489,-0.9934964693556143 L1.714544014967806,-1.1055075420424403 L1.7859864840519295,-1.2133250459573204 L1.8639307934960863,-1.3165399923776167 L1.9480812738366096,-1.4147608516577632 L2.0381187134778473,-1.5076150384353215 L2.133701569571085,-1.594750324974879 L2.2344672636035536,-1.675836177288497 L2.340033556782929,-1.7505650089643454 L2.4499999999999913,-1.818653347947316 L2.56394945286926,-1.8798429118456261 L2.681449666085363,-1.9339015876843983 L2.802054921092704,-1.980624312389679 L2.9253077208486147,-2.0198338506629168 L3.0507405252663435,-2.051381467295159 L3.177877524754748,-2.0751474913706427 L3.306236445127053,-2.0910417702195714 L3.435330377032029,-2.099004011398068 L3.564669622967944,-2.099004011398069 L3.69376355487292,-2.091041770219574 L3.822122475245225,-2.075147491370647 L3.9492594747336303,-2.051381467295165 L4.07469227915136,-2.0198338506629243 L4.197945078907271,-1.9806243123896878 L4.318550333914612,-1.9339015876844088 L4.436050547130716,-1.8798429118456381 L4.549999999999986,-1.8186533479473295 L4.659966443217048,-1.7505650089643603 L4.765532736396425,-1.6758361772885135 L4.866298430428895,-1.5947503249748967 L4.961881286522133,-1.5076150384353408 L5.051918726163372,-1.4147608516577836 L5.136069206503896,-1.3165399923776384 L5.2140135159480545,-1.213325045957343 L5.285455985032179,-1.1055075420424638 L5.3501256080001385,-0.9934964693556387 L5.407777070820991,-0.8777167242622637 L5.45819168174914,-0.7586074989930405 L5.501178200897023,-0.6366206156374113 L5.536573565673514,-0.5122188122276128 L5.56424350933619,-0.3858739874148191 L5.584083070311062,-0.2580654103959217 L5.596016990347792,-0.12927790288130245 L5.6,-2.2896447832085044e-14 " />
			<path d="M7.9,7.7 L7.9,-5.2 " />
			<path d="M-4.5,-3.0 L-2.5,-3.0 " />
			<path d="M-4.5,3.0 L-4.5,-3.0 " />
			<path d="M-2.5,-3.0 L-2.5,3.0 " />
			<path d="M-2.5,3.0 L-4.5,3.0 " />
			<path d="M2.5,-3.0 L4.5,-3.0 " />
			<path d="M4.5,-3.0 L4.5,3.0 " />
			<path d="M4.5,3.0 L2.5,3.0 " />
			<path d="M2.5,3.0 L2.5,-3.0 " />

       </g>

       <!-- solid lines -->
       <g  stroke="#24292f" fill="none">
			<path d="M5.4,-7.7 L-17.0,-7.7 " />
			<path d="M-17.0,7.7 L-17.0,-7.7 " />
			<path d="M5.4,-7.7 L7.9,-5.199999999999999 " />
			<path d="M7.9,-5.2 L7.9,-7.7 " />
			<path d="M7.9,-7.7 L17.0,-7.7 " />
			<path d="M17.0,-7.7 L17.0,7.7 " />
			<path d="M17.0,7.7 L-17.0,7.7 " />
			<path d="M-14.049999999999999,0.0 L-14.04601444024122,0.11286233446769754 L-14.034077616823126,0.22516239446222486 L-14.014248998399543,0.33634070673355376 L-13.986627370150046,0.4458433865223874 L-13.951350341637166,0.5531248969861701 L-13.908593661242467,0.657650767036195 L-13.858570340596945,0.7589002540456837 L-13.80152959336781,0.8563689381633589 L-13.73775559368852,0.94957123530777 L-13.667566060417547,1.0380428163227617 L-13.591310674279008,1.1213429202419727 L-13.50936933577088,1.1990565501378 L-13.422150272519838,1.2707965406152173 L-13.330088005511746,1.3362054866502966 L-13.233641184329965,1.3949575241640617 L-13.133290302186202,1.4467599534609359 L-13.029535302127492,1.4913546974439031 L-12.922893086345095,1.5285195873416246 L-12.81389494099377,1.5580694695420805 L-12.703083889350886,1.5798571280185523 L-12.591011986501764,1.5937740177524624 L-12.478237569029005,1.5997508054991978 L-12.365322473407739,1.5977577152028455 L-12.252829236964546,1.5878046763390066 L-12.141318295344805,1.5699412744466477 L-12.031345190450496,1.54425650409544 L-11.923457802758385,1.5108783255192897 L-11.818193621807055,1.4699730271248903 L-11.716077068451055,1.4217443970512438 L-11.617616882222588,1.3664327079074026 L-11.523303586816747,1.3043135197464197 L-11.433607046327138,1.2356963072390226 L-11.34897412440661,1.1609229178863723 L-11.269826458015004,1.0803658689530085 L-11.196558356845035,0.9944264916045745 L-11.129534838891235,0.9035329314961381 L-11.069089811948665,0.8081380157720747 L-11.015524410101072,0.7087169971040115 L-10.969105493486044,0.6057651860059238 L-10.930064318811214,0.4997954832220686 L-10.898595387244978,0.3913358244812776 L-10.874855475421466,0.2809265503477106 L-10.858962854387228,0.1691177142713459 L-10.850996700380835,0.056466342249360736 L-10.850996700380835,-0.05646634224936745 L-10.85896285438723,-0.16911771427135258 L-10.874855475421466,-0.2809265503477172 L-10.89859538724498,-0.3913358244812841 L-10.930064318811215,-0.499795483222075 L-10.969105493486047,-0.60576518600593 L-11.015524410101076,-0.7087169971040175 L-11.069089811948668,-0.8081380157720806 L-11.129534838891239,-0.9035329314961436 L-11.196558356845038,-0.9944264916045799 L-11.269826458015007,-1.0803658689530136 L-11.348974124406613,-1.160922917886377 L-11.433607046327142,-1.2356963072390261 L-11.523303586816752,-1.304313519746423 L-11.617616882222594,-1.366432707907406 L-11.71607706845106,-1.4217443970512464 L-11.81819362180706,-1.469973027124893 L-11.92345780275839,-1.5108783255192917 L-12.031345190450502,-1.5442565040954415 L-12.141318295344812,-1.569941274446649 L-12.252829236964553,-1.5878046763390075 L-12.365322473407748,-1.597757715202846 L-12.478237569029014,-1.5997508054991978 L-12.591011986501771,-1.5937740177524617 L-12.703083889350895,-1.579857128018551 L-12.813894940993778,-1.5580694695420785 L-12.922893086345104,-1.528519587341622 L-13.0295353021275,-1.4913546974438996 L-13.13329030218621,-1.4467599534609314 L-13.233641184329974,-1.3949575241640566 L-13.330088005511755,-1.3362054866502908 L-13.422150272519847,-1.2707965406152104 L-13.509369335770888,-1.1990565501377926 L-13.591310674279017,-1.1213429202419642 L-13.667566060417556,-1.0380428163227522 L-13.737755593688528,-0.9495712353077599 L-13.801529593367817,-0.8563689381633479 L-13.858570340596952,-0.758900254045672 L-13.908593661242472,-0.6576507670361826 L-13.951350341637172,-0.5531248969861572 L-13.98662737015005,-0.44584338652237393 L-14.014248998399545,-0.3363407067335397 L-14.03407761682313,-0.2251623944622103 L-14.046014440241223,-0.11286233446768262 L-14.049999999999999,1.5240053210995052e-14 " />
			<path d="M10.85,0.0 L10.853985559758778,0.11286233446769754 L10.865922383176873,0.22516239446222486 L10.885751001600456,0.33634070673355376 L10.913372629849952,0.4458433865223874 L10.948649658362832,0.5531248969861701 L10.991406338757532,0.657650767036195 L11.041429659403054,0.7589002540456837 L11.098470406632188,0.8563689381633589 L11.162244406311478,0.94957123530777 L11.232433939582451,1.0380428163227617 L11.30868932572099,1.1213429202419727 L11.390630664229118,1.1990565501378 L11.47784972748016,1.2707965406152173 L11.569911994488253,1.3362054866502966 L11.666358815670034,1.3949575241640617 L11.766709697813797,1.4467599534609359 L11.870464697872507,1.4913546974439031 L11.977106913654904,1.5285195873416246 L12.08610505900623,1.5580694695420805 L12.196916110649113,1.5798571280185523 L12.308988013498235,1.5937740177524624 L12.421762430970993,1.5997508054991978 L12.53467752659226,1.5977577152028455 L12.647170763035453,1.5878046763390066 L12.758681704655194,1.5699412744466477 L12.868654809549502,1.54425650409544 L12.976542197241614,1.5108783255192897 L13.081806378192944,1.4699730271248903 L13.183922931548944,1.4217443970512438 L13.28238311777741,1.3664327079074026 L13.376696413183252,1.3043135197464197 L13.46639295367286,1.2356963072390226 L13.551025875593389,1.1609229178863723 L13.630173541984995,1.0803658689530085 L13.703441643154964,0.9944264916045745 L13.770465161108763,0.9035329314961381 L13.830910188051334,0.8081380157720747 L13.884475589898926,0.7087169971040115 L13.930894506513955,0.6057651860059238 L13.969935681188785,0.4997954832220686 L14.001404612755021,0.3913358244812776 L14.025144524578533,0.2809265503477106 L14.041037145612771,0.1691177142713459 L14.049003299619164,0.056466342249360736 L14.049003299619164,-0.05646634224936745 L14.04103714561277,-0.16911771427135258 L14.025144524578533,-0.2809265503477172 L14.00140461275502,-0.3913358244812841 L13.969935681188783,-0.499795483222075 L13.930894506513951,-0.60576518600593 L13.884475589898923,-0.7087169971040175 L13.83091018805133,-0.8081380157720806 L13.77046516110876,-0.9035329314961436 L13.70344164315496,-0.9944264916045799 L13.630173541984991,-1.0803658689530136 L13.551025875593385,-1.160922917886377 L13.466392953672857,-1.2356963072390261 L13.376696413183247,-1.304313519746423 L13.282383117777405,-1.366432707907406 L13.183922931548938,-1.4217443970512464 L13.081806378192939,-1.469973027124893 L12.976542197241608,-1.5108783255192917 L12.868654809549497,-1.5442565040954415 L12.758681704655187,-1.569941274446649 L12.647170763035446,-1.5878046763390075 L12.534677526592251,-1.597757715202846 L12.421762430970984,-1.5997508054991978 L12.308988013498228,-1.5937740177524617 L12.196916110649104,-1.579857128018551 L12.08610505900622,-1.5580694695420785 L11.977106913654895,-1.528519587341622 L11.870464697872498,-1.4913546974438996 L11.766709697813788,-1.4467599534609314 L11.666358815670025,-1.3949575241640566 L11.569911994488244,-1.3362054866502908 L11.477849727480152,-1.2707965406152104 L11.39063066422911,-1.1990565501377926 L11.308689325720982,-1.1213429202419642 L11.232433939582442,-1.0380428163227522 L11.162244406311471,-0.9495712353077599 L11.098470406632181,-0.8563689381633479 L11.041429659403047,-0.758900254045672 L10.991406338757526,-0.6576507670361826 L10.948649658362827,-0.5531248969861572 L10.913372629849949,-0.44584338652237393 L10.885751001600454,-0.3363407067335397 L10.86592238317687,-0.2251623944622103 L10.853985559758776,-0.11286233446768262 L10.85,1.5240053210995052e-14 " />
			<path d="M-1.4,0.0 L-1.4039830096522072,0.12927790288127997 L-1.415916929688935,0.25806541039589964 L-1.435756490663806,0.3858739874147977 L-1.4634264343264798,0.512218812227592 L-1.4988217991029709,0.6366206156373915 L-1.5418083182508526,0.7586074989930212 L-1.5922229291790002,0.8777167242622452 L-1.6498743919998524,0.9934964693556212 L-1.7145440149678102,1.1055075420424472 L-1.7859864840519344,1.2133250459573275 L-1.8639307934960923,1.3165399923776238 L-1.9480812738366158,1.4147608516577703 L-2.0381187134778544,1.5076150384353282 L-2.133701569571092,1.5947503249748853 L-2.234467263603562,1.6758361772885033 L-2.340033556782938,1.7505650089643512 L-2.4500000000000006,1.8186533479473217 L-2.56394945286927,1.8798429118456312 L-2.681449666085374,1.933901587684403 L-2.8020549210927155,1.9806243123896832 L-2.925307720848627,2.0198338506629203 L-3.0507405252663564,2.051381467295162 L-3.177877524754762,2.075147491370645 L-3.306236445127067,2.0910417702195727 L-3.435330377032044,2.0990040113980686 L-3.5646696229679593,2.0990040113980686 L-3.6937635548729357,2.0910417702195723 L-3.822122475245241,2.0751474913706445 L-3.9492594747336462,2.0513814672951614 L-4.0746922791513756,2.0198338506629194 L-4.197945078907287,1.980624312389682 L-4.3185503339146285,1.933901587684402 L-4.436050547130732,1.8798429118456301 L-4.550000000000001,1.8186533479473204 L-4.659966443217063,1.7505650089643503 L-4.765532736396439,1.6758361772885029 L-4.866298430428909,1.594750324974885 L-4.9618812865221456,1.5076150384353282 L-5.051918726163384,1.4147608516577703 L-5.136069206503907,1.3165399923776244 L-5.214013515948065,1.2133250459573284 L-5.285455985032189,1.1055075420424485 L-5.3501256080001465,0.993496469355623 L-5.407777070820998,0.8777167242622473 L-5.458191681749146,0.7586074989930237 L-5.501178200897028,0.6366206156373944 L-5.536573565673519,0.5122188122275954 L-5.564243509336193,0.38587398741480144 L-5.584083070311065,0.2580654103959038 L-5.596016990347792,0.12927790288128452 L-5.6,4.920112531246601e-15 L-5.596016990347793,-0.1292779028812747 L-5.584083070311066,-0.25806541039589403 L-5.564243509336195,-0.3858739874147918 L-5.536573565673521,-0.5122188122275858 L-5.501178200897031,-0.6366206156373849 L-5.45819168174915,-0.7586074989930145 L-5.407777070821003,-0.8777167242622385 L-5.350125608000151,-0.9934964693556143 L-5.285455985032194,-1.1055075420424403 L-5.2140135159480705,-1.2133250459573204 L-5.1360692065039135,-1.3165399923776167 L-5.05191872616339,-1.4147608516577632 L-4.961881286522153,-1.5076150384353215 L-4.866298430428915,-1.594750324974879 L-4.765532736396446,-1.675836177288497 L-4.659966443217071,-1.7505650089643454 L-4.550000000000009,-1.818653347947316 L-4.43605054713074,-1.8798429118456261 L-4.3185503339146365,-1.9339015876843983 L-4.197945078907296,-1.980624312389679 L-4.074692279151385,-2.0198338506629168 L-3.9492594747336565,-2.051381467295159 L-3.822122475245252,-2.0751474913706427 L-3.693763554872947,-2.0910417702195714 L-3.564669622967971,-2.099004011398068 L-3.435330377032056,-2.099004011398069 L-3.30623644512708,-2.091041770219574 L-3.177877524754775,-2.075147491370647 L-3.0507405252663697,-2.051381467295165 L-2.9253077208486404,-2.0198338506629243 L-2.8020549210927292,-1.9806243123896878 L-2.681449666085388,-1.9339015876844088 L-2.5639494528692843,-1.8798429118456381 L-2.4500000000000144,-1.8186533479473295 L-2.340033556782952,-1.7505650089643603 L-2.234467263603575,-1.6758361772885135 L-2.1337015695711052,-1.5947503249748967 L-2.038118713477867,-1.5076150384353408 L-1.9480812738366282,-1.4147608516577836 L-1.8639307934961038,-1.3165399923776384 L-1.7859864840519455,-1.213325045957343 L-1.7145440149678206,-1.1055075420424638 L-1.6498743919998617,-0.9934964693556387 L-1.5922229291790087,-0.8777167242622637 L-1.5418083182508602,-0.7586074989930405 L-1.4988217991029775,-0.6366206156374113 L-1.4634264343264856,-0.5122188122276128 L-1.43575649066381,-0.3858739874148191 L-1.4159169296889376,-0.2580654103959217 L-1.4039830096522086,-0.12927790288130245 L-1.4,-2.2896447832085044e-14 " />
			<path d="M5.6,0.0 L5.596016990347793,0.12927790288127997 L5.584083070311065,0.25806541039589964 L5.564243509336194,0.3858739874147977 L5.53657356567352,0.512218812227592 L5.501178200897029,0.6366206156373915 L5.458191681749147,0.7586074989930212 L5.407777070821,0.8777167242622452 L5.350125608000147,0.9934964693556212 L5.28545598503219,1.1055075420424472 L5.214013515948066,1.2133250459573275 L5.136069206503908,1.3165399923776238 L5.051918726163384,1.4147608516577703 L4.9618812865221456,1.5076150384353282 L4.866298430428908,1.5947503249748853 L4.7655327363964375,1.6758361772885033 L4.659966443217062,1.7505650089643512 L4.549999999999999,1.8186533479473217 L4.43605054713073,1.8798429118456312 L4.318550333914626,1.933901587684403 L4.197945078907284,1.9806243123896832 L4.074692279151373,2.0198338506629203 L3.9492594747336436,2.051381467295162 L3.822122475245238,2.075147491370645 L3.693763554872933,2.0910417702195727 L3.564669622967956,2.0990040113980686 L3.4353303770320407,2.0990040113980686 L3.3062364451270643,2.0910417702195723 L3.177877524754759,2.0751474913706445 L3.0507405252663538,2.0513814672951614 L2.925307720848624,2.0198338506629194 L2.802054921092713,1.980624312389682 L2.6814496660853715,1.933901587684402 L2.563949452869268,1.8798429118456301 L2.449999999999999,1.8186533479473204 L2.340033556782937,1.7505650089643503 L2.2344672636035607,1.6758361772885029 L2.133701569571091,1.594750324974885 L2.0381187134778544,1.5076150384353282 L1.948081273836616,1.4147608516577703 L1.8639307934960927,1.3165399923776244 L1.785986484051935,1.2133250459573284 L1.714544014967811,1.1055075420424485 L1.6498743919998535,0.993496469355623 L1.5922229291790013,0.8777167242622473 L1.5418083182508537,0.7586074989930237 L1.4988217991029722,0.6366206156373944 L1.4634264343264811,0.5122188122275954 L1.435756490663807,0.38587398741480144 L1.4159169296889353,0.2580654103959038 L1.4039830096522077,0.12927790288128452 L1.4,4.920112531246601e-15 L1.4039830096522072,-0.1292779028812747 L1.415916929688934,-0.25806541039589403 L1.4357564906638052,-0.3858739874147918 L1.4634264343264785,-0.5122188122275858 L1.498821799102969,-0.6366206156373849 L1.5418083182508502,-0.7586074989930145 L1.592222929178997,-0.8777167242622385 L1.6498743919998489,-0.9934964693556143 L1.714544014967806,-1.1055075420424403 L1.7859864840519295,-1.2133250459573204 L1.8639307934960863,-1.3165399923776167 L1.9480812738366096,-1.4147608516577632 L2.0381187134778473,-1.5076150384353215 L2.133701569571085,-1.594750324974879 L2.2344672636035536,-1.675836177288497 L2.340033556782929,-1.7505650089643454 L2.4499999999999913,-1.818653347947316 L2.56394945286926,-1.8798429118456261 L2.681449666085363,-1.9339015876843983 L2.802054921092704,-1.980624312389679 L2.9253077208486147,-2.0198338506629168 L3.0507405252663435,-2.051381467295159 L3.177877524754748,-2.0751474913706427 L3.306236445127053,-2.0910417702195714 L3.435330377032029,-2.099004011398068 L3.564669622967944,-2.099004011398069 L3.69376355487292,-2.091041770219574 L3.822122475245225,-2.075147491370647 L3.9492594747336303,-2.051381467295165 L4.07469227915136,-2.0198338506629243 L4.197945078907271,-1.9806243123896878 L4.318550333914612,-1.9339015876844088 L4.436050547130716,-1.8798429118456381 L4.549999999999986,-1.8186533479473295 L4.659966443217048,-1.7505650089643603 L4.765532736396425,-1.6758361772885135 L4.866298430428895,-1.5947503249748967 L4.961881286522133,-1.5076150384353408 L5.051918726163372,-1.4147608516577836 L5.136069206503896,-1.3165399923776384 L5.2140135159480545,-1.213325045957343 L5.285455985032179,-1.1055075420424638 L5.3501256080001385,-0.9934964693556387 L5.407777070820991,-0.8777167242622637 L5.45819168174914,-0.7586074989930405 L5.501178200897023,-0.6366206156374113 L5.536573565673514,-0.5122188122276128 L5.56424350933619,-0.3858739874148191 L5.584083070311062,-0.2580654103959217 L5.596016990347792,-0.12927790288130245 L5.6,-2.2896447832085044e-14 " />

       </g>
    </g>
    
</svg>
